*
*
G04 PADS 9.5 Build Number: 522968 generated Gerber (RS-274-X) file*
G04 PC Version=2.1*
*
%IN "ECG_COPPER_backup.pcb"*%
*
%MOIN*%
*
%FSLAX35Y35*%
*
*
*
*
G04 PC Standard Apertures*
*
*
G04 Thermal Relief Aperture macro.*
%AMTER*
1,1,$1,0,0*
1,0,$1-$2,0,0*
21,0,$3,$4,0,0,45*
21,0,$3,$4,0,0,135*
%
*
*
G04 Annular Aperture macro.*
%AMANN*
1,1,$1,0,0*
1,0,$2,0,0*
%
*
*
G04 Odd Aperture macro.*
%AMODD*
1,1,$1,0,0*
1,0,$1-0.005,0,0*
%
*
*
G04 PC Custom Aperture Macros*
*
*
*
*
*
*
G04 PC Aperture Table*
*
%ADD010C,0.001*%
%ADD011R,0.06X0.06*%
%ADD012C,0.06*%
%ADD013C,0.19685*%
%ADD014C,0.11024*%
%ADD015C,0.03937*%
%ADD016R,0.11024X0.11024*%
%ADD017C,0.05512*%
%ADD018C,0.01*%
%ADD019C,0.02165*%
%ADD020C,0.012*%
%ADD021C,0.055*%
%ADD022C,0.01575*%
%ADD023C,0.015*%
*
*
*
*
G04 PC Circuitry*
G04 Layer Name ECG_COPPER_backup.pcb - circuitry*
%LPD*%
*
*
G04 PC Custom Flashes*
G04 Layer Name ECG_COPPER_backup.pcb - flashes*
%LPD*%
*
*
G04 PC Circuitry*
G04 Layer Name ECG_COPPER_backup.pcb - circuitry*
%LPD*%
*
G54D10*
G54D11*
G01X890626Y654724D03*
X870626Y404646D03*
X672513Y603719D03*
X467711Y506189D03*
Y594984D03*
X757070Y583249D03*
X607070Y425218D03*
X1077987Y534370D03*
X971526Y532782D03*
G54D12*
X880626Y654724D03*
X870626D03*
X860626D03*
X850626D03*
X840626D03*
X830626D03*
X820626D03*
X810626D03*
X860626Y404646D03*
X850626D03*
X840626D03*
X830626D03*
X672383Y652697D03*
X682383D03*
X682513Y603719D03*
X692513D03*
X702513D03*
X712513D03*
X722513D03*
X732513D03*
X742513D03*
X752513D03*
X762513D03*
Y633719D03*
X752513D03*
X742513D03*
X732513D03*
X722513D03*
X712513D03*
X702513D03*
X692513D03*
X682513D03*
X672513D03*
X657283Y604055D03*
Y644055D03*
X467711Y496189D03*
Y486189D03*
Y476189D03*
Y466189D03*
Y456189D03*
Y446189D03*
X497711D03*
Y456189D03*
Y466189D03*
Y476189D03*
Y486189D03*
Y496189D03*
Y506189D03*
X467711Y584984D03*
Y574984D03*
Y564984D03*
Y554984D03*
Y544984D03*
Y534984D03*
X497711D03*
Y544984D03*
Y554984D03*
Y564984D03*
Y574984D03*
Y584984D03*
Y594984D03*
X454134Y513268D03*
Y553268D03*
X437874Y509685D03*
Y520591D03*
Y531496D03*
Y542402D03*
Y553307D03*
X426693Y515138D03*
Y526043D03*
Y536949D03*
Y547854D03*
X559503Y559388D03*
X519503D03*
X519488Y535157D03*
X559488D03*
X519503Y547075D03*
X559503D03*
X524409Y609432D03*
X564409D03*
X564167Y594837D03*
X524167D03*
X519606Y583307D03*
Y573307D03*
X507795Y660686D03*
X467795D03*
X507795Y648092D03*
X467795D03*
X507795Y635476D03*
X467795D03*
Y623059D03*
X507795D03*
Y610551D03*
X467795D03*
X574724Y547008D03*
Y587008D03*
X547192Y502206D03*
X537192D03*
X467717Y429331D03*
X507717D03*
X467717Y416299D03*
X507717D03*
X537323Y440197D03*
Y480197D03*
X524940Y440168D03*
Y480168D03*
X588504Y481063D03*
Y521063D03*
X454173Y419173D03*
Y459173D03*
X441142D03*
Y419173D03*
X507717Y402480D03*
X467717D03*
X757070Y572856D03*
X747070Y583249D03*
Y572856D03*
X737070Y583249D03*
Y572856D03*
X727070Y583249D03*
Y572856D03*
X717070Y583249D03*
Y572856D03*
X707070Y583249D03*
Y572856D03*
X697070Y583249D03*
Y572856D03*
X687070Y583249D03*
Y572856D03*
X677070Y583249D03*
Y572856D03*
X667070Y583249D03*
Y572856D03*
X657070Y583249D03*
Y572856D03*
X647070Y583249D03*
Y572856D03*
X637070Y583249D03*
Y572856D03*
X627070Y583249D03*
Y572856D03*
X617070Y583249D03*
Y572856D03*
X607070Y583249D03*
Y572856D03*
Y435218D03*
X617070Y425218D03*
Y435218D03*
X627070Y425218D03*
Y435218D03*
X637070Y425218D03*
Y435218D03*
X647070Y425218D03*
Y435218D03*
X657070Y425218D03*
Y435218D03*
X667070Y425218D03*
Y435218D03*
X677070Y425218D03*
Y435218D03*
X687070Y425218D03*
Y435218D03*
X697070Y425218D03*
Y435218D03*
X707070Y425218D03*
Y435218D03*
X717070Y425218D03*
Y435218D03*
X727070Y425218D03*
Y435218D03*
X737070Y425218D03*
Y435218D03*
X747070Y425218D03*
Y435218D03*
X757070Y425218D03*
Y435218D03*
X1043458Y444832D03*
Y434832D03*
X1042841Y500000D03*
X1052841D03*
X1077987Y519248D03*
Y479248D03*
Y544370D03*
X961526Y532782D03*
X951526D03*
X941526D03*
Y502782D03*
X951526D03*
X961526D03*
X971526D03*
X956457Y552323D03*
X946457D03*
X951492Y476378D03*
X941492D03*
X1042953Y559055D03*
X1052953D03*
X1046181Y626850D03*
X1056181D03*
G54D13*
X432283Y581102D03*
Y481890D03*
X409449Y653543D03*
X1086614Y409449D03*
Y653543D03*
X409449Y409449D03*
G54D14*
X524294Y625286D03*
X541417Y573268D03*
X552008Y480157D03*
X1081692Y437008D03*
X747047Y408189D03*
G54D15*
X575906Y495079D03*
Y489567D03*
Y484055D03*
G54D16*
X1081692Y456693D03*
G54D17*
X1045457Y459688D02*
Y459199D01*
X1041126*
Y459688*
X1045457*
X1044094Y459199D02*
Y459688D01*
X1045457Y469688D02*
Y469199D01*
X1041126*
Y469688*
X1045457*
X1044094Y469199D02*
Y469688D01*
X1045457Y479688D02*
Y479199D01*
X1041126*
Y479688*
X1045457*
X1044094Y479199D02*
Y479688D01*
X1045028Y581673D02*
Y581185D01*
X1040697*
Y581673*
X1045028*
X1044094Y581185D02*
Y581673D01*
X1045028Y591673D02*
Y591185D01*
X1040697*
Y591673*
X1045028*
X1044094Y591185D02*
Y591673D01*
X1045028Y601673D02*
Y601185D01*
X1040697*
Y601673*
X1045028*
X1044094Y601185D02*
Y601673D01*
G54D18*
X1019760Y483213D02*
Y455674D01*
X1018084Y453999*
X971254*
X969579Y455674*
Y483213*
X971254Y484888*
X1018084*
X1019760Y483213*
X970552Y454701D02*
X1018786D01*
X969579Y455701D02*
X1019760D01*
X969579Y456701D02*
X1019760D01*
X969579Y457701D02*
X1019760D01*
X969579Y458701D02*
X1019760D01*
X969579Y459701D02*
X1019760D01*
X969579Y460701D02*
X1019760D01*
X969579Y461701D02*
X1019760D01*
X969579Y462701D02*
X1019760D01*
X969579Y463701D02*
X1019760D01*
X969579Y464701D02*
X1019760D01*
X969579Y465701D02*
X1019760D01*
X969579Y466701D02*
X1019760D01*
X969579Y467701D02*
X1019760D01*
X969579Y468701D02*
X1019760D01*
X969579Y469701D02*
X1019760D01*
X969579Y470701D02*
X1019760D01*
X969579Y471701D02*
X1019760D01*
X969579Y472701D02*
X1019760D01*
X969579Y473701D02*
X1019760D01*
X969579Y474701D02*
X1019760D01*
X969579Y475701D02*
X1019760D01*
X969579Y476701D02*
X1019760D01*
X969579Y477701D02*
X1019760D01*
X969579Y478701D02*
X1019760D01*
X969579Y479701D02*
X1019760D01*
X969579Y480701D02*
X1019760D01*
X969579Y481701D02*
X1019760D01*
X969579Y482701D02*
X1019760D01*
X970067Y483701D02*
X1019272D01*
X971067Y484701D02*
X1018272D01*
X969701Y455552D02*
Y483335D01*
X970701Y454552D02*
Y484335D01*
X971701Y453999D02*
Y484888D01*
X972701Y453999D02*
Y484888D01*
X973701Y453999D02*
Y484888D01*
X974701Y453999D02*
Y484888D01*
X975701Y453999D02*
Y484888D01*
X976701Y453999D02*
Y484888D01*
X977701Y453999D02*
Y484888D01*
X978701Y453999D02*
Y484888D01*
X979701Y453999D02*
Y484888D01*
X980701Y453999D02*
Y484888D01*
X981701Y453999D02*
Y484888D01*
X982701Y453999D02*
Y484888D01*
X983701Y453999D02*
Y484888D01*
X984701Y453999D02*
Y484888D01*
X985701Y453999D02*
Y484888D01*
X986701Y453999D02*
Y484888D01*
X987701Y453999D02*
Y484888D01*
X988701Y453999D02*
Y484888D01*
X989701Y453999D02*
Y484888D01*
X990701Y453999D02*
Y484888D01*
X991701Y453999D02*
Y484888D01*
X992701Y453999D02*
Y484888D01*
X993701Y453999D02*
Y484888D01*
X994701Y453999D02*
Y484888D01*
X995701Y453999D02*
Y484888D01*
X996701Y453999D02*
Y484888D01*
X997701Y453999D02*
Y484888D01*
X998701Y453999D02*
Y484888D01*
X999701Y453999D02*
Y484888D01*
X1000701Y453999D02*
Y484888D01*
X1001701Y453999D02*
Y484888D01*
X1002701Y453999D02*
Y484888D01*
X1003701Y453999D02*
Y484888D01*
X1004701Y453999D02*
Y484888D01*
X1005701Y453999D02*
Y484888D01*
X1006701Y453999D02*
Y484888D01*
X1007701Y453999D02*
Y484888D01*
X1008701Y453999D02*
Y484888D01*
X1009701Y453999D02*
Y484888D01*
X1010701Y453999D02*
Y484888D01*
X1011701Y453999D02*
Y484888D01*
X1012701Y453999D02*
Y484888D01*
X1013701Y453999D02*
Y484888D01*
X1014701Y453999D02*
Y484888D01*
X1015701Y453999D02*
Y484888D01*
X1016701Y453999D02*
Y484888D01*
X1017701Y453999D02*
Y484888D01*
X1018701Y454615D02*
Y484272D01*
X1019701Y455615D02*
Y483272D01*
X1017756Y608939D02*
Y573920D01*
X1016080Y572244*
X961376*
X959701Y573920*
Y608939*
X961376Y610614*
X1016080*
X1017756Y608939*
X960920Y572701D02*
X1016537D01*
X959920Y573701D02*
X1017537D01*
X959701Y574701D02*
X1017756D01*
X959701Y575701D02*
X1017756D01*
X959701Y576701D02*
X1017756D01*
X959701Y577701D02*
X1017756D01*
X959701Y578701D02*
X1017756D01*
X959701Y579701D02*
X1017756D01*
X959701Y580701D02*
X1017756D01*
X959701Y581701D02*
X1017756D01*
X959701Y582701D02*
X1017756D01*
X959701Y583701D02*
X1017756D01*
X959701Y584701D02*
X1017756D01*
X959701Y585701D02*
X1017756D01*
X959701Y586701D02*
X1017756D01*
X959701Y587701D02*
X1017756D01*
X959701Y588701D02*
X1017756D01*
X959701Y589701D02*
X1017756D01*
X959701Y590701D02*
X1017756D01*
X959701Y591701D02*
X1017756D01*
X959701Y592701D02*
X1017756D01*
X959701Y593701D02*
X1017756D01*
X959701Y594701D02*
X1017756D01*
X959701Y595701D02*
X1017756D01*
X959701Y596701D02*
X1017756D01*
X959701Y597701D02*
X1017756D01*
X959701Y598701D02*
X1017756D01*
X959701Y599701D02*
X1017756D01*
X959701Y600701D02*
X1017756D01*
X959701Y601701D02*
X1017756D01*
X959701Y602701D02*
X1017756D01*
X959701Y603701D02*
X1017756D01*
X959701Y604701D02*
X1017756D01*
X959701Y605701D02*
X1017756D01*
X959701Y606701D02*
X1017756D01*
X959701Y607701D02*
X1017756D01*
X959701Y608701D02*
X1017756D01*
X960463Y609701D02*
X1016994D01*
X959701Y573920D02*
Y608939D01*
X960701Y572920D02*
Y609939D01*
X961701Y572244D02*
Y610614D01*
X962701Y572244D02*
Y610614D01*
X963701Y572244D02*
Y610614D01*
X964701Y572244D02*
Y610614D01*
X965701Y572244D02*
Y610614D01*
X966701Y572244D02*
Y610614D01*
X967701Y572244D02*
Y610614D01*
X968701Y572244D02*
Y610614D01*
X969701Y572244D02*
Y610614D01*
X970701Y572244D02*
Y610614D01*
X971701Y572244D02*
Y610614D01*
X972701Y572244D02*
Y610614D01*
X973701Y572244D02*
Y610614D01*
X974701Y572244D02*
Y610614D01*
X975701Y572244D02*
Y610614D01*
X976701Y572244D02*
Y610614D01*
X977701Y572244D02*
Y610614D01*
X978701Y572244D02*
Y610614D01*
X979701Y572244D02*
Y610614D01*
X980701Y572244D02*
Y610614D01*
X981701Y572244D02*
Y610614D01*
X982701Y572244D02*
Y610614D01*
X983701Y572244D02*
Y610614D01*
X984701Y572244D02*
Y610614D01*
X985701Y572244D02*
Y610614D01*
X986701Y572244D02*
Y610614D01*
X987701Y572244D02*
Y610614D01*
X988701Y572244D02*
Y610614D01*
X989701Y572244D02*
Y610614D01*
X990701Y572244D02*
Y610614D01*
X991701Y572244D02*
Y610614D01*
X992701Y572244D02*
Y610614D01*
X993701Y572244D02*
Y610614D01*
X994701Y572244D02*
Y610614D01*
X995701Y572244D02*
Y610614D01*
X996701Y572244D02*
Y610614D01*
X997701Y572244D02*
Y610614D01*
X998701Y572244D02*
Y610614D01*
X999701Y572244D02*
Y610614D01*
X1000701Y572244D02*
Y610614D01*
X1001701Y572244D02*
Y610614D01*
X1002701Y572244D02*
Y610614D01*
X1003701Y572244D02*
Y610614D01*
X1004701Y572244D02*
Y610614D01*
X1005701Y572244D02*
Y610614D01*
X1006701Y572244D02*
Y610614D01*
X1007701Y572244D02*
Y610614D01*
X1008701Y572244D02*
Y610614D01*
X1009701Y572244D02*
Y610614D01*
X1010701Y572244D02*
Y610614D01*
X1011701Y572244D02*
Y610614D01*
X1012701Y572244D02*
Y610614D01*
X1013701Y572244D02*
Y610614D01*
X1014701Y572244D02*
Y610614D01*
X1015701Y572244D02*
Y610614D01*
X1016701Y572865D02*
Y609994D01*
X1017701Y573865D02*
Y608994D01*
X1047558Y444832D02*
G75*
G03X1047558I-4100J0D01*
G01X945592Y476378D02*
G03X945592I-4100J0D01*
G01X945626Y502782D02*
G03X945626I-4100J0D01*
G01X501811Y476189D02*
G03X501811I-4100J0D01*
G01X1050281Y626850D02*
G03X1050281I-4100J0D01*
G01X676613Y633719D02*
G03X676613I-4100J0D01*
G01X676483Y652697D02*
G03X676483I-4100J0D01*
G01X661383Y644055D02*
G03X661383I-4100J0D01*
G01X1088303Y437008D02*
G03X1088303I-6611J0D01*
G01X1082087Y479248D02*
G03X1082087I-4100J0D01*
G01Y544370D02*
G03X1082087I-4100J0D01*
G01X1056941Y500000D02*
G03X1056941I-4100J0D01*
G01X1057053Y559055D02*
G03X1057053I-4100J0D01*
G01X1046941Y500000D02*
G03X1046941I-4100J0D01*
G01X1047053Y559055D02*
G03X1047053I-4100J0D01*
G01X975626Y502782D02*
G03X975626I-4100J0D01*
G01X965626D02*
G03X965626I-4100J0D01*
G01X761170Y572856D02*
G03X761170I-4100J0D01*
G01X766613Y603719D02*
G03X766613I-4100J0D01*
G01X751170Y572856D02*
G03X751170I-4100J0D01*
G01Y583249D02*
G03X751170I-4100J0D01*
G01X756613Y603719D02*
G03X756613I-4100J0D01*
G01X741170Y572856D02*
G03X741170I-4100J0D01*
G01Y583249D02*
G03X741170I-4100J0D01*
G01X746613Y603719D02*
G03X746613I-4100J0D01*
G01X731170Y572856D02*
G03X731170I-4100J0D01*
G01Y583249D02*
G03X731170I-4100J0D01*
G01X824726Y654724D02*
G03X824726I-4100J0D01*
G01X671170Y572856D02*
G03X671170I-4100J0D01*
G01Y583249D02*
G03X671170I-4100J0D01*
G01X661170Y572856D02*
G03X661170I-4100J0D01*
G01Y583249D02*
G03X661170I-4100J0D01*
G01X661383Y604055D02*
G03X661383I-4100J0D01*
G01X651170Y572856D02*
G03X651170I-4100J0D01*
G01Y583249D02*
G03X651170I-4100J0D01*
G01X641170Y572856D02*
G03X641170I-4100J0D01*
G01Y583249D02*
G03X641170I-4100J0D01*
G01X631170Y572856D02*
G03X631170I-4100J0D01*
G01Y583249D02*
G03X631170I-4100J0D01*
G01X621170Y572856D02*
G03X621170I-4100J0D01*
G01Y583249D02*
G03X621170I-4100J0D01*
G01X611170Y572856D02*
G03X611170I-4100J0D01*
G01Y583249D02*
G03X611170I-4100J0D01*
G01X592604Y481063D02*
G03X592604I-4100J0D01*
G01Y521063D02*
G03X592604I-4100J0D01*
G01X578824Y547008D02*
G03X578824I-4100J0D01*
G01Y587008D02*
G03X578824I-4100J0D01*
G01X558620Y480157D02*
G03X558620I-6612J0D01*
G01X563603Y559388D02*
G03X563603I-4100J0D01*
G01X568267Y594837D02*
G03X568267I-4100J0D01*
G01X568509Y609432D02*
G03X568509I-4100J0D01*
G01X548029Y573268D02*
G03X548029I-6612J0D01*
G01X523603Y547075D02*
G03X523603I-4100J0D01*
G01X511895Y635476D02*
G03X511895I-4100J0D01*
G01Y660686D02*
G03X511895I-4100J0D01*
G01X443226Y481890D02*
G03X443226I-10943J0D01*
G01X441974Y509685D02*
G03X441974I-4100J0D01*
G01Y520591D02*
G03X441974I-4100J0D01*
G01Y542402D02*
G03X441974I-4100J0D01*
G01Y553307D02*
G03X441974I-4100J0D01*
G01X430793Y515138D02*
G03X430793I-4100J0D01*
G01Y526043D02*
G03X430793I-4100J0D01*
G01Y536949D02*
G03X430793I-4100J0D01*
G01Y547854D02*
G03X430793I-4100J0D01*
G01X443226Y581102D02*
G03X443226I-10943J0D01*
G01X471811Y466189D02*
G03X471811I-4100J0D01*
G01Y476189D02*
G03X471811I-4100J0D01*
G01Y486189D02*
G03X471811I-4100J0D01*
G01X445242Y419173D02*
G03X445242I-4100J0D01*
G01X501811Y446189D02*
G03X501811I-4100J0D01*
G01Y456189D02*
G03X501811I-4100J0D01*
G01Y534984D02*
G03X501811I-4100J0D01*
G01Y544984D02*
G03X501811I-4100J0D01*
G01Y554984D02*
G03X501811I-4100J0D01*
G01X864726Y404646D02*
G03X864726I-4100J0D01*
G01X854726D02*
G03X854726I-4100J0D01*
G01X844726D02*
G03X844726I-4100J0D01*
G01X834726D02*
G03X834726I-4100J0D01*
G01X761170Y425218D02*
G03X761170I-4100J0D01*
G01Y435218D02*
G03X761170I-4100J0D01*
G01X751170D02*
G03X751170I-4100J0D01*
G01X741170Y425218D02*
G03X741170I-4100J0D01*
G01Y435218D02*
G03X741170I-4100J0D01*
G01X731170Y425218D02*
G03X731170I-4100J0D01*
G01Y435218D02*
G03X731170I-4100J0D01*
G01X721170Y425218D02*
G03X721170I-4100J0D01*
G01Y435218D02*
G03X721170I-4100J0D01*
G01X711170Y425218D02*
G03X711170I-4100J0D01*
G01Y435218D02*
G03X711170I-4100J0D01*
G01X701170Y425218D02*
G03X701170I-4100J0D01*
G01Y435218D02*
G03X701170I-4100J0D01*
G01X691170Y425218D02*
G03X691170I-4100J0D01*
G01Y435218D02*
G03X691170I-4100J0D01*
G01X681170Y425218D02*
G03X681170I-4100J0D01*
G01Y435218D02*
G03X681170I-4100J0D01*
G01X671170Y425218D02*
G03X671170I-4100J0D01*
G01Y435218D02*
G03X671170I-4100J0D01*
G01X661170Y425218D02*
G03X661170I-4100J0D01*
G01Y435218D02*
G03X661170I-4100J0D01*
G01X651170Y425218D02*
G03X651170I-4100J0D01*
G01Y435218D02*
G03X651170I-4100J0D01*
G01X641170Y425218D02*
G03X641170I-4100J0D01*
G01Y435218D02*
G03X641170I-4100J0D01*
G01X631170Y425218D02*
G03X631170I-4100J0D01*
G01Y435218D02*
G03X631170I-4100J0D01*
G01X621170Y425218D02*
G03X621170I-4100J0D01*
G01Y435218D02*
G03X621170I-4100J0D01*
G01X611170D02*
G03X611170I-4100J0D01*
G01X541423Y440197D02*
G03X541423I-4100J0D01*
G01X529040Y440168D02*
G03X529040I-4100J0D01*
G01X511817Y416299D02*
G03X511817I-4100J0D01*
G01Y429331D02*
G03X511817I-4100J0D01*
G01X955626Y532782D02*
G03X955626I-4100J0D01*
G01X1101262Y446091D02*
Y463988D01*
X1033925*
Y440067*
X1052851*
X1062654Y446091*
X1101262*
X938188Y451996D02*
X946271Y459586D01*
X946083Y508933*
X944407Y510602*
X935128*
X931484Y506958*
Y475974*
X923317Y467807*
X521446*
X517217Y472037*
Y477706*
X513572Y481350*
X493927*
X491665Y483612*
Y558672*
X493927Y560933*
X497078*
X498344D02*
G03X497078I-633J4051D01*
G01X498344D02*
X502295D01*
Y569894*
X487687*
X484043Y566250*
Y475443*
X487687Y471799*
X501703*
X505933Y467569*
Y459577*
X513514Y451996*
X938188*
X1050563Y596917D02*
Y660226D01*
X1042982Y667807*
X660246*
X652665Y660226*
Y636782*
X660246Y629201*
X677020*
Y656506*
X681250Y660736*
X885697*
Y649673*
X898195*
X907644Y660736*
X1019459*
X1031563Y648632*
Y596917*
X1050563*
X1101232Y465588D02*
Y637295D01*
X1070866*
X1070366Y637795D02*
G03X1070866Y637295I500J0D01*
G01X1070366Y637795D02*
Y668191D01*
X1044860*
X1051694Y661357*
X1052163Y660226D02*
G03X1051694Y661357I-1600J-0D01*
G01X1052163Y660226D02*
Y627666D01*
Y626035D02*
G03Y627666I4018J815D01*
G01Y626035D02*
Y596917D01*
X1050563Y595317D02*
G03X1052163Y596917I-0J1600D01*
G01X1050563Y595317D02*
X1046288D01*
X1048883Y591673D02*
G03X1046288Y595317I-3855J0D01*
G01X1048883Y591673D02*
Y591185D01*
X1045028Y587329D02*
G03X1048883Y591185I-0J3856D01*
G01X1045028Y587329D02*
X1040697D01*
X1036841Y591185D02*
G03X1040697Y587329I3856J0D01*
G01X1036841Y591185D02*
Y591673D01*
X1039436Y595317D02*
G03X1036841Y591673I1261J-3644D01*
G01X1039436Y595317D02*
X1031563D01*
X1029963Y596917D02*
G03X1031563Y595317I1600J0D01*
G01X1029963Y596917D02*
Y647970D01*
X1018796Y659136*
X908381*
X899411Y648634*
X898195Y648073D02*
G03X899411Y648634I-0J1600D01*
G01X898195Y648073D02*
X885697D01*
X884097Y649673D02*
G03X885697Y648073I1600J0D01*
G01X884097Y649673D02*
Y652542D01*
Y656907D02*
G03Y652542I-3471J-2183D01*
G01Y656907D02*
Y659136D01*
X681912*
X678620Y655844*
Y654324*
Y651070D02*
G03Y654324I3763J1627D01*
G01Y651070D02*
Y635004D01*
Y632434D02*
G03Y635004I3893J1285D01*
G01Y632434D02*
Y629201D01*
X677020Y627601D02*
G03X678620Y629201I-0J1600D01*
G01X677020Y627601D02*
X660246D01*
X659115Y628069D02*
G03X660246Y627601I1131J1132D01*
G01X659115Y628069D02*
X651534Y635651D01*
X651065Y636782D02*
G03X651534Y635651I1600J-0D01*
G01X651065Y636782D02*
Y660226D01*
X651534Y661357D02*
G03X651065Y660226I1131J-1131D01*
G01X651534Y661357D02*
X658368Y668191D01*
X425697*
Y637795*
X425197Y637295D02*
G03X425697Y637795I-0J500D01*
G01X425197Y637295D02*
X394801D01*
Y425697*
X425197*
X425697Y425197D02*
G03X425197Y425697I-500J-0D01*
G01X425697Y425197D02*
Y394801D01*
X1070366*
Y425197*
X1070866Y425697D02*
G03X1070366Y425197I0J-500D01*
G01X1070866Y425697D02*
X1101232D01*
Y444491*
X1063106*
X1053688Y438704*
X1052851Y438467D02*
G03X1053688Y438704I-0J1600D01*
G01X1052851Y438467D02*
X1045355D01*
X1041561D02*
G03X1045355I1897J-3635D01*
G01X1041561D02*
X1033925D01*
X1032325Y440067D02*
G03X1033925Y438467I1600J-0D01*
G01X1032325Y440067D02*
Y463988D01*
X1033925Y465588D02*
G03X1032325Y463988I0J-1600D01*
G01X1033925Y465588D02*
X1039774D01*
X1037270Y469199D02*
G03X1039774Y465588I3856J0D01*
G01X1037270Y469199D02*
Y469688D01*
X1041126Y473544D02*
G03X1037270Y469688I-0J-3856D01*
G01X1041126Y473544D02*
X1045457D01*
X1049313Y469688D02*
G03X1045457Y473544I-3856J-0D01*
G01X1049313Y469688D02*
Y469199D01*
X1046808Y465588D02*
G03X1049313Y469199I-1351J3611D01*
G01X1046808Y465588D02*
X1101232D01*
X1088303Y462205D02*
Y451181D01*
X1087203Y450081D02*
G03X1088303Y451181I0J1100D01*
G01X1087203Y450081D02*
X1076180D01*
X1075080Y451181D02*
G03X1076180Y450081I1100J0D01*
G01X1075080Y451181D02*
Y462205D01*
X1076180Y463305D02*
G03X1075080Y462205I-0J-1100D01*
G01X1076180Y463305D02*
X1087203D01*
X1088303Y462205D02*
G03X1087203Y463305I-1100J-0D01*
G01X1047558Y444832D02*
G03X1047558I-4100J0D01*
G01X1049313Y459688D02*
Y459199D01*
X1045457Y455344D02*
G03X1049313Y459199I-0J3855D01*
G01X1045457Y455344D02*
X1041126D01*
X1037270Y459199D02*
G03X1041126Y455344I3856J0D01*
G01X1037270Y459199D02*
Y459688D01*
X1041126Y463544D02*
G03X1037270Y459688I-0J-3856D01*
G01X1041126Y463544D02*
X1045457D01*
X1049313Y459688D02*
G03X1045457Y463544I-3856J-0D01*
G01X945592Y476378D02*
G03X945592I-4100J0D01*
G01X945626Y502782D02*
G03X945626I-4100J0D01*
G01X501811Y476189D02*
G03X501811I-4100J0D01*
G01X1048883Y601673D02*
Y601185D01*
X1045028Y597329D02*
G03X1048883Y601185I-0J3856D01*
G01X1045028Y597329D02*
X1040697D01*
X1036841Y601185D02*
G03X1040697Y597329I3856J0D01*
G01X1036841Y601185D02*
Y601673D01*
X1040697Y605529D02*
G03X1036841Y601673I-0J-3856D01*
G01X1040697Y605529D02*
X1045028D01*
X1048883Y601673D02*
G03X1045028Y605529I-3855J0D01*
G01X1050281Y626850D02*
G03X1050281I-4100J0D01*
G01X894726Y657724D02*
Y651724D01*
X893626Y650624D02*
G03X894726Y651724I-0J1100D01*
G01X893626Y650624D02*
X887626D01*
X886526Y651724D02*
G03X887626Y650624I1100J0D01*
G01X886526Y651724D02*
Y657724D01*
X887626Y658824D02*
G03X886526Y657724I-0J-1100D01*
G01X887626Y658824D02*
X893626D01*
X894726Y657724D02*
G03X893626Y658824I-1100J0D01*
G01X676613Y633719D02*
G03X676613I-4100J0D01*
G01X676483Y652697D02*
G03X676483I-4100J0D01*
G01X661383Y644055D02*
G03X661383I-4100J0D01*
G01X1088303Y437008D02*
G03X1088303I-6611J0D01*
G01X1082087Y479248D02*
G03X1082087I-4100J0D01*
G01Y537370D02*
Y531370D01*
X1080987Y530270D02*
G03X1082087Y531370I-0J1100D01*
G01X1080987Y530270D02*
X1079687D01*
Y522979*
X1076287D02*
G03X1079687I1700J-3731D01*
G01X1076287D02*
Y530270D01*
X1074987*
X1073887Y531370D02*
G03X1074987Y530270I1100J0D01*
G01X1073887Y531370D02*
Y537370D01*
X1074987Y538470D02*
G03X1073887Y537370I-0J-1100D01*
G01X1074987Y538470D02*
X1080987D01*
X1082087Y537370D02*
G03X1080987Y538470I-1100J0D01*
G01X1082087Y544370D02*
G03X1082087I-4100J0D01*
G01X1049313Y479688D02*
Y479199D01*
X1045457Y475344D02*
G03X1049313Y479199I-0J3855D01*
G01X1045457Y475344D02*
X1041126D01*
X1037270Y479199D02*
G03X1041126Y475344I3856J0D01*
G01X1037270Y479199D02*
Y479688D01*
X1041126Y483544D02*
G03X1037270Y479688I-0J-3856D01*
G01X1041126Y483544D02*
X1045457D01*
X1049313Y479688D02*
G03X1045457Y483544I-3856J-0D01*
G01X1056941Y500000D02*
G03X1056941I-4100J0D01*
G01X1057053Y559055D02*
G03X1057053I-4100J0D01*
G01X1046941Y500000D02*
G03X1046941I-4100J0D01*
G01X1047053Y559055D02*
G03X1047053I-4100J0D01*
G01X1048883Y581673D02*
Y581185D01*
X1045028Y577329D02*
G03X1048883Y581185I-0J3856D01*
G01X1045028Y577329D02*
X1040697D01*
X1036841Y581185D02*
G03X1040697Y577329I3856J0D01*
G01X1036841Y581185D02*
Y581673D01*
X1040697Y585529D02*
G03X1036841Y581673I-0J-3856D01*
G01X1040697Y585529D02*
X1045028D01*
X1048883Y581673D02*
G03X1045028Y585529I-3855J0D01*
G01X1021360Y483420D02*
Y455467D01*
X1021038Y454689D02*
G03X1021360Y455467I-778J778D01*
G01X1021038Y454689D02*
X1019069Y452721D01*
X1018291Y452399D02*
G03X1019069Y452721I0J1100D01*
G01X1018291Y452399D02*
X971047D01*
X970269Y452721D02*
G03X971047Y452399I778J778D01*
G01X970269Y452721D02*
X968301Y454689D01*
X967979Y455467D02*
G03X968301Y454689I1100J0D01*
G01X967979Y455467D02*
Y483420D01*
X968301Y484198D02*
G03X967979Y483420I778J-778D01*
G01X968301Y484198D02*
X970269Y486166D01*
X971047Y486488D02*
G03X970269Y486166I0J-1100D01*
G01X971047Y486488D02*
X1018291D01*
X1019069Y486166D02*
G03X1018291Y486488I-778J-778D01*
G01X1019069Y486166D02*
X1021038Y484198D01*
X1021360Y483420D02*
G03X1021038Y484198I-1100J-0D01*
G01X975626Y502782D02*
G03X975626I-4100J0D01*
G01Y535782D02*
Y529782D01*
X974526Y528682D02*
G03X975626Y529782I0J1100D01*
G01X974526Y528682D02*
X968526D01*
X967426Y529782D02*
G03X968526Y528682I1100J0D01*
G01X967426Y529782D02*
Y535782D01*
X968526Y536882D02*
G03X967426Y535782I0J-1100D01*
G01X968526Y536882D02*
X974526D01*
X975626Y535782D02*
G03X974526Y536882I-1100J0D01*
G01X965626Y502782D02*
G03X965626I-4100J0D01*
G01X959826Y536513D02*
G03X963226I1700J-3731D01*
G01X959826D02*
Y539314D01*
X955255Y543885*
X954757Y545087D02*
G03X955255Y543885I1700J0D01*
G01X954757Y545087D02*
Y548592D01*
X958157D02*
G03X954757I-1700J3731D01*
G01X958157D02*
Y545792D01*
X962728Y541220*
X963226Y540018D02*
G03X962728Y541220I-1700J-0D01*
G01X963226Y540018D02*
Y536513D01*
X1019356Y609146D02*
Y573713D01*
X1019034Y572935D02*
G03X1019356Y573713I-778J778D01*
G01X1019034Y572935D02*
X1017065Y570966D01*
X1016287Y570644D02*
G03X1017065Y570966I0J1100D01*
G01X1016287Y570644D02*
X961169D01*
X960391Y570966D02*
G03X961169Y570644I778J778D01*
G01X960391Y570966D02*
X958423Y572935D01*
X958101Y573713D02*
G03X958423Y572935I1100J-0D01*
G01X958101Y573713D02*
Y609146D01*
X958423Y609924D02*
G03X958101Y609146I778J-778D01*
G01X958423Y609924D02*
X960391Y611892D01*
X961169Y612214D02*
G03X960391Y611892I0J-1100D01*
G01X961169Y612214D02*
X1016287D01*
X1017065Y611892D02*
G03X1016287Y612214I-778J-778D01*
G01X1017065Y611892D02*
X1019034Y609924D01*
X1019356Y609146D02*
G03X1019034Y609923I-1100J-0D01*
G01X948157Y548592D02*
G03X944757I-1700J3731D01*
G01X948157D02*
Y545018D01*
X947659Y543816D02*
G03X948157Y545018I-1202J1202D01*
G01X947659Y543816D02*
X943226Y539383D01*
Y536513*
X939826D02*
G03X943226I1700J-3731D01*
G01X939826D02*
Y540087D01*
X940324Y541289D02*
G03X939826Y540087I1202J-1202D01*
G01X940324Y541289D02*
X944757Y545722D01*
Y548592*
X761170Y572856D02*
G03X761170I-4100J0D01*
G01Y586249D02*
Y580249D01*
X760070Y579149D02*
G03X761170Y580249I-0J1100D01*
G01X760070Y579149D02*
X754070D01*
X752970Y580249D02*
G03X754070Y579149I1100J0D01*
G01X752970Y580249D02*
Y586249D01*
X754070Y587349D02*
G03X752970Y586249I-0J-1100D01*
G01X754070Y587349D02*
X760070D01*
X761170Y586249D02*
G03X760070Y587349I-1100J0D01*
G01X766613Y603719D02*
G03X766613I-4100J0D01*
G01X751170Y572856D02*
G03X751170I-4100J0D01*
G01Y583249D02*
G03X751170I-4100J0D01*
G01X756613Y603719D02*
G03X756613I-4100J0D01*
G01X741170Y572856D02*
G03X741170I-4100J0D01*
G01Y583249D02*
G03X741170I-4100J0D01*
G01X746613Y603719D02*
G03X746613I-4100J0D01*
G01X731170Y572856D02*
G03X731170I-4100J0D01*
G01Y583249D02*
G03X731170I-4100J0D01*
G01X734213Y599988D02*
G03X730813I-1700J3731D01*
G01X734213D02*
Y597395D01*
X734220Y597246D02*
G03X734213Y597395I-1700J0D01*
G01X734220Y597246D02*
Y593812D01*
X730820D02*
G03X734220I1700J-820D01*
G01X730820D02*
Y597103D01*
X730813Y597253D02*
G03X730820Y597103I1700J-0D01*
G01X730813Y597253D02*
Y599988D01*
X714213Y580308D02*
G03Y586191I2857J2941D01*
G01Y580308D02*
Y578299D01*
X713715Y577097D02*
G03X714213Y578299I-1202J1202D01*
G01X713715Y577097D02*
X710910Y574292D01*
X710163Y570165D02*
G03X710910Y574292I-3093J2691D01*
G01X710163Y570165D02*
X711974D01*
X713229Y571420*
X715633Y569015D02*
G03X713229Y571420I1437J3841D01*
G01X715633Y569015D02*
X713881Y567262D01*
X712679Y566765D02*
G03X713881Y567262I-0J1700D01*
G01X712679Y566765D02*
X685256D01*
X684054Y567262D02*
G03X685256Y566765I1202J1203D01*
G01X684054Y567262D02*
X681311Y570005D01*
X680813Y571184D02*
G03X681311Y570005I1700J23D01*
G01X680813Y574528D02*
G03Y571184I-3743J-1672D01*
G01Y574528D02*
Y581577D01*
Y584922D02*
G03Y581577I-3743J-1673D01*
G01Y584922D02*
Y599988D01*
X684213D02*
G03X680813I-1700J3731D01*
G01X684213D02*
Y586191D01*
X685370Y586980D02*
G03X684213Y586191I1700J-3731D01*
G01X685370Y586980D02*
Y590656D01*
X685387Y590896D02*
G03X685370Y590656I1683J-240D01*
G01X685387Y590896D02*
Y595046D01*
X688787D02*
G03X685387I-1700J820D01*
G01X688787D02*
Y590673D01*
X688770Y590432D02*
G03X688787Y590673I-1683J241D01*
G01X688770Y590432D02*
Y586980D01*
X690813Y584922D02*
G03X688770Y586980I-3743J-1673D01*
G01X690813Y584922D02*
Y599988D01*
X694213D02*
G03X690813I-1700J3731D01*
G01X694213D02*
Y586191D01*
X695370Y586980D02*
G03X694213Y586191I1700J-3731D01*
G01X695370Y586980D02*
Y589219D01*
X695387Y589459D02*
G03X695370Y589219I1683J-240D01*
G01X695387Y589459D02*
Y592172D01*
X698787D02*
G03X695387I-1700J820D01*
G01X698787D02*
Y589236D01*
X698770Y588995D02*
G03X698787Y589236I-1683J241D01*
G01X698770Y588995D02*
Y586980D01*
X694213Y580308D02*
G03X698770Y586980I2857J2941D01*
G01X694213Y580308D02*
Y578116D01*
X695633Y576696*
X700163Y570165D02*
G03X695633Y576696I-3093J2691D01*
G01X700163Y570165D02*
X703976D01*
X708506Y576696D02*
G03X703976Y570165I-1436J-3840D01*
G01X708506Y576696D02*
X710813Y579003D01*
Y581577*
X705378Y586984D02*
G03X710813Y581577I1692J-3735D01*
G01X705378Y586984D02*
Y589789D01*
X708778Y589753D02*
G03X705378Y589789I-1691J838D01*
G01X708778Y589753D02*
Y586976D01*
X710813Y584922D02*
G03X708778Y586976I-3743J-1673D01*
G01X710813Y584922D02*
Y599988D01*
X714213D02*
G03X710813I-1700J3731D01*
G01X714213D02*
Y586191D01*
X724213Y599988D02*
G03X720813I-1700J3731D01*
G01X724213D02*
Y596085D01*
X724141Y595595D02*
G03X724213Y596085I-1628J490D01*
G01X724141Y595595D02*
Y591410D01*
X720741D02*
G03X724141I1700J-819D01*
G01X720741D02*
Y596012D01*
X720813Y596503D02*
G03X720741Y596012I1628J-491D01*
G01X720813Y596503D02*
Y599988D01*
X704216Y599990D02*
G03X700816Y599987I-1703J3729D01*
G01X704216Y599990D02*
Y596693D01*
X700816Y596679D02*
G03X704216Y596693I1704J-813D01*
G01X700816Y596679D02*
Y599987D01*
X869190Y650884D02*
G03X866786Y653288I1436J3840D01*
G01X869190Y650884D02*
X836395Y618089D01*
X835193Y617591D02*
G03X836395Y618089I-0J1700D01*
G01X835193Y617591D02*
X706941D01*
X705739Y618089D02*
G03X706941Y617591I1202J1202D01*
G01X705739Y618089D02*
X693949Y629879D01*
X696353Y632283D02*
G03X693949Y629879I-3840J1436D01*
G01X696353Y632283D02*
X707645Y620991D01*
X712837*
X703949Y629879*
X706353Y632283D02*
G03X703949Y629879I-3840J1436D01*
G01X706353Y632283D02*
X715637Y622999D01*
X720829*
X713949Y629879*
X716353Y632283D02*
G03X713949Y629879I-3840J1436D01*
G01X716353Y632283D02*
X723629Y625007D01*
X728821*
X723949Y629879*
X726353Y632283D02*
G03X723949Y629879I-3840J1436D01*
G01X726353Y632283D02*
X731621Y627015D01*
X736813*
X733949Y629879*
X736353Y632283D02*
G03X733949Y629879I-3840J1436D01*
G01X736353Y632283D02*
X739614Y629023D01*
X744805*
X743949Y629879*
X746353Y632283D02*
G03X743949Y629879I-3840J1436D01*
G01X746353Y632283D02*
X747606Y631031D01*
X749418*
X755609D02*
G03X749418I-3096J2688D01*
G01X755609D02*
X759418D01*
X765609D02*
G03X759418I-3096J2688D01*
G01X765609D02*
X784528D01*
X806786Y653288*
X809190Y650884D02*
G03X806786Y653288I1436J3840D01*
G01X809190Y650884D02*
X787329Y629023D01*
X802520*
X826786Y653288*
X829190Y650884D02*
G03X826786Y653288I1436J3840D01*
G01X829190Y650884D02*
X805321Y627015D01*
X810512*
X836786Y653288*
X839190Y650884D02*
G03X836786Y653288I1436J3840D01*
G01X839190Y650884D02*
X813313Y625007D01*
X818504*
X846786Y653288*
X849190Y650884D02*
G03X846786Y653288I1436J3840D01*
G01X849190Y650884D02*
X821305Y622999D01*
X826497*
X856786Y653288*
X859190Y650884D02*
G03X856786Y653288I1436J3840D01*
G01X859190Y650884D02*
X829297Y620991D01*
X834489*
X866786Y653288*
X824726Y654724D02*
G03X824726I-4100J0D01*
G01X671170Y572856D02*
G03X671170I-4100J0D01*
G01Y583249D02*
G03X671170I-4100J0D01*
G01X676613Y606719D02*
Y600719D01*
X675513Y599619D02*
G03X676613Y600719I0J1100D01*
G01X675513Y599619D02*
X669513D01*
X668413Y600719D02*
G03X669513Y599619I1100J0D01*
G01X668413Y600719D02*
Y606719D01*
X669513Y607819D02*
G03X668413Y606719I0J-1100D01*
G01X669513Y607819D02*
X675513D01*
X676613Y606719D02*
G03X675513Y607819I-1100J0D01*
G01X661170Y572856D02*
G03X661170I-4100J0D01*
G01Y583249D02*
G03X661170I-4100J0D01*
G01X661383Y604055D02*
G03X661383I-4100J0D01*
G01X651170Y572856D02*
G03X651170I-4100J0D01*
G01Y583249D02*
G03X651170I-4100J0D01*
G01X641170Y572856D02*
G03X641170I-4100J0D01*
G01Y583249D02*
G03X641170I-4100J0D01*
G01X631170Y572856D02*
G03X631170I-4100J0D01*
G01Y583249D02*
G03X631170I-4100J0D01*
G01X621170Y572856D02*
G03X621170I-4100J0D01*
G01Y583249D02*
G03X621170I-4100J0D01*
G01X611170Y572856D02*
G03X611170I-4100J0D01*
G01Y583249D02*
G03X611170I-4100J0D01*
G01X592604Y481063D02*
G03X592604I-4100J0D01*
G01Y521063D02*
G03X592604I-4100J0D01*
G01X577255Y492323D02*
G03X574556I-1349J2756D01*
G01X577255Y486811D02*
G03Y492323I-1349J2756D01*
G01X574556Y486811D02*
G03X577255I1350J-2756D01*
G01X574556Y492323D02*
G03Y486811I1350J-2756D01*
G01X578824Y547008D02*
G03X578824I-4100J0D01*
G01Y587008D02*
G03X578824I-4100J0D01*
G01X558620Y480157D02*
G03X558620I-6612J0D01*
G01X561203Y543344D02*
G03X557803I-1700J3731D01*
G01X561203D02*
Y541123D01*
X561188Y540902D02*
G03X561203Y541123I-1685J221D01*
G01X561188Y540902D02*
Y538888D01*
X558052Y531317D02*
G03X561188Y538888I1436J3840D01*
G01X558052Y531317D02*
X548892Y522157D01*
Y505937*
X545492D02*
G03X548892I1700J-3731D01*
G01X545492D02*
Y522861D01*
X545990Y524063D02*
G03X545492Y522861I1202J-1202D01*
G01X545990Y524063D02*
X555648Y533721D01*
X557788Y538888D02*
G03X555648Y533721I1700J-3731D01*
G01X557788Y538888D02*
Y541109D01*
X557803Y541330D02*
G03X557788Y541109I1685J-221D01*
G01X557803Y541330D02*
Y543344D01*
X563603Y559388D02*
G03X563603I-4100J0D01*
G01X568267Y594837D02*
G03X568267I-4100J0D01*
G01X568509Y609432D02*
G03X568509I-4100J0D01*
G01X535623Y483928D02*
G03X539023I1700J-3731D01*
G01X535623D02*
Y490612D01*
X535492Y491267D02*
G03X535623Y490612I1700J0D01*
G01X535492Y491267D02*
Y498475D01*
Y505937D02*
G03Y498475I1700J-3731D01*
G01Y505937D02*
Y516750D01*
X520924Y531317*
X523328Y533721D02*
G03X520924Y531317I-3840J1436D01*
G01X523328Y533721D02*
X538394Y518656D01*
X538892Y517454D02*
G03X538394Y518656I-1700J0D01*
G01X538892Y517454D02*
Y505937D01*
Y498475D02*
G03Y505937I-1700J3731D01*
G01Y498475D02*
Y491791D01*
X539023Y491136D02*
G03X538892Y491791I-1700J-0D01*
G01X539023Y491136D02*
Y483928D01*
X548029Y573268D02*
G03X548029I-6612J0D01*
G01X538905Y647290D02*
G03X535795Y649365I-1700J820D01*
G01X538905Y647290D02*
Y610269D01*
X535795Y608194D02*
G03X538905Y610269I1410J1255D01*
G01X535795Y608194D02*
Y595662D01*
X532394D02*
G03X535795I1700J-819D01*
G01X532394D02*
Y659889D01*
X535795D02*
G03X532394I-1701J820D01*
G01X535795D02*
Y649365D01*
X523603Y547075D02*
G03X523603I-4100J0D01*
G01X521306Y569576D02*
G03X517906I-1700J3731D01*
G01X521306D02*
Y566400D01*
X521203Y565815D02*
G03X521306Y566400I-1597J585D01*
G01X521203Y565815D02*
Y563119D01*
X517803D02*
G03X521203I1700J-3731D01*
G01X517803D02*
Y566296D01*
X517906Y566881D02*
G03X517803Y566296I1597J-585D01*
G01X517906Y566881D02*
Y569576D01*
X525994Y618896D02*
G03X522594I-1700J6390D01*
G01X525994D02*
Y616661D01*
X526109Y616045D02*
G03X525994Y616661I-1700J0D01*
G01X526109Y616045D02*
Y613163D01*
Y605701D02*
G03Y613163I-1700J3731D01*
G01Y605701D02*
Y603165D01*
X525612Y601962D02*
G03X526109Y603165I-1203J1203D01*
G01X525612Y601962D02*
X521908Y598259D01*
X521306Y591900D02*
G03X521908Y598259I2861J2937D01*
G01X521306Y591900D02*
Y587038D01*
X515766Y584743D02*
G03X521306Y587038I3840J-1436D01*
G01X515766Y584743D02*
X507225Y593284D01*
X501442*
X495007Y591902D02*
G03X501442Y593284I2704J3082D01*
G01X495007Y591902D02*
Y590092D01*
X496275Y588824*
X493871Y586420D02*
G03X496275Y588824I3840J-1436D01*
G01X493871Y586420D02*
X492105Y588186D01*
X491607Y589388D02*
G03X492105Y588186I1700J0D01*
G01X491607Y589388D02*
Y633604D01*
X492105Y634806D02*
G03X491607Y633604I1202J-1202D01*
G01X492105Y634806D02*
X503955Y646656D01*
X506359Y644252D02*
G03X503955Y646656I1436J3840D01*
G01X506359Y644252D02*
X495007Y632899D01*
Y598066*
X501442Y596684D02*
G03X495007Y598066I-3731J-1700D01*
G01X501442Y596684D02*
X507929D01*
X509132Y596186D02*
G03X507929Y596684I-1203J-1202D01*
G01X509132Y596186D02*
X517906Y587411D01*
Y598361*
X518404Y599564D02*
G03X517906Y598361I1202J-1203D01*
G01X518404Y599564D02*
X522709Y603869D01*
Y605701*
Y613163D02*
G03Y605701I1700J-3731D01*
G01Y613163D02*
Y615545D01*
X522594Y616161D02*
G03X522709Y615545I1700J-0D01*
G01X522594Y616161D02*
Y618896D01*
X509495Y619328D02*
G03X506095I-1700J3731D01*
G01X509495D02*
Y614282D01*
X506095D02*
G03X509495I1700J-3731D01*
G01X506095D02*
Y619328D01*
X511895Y635476D02*
G03X511895I-4100J0D01*
G01Y660686D02*
G03X511895I-4100J0D01*
G01X443226Y481890D02*
G03X443226I-10943J0D01*
G01X441974Y509685D02*
G03X441974I-4100J0D01*
G01Y520591D02*
G03X441974I-4100J0D01*
G01X450755Y550945D02*
G03Y555590I3379J2323D01*
G01Y550945D02*
Y542677D01*
X450257Y541475D02*
G03X450755Y542677I-1202J1202D01*
G01X450257Y541475D02*
X441714Y532932D01*
X439310Y535336D02*
G03X441714Y532932I-1436J-3840D01*
G01X439310Y535336D02*
X447355Y543381D01*
Y574219*
X450755D02*
G03X447355I-1700J820D01*
G01X450755D02*
Y555590D01*
X441974Y542402D02*
G03X441974I-4100J0D01*
G01Y553307D02*
G03X441974I-4100J0D01*
G01X430793Y515138D02*
G03X430793I-4100J0D01*
G01Y526043D02*
G03X430793I-4100J0D01*
G01Y536949D02*
G03X430793I-4100J0D01*
G01Y547854D02*
G03X430793I-4100J0D01*
G01X443226Y581102D02*
G03X443226I-10943J0D01*
G01X466657Y425370D02*
G03X469417Y433062I1060J3961D01*
G01X466657Y425370D02*
X468919Y423108D01*
X469417Y421906D02*
G03X468919Y423108I-1700J0D01*
G01X469417Y421906D02*
Y420030D01*
X466017D02*
G03X469417I1700J-3731D01*
G01X466017D02*
Y421202D01*
X462105Y425114*
X461607Y426316D02*
G03X462105Y425114I1700J-0D01*
G01X461607Y426316D02*
Y443793D01*
X461123Y442811D02*
G03X461607Y443793I-1202J1202D01*
G01X461123Y442811D02*
X455873Y437560D01*
Y422904*
X458014Y417737D02*
G03X455873Y422904I-3841J1436D01*
G01X458014Y417737D02*
X462147Y413604D01*
X462645Y412402D02*
G03X462147Y413604I-1700J-0D01*
G01X462645Y412402D02*
Y409956D01*
X466280Y406321*
X463876Y403916D02*
G03X466280Y406321I3841J-1436D01*
G01X463876Y403916D02*
X459743Y408050D01*
X459245Y409252D02*
G03X459743Y408050I1700J-0D01*
G01X459245Y409252D02*
Y411697D01*
X455609Y415333*
X452473Y422904D02*
G03X455609Y415333I1700J-3731D01*
G01X452473Y422904D02*
Y438265D01*
X452971Y439467D02*
G03X452473Y438265I1202J-1202D01*
G01X452971Y439467D02*
X458221Y444717D01*
Y458522*
X452473Y462904D02*
G03X458221Y458522I1700J-3731D01*
G01X452473Y462904D02*
Y485876D01*
X452434Y486240D02*
G03X452473Y485876I1700J0D01*
G01X452434Y486240D02*
Y509537D01*
X455834D02*
G03X452434I-1700J3731D01*
G01X455834D02*
Y486565D01*
X455873Y486201D02*
G03X455834Y486565I-1700J-0D01*
G01X455873Y486201D02*
Y462904D01*
X458221Y459824D02*
G03X455873Y462904I-4048J-651D01*
G01X458221Y459824D02*
Y488399D01*
X458719Y489601D02*
G03X458221Y488399I1202J-1202D01*
G01X458719Y489601D02*
X463871Y494753D01*
X466275Y492349D02*
G03X463871Y494753I1436J3840D01*
G01X466275Y492349D02*
X461621Y487695D01*
Y452004*
X462105Y452987D02*
G03X461621Y452004I1202J-1202D01*
G01X462105Y452987D02*
X463871Y454753D01*
X466275Y452349D02*
G03X463871Y454753I1436J3840D01*
G01X466275Y452349D02*
X465007Y451081D01*
Y449271*
X469411Y442458D02*
G03X465007Y449271I-1700J3731D01*
G01X469411Y442458D02*
Y437891D01*
X469417Y437757D02*
G03X469411Y437891I-1700J0D01*
G01X469417Y437757D02*
Y433062D01*
X471811Y466189D02*
G03X471811I-4100J0D01*
G01Y476189D02*
G03X471811I-4100J0D01*
G01Y486189D02*
G03X471811I-4100J0D01*
G01Y509189D02*
Y503189D01*
X470711Y502089D02*
G03X471811Y503189I0J1100D01*
G01X470711Y502089D02*
X464711D01*
X463611Y503189D02*
G03X464711Y502089I1100J-0D01*
G01X463611Y503189D02*
Y509189D01*
X464711Y510289D02*
G03X463611Y509189I0J-1100D01*
G01X464711Y510289D02*
X470711D01*
X471811Y509189D02*
G03X470711Y510289I-1100J-0D01*
G01X445242Y419173D02*
G03X445242I-4100J0D01*
G01X501811Y446189D02*
G03X501811I-4100J0D01*
G01Y456189D02*
G03X501811I-4100J0D01*
G01Y534984D02*
G03X501811I-4100J0D01*
G01Y544984D02*
G03X501811I-4100J0D01*
G01Y554984D02*
G03X501811I-4100J0D01*
G01X521099Y481604D02*
G03X523504Y484008I3841J-1436D01*
G01X521099Y481604D02*
X508214Y494489D01*
X501442*
X496011Y499920D02*
G03X501442Y494489I1700J-3731D01*
G01X496011Y499920D02*
Y502458D01*
X499411D02*
G03X496011I-1700J3731D01*
G01X499411D02*
Y499920D01*
X501442Y497889D02*
G03X499411Y499920I-3731J-1700D01*
G01X501442Y497889D02*
X508919D01*
X510121Y497391D02*
G03X508919Y497889I-1202J-1202D01*
G01X510121Y497391D02*
X523504Y484008D01*
X874726Y407646D02*
Y401646D01*
X873626Y400546D02*
G03X874726Y401646I-0J1100D01*
G01X873626Y400546D02*
X867626D01*
X866526Y401646D02*
G03X867626Y400546I1100J-0D01*
G01X866526Y401646D02*
Y407646D01*
X867626Y408746D02*
G03X866526Y407646I-0J-1100D01*
G01X867626Y408746D02*
X873626D01*
X874726Y407646D02*
G03X873626Y408746I-1100J-0D01*
G01X864726Y404646D02*
G03X864726I-4100J0D01*
G01X854726D02*
G03X854726I-4100J0D01*
G01X844726D02*
G03X844726I-4100J0D01*
G01X834726D02*
G03X834726I-4100J0D01*
G01X745347Y414579D02*
G03X748747I1700J-6390D01*
G01X745347D02*
Y417948D01*
X745370Y418223D02*
G03X745347Y417948I1677J-275D01*
G01X745370Y418223D02*
Y421487D01*
X748770D02*
G03X745370I-1700J3731D01*
G01X748770D02*
Y417970D01*
X748747Y417696D02*
G03X748770Y417970I-1677J274D01*
G01X748747Y417696D02*
Y414579D01*
X761170Y425218D02*
G03X761170I-4100J0D01*
G01Y435218D02*
G03X761170I-4100J0D01*
G01X751170D02*
G03X751170I-4100J0D01*
G01X741170Y425218D02*
G03X741170I-4100J0D01*
G01Y435218D02*
G03X741170I-4100J0D01*
G01X731170Y425218D02*
G03X731170I-4100J0D01*
G01Y435218D02*
G03X731170I-4100J0D01*
G01X721170Y425218D02*
G03X721170I-4100J0D01*
G01Y435218D02*
G03X721170I-4100J0D01*
G01X711170Y425218D02*
G03X711170I-4100J0D01*
G01Y435218D02*
G03X711170I-4100J0D01*
G01X701170Y425218D02*
G03X701170I-4100J0D01*
G01Y435218D02*
G03X701170I-4100J0D01*
G01X691170Y425218D02*
G03X691170I-4100J0D01*
G01Y435218D02*
G03X691170I-4100J0D01*
G01X681170Y425218D02*
G03X681170I-4100J0D01*
G01Y435218D02*
G03X681170I-4100J0D01*
G01X671170Y425218D02*
G03X671170I-4100J0D01*
G01Y435218D02*
G03X671170I-4100J0D01*
G01X661170Y425218D02*
G03X661170I-4100J0D01*
G01Y435218D02*
G03X661170I-4100J0D01*
G01X651170Y425218D02*
G03X651170I-4100J0D01*
G01Y435218D02*
G03X651170I-4100J0D01*
G01X641170Y425218D02*
G03X641170I-4100J0D01*
G01Y435218D02*
G03X641170I-4100J0D01*
G01X631170Y425218D02*
G03X631170I-4100J0D01*
G01Y435218D02*
G03X631170I-4100J0D01*
G01X621170Y425218D02*
G03X621170I-4100J0D01*
G01Y435218D02*
G03X621170I-4100J0D01*
G01X611170Y428218D02*
Y422218D01*
X610070Y421118D02*
G03X611170Y422218I-0J1100D01*
G01X610070Y421118D02*
X604070D01*
X602970Y422218D02*
G03X604070Y421118I1100J-0D01*
G01X602970Y422218D02*
Y428218D01*
X604070Y429318D02*
G03X602970Y428218I-0J-1100D01*
G01X604070Y429318D02*
X610070D01*
X611170Y428218D02*
G03X610070Y429318I-1100J-0D01*
G01X611170Y435218D02*
G03X611170I-4100J0D01*
G01X541423Y440197D02*
G03X541423I-4100J0D01*
G01X529040Y440168D02*
G03X529040I-4100J0D01*
G01X503876Y403916D02*
G03X506280Y406321I3841J-1436D01*
G01X503876Y403916D02*
X474388Y433404D01*
X473891Y434606D02*
G03X474388Y433404I1700J0D01*
G01X473891Y434606D02*
Y586401D01*
X469407Y590884*
X465007*
Y588066*
Y581902D02*
G03Y588066I2704J3082D01*
G01Y581902D02*
Y578066D01*
Y571902D02*
G03Y578066I2704J3082D01*
G01Y571902D02*
Y568066D01*
Y561902D02*
G03Y568066I2704J3082D01*
G01Y561902D02*
Y558066D01*
Y551902D02*
G03Y558066I2704J3082D01*
G01Y551902D02*
Y550092D01*
X466275Y548824*
X463871Y546420D02*
G03X466275Y548824I3840J-1436D01*
G01X463871Y546420D02*
X462999Y547292D01*
Y542100*
X466275Y538824*
X464918Y531983D02*
G03X466275Y538824I2793J3001D01*
G01X464918Y531983D02*
X448708Y515773D01*
Y475080*
X448210Y473878D02*
G03X448708Y475080I-1202J1202D01*
G01X448210Y473878D02*
X442842Y468509D01*
Y462904*
X439442D02*
G03X442842I1700J-3731D01*
G01X439442D02*
Y469214D01*
X439940Y470416D02*
G03X439442Y469214I1202J-1202D01*
G01X439940Y470416D02*
X445308Y475784D01*
Y516477*
X445806Y517680D02*
G03X445308Y516477I1202J-1203D01*
G01X445806Y517680D02*
X463647Y535520D01*
X463871Y536420D02*
G03X463647Y535520I3840J-1436D01*
G01X463871Y536420D02*
X460097Y540194D01*
X459599Y541396D02*
G03X460097Y540194I1700J0D01*
G01X459599Y541396D02*
Y648802D01*
X460097Y650004D02*
G03X459599Y648802I1202J-1202D01*
G01X460097Y650004D02*
X466095Y656002D01*
Y656955*
X469495D02*
G03X466095I-1700J3731D01*
G01X469495D02*
Y655298D01*
X468997Y654096D02*
G03X469495Y655298I-1202J1202D01*
G01X468997Y654096D02*
X467020Y652118D01*
X469495Y644361D02*
G03X467020Y652118I-1700J3731D01*
G01X469495Y644361D02*
Y643397D01*
X473407Y639485*
X473905Y638283D02*
G03X473407Y639485I-1700J0D01*
G01X473905Y638283D02*
Y619656D01*
X473407Y618453D02*
G03X473905Y619656I-1202J1203D01*
G01X473407Y618453D02*
X469495Y614542D01*
Y614282*
Y606820D02*
G03Y614282I-1700J3731D01*
G01Y606820D02*
Y602810D01*
X469411Y602282D02*
G03X469495Y602810I-1616J528D01*
G01X469411Y602282D02*
Y599084D01*
X470711*
X471811Y597984D02*
G03X470711Y599084I-1100J-0D01*
G01X471811Y597984D02*
Y593288D01*
X476793Y588307*
X477291Y587105D02*
G03X476793Y588307I-1700J-0D01*
G01X477291Y587105D02*
Y435310D01*
X506280Y406321*
X511817Y416299D02*
G03X511817I-4100J0D01*
G01Y429331D02*
G03X511817I-4100J0D01*
G01X947712Y501278D02*
G03X947701Y504258I3814J1504D01*
G01X947712Y501278D02*
X947800Y478161D01*
X947814Y474567D02*
G03X947800Y478161I3678J1811D01*
G01X947814Y474567D02*
X947871Y459592D01*
Y459586*
X947366Y458419D02*
G03X947871Y459586I-1095J1167D01*
G01X947366Y458419D02*
X939283Y450830D01*
X938188Y450396D02*
G03X939283Y450830I-0J1600D01*
G01X938188Y450396D02*
X513514D01*
X512383Y450865D02*
G03X513514Y450396I1131J1131D01*
G01X512383Y450865D02*
X504802Y458446D01*
X504333Y459577D02*
G03X504802Y458446I1600J0D01*
G01X504333Y459577D02*
Y466907D01*
X501040Y470199*
X498565*
X496858D02*
G03X498565I853J-4010D01*
G01X496858D02*
X487687D01*
X486556Y470668D02*
G03X487687Y470199I1131J1131D01*
G01X486556Y470668D02*
X482912Y474312D01*
X482443Y475443D02*
G03X482912Y474312I1600J0D01*
G01X482443Y475443D02*
Y566250D01*
X482912Y567381D02*
G03X482443Y566250I1131J-1131D01*
G01X482912Y567381D02*
X486556Y571025D01*
X487687Y571494D02*
G03X486556Y571025I0J-1600D01*
G01X487687Y571494D02*
X495560D01*
X499863D02*
G03X495560I-2152J3490D01*
G01X499863D02*
X502295D01*
X503895Y569894D02*
G03X502295Y571494I-1600J-0D01*
G01X503895Y569894D02*
Y560933D01*
X502295Y559333D02*
G03X503895Y560933I0J1600D01*
G01X502295Y559333D02*
X494590D01*
X493265Y558009*
Y484275*
X494590Y482950*
X495197*
X500226D02*
G03X495197I-2515J3239D01*
G01X500226D02*
X513572D01*
X514704Y482482D02*
G03X513572Y482950I-1132J-1132D01*
G01X514704Y482482D02*
X518348Y478838D01*
X518817Y477706D02*
G03X518348Y478838I-1600J0D01*
G01X518817Y477706D02*
Y472700D01*
X522109Y469407*
X922655*
X929884Y476637*
Y506958*
X930353Y508090D02*
G03X929884Y506958I1131J-1132D01*
G01X930353Y508090D02*
X933997Y511734D01*
X935128Y512202D02*
G03X933997Y511734I0J-1600D01*
G01X935128Y512202D02*
X944407D01*
X945536Y511736D02*
G03X944407Y512202I-1129J-1134D01*
G01X945536Y511736D02*
X947212Y510066D01*
X947683Y508939D02*
G03X947212Y510066I-1600J-6D01*
G01X947683Y508939D02*
X947701Y504258D01*
X955626Y532782D02*
G03X955626I-4100J0D01*
G01X1046228Y463466D02*
X1101262D01*
X1088243Y462566D02*
X1101262D01*
X1088303Y461666D02*
X1101262D01*
X1088303Y460766D02*
X1101262D01*
X1088303Y459866D02*
X1101262D01*
X1088303Y458966D02*
X1101262D01*
X1088303Y458066D02*
X1101262D01*
X1088303Y457166D02*
X1101262D01*
X1088303Y456266D02*
X1101262D01*
X1088303Y455366D02*
X1101262D01*
X1088303Y454466D02*
X1101262D01*
X1088303Y453566D02*
X1101262D01*
X1088303Y452666D02*
X1101262D01*
X1088303Y451766D02*
X1101262D01*
X1088257Y450866D02*
X1101262D01*
X1033925Y449966D02*
X1101262D01*
X1033925Y449066D02*
X1101262D01*
X1045845Y448166D02*
X1101262D01*
X1046758Y447266D02*
X1101262D01*
X1047260Y446366D02*
X1101262D01*
X1048023Y462566D02*
X1075141D01*
X1033925Y450866D02*
X1075126D01*
X1048767Y461666D02*
X1075080D01*
X1049159Y460766D02*
X1075080D01*
X1049309Y459866D02*
X1075080D01*
X1049306Y458966D02*
X1075080D01*
X1049142Y458066D02*
X1075080D01*
X1048733Y457166D02*
X1075080D01*
X1047959Y456266D02*
X1075080D01*
X1045869Y455366D02*
X1075080D01*
X1033925Y454466D02*
X1075080D01*
X1033925Y453566D02*
X1075080D01*
X1033925Y452666D02*
X1075080D01*
X1033925Y451766D02*
X1075080D01*
X1047509Y445466D02*
X1061637D01*
X1047549Y444566D02*
X1060172D01*
X1047389Y443666D02*
X1058707D01*
X1046999Y442766D02*
X1057243D01*
X1046288Y441866D02*
X1055778D01*
X1044822Y440966D02*
X1054313D01*
X1033925D02*
X1042094D01*
X1033925Y448166D02*
X1041071D01*
X1033925Y455366D02*
X1040714D01*
X1033925Y441866D02*
X1040628D01*
X1033925Y463466D02*
X1040354D01*
X1033925Y447266D02*
X1040158D01*
X1033925Y442766D02*
X1039917D01*
X1033925Y446366D02*
X1039656D01*
X1033925Y443666D02*
X1039527D01*
X1033925Y445466D02*
X1039407D01*
X1033925Y444566D02*
X1039367D01*
X1033925Y456266D02*
X1038624D01*
X1033925Y462566D02*
X1038560D01*
X1033925Y457166D02*
X1037850D01*
X1033925Y461666D02*
X1037816D01*
X1033925Y458066D02*
X1037441D01*
X1033925Y460766D02*
X1037424D01*
X1033925Y458966D02*
X1037277D01*
X1033925Y459866D02*
X1037274D01*
X505933Y460095D02*
X946269D01*
X505933Y460995D02*
X946265D01*
X505933Y461895D02*
X946262D01*
X505933Y462795D02*
X946259D01*
X505933Y463695D02*
X946255D01*
X505933Y464595D02*
X946252D01*
X505933Y465495D02*
X946248D01*
X505933Y466395D02*
X946245D01*
X505933Y467295D02*
X946242D01*
X923705Y468195D02*
X946238D01*
X924605Y469095D02*
X946235D01*
X925505Y469995D02*
X946231D01*
X926405Y470895D02*
X946228D01*
X927305Y471795D02*
X946224D01*
X943293Y472695D02*
X946221D01*
X944503Y473595D02*
X946218D01*
X945134Y474495D02*
X946214D01*
X945473Y475395D02*
X946211D01*
X945591Y476295D02*
X946207D01*
X945510Y477195D02*
X946204D01*
X945215Y478095D02*
X946200D01*
X944648Y478995D02*
X946197D01*
X943600Y479895D02*
X946194D01*
X931484Y480795D02*
X946190D01*
X931484Y481695D02*
X946187D01*
X931484Y482595D02*
X946183D01*
X931484Y483495D02*
X946180D01*
X931484Y484395D02*
X946176D01*
X931484Y485295D02*
X946173D01*
X931484Y486195D02*
X946170D01*
X931484Y487095D02*
X946166D01*
X931484Y487995D02*
X946163D01*
X931484Y488895D02*
X946159D01*
X931484Y489795D02*
X946156D01*
X931484Y490695D02*
X946152D01*
X931484Y491595D02*
X946149D01*
X931484Y492495D02*
X946146D01*
X931484Y493395D02*
X946142D01*
X931484Y494295D02*
X946139D01*
X931484Y495195D02*
X946135D01*
X931484Y496095D02*
X946132D01*
X931484Y496995D02*
X946128D01*
X931484Y497895D02*
X946125D01*
X942480Y498795D02*
X946122D01*
X944224Y499695D02*
X946118D01*
X944994Y500595D02*
X946115D01*
X945419Y501495D02*
X946111D01*
X945608Y502395D02*
X946108D01*
X945594Y503295D02*
X946105D01*
X945375Y504195D02*
X946101D01*
X944912Y505095D02*
X946098D01*
X944074Y505995D02*
X946094D01*
X931484Y506895D02*
X946091D01*
X932321Y507795D02*
X946087D01*
X933221Y508695D02*
X946084D01*
X506316Y459195D02*
X945854D01*
X934121Y509595D02*
X945419D01*
X507216Y458295D02*
X944896D01*
X935021Y510495D02*
X944515D01*
X508116Y457395D02*
X943937D01*
X509016Y456495D02*
X942979D01*
X509916Y455595D02*
X942020D01*
X510816Y454695D02*
X941062D01*
X931484Y498795D02*
X940572D01*
X511716Y453795D02*
X940103D01*
X928205Y472695D02*
X939691D01*
X931484Y479895D02*
X939384D01*
X512616Y452895D02*
X939145D01*
X931484Y505995D02*
X938979D01*
X931484Y499695D02*
X938829D01*
X929105Y473595D02*
X938481D01*
X931484Y478995D02*
X938336D01*
X931484Y505095D02*
X938141D01*
X931484Y500595D02*
X938059D01*
X930005Y474495D02*
X937850D01*
X931484Y478095D02*
X937769D01*
X931484Y504195D02*
X937677D01*
X931484Y501495D02*
X937634D01*
X930905Y475395D02*
X937512D01*
X931484Y477195D02*
X937474D01*
X931484Y503295D02*
X937458D01*
X931484Y502395D02*
X937445D01*
X931484Y476295D02*
X937393D01*
X505308Y468195D02*
X521059D01*
X504408Y469095D02*
X520159D01*
X503508Y469995D02*
X519259D01*
X502608Y470895D02*
X518359D01*
X501708Y471795D02*
X517459D01*
X501686Y477195D02*
X517217D01*
X501810Y476295D02*
X517217D01*
X501734Y475395D02*
X517217D01*
X501445Y474495D02*
X517217D01*
X500886Y473595D02*
X517217D01*
X499856Y472695D02*
X517217D01*
X501341Y478095D02*
X516828D01*
X500701Y478995D02*
X515928D01*
X499466Y479895D02*
X515028D01*
X484043Y480795D02*
X514128D01*
X498562Y568995D02*
X502295D01*
X500382Y568095D02*
X502295D01*
X501164Y567195D02*
X502295D01*
X501596Y566295D02*
X502295D01*
X501791Y565395D02*
X502295D01*
X501782Y564495D02*
X502295D01*
X501569Y563595D02*
X502295D01*
X501113Y562695D02*
X502295D01*
X500288Y561795D02*
X502295D01*
X486788Y568995D02*
X496861D01*
X484043Y479895D02*
X495957D01*
X486792Y472695D02*
X495566D01*
X484043Y561795D02*
X495135D01*
X485888Y568095D02*
X495041D01*
X484043Y478995D02*
X494722D01*
X485892Y473595D02*
X494536D01*
X484043Y562695D02*
X494310D01*
X484988Y567195D02*
X494258D01*
X484043Y478095D02*
X494081D01*
X484992Y474495D02*
X493978D01*
X484043Y560895D02*
X493888D01*
X484043Y563595D02*
X493854D01*
X484088Y566295D02*
X493826D01*
X484043Y477195D02*
X493737D01*
X484092Y475395D02*
X493689D01*
X484043Y564495D02*
X493641D01*
X484043Y565395D02*
X493632D01*
X484043Y476295D02*
X493613D01*
X484043Y481695D02*
X493582D01*
X484043Y559995D02*
X492988D01*
X484043Y482595D02*
X492682D01*
X484043Y559095D02*
X492088D01*
X484043Y483495D02*
X491782D01*
X484043Y484395D02*
X491665D01*
X484043Y485295D02*
X491665D01*
X484043Y486195D02*
X491665D01*
X484043Y487095D02*
X491665D01*
X484043Y487995D02*
X491665D01*
X484043Y488895D02*
X491665D01*
X484043Y489795D02*
X491665D01*
X484043Y490695D02*
X491665D01*
X484043Y491595D02*
X491665D01*
X484043Y492495D02*
X491665D01*
X484043Y493395D02*
X491665D01*
X484043Y494295D02*
X491665D01*
X484043Y495195D02*
X491665D01*
X484043Y496095D02*
X491665D01*
X484043Y496995D02*
X491665D01*
X484043Y497895D02*
X491665D01*
X484043Y498795D02*
X491665D01*
X484043Y499695D02*
X491665D01*
X484043Y500595D02*
X491665D01*
X484043Y501495D02*
X491665D01*
X484043Y502395D02*
X491665D01*
X484043Y503295D02*
X491665D01*
X484043Y504195D02*
X491665D01*
X484043Y505095D02*
X491665D01*
X484043Y505995D02*
X491665D01*
X484043Y506895D02*
X491665D01*
X484043Y507795D02*
X491665D01*
X484043Y508695D02*
X491665D01*
X484043Y509595D02*
X491665D01*
X484043Y510495D02*
X491665D01*
X484043Y511395D02*
X491665D01*
X484043Y512295D02*
X491665D01*
X484043Y513195D02*
X491665D01*
X484043Y514095D02*
X491665D01*
X484043Y514995D02*
X491665D01*
X484043Y515895D02*
X491665D01*
X484043Y516795D02*
X491665D01*
X484043Y517695D02*
X491665D01*
X484043Y518595D02*
X491665D01*
X484043Y519495D02*
X491665D01*
X484043Y520395D02*
X491665D01*
X484043Y521295D02*
X491665D01*
X484043Y522195D02*
X491665D01*
X484043Y523095D02*
X491665D01*
X484043Y523995D02*
X491665D01*
X484043Y524895D02*
X491665D01*
X484043Y525795D02*
X491665D01*
X484043Y526695D02*
X491665D01*
X484043Y527595D02*
X491665D01*
X484043Y528495D02*
X491665D01*
X484043Y529395D02*
X491665D01*
X484043Y530295D02*
X491665D01*
X484043Y531195D02*
X491665D01*
X484043Y532095D02*
X491665D01*
X484043Y532995D02*
X491665D01*
X484043Y533895D02*
X491665D01*
X484043Y534795D02*
X491665D01*
X484043Y535695D02*
X491665D01*
X484043Y536595D02*
X491665D01*
X484043Y537495D02*
X491665D01*
X484043Y538395D02*
X491665D01*
X484043Y539295D02*
X491665D01*
X484043Y540195D02*
X491665D01*
X484043Y541095D02*
X491665D01*
X484043Y541995D02*
X491665D01*
X484043Y542895D02*
X491665D01*
X484043Y543795D02*
X491665D01*
X484043Y544695D02*
X491665D01*
X484043Y545595D02*
X491665D01*
X484043Y546495D02*
X491665D01*
X484043Y547395D02*
X491665D01*
X484043Y548295D02*
X491665D01*
X484043Y549195D02*
X491665D01*
X484043Y550095D02*
X491665D01*
X484043Y550995D02*
X491665D01*
X484043Y551895D02*
X491665D01*
X484043Y552795D02*
X491665D01*
X484043Y553695D02*
X491665D01*
X484043Y554595D02*
X491665D01*
X484043Y555495D02*
X491665D01*
X484043Y556395D02*
X491665D01*
X484043Y557295D02*
X491665D01*
X484043Y558195D02*
X491665D01*
X1020279Y659916D02*
X1050563D01*
X1021179Y659016D02*
X1050563D01*
X1022079Y658116D02*
X1050563D01*
X1022979Y657216D02*
X1050563D01*
X1023879Y656316D02*
X1050563D01*
X1024779Y655416D02*
X1050563D01*
X1025679Y654516D02*
X1050563D01*
X1026579Y653616D02*
X1050563D01*
X1027479Y652716D02*
X1050563D01*
X1028379Y651816D02*
X1050563D01*
X1029279Y650916D02*
X1050563D01*
X1030179Y650016D02*
X1050563D01*
X1031079Y649116D02*
X1050563D01*
X1031563Y648216D02*
X1050563D01*
X1031563Y647316D02*
X1050563D01*
X1031563Y646416D02*
X1050563D01*
X1031563Y645516D02*
X1050563D01*
X1031563Y644616D02*
X1050563D01*
X1031563Y643716D02*
X1050563D01*
X1031563Y642816D02*
X1050563D01*
X1031563Y641916D02*
X1050563D01*
X1031563Y641016D02*
X1050563D01*
X1031563Y640116D02*
X1050563D01*
X1031563Y639216D02*
X1050563D01*
X1031563Y638316D02*
X1050563D01*
X1031563Y637416D02*
X1050563D01*
X1031563Y636516D02*
X1050563D01*
X1031563Y635616D02*
X1050563D01*
X1031563Y634716D02*
X1050563D01*
X1031563Y633816D02*
X1050563D01*
X1031563Y632916D02*
X1050563D01*
X1031563Y632016D02*
X1050563D01*
X1031563Y631116D02*
X1050563D01*
X1048523Y630216D02*
X1050563D01*
X1049457Y629316D02*
X1050563D01*
X1049970Y628416D02*
X1050563D01*
X1050227Y627516D02*
X1050563D01*
X1050274Y626616D02*
X1050563D01*
X1050121Y625716D02*
X1050563D01*
X1049741Y624816D02*
X1050563D01*
X1049045Y623916D02*
X1050563D01*
X1047633Y623016D02*
X1050563D01*
X1031563Y622116D02*
X1050563D01*
X1031563Y621216D02*
X1050563D01*
X1031563Y620316D02*
X1050563D01*
X1031563Y619416D02*
X1050563D01*
X1031563Y618516D02*
X1050563D01*
X1031563Y617616D02*
X1050563D01*
X1031563Y616716D02*
X1050563D01*
X1031563Y615816D02*
X1050563D01*
X1031563Y614916D02*
X1050563D01*
X1031563Y614016D02*
X1050563D01*
X1031563Y613116D02*
X1050563D01*
X1031563Y612216D02*
X1050563D01*
X1031563Y611316D02*
X1050563D01*
X1031563Y610416D02*
X1050563D01*
X1031563Y609516D02*
X1050563D01*
X1031563Y608616D02*
X1050563D01*
X1031563Y607716D02*
X1050563D01*
X1031563Y606816D02*
X1050563D01*
X1031563Y605916D02*
X1050563D01*
X1046950Y605016D02*
X1050563D01*
X1048011Y604116D02*
X1050563D01*
X1048561Y603216D02*
X1050563D01*
X1048830Y602316D02*
X1050563D01*
X1048883Y601416D02*
X1050563D01*
X1048825Y600516D02*
X1050563D01*
X1048550Y599616D02*
X1050563D01*
X1047989Y598716D02*
X1050563D01*
X1046903Y597816D02*
X1050563D01*
X653255Y660816D02*
X1049973D01*
X654155Y661716D02*
X1049073D01*
X655055Y662616D02*
X1048173D01*
X655955Y663516D02*
X1047273D01*
X656855Y664416D02*
X1046373D01*
X657755Y665316D02*
X1045473D01*
X1031563Y623016D02*
X1044729D01*
X658655Y666216D02*
X1044573D01*
X1031563Y630216D02*
X1043840D01*
X659555Y667116D02*
X1043673D01*
X1031563Y623916D02*
X1043318D01*
X1031563Y629316D02*
X1042905D01*
X1031563Y624816D02*
X1042621D01*
X1031563Y628416D02*
X1042392D01*
X1031563Y625716D02*
X1042241D01*
X1031563Y627516D02*
X1042135D01*
X1031563Y626616D02*
X1042088D01*
X1031563Y597816D02*
X1038821D01*
X1031563Y605016D02*
X1038775D01*
X1031563Y598716D02*
X1037735D01*
X1031563Y604116D02*
X1037713D01*
X1031563Y599616D02*
X1037175D01*
X1031563Y603216D02*
X1037163D01*
X1031563Y600516D02*
X1036899D01*
X1031563Y602316D02*
X1036895D01*
X1031563Y601416D02*
X1036841D01*
X885697Y659916D02*
X906943D01*
X885697Y659016D02*
X906174D01*
X894654Y658116D02*
X905406D01*
X894726Y657216D02*
X904637D01*
X894726Y656316D02*
X903868D01*
X894726Y655416D02*
X903100D01*
X894726Y654516D02*
X902331D01*
X894726Y653616D02*
X901562D01*
X894726Y652716D02*
X900794D01*
X894726Y651816D02*
X900025D01*
X894372Y650916D02*
X899256D01*
X885697Y650016D02*
X898487D01*
X885697Y650916D02*
X886880D01*
X885697Y658116D02*
X886598D01*
X885697Y657216D02*
X886526D01*
X885697Y656316D02*
X886526D01*
X885697Y655416D02*
X886526D01*
X885697Y654516D02*
X886526D01*
X885697Y653616D02*
X886526D01*
X885697Y652716D02*
X886526D01*
X885697Y651816D02*
X886526D01*
X652665Y659916D02*
X680429D01*
X652665Y659016D02*
X679529D01*
X652665Y658116D02*
X678629D01*
X652665Y657216D02*
X677729D01*
X674310Y656316D02*
X677020D01*
X675452Y655416D02*
X677020D01*
X676058Y654516D02*
X677020D01*
X676379Y653616D02*
X677020D01*
X676483Y652716D02*
X677020D01*
X676387Y651816D02*
X677020D01*
X676076Y650916D02*
X677020D01*
X675485Y650016D02*
X677020D01*
X674380Y649116D02*
X677020D01*
X652665Y648216D02*
X677020D01*
X659769Y647316D02*
X677020D01*
X660636Y646416D02*
X677020D01*
X661114Y645516D02*
X677020D01*
X661345Y644616D02*
X677020D01*
X661369Y643716D02*
X677020D01*
X661192Y642816D02*
X677020D01*
X660781Y641916D02*
X677020D01*
X660036Y641016D02*
X677020D01*
X658421Y640116D02*
X677020D01*
X652665Y639216D02*
X677020D01*
X652665Y638316D02*
X677020D01*
X674286Y637416D02*
X677020D01*
X675511Y636516D02*
X677020D01*
X676148Y635616D02*
X677020D01*
X676490Y634716D02*
X677020D01*
X676612Y633816D02*
X677020D01*
X676534Y632916D02*
X677020D01*
X676243Y632016D02*
X677020D01*
X675681Y631116D02*
X677020D01*
X674643Y630216D02*
X677020D01*
X660131Y629316D02*
X677020D01*
X652665Y637416D02*
X670740D01*
X652665Y656316D02*
X670457D01*
X652665Y649116D02*
X670386D01*
X659231Y630216D02*
X670383D01*
X652931Y636516D02*
X669515D01*
X658331Y631116D02*
X669346D01*
X652665Y655416D02*
X669315D01*
X652665Y650016D02*
X669281D01*
X653831Y635616D02*
X668878D01*
X657431Y632016D02*
X668784D01*
X652665Y654516D02*
X668709D01*
X652665Y650916D02*
X668690D01*
X654731Y634716D02*
X668536D01*
X656531Y632916D02*
X668493D01*
X655631Y633816D02*
X668414D01*
X652665Y653616D02*
X668388D01*
X652665Y651816D02*
X668379D01*
X652665Y652716D02*
X668283D01*
X652665Y640116D02*
X656146D01*
X652665Y647316D02*
X654798D01*
X652665Y641016D02*
X654531D01*
X652665Y646416D02*
X653931D01*
X652665Y641916D02*
X653786D01*
X652665Y645516D02*
X653453D01*
X652665Y642816D02*
X653375D01*
X652665Y644616D02*
X653222D01*
X652665Y643716D02*
X653197D01*
X1052163Y636851D02*
X1101232D01*
X1052163Y635951D02*
X1101232D01*
X1052163Y635051D02*
X1101232D01*
X1052163Y634151D02*
X1101232D01*
X1052163Y633251D02*
X1101232D01*
X1052163Y632351D02*
X1101232D01*
X1052163Y631451D02*
X1101232D01*
X1057947Y630551D02*
X1101232D01*
X1059176Y629651D02*
X1101232D01*
X1059814Y628751D02*
X1101232D01*
X1060157Y627851D02*
X1101232D01*
X1060280Y626951D02*
X1101232D01*
X1060202Y626051D02*
X1101232D01*
X1059912Y625151D02*
X1101232D01*
X1059352Y624251D02*
X1101232D01*
X1058317Y623351D02*
X1101232D01*
X1052163Y622451D02*
X1101232D01*
X1052163Y621551D02*
X1101232D01*
X1052163Y620651D02*
X1101232D01*
X1052163Y619751D02*
X1101232D01*
X1052163Y618851D02*
X1101232D01*
X1052163Y617951D02*
X1101232D01*
X1052163Y617051D02*
X1101232D01*
X1052163Y616151D02*
X1101232D01*
X1052163Y615251D02*
X1101232D01*
X1052163Y614351D02*
X1101232D01*
X1052163Y613451D02*
X1101232D01*
X1052163Y612551D02*
X1101232D01*
X1052163Y611651D02*
X1101232D01*
X1052163Y610751D02*
X1101232D01*
X1052163Y609851D02*
X1101232D01*
X1052163Y608951D02*
X1101232D01*
X1052163Y608051D02*
X1101232D01*
X1052163Y607151D02*
X1101232D01*
X1052163Y606251D02*
X1101232D01*
X1052163Y605351D02*
X1101232D01*
X1052163Y604451D02*
X1101232D01*
X1052163Y603551D02*
X1101232D01*
X1052163Y602651D02*
X1101232D01*
X1052163Y601751D02*
X1101232D01*
X1052163Y600851D02*
X1101232D01*
X1052163Y599951D02*
X1101232D01*
X1052163Y599051D02*
X1101232D01*
X1052163Y598151D02*
X1101232D01*
X1052163Y597251D02*
X1101232D01*
X1052059Y596351D02*
X1101232D01*
X1051202Y595451D02*
X1101232D01*
X1047594Y594551D02*
X1101232D01*
X1048338Y593651D02*
X1101232D01*
X1048730Y592751D02*
X1101232D01*
X1048879Y591851D02*
X1101232D01*
X1048876Y590951D02*
X1101232D01*
X1048713Y590051D02*
X1101232D01*
X1048303Y589151D02*
X1101232D01*
X1047529Y588251D02*
X1101232D01*
X1045435Y587351D02*
X1101232D01*
X1019356Y586451D02*
X1101232D01*
X1019356Y585551D02*
X1101232D01*
X1047478Y584651D02*
X1101232D01*
X1048276Y583751D02*
X1101232D01*
X1048699Y582851D02*
X1101232D01*
X1048873Y581951D02*
X1101232D01*
X1048881Y581051D02*
X1101232D01*
X1048742Y580151D02*
X1101232D01*
X1048363Y579251D02*
X1101232D01*
X1047642Y578351D02*
X1101232D01*
X1045988Y577451D02*
X1101232D01*
X1019356Y576551D02*
X1101232D01*
X1019356Y575651D02*
X1101232D01*
X1019356Y574751D02*
X1101232D01*
X1019356Y573851D02*
X1101232D01*
X1019049Y572951D02*
X1101232D01*
X1018150Y572051D02*
X1101232D01*
X1017250Y571151D02*
X1101232D01*
X760236Y570251D02*
X1101232D01*
X759197Y569351D02*
X1101232D01*
X715069Y568451D02*
X1101232D01*
X714169Y567551D02*
X1101232D01*
X521306Y566651D02*
X1101232D01*
X521203Y565751D02*
X1101232D01*
X521203Y564851D02*
X1101232D01*
X521203Y563951D02*
X1101232D01*
X1053872Y563051D02*
X1101232D01*
X1055641Y562151D02*
X1101232D01*
X1056415Y561251D02*
X1101232D01*
X1056843Y560351D02*
X1101232D01*
X1057034Y559451D02*
X1101232D01*
X1057022Y558551D02*
X1101232D01*
X1056805Y557651D02*
X1101232D01*
X1056344Y556751D02*
X1101232D01*
X1055510Y555851D02*
X1101232D01*
X959604Y554951D02*
X1101232D01*
X960175Y554051D02*
X1101232D01*
X960472Y553151D02*
X1101232D01*
X960556Y552251D02*
X1101232D01*
X960440Y551351D02*
X1101232D01*
X960104Y550451D02*
X1101232D01*
X959477Y549551D02*
X1101232D01*
X958280Y548651D02*
X1101232D01*
X1080307Y547751D02*
X1101232D01*
X1081251Y546851D02*
X1101232D01*
X1081770Y545951D02*
X1101232D01*
X1082030Y545051D02*
X1101232D01*
X1082081Y544151D02*
X1101232D01*
X1081931Y543251D02*
X1101232D01*
X1081555Y542351D02*
X1101232D01*
X1080866Y541451D02*
X1101232D01*
X1079478Y540551D02*
X1101232D01*
X963226Y539651D02*
X1101232D01*
X963226Y538751D02*
X1101232D01*
X1081976Y537851D02*
X1101232D01*
X1082087Y536951D02*
X1101232D01*
X1082087Y536051D02*
X1101232D01*
X1082087Y535151D02*
X1101232D01*
X1082087Y534251D02*
X1101232D01*
X1082087Y533351D02*
X1101232D01*
X1082087Y532451D02*
X1101232D01*
X1082087Y531551D02*
X1101232D01*
X1081819Y530651D02*
X1101232D01*
X1079687Y529751D02*
X1101232D01*
X1079687Y528851D02*
X1101232D01*
X1079687Y527951D02*
X1101232D01*
X1079687Y527051D02*
X1101232D01*
X1079687Y526151D02*
X1101232D01*
X1079687Y525251D02*
X1101232D01*
X1079687Y524351D02*
X1101232D01*
X1079687Y523451D02*
X1101232D01*
X1080416Y522551D02*
X1101232D01*
X1081309Y521651D02*
X1101232D01*
X1081802Y520751D02*
X1101232D01*
X1082042Y519851D02*
X1101232D01*
X1082076Y518951D02*
X1101232D01*
X1081908Y518051D02*
X1101232D01*
X1081510Y517151D02*
X1101232D01*
X1080784Y516251D02*
X1101232D01*
X1079260Y515351D02*
X1101232D01*
X548892Y514451D02*
X1101232D01*
X548892Y513551D02*
X1101232D01*
X548892Y512651D02*
X1101232D01*
X945522Y511751D02*
X1101232D01*
X946425Y510851D02*
X1101232D01*
X947318Y509951D02*
X1101232D01*
X947679Y509051D02*
X1101232D01*
X947686Y508151D02*
X1101232D01*
X947689Y507251D02*
X1101232D01*
X973545Y506351D02*
X1101232D01*
X974639Y505451D02*
X1101232D01*
X975225Y504551D02*
X1101232D01*
X1054707Y503651D02*
X1101232D01*
X1055882Y502751D02*
X1101232D01*
X1056500Y501851D02*
X1101232D01*
X1056830Y500951D02*
X1101232D01*
X1056941Y500051D02*
X1101232D01*
X1056852Y499151D02*
X1101232D01*
X1056549Y498251D02*
X1101232D01*
X1055970Y497351D02*
X1101232D01*
X1054894Y496451D02*
X1101232D01*
X947734Y495551D02*
X1101232D01*
X947737Y494651D02*
X1101232D01*
X947741Y493751D02*
X1101232D01*
X947744Y492851D02*
X1101232D01*
X947748Y491951D02*
X1101232D01*
X947751Y491051D02*
X1101232D01*
X947755Y490151D02*
X1101232D01*
X947758Y489251D02*
X1101232D01*
X947761Y488351D02*
X1101232D01*
X947765Y487451D02*
X1101232D01*
X947768Y486551D02*
X1101232D01*
X1019585Y485651D02*
X1101232D01*
X1020485Y484751D02*
X1101232D01*
X1021272Y483851D02*
X1101232D01*
X1079748Y482951D02*
X1101232D01*
X1080979Y482051D02*
X1101232D01*
X1081619Y481151D02*
X1101232D01*
X1081962Y480251D02*
X1101232D01*
X1082086Y479351D02*
X1101232D01*
X1082009Y478451D02*
X1101232D01*
X1081719Y477551D02*
X1101232D01*
X1081159Y476651D02*
X1101232D01*
X1080127Y475751D02*
X1101232D01*
X1021360Y474851D02*
X1101232D01*
X1021360Y473951D02*
X1101232D01*
X1047343Y473051D02*
X1101232D01*
X1048423Y472151D02*
X1101232D01*
X1048982Y471251D02*
X1101232D01*
X1049255Y470351D02*
X1101232D01*
X1049313Y469451D02*
X1101232D01*
X1049258Y468551D02*
X1101232D01*
X1048988Y467651D02*
X1101232D01*
X1048435Y466751D02*
X1101232D01*
X1047368Y465851D02*
X1101232D01*
X1062716Y444251D02*
X1101232D01*
X1083559Y443351D02*
X1101232D01*
X1085446Y442451D02*
X1101232D01*
X1086496Y441551D02*
X1101232D01*
X1087209Y440651D02*
X1101232D01*
X1087708Y439751D02*
X1101232D01*
X1088041Y438851D02*
X1101232D01*
X1088236Y437951D02*
X1101232D01*
X1088303Y437051D02*
X1101232D01*
X1088248Y436151D02*
X1101232D01*
X1088066Y435251D02*
X1101232D01*
X1087746Y434351D02*
X1101232D01*
X1087265Y433451D02*
X1101232D01*
X1086575Y432551D02*
X1101232D01*
X1085567Y431651D02*
X1101232D01*
X1083828Y430751D02*
X1101232D01*
X511783Y429851D02*
X1101232D01*
X758766Y428951D02*
X1101232D01*
X760034Y428051D02*
X1101232D01*
X760685Y427151D02*
X1101232D01*
X761037Y426251D02*
X1101232D01*
X1061251Y443351D02*
X1079825D01*
X1043849Y430751D02*
X1079555D01*
X1059786Y442451D02*
X1077938D01*
X1046044Y431651D02*
X1077816D01*
X1058322Y441551D02*
X1076888D01*
X1046865Y432551D02*
X1076808D01*
X548892Y515351D02*
X1076714D01*
X963141Y540551D02*
X1076496D01*
X975626Y529751D02*
X1076287D01*
X975111Y528851D02*
X1076287D01*
X554686Y527951D02*
X1076287D01*
X553786Y527051D02*
X1076287D01*
X552886Y526151D02*
X1076287D01*
X551986Y525251D02*
X1076287D01*
X590954Y524351D02*
X1076287D01*
X591837Y523451D02*
X1076287D01*
X1047511Y482951D02*
X1076226D01*
X1056857Y440651D02*
X1076174D01*
X1047318Y433451D02*
X1076118D01*
X1047181Y475751D02*
X1075847D01*
X1055392Y439751D02*
X1075676D01*
X958157Y547751D02*
X1075667D01*
X1047530Y434351D02*
X1075637D01*
X592325Y522551D02*
X1075557D01*
X1053928Y438851D02*
X1075342D01*
X1047537Y435251D02*
X1075318D01*
X548892Y516251D02*
X1075189D01*
X1046120Y437951D02*
X1075147D01*
X1047340Y436151D02*
X1075136D01*
X962498Y541451D02*
X1075108D01*
X1046906Y437051D02*
X1075080D01*
X1048504Y482051D02*
X1074994D01*
X1048350Y476651D02*
X1074815D01*
X958157Y546851D02*
X1074722D01*
X592562Y521651D02*
X1074665D01*
X589730Y517151D02*
X1074464D01*
X961598Y542351D02*
X1074419D01*
X1049024Y481151D02*
X1074355D01*
X1048942Y477551D02*
X1074255D01*
X958157Y545951D02*
X1074204D01*
X592592Y520751D02*
X1074172D01*
X975626Y530651D02*
X1074155D01*
X591285Y518051D02*
X1074066D01*
X960698Y543251D02*
X1074043D01*
X1049271Y480251D02*
X1074011D01*
X963226Y537851D02*
X1073997D01*
X1049239Y478451D02*
X1073965D01*
X958898Y545051D02*
X1073944D01*
X592421Y519851D02*
X1073931D01*
X592018Y518951D02*
X1073898D01*
X959798Y544151D02*
X1073893D01*
X1049313Y479351D02*
X1073888D01*
X963226Y536951D02*
X1073887D01*
X975593Y536051D02*
X1073887D01*
X975626Y535151D02*
X1073887D01*
X975626Y534251D02*
X1073887D01*
X975626Y533351D02*
X1073887D01*
X975626Y532451D02*
X1073887D01*
X975626Y531551D02*
X1073887D01*
X761167Y425351D02*
X1070390D01*
X1052163Y637751D02*
X1070368D01*
X1045601Y667451D02*
X1070366D01*
X1046501Y666551D02*
X1070366D01*
X1047401Y665651D02*
X1070366D01*
X1048301Y664751D02*
X1070366D01*
X1049201Y663851D02*
X1070366D01*
X1050101Y662951D02*
X1070366D01*
X1051001Y662051D02*
X1070366D01*
X1051869Y661151D02*
X1070366D01*
X1052163Y660251D02*
X1070366D01*
X1052163Y659351D02*
X1070366D01*
X1052163Y658451D02*
X1070366D01*
X1052163Y657551D02*
X1070366D01*
X1052163Y656651D02*
X1070366D01*
X1052163Y655751D02*
X1070366D01*
X1052163Y654851D02*
X1070366D01*
X1052163Y653951D02*
X1070366D01*
X1052163Y653051D02*
X1070366D01*
X1052163Y652151D02*
X1070366D01*
X1052163Y651251D02*
X1070366D01*
X1052163Y650351D02*
X1070366D01*
X1052163Y649451D02*
X1070366D01*
X1052163Y648551D02*
X1070366D01*
X1052163Y647651D02*
X1070366D01*
X1052163Y646751D02*
X1070366D01*
X1052163Y645851D02*
X1070366D01*
X1052163Y644951D02*
X1070366D01*
X1052163Y644051D02*
X1070366D01*
X1052163Y643151D02*
X1070366D01*
X1052163Y642251D02*
X1070366D01*
X1052163Y641351D02*
X1070366D01*
X1052163Y640451D02*
X1070366D01*
X1052163Y639551D02*
X1070366D01*
X1052163Y638651D02*
X1070366D01*
X761097Y424451D02*
X1070366D01*
X760815Y423551D02*
X1070366D01*
X760266Y422651D02*
X1070366D01*
X759258Y421751D02*
X1070366D01*
X748770Y420851D02*
X1070366D01*
X748770Y419951D02*
X1070366D01*
X748770Y419051D02*
X1070366D01*
X748770Y418151D02*
X1070366D01*
X748747Y417251D02*
X1070366D01*
X748747Y416351D02*
X1070366D01*
X748747Y415451D02*
X1070366D01*
X748849Y414551D02*
X1070366D01*
X750774Y413651D02*
X1070366D01*
X751833Y412751D02*
X1070366D01*
X752553Y411851D02*
X1070366D01*
X753055Y410951D02*
X1070366D01*
X753392Y410051D02*
X1070366D01*
X753589Y409151D02*
X1070366D01*
X874545Y408251D02*
X1070366D01*
X874726Y407351D02*
X1070366D01*
X874726Y406451D02*
X1070366D01*
X874726Y405551D02*
X1070366D01*
X874726Y404651D02*
X1070366D01*
X874726Y403751D02*
X1070366D01*
X874726Y402851D02*
X1070366D01*
X874726Y401951D02*
X1070366D01*
X874551Y401051D02*
X1070366D01*
X511090Y400151D02*
X1070366D01*
X510242Y399251D02*
X1070366D01*
X425697Y398351D02*
X1070366D01*
X425697Y397451D02*
X1070366D01*
X425697Y396551D02*
X1070366D01*
X425697Y395651D02*
X1070366D01*
X1052163Y630551D02*
X1054415D01*
X1052163Y623351D02*
X1054045D01*
X1052163Y629651D02*
X1053186D01*
X1052163Y624251D02*
X1053011D01*
X1052163Y628751D02*
X1052548D01*
X1052163Y625151D02*
X1052450D01*
X1052163Y627851D02*
X1052205D01*
X1043872Y563051D02*
X1052033D01*
X1044707Y503651D02*
X1050975D01*
X1044894Y496451D02*
X1050789D01*
X1045510Y555851D02*
X1050395D01*
X1045641Y562151D02*
X1050264D01*
X1045882Y502751D02*
X1049801D01*
X1045970Y497351D02*
X1049712D01*
X1046344Y556751D02*
X1049562D01*
X1046415Y561251D02*
X1049490D01*
X1046500Y501851D02*
X1049183D01*
X1046549Y498251D02*
X1049133D01*
X1046805Y557651D02*
X1049101D01*
X1046843Y560351D02*
X1049063D01*
X1047022Y558551D02*
X1048884D01*
X1047034Y559451D02*
X1048872D01*
X1046830Y500951D02*
X1048853D01*
X1046852Y499151D02*
X1048830D01*
X1046941Y500051D02*
X1048742D01*
X511563Y430751D02*
X1043067D01*
X561346Y563051D02*
X1042033D01*
X975533Y503651D02*
X1040975D01*
X759091Y431651D02*
X1040872D01*
X760126Y437951D02*
X1040796D01*
X947731Y496451D02*
X1040789D01*
X958546Y555851D02*
X1040395D01*
X1019356Y587351D02*
X1040290D01*
X562533Y562151D02*
X1040264D01*
X760183Y432551D02*
X1040051D01*
X760737Y437051D02*
X1040010D01*
X975626Y502751D02*
X1039801D01*
X1019356Y577451D02*
X1039736D01*
X947727Y497351D02*
X1039712D01*
X760769Y433451D02*
X1039598D01*
X761062Y436151D02*
X1039576D01*
X562641Y556751D02*
X1039562D01*
X563155Y561251D02*
X1039490D01*
X1021360Y475751D02*
X1039402D01*
X761077Y434351D02*
X1039386D01*
X761169Y435251D02*
X1039379D01*
X1021360Y473051D02*
X1039240D01*
X1021360Y465851D02*
X1039215D01*
X975519Y501851D02*
X1039183D01*
X947724Y498251D02*
X1039133D01*
X563216Y557651D02*
X1039101D01*
X1021360Y482951D02*
X1039071D01*
X563488Y560351D02*
X1039063D01*
X563516Y558551D02*
X1038884D01*
X563602Y559451D02*
X1038872D01*
X975194Y500951D02*
X1038853D01*
X973429Y499151D02*
X1038830D01*
X974584Y500051D02*
X1038742D01*
X1019356Y584651D02*
X1038247D01*
X1021360Y476651D02*
X1038233D01*
X1019356Y588251D02*
X1038195D01*
X1021360Y472151D02*
X1038159D01*
X1021360Y466751D02*
X1038147D01*
X1019356Y594551D02*
X1038130D01*
X1019356Y578351D02*
X1038083D01*
X1021360Y482051D02*
X1038079D01*
X1021360Y477551D02*
X1037640D01*
X1021360Y471251D02*
X1037601D01*
X1021360Y467651D02*
X1037595D01*
X1021360Y481151D02*
X1037558D01*
X1019356Y583751D02*
X1037448D01*
X1019356Y589151D02*
X1037421D01*
X1019356Y593651D02*
X1037387D01*
X1019356Y579251D02*
X1037361D01*
X1021360Y478451D02*
X1037343D01*
X1021360Y470351D02*
X1037327D01*
X1021360Y468551D02*
X1037325D01*
X1021360Y480251D02*
X1037311D01*
X1021360Y479351D02*
X1037270D01*
X1021360Y469451D02*
X1037270D01*
X1019356Y582851D02*
X1037025D01*
X1019356Y590051D02*
X1037012D01*
X1019356Y592751D02*
X1036995D01*
X1019356Y580151D02*
X1036982D01*
X1019356Y581951D02*
X1036851D01*
X1019356Y590951D02*
X1036848D01*
X1019356Y591851D02*
X1036845D01*
X1019356Y581051D02*
X1036843D01*
X758970Y438851D02*
X1032886D01*
X1021360Y464951D02*
X1032647D01*
X541399Y439751D02*
X1032357D01*
X1021360Y464051D02*
X1032326D01*
X1021360Y463151D02*
X1032325D01*
X1021360Y462251D02*
X1032325D01*
X1021360Y461351D02*
X1032325D01*
X1021360Y460451D02*
X1032325D01*
X1021360Y459551D02*
X1032325D01*
X1021360Y458651D02*
X1032325D01*
X1021360Y457751D02*
X1032325D01*
X1021360Y456851D02*
X1032325D01*
X1021360Y455951D02*
X1032325D01*
X1021278Y455051D02*
X1032325D01*
X1020499Y454151D02*
X1032325D01*
X1019599Y453251D02*
X1032325D01*
X940903Y452351D02*
X1032325D01*
X939944Y451451D02*
X1032325D01*
X938874Y450551D02*
X1032325D01*
X499908Y449651D02*
X1032325D01*
X500913Y448751D02*
X1032325D01*
X501459Y447851D02*
X1032325D01*
X501740Y446951D02*
X1032325D01*
X501809Y446051D02*
X1032325D01*
X501678Y445151D02*
X1032325D01*
X537937Y444251D02*
X1032325D01*
X539943Y443351D02*
X1032325D01*
X540748Y442451D02*
X1032325D01*
X541193Y441551D02*
X1032325D01*
X541398Y440651D02*
X1032325D01*
X1019356Y595451D02*
X1030923D01*
X1019356Y596351D02*
X1030067D01*
X865956Y647651D02*
X1029963D01*
X865056Y646751D02*
X1029963D01*
X864156Y645851D02*
X1029963D01*
X863256Y644951D02*
X1029963D01*
X862356Y644051D02*
X1029963D01*
X861456Y643151D02*
X1029963D01*
X860556Y642251D02*
X1029963D01*
X859656Y641351D02*
X1029963D01*
X858756Y640451D02*
X1029963D01*
X857856Y639551D02*
X1029963D01*
X856956Y638651D02*
X1029963D01*
X856056Y637751D02*
X1029963D01*
X855156Y636851D02*
X1029963D01*
X854256Y635951D02*
X1029963D01*
X853356Y635051D02*
X1029963D01*
X852456Y634151D02*
X1029963D01*
X851556Y633251D02*
X1029963D01*
X850656Y632351D02*
X1029963D01*
X849756Y631451D02*
X1029963D01*
X848856Y630551D02*
X1029963D01*
X847956Y629651D02*
X1029963D01*
X847056Y628751D02*
X1029963D01*
X846156Y627851D02*
X1029963D01*
X845256Y626951D02*
X1029963D01*
X844356Y626051D02*
X1029963D01*
X843456Y625151D02*
X1029963D01*
X842556Y624251D02*
X1029963D01*
X841656Y623351D02*
X1029963D01*
X840756Y622451D02*
X1029963D01*
X839856Y621551D02*
X1029963D01*
X838956Y620651D02*
X1029963D01*
X838056Y619751D02*
X1029963D01*
X837156Y618851D02*
X1029963D01*
X836238Y617951D02*
X1029963D01*
X538905Y617051D02*
X1029963D01*
X538905Y616151D02*
X1029963D01*
X538905Y615251D02*
X1029963D01*
X538905Y614351D02*
X1029963D01*
X565221Y613451D02*
X1029963D01*
X567071Y612551D02*
X1029963D01*
X1017307Y611651D02*
X1029963D01*
X1018207Y610751D02*
X1029963D01*
X1019100Y609851D02*
X1029963D01*
X1019356Y608951D02*
X1029963D01*
X1019356Y608051D02*
X1029963D01*
X1019356Y607151D02*
X1029963D01*
X1019356Y606251D02*
X1029963D01*
X1019356Y605351D02*
X1029963D01*
X1019356Y604451D02*
X1029963D01*
X1019356Y603551D02*
X1029963D01*
X1019356Y602651D02*
X1029963D01*
X1019356Y601751D02*
X1029963D01*
X1019356Y600851D02*
X1029963D01*
X1019356Y599951D02*
X1029963D01*
X1019356Y599051D02*
X1029963D01*
X1019356Y598151D02*
X1029963D01*
X1019356Y597251D02*
X1029963D01*
X899335Y648551D02*
X1029382D01*
X900109Y649451D02*
X1028482D01*
X900877Y650351D02*
X1027582D01*
X901646Y651251D02*
X1026682D01*
X902415Y652151D02*
X1025782D01*
X903184Y653051D02*
X1024882D01*
X903952Y653951D02*
X1023982D01*
X904721Y654851D02*
X1023082D01*
X905490Y655751D02*
X1022182D01*
X906258Y656651D02*
X1021282D01*
X907027Y657551D02*
X1020382D01*
X907796Y658451D02*
X1019482D01*
X947772Y485651D02*
X969754D01*
X941861Y453251D02*
X969740D01*
X963429Y499151D02*
X969623D01*
X963545Y506351D02*
X969507D01*
X947775Y484751D02*
X968854D01*
X942820Y454151D02*
X968840D01*
X964584Y500051D02*
X968469D01*
X964639Y505451D02*
X968413D01*
X947779Y483851D02*
X968067D01*
X943778Y455051D02*
X968061D01*
X947782Y482951D02*
X967979D01*
X947785Y482051D02*
X967979D01*
X947789Y481151D02*
X967979D01*
X952838Y480251D02*
X967979D01*
X954316Y479351D02*
X967979D01*
X955030Y478451D02*
X967979D01*
X955421Y477551D02*
X967979D01*
X955583Y476651D02*
X967979D01*
X955544Y475751D02*
X967979D01*
X955297Y474851D02*
X967979D01*
X954796Y473951D02*
X967979D01*
X953888Y473051D02*
X967979D01*
X947823Y472151D02*
X967979D01*
X947826Y471251D02*
X967979D01*
X947830Y470351D02*
X967979D01*
X947833Y469451D02*
X967979D01*
X947837Y468551D02*
X967979D01*
X947840Y467651D02*
X967979D01*
X947844Y466751D02*
X967979D01*
X947847Y465851D02*
X967979D01*
X947850Y464951D02*
X967979D01*
X947854Y464051D02*
X967979D01*
X947857Y463151D02*
X967979D01*
X947861Y462251D02*
X967979D01*
X947864Y461351D02*
X967979D01*
X947868Y460451D02*
X967979D01*
X947870Y459551D02*
X967979D01*
X947569Y458651D02*
X967979D01*
X946654Y457751D02*
X967979D01*
X945695Y456851D02*
X967979D01*
X944737Y455951D02*
X967979D01*
X962689Y528851D02*
X967941D01*
X965194Y500951D02*
X967858D01*
X965225Y504551D02*
X967827D01*
X965519Y501851D02*
X967533D01*
X965533Y503651D02*
X967519D01*
X964002Y536051D02*
X967459D01*
X964287Y529751D02*
X967427D01*
X965626Y502751D02*
X967426D01*
X964873Y535151D02*
X967426D01*
X965354Y534251D02*
X967426D01*
X965587Y533351D02*
X967426D01*
X965613Y532451D02*
X967426D01*
X965437Y531551D02*
X967426D01*
X965029Y530651D02*
X967426D01*
X952689Y528851D02*
X960363D01*
X760798Y571151D02*
X960207D01*
X567857Y611651D02*
X960150D01*
X943226Y538751D02*
X959826D01*
X943226Y537851D02*
X959826D01*
X943226Y536951D02*
X959826D01*
X953429Y499151D02*
X959623D01*
X953545Y506351D02*
X959507D01*
X943494Y539651D02*
X959489D01*
X761090Y572051D02*
X959307D01*
X568292Y610751D02*
X959250D01*
X954002Y536051D02*
X959051D01*
X954287Y529751D02*
X958766D01*
X944394Y540551D02*
X958589D01*
X954584Y500051D02*
X958469D01*
X954639Y505451D02*
X958413D01*
X761168Y572951D02*
X958407D01*
X568488Y609851D02*
X958356D01*
X954873Y535151D02*
X958179D01*
X568481Y608951D02*
X958101D01*
X658203Y608051D02*
X958101D01*
X764757Y607151D02*
X958101D01*
X765738Y606251D02*
X958101D01*
X766275Y605351D02*
X958101D01*
X766547Y604451D02*
X958101D01*
X766610Y603551D02*
X958101D01*
X766471Y602651D02*
X958101D01*
X766110Y601751D02*
X958101D01*
X765443Y600851D02*
X958101D01*
X764128Y599951D02*
X958101D01*
X734213Y599051D02*
X958101D01*
X734213Y598151D02*
X958101D01*
X734220Y597251D02*
X958101D01*
X734220Y596351D02*
X958101D01*
X734220Y595451D02*
X958101D01*
X734220Y594551D02*
X958101D01*
X734288Y593651D02*
X958101D01*
X734392Y592751D02*
X958101D01*
X734023Y591851D02*
X958101D01*
X724294Y590951D02*
X958101D01*
X724250Y590051D02*
X958101D01*
X723661Y589151D02*
X958101D01*
X714213Y588251D02*
X958101D01*
X714213Y587351D02*
X958101D01*
X761151Y586451D02*
X958101D01*
X761170Y585551D02*
X958101D01*
X761170Y584651D02*
X958101D01*
X761170Y583751D02*
X958101D01*
X761170Y582851D02*
X958101D01*
X761170Y581951D02*
X958101D01*
X761170Y581051D02*
X958101D01*
X761165Y580151D02*
X958101D01*
X760531Y579251D02*
X958101D01*
X714213Y578351D02*
X958101D01*
X713986Y577451D02*
X958101D01*
X758846Y576551D02*
X958101D01*
X760069Y575651D02*
X958101D01*
X760705Y574751D02*
X958101D01*
X761047Y573851D02*
X958101D01*
X955029Y530651D02*
X958024D01*
X955194Y500951D02*
X957858D01*
X955225Y504551D02*
X957827D01*
X955354Y534251D02*
X957698D01*
X945294Y541451D02*
X957689D01*
X955437Y531551D02*
X957616D01*
X955519Y501851D02*
X957533D01*
X955533Y503651D02*
X957519D01*
X955587Y533351D02*
X957466D01*
X955613Y532451D02*
X957440D01*
X955626Y502751D02*
X957426D01*
X946194Y542351D02*
X956789D01*
X947094Y543251D02*
X955889D01*
X947919Y544151D02*
X955038D01*
X948157Y545051D02*
X954757D01*
X948157Y547751D02*
X954757D01*
X948157Y546851D02*
X954757D01*
X948157Y545951D02*
X954757D01*
X948280Y548651D02*
X954633D01*
X948546Y555851D02*
X954368D01*
X949477Y549551D02*
X953436D01*
X949604Y554951D02*
X953310D01*
X950104Y550451D02*
X952809D01*
X950175Y554051D02*
X952739D01*
X950440Y551351D02*
X952474D01*
X950472Y553151D02*
X952441D01*
X950556Y552251D02*
X952357D01*
X942689Y528851D02*
X950363D01*
X947792Y480251D02*
X950146D01*
X947720Y499151D02*
X949623D01*
X947693Y506351D02*
X949507D01*
X947820Y473051D02*
X949096D01*
X944002Y536051D02*
X949051D01*
X944287Y529751D02*
X948766D01*
X947796Y479351D02*
X948668D01*
X947717Y500051D02*
X948469D01*
X947696Y505451D02*
X948413D01*
X947816Y473951D02*
X948188D01*
X944873Y535151D02*
X948179D01*
X945029Y530651D02*
X948024D01*
X947799Y478451D02*
X947955D01*
X947713Y500951D02*
X947858D01*
X947700Y504551D02*
X947827D01*
X945354Y534251D02*
X947698D01*
X945437Y531551D02*
X947616D01*
X945587Y533351D02*
X947466D01*
X945613Y532451D02*
X947440D01*
X578757Y547751D02*
X944757D01*
X578821Y546851D02*
X944757D01*
X578686Y545951D02*
X944757D01*
X578481Y548651D02*
X944633D01*
X561575Y555851D02*
X944368D01*
X578327Y545051D02*
X944085D01*
X577941Y549551D02*
X943436D01*
X501811Y554951D02*
X943310D01*
X577665Y544151D02*
X943185D01*
X576951Y550451D02*
X942809D01*
X501704Y554051D02*
X942739D01*
X499611Y551351D02*
X942474D01*
X501379Y553151D02*
X942441D01*
X500767Y552251D02*
X942357D01*
X576366Y543251D02*
X942285D01*
X561203Y542351D02*
X941385D01*
X561203Y541451D02*
X940485D01*
X555586Y528851D02*
X940363D01*
X561188Y540551D02*
X939891D01*
X561188Y539651D02*
X939826D01*
X561463Y538751D02*
X939826D01*
X562580Y537851D02*
X939826D01*
X563175Y536951D02*
X939826D01*
X563490Y536051D02*
X939051D01*
X556486Y529751D02*
X938766D01*
X563588Y535151D02*
X938179D01*
X557386Y530651D02*
X938024D01*
X563487Y534251D02*
X937698D01*
X561438Y531551D02*
X937616D01*
X563169Y533351D02*
X937466D01*
X562568Y532451D02*
X937440D01*
X548892Y511751D02*
X934014D01*
X548892Y510851D02*
X933114D01*
X548892Y509951D02*
X932214D01*
X548892Y509051D02*
X931314D01*
X548892Y508151D02*
X930414D01*
X548892Y507251D02*
X929911D01*
X557613Y476651D02*
X929884D01*
X590619Y477551D02*
X929884D01*
X591664Y478451D02*
X929884D01*
X592229Y479351D02*
X929884D01*
X592523Y480251D02*
X929884D01*
X592603Y481151D02*
X929884D01*
X592483Y482051D02*
X929884D01*
X592144Y482951D02*
X929884D01*
X591510Y483851D02*
X929884D01*
X590296Y484751D02*
X929884D01*
X578527Y485651D02*
X929884D01*
X577691Y486551D02*
X929884D01*
X578128Y487451D02*
X929884D01*
X578723Y488351D02*
X929884D01*
X578958Y489251D02*
X929884D01*
X578918Y490151D02*
X929884D01*
X578591Y491051D02*
X929884D01*
X577838Y491951D02*
X929884D01*
X578015Y492851D02*
X929884D01*
X578672Y493751D02*
X929884D01*
X578944Y494651D02*
X929884D01*
X578938Y495551D02*
X929884D01*
X578650Y496451D02*
X929884D01*
X577968Y497351D02*
X929884D01*
X548271Y498251D02*
X929884D01*
X549926Y499151D02*
X929884D01*
X550679Y500051D02*
X929884D01*
X551095Y500951D02*
X929884D01*
X551276Y501851D02*
X929884D01*
X551255Y502751D02*
X929884D01*
X551029Y503651D02*
X929884D01*
X550555Y504551D02*
X929884D01*
X549698Y505451D02*
X929884D01*
X548892Y506351D02*
X929884D01*
X556937Y475751D02*
X928998D01*
X555952Y474851D02*
X928098D01*
X554286Y473951D02*
X927198D01*
X518817Y473051D02*
X926298D01*
X519366Y472151D02*
X925398D01*
X520266Y471251D02*
X924498D01*
X521166Y470351D02*
X923598D01*
X522066Y469451D02*
X922698D01*
X866856Y648551D02*
X884557D01*
X867756Y649451D02*
X884112D01*
X882336Y658451D02*
X884097D01*
X883596Y657551D02*
X884097D01*
X883818Y652151D02*
X884097D01*
X882804Y651251D02*
X884097D01*
X868656Y650351D02*
X884097D01*
X872336Y658451D02*
X878916D01*
X872804Y651251D02*
X878448D01*
X873596Y657551D02*
X877656D01*
X873818Y652151D02*
X877434D01*
X874245Y656651D02*
X877007D01*
X874369Y653051D02*
X876883D01*
X874595Y655751D02*
X876656D01*
X874652Y653951D02*
X876600D01*
X874724Y654851D02*
X876528D01*
X862336Y658451D02*
X868916D01*
X863596Y657551D02*
X867656D01*
X864245Y656651D02*
X867007D01*
X862579Y408251D02*
X866707D01*
X862597Y401051D02*
X866701D01*
X864595Y655751D02*
X866656D01*
X864652Y653951D02*
X866600D01*
X864369Y653051D02*
X866548D01*
X864724Y654851D02*
X866528D01*
X863707Y407351D02*
X866526D01*
X864307Y406451D02*
X866526D01*
X864625Y405551D02*
X866526D01*
X864726Y404651D02*
X866526D01*
X864627Y403751D02*
X866526D01*
X864312Y402851D02*
X866526D01*
X863716Y401951D02*
X866526D01*
X863818Y652151D02*
X865648D01*
X862804Y651251D02*
X864748D01*
X858656Y650351D02*
X863848D01*
X857756Y649451D02*
X862948D01*
X856856Y648551D02*
X862048D01*
X855956Y647651D02*
X861148D01*
X855056Y646751D02*
X860248D01*
X854156Y645851D02*
X859348D01*
X852336Y658451D02*
X858916D01*
X852579Y408251D02*
X858673D01*
X852597Y401051D02*
X858655D01*
X853256Y644951D02*
X858448D01*
X853596Y657551D02*
X857656D01*
X852356Y644051D02*
X857548D01*
X853707Y407351D02*
X857545D01*
X853716Y401951D02*
X857536D01*
X854245Y656651D02*
X857007D01*
X854307Y406451D02*
X856945D01*
X854312Y402851D02*
X856940D01*
X854595Y655751D02*
X856656D01*
X851456Y643151D02*
X856648D01*
X854625Y405551D02*
X856627D01*
X854627Y403751D02*
X856625D01*
X854652Y653951D02*
X856600D01*
X854369Y653051D02*
X856548D01*
X854724Y654851D02*
X856528D01*
X854726Y404651D02*
X856526D01*
X850556Y642251D02*
X855748D01*
X853818Y652151D02*
X855648D01*
X849656Y641351D02*
X854848D01*
X852804Y651251D02*
X854748D01*
X848756Y640451D02*
X853948D01*
X848656Y650351D02*
X853848D01*
X847856Y639551D02*
X853048D01*
X847756Y649451D02*
X852948D01*
X846956Y638651D02*
X852148D01*
X846856Y648551D02*
X852048D01*
X846056Y637751D02*
X851248D01*
X845956Y647651D02*
X851148D01*
X845156Y636851D02*
X850348D01*
X845056Y646751D02*
X850248D01*
X844256Y635951D02*
X849448D01*
X844156Y645851D02*
X849348D01*
X842336Y658451D02*
X848916D01*
X842579Y408251D02*
X848673D01*
X842597Y401051D02*
X848655D01*
X843356Y635051D02*
X848548D01*
X843256Y644951D02*
X848448D01*
X843596Y657551D02*
X847656D01*
X842456Y634151D02*
X847648D01*
X842356Y644051D02*
X847548D01*
X843707Y407351D02*
X847545D01*
X843716Y401951D02*
X847536D01*
X844245Y656651D02*
X847007D01*
X844307Y406451D02*
X846945D01*
X844312Y402851D02*
X846940D01*
X841556Y633251D02*
X846748D01*
X844595Y655751D02*
X846656D01*
X841456Y643151D02*
X846648D01*
X844625Y405551D02*
X846627D01*
X844627Y403751D02*
X846625D01*
X844652Y653951D02*
X846600D01*
X844369Y653051D02*
X846548D01*
X844724Y654851D02*
X846528D01*
X844726Y404651D02*
X846526D01*
X840656Y632351D02*
X845848D01*
X840556Y642251D02*
X845748D01*
X843818Y652151D02*
X845648D01*
X839756Y631451D02*
X844948D01*
X839656Y641351D02*
X844848D01*
X842804Y651251D02*
X844748D01*
X838856Y630551D02*
X844048D01*
X838756Y640451D02*
X843948D01*
X838656Y650351D02*
X843848D01*
X837956Y629651D02*
X843148D01*
X837856Y639551D02*
X843048D01*
X837756Y649451D02*
X842948D01*
X837056Y628751D02*
X842248D01*
X836956Y638651D02*
X842148D01*
X836856Y648551D02*
X842048D01*
X836156Y627851D02*
X841348D01*
X836056Y637751D02*
X841248D01*
X835956Y647651D02*
X841148D01*
X835256Y626951D02*
X840448D01*
X835156Y636851D02*
X840348D01*
X835056Y646751D02*
X840248D01*
X834356Y626051D02*
X839548D01*
X834256Y635951D02*
X839448D01*
X834156Y645851D02*
X839348D01*
X832336Y658451D02*
X838916D01*
X832579Y408251D02*
X838673D01*
X832597Y401051D02*
X838655D01*
X833456Y625151D02*
X838648D01*
X833356Y635051D02*
X838548D01*
X833256Y644951D02*
X838448D01*
X832556Y624251D02*
X837748D01*
X833596Y657551D02*
X837656D01*
X832456Y634151D02*
X837648D01*
X832356Y644051D02*
X837548D01*
X833707Y407351D02*
X837545D01*
X833716Y401951D02*
X837536D01*
X834245Y656651D02*
X837007D01*
X834307Y406451D02*
X836945D01*
X834312Y402851D02*
X836940D01*
X831656Y623351D02*
X836848D01*
X831556Y633251D02*
X836748D01*
X834595Y655751D02*
X836656D01*
X831456Y643151D02*
X836648D01*
X834625Y405551D02*
X836627D01*
X834627Y403751D02*
X836625D01*
X834652Y653951D02*
X836600D01*
X834369Y653051D02*
X836548D01*
X834724Y654851D02*
X836528D01*
X834726Y404651D02*
X836526D01*
X830756Y622451D02*
X835948D01*
X830656Y632351D02*
X835848D01*
X830556Y642251D02*
X835748D01*
X833818Y652151D02*
X835648D01*
X829856Y621551D02*
X835048D01*
X829756Y631451D02*
X834948D01*
X829656Y641351D02*
X834848D01*
X832804Y651251D02*
X834748D01*
X828856Y630551D02*
X834048D01*
X828756Y640451D02*
X833948D01*
X828656Y650351D02*
X833848D01*
X827956Y629651D02*
X833148D01*
X827856Y639551D02*
X833048D01*
X827756Y649451D02*
X832948D01*
X827056Y628751D02*
X832248D01*
X826956Y638651D02*
X832148D01*
X826856Y648551D02*
X832048D01*
X826156Y627851D02*
X831348D01*
X826056Y637751D02*
X831248D01*
X825956Y647651D02*
X831148D01*
X825256Y626951D02*
X830448D01*
X825156Y636851D02*
X830348D01*
X825056Y646751D02*
X830248D01*
X824356Y626051D02*
X829548D01*
X824256Y635951D02*
X829448D01*
X824156Y645851D02*
X829348D01*
X822336Y658451D02*
X828916D01*
X753659Y408251D02*
X828673D01*
X511559Y401051D02*
X828655D01*
X823456Y625151D02*
X828648D01*
X823356Y635051D02*
X828548D01*
X823256Y644951D02*
X828448D01*
X822556Y624251D02*
X827748D01*
X823596Y657551D02*
X827656D01*
X822456Y634151D02*
X827648D01*
X822356Y644051D02*
X827548D01*
X753606Y407351D02*
X827545D01*
X749238Y401951D02*
X827536D01*
X824245Y656651D02*
X827007D01*
X753426Y406451D02*
X826945D01*
X750948Y402851D02*
X826940D01*
X821656Y623351D02*
X826848D01*
X821556Y633251D02*
X826748D01*
X824595Y655751D02*
X826656D01*
X821456Y643151D02*
X826648D01*
X753110Y405551D02*
X826627D01*
X751948Y403751D02*
X826625D01*
X824652Y653951D02*
X826600D01*
X824369Y653051D02*
X826548D01*
X824724Y654851D02*
X826528D01*
X752633Y404651D02*
X826526D01*
X820656Y632351D02*
X825848D01*
X820556Y642251D02*
X825748D01*
X823818Y652151D02*
X825648D01*
X819756Y631451D02*
X824948D01*
X819656Y641351D02*
X824848D01*
X822804Y651251D02*
X824748D01*
X818856Y630551D02*
X824048D01*
X818756Y640451D02*
X823948D01*
X808656Y650351D02*
X823848D01*
X817956Y629651D02*
X823148D01*
X817856Y639551D02*
X823048D01*
X807756Y649451D02*
X822948D01*
X817056Y628751D02*
X822248D01*
X816956Y638651D02*
X822148D01*
X806856Y648551D02*
X822048D01*
X816156Y627851D02*
X821348D01*
X816056Y637751D02*
X821248D01*
X805956Y647651D02*
X821148D01*
X815256Y626951D02*
X820448D01*
X815156Y636851D02*
X820348D01*
X805056Y646751D02*
X820248D01*
X814356Y626051D02*
X819548D01*
X814256Y635951D02*
X819448D01*
X804156Y645851D02*
X819348D01*
X812336Y658451D02*
X818916D01*
X813456Y625151D02*
X818648D01*
X813356Y635051D02*
X818548D01*
X812804Y651251D02*
X818448D01*
X803256Y644951D02*
X818448D01*
X813596Y657551D02*
X817656D01*
X812456Y634151D02*
X817648D01*
X802356Y644051D02*
X817548D01*
X813818Y652151D02*
X817434D01*
X814245Y656651D02*
X817007D01*
X814369Y653051D02*
X816883D01*
X811556Y633251D02*
X816748D01*
X814595Y655751D02*
X816656D01*
X801456Y643151D02*
X816648D01*
X814652Y653951D02*
X816600D01*
X814724Y654851D02*
X816528D01*
X810656Y632351D02*
X815848D01*
X800556Y642251D02*
X815748D01*
X809756Y631451D02*
X814948D01*
X799656Y641351D02*
X814848D01*
X808856Y630551D02*
X814048D01*
X798756Y640451D02*
X813948D01*
X807956Y629651D02*
X813148D01*
X797856Y639551D02*
X813048D01*
X807056Y628751D02*
X812248D01*
X796956Y638651D02*
X812148D01*
X806156Y627851D02*
X811348D01*
X796056Y637751D02*
X811248D01*
X795156Y636851D02*
X810348D01*
X794256Y635951D02*
X809448D01*
X681227Y658451D02*
X808916D01*
X793356Y635051D02*
X808548D01*
X680327Y657551D02*
X807656D01*
X792456Y634151D02*
X807648D01*
X683468Y656651D02*
X807007D01*
X791556Y633251D02*
X806748D01*
X685119Y655751D02*
X806656D01*
X686287Y653951D02*
X806600D01*
X686468Y653051D02*
X806548D01*
X685872Y654851D02*
X806528D01*
X790656Y632351D02*
X805848D01*
X686447Y652151D02*
X805648D01*
X789756Y631451D02*
X804948D01*
X686220Y651251D02*
X804748D01*
X788856Y630551D02*
X804048D01*
X685746Y650351D02*
X803848D01*
X787956Y629651D02*
X803148D01*
X684888Y649451D02*
X802948D01*
X678620Y648551D02*
X802048D01*
X678620Y647651D02*
X801148D01*
X678620Y646751D02*
X800248D01*
X678620Y645851D02*
X799348D01*
X678620Y644951D02*
X798448D01*
X678620Y644051D02*
X797548D01*
X678620Y643151D02*
X796648D01*
X678620Y642251D02*
X795748D01*
X678620Y641351D02*
X794848D01*
X678620Y640451D02*
X793948D01*
X678620Y639551D02*
X793048D01*
X678620Y638651D02*
X792148D01*
X763260Y637751D02*
X791248D01*
X765160Y636851D02*
X790348D01*
X765953Y635951D02*
X789448D01*
X766391Y635051D02*
X788548D01*
X766590Y634151D02*
X787648D01*
X766586Y633251D02*
X786748D01*
X766378Y632351D02*
X785848D01*
X765928Y631451D02*
X784948D01*
X753260Y637751D02*
X761767D01*
X754128Y599951D02*
X760898D01*
X754757Y607151D02*
X760269D01*
X755160Y636851D02*
X759867D01*
X755443Y600851D02*
X759584D01*
X755738Y606251D02*
X759288D01*
X755928Y631451D02*
X759098D01*
X755953Y635951D02*
X759074D01*
X756110Y601751D02*
X758917D01*
X756275Y605351D02*
X758752D01*
X756378Y632351D02*
X758648D01*
X756391Y635051D02*
X758635D01*
X756471Y602651D02*
X758555D01*
X756547Y604451D02*
X758479D01*
X756586Y633251D02*
X758440D01*
X756590Y634151D02*
X758436D01*
X756610Y603551D02*
X758417D01*
X748766Y428951D02*
X755374D01*
X748846Y576551D02*
X755293D01*
X748970Y438851D02*
X755169D01*
X749091Y431651D02*
X755048D01*
X749197Y569351D02*
X754942D01*
X749258Y421751D02*
X754881D01*
X750034Y428051D02*
X754106D01*
X750069Y575651D02*
X754070D01*
X750126Y437951D02*
X754013D01*
X750183Y432551D02*
X753956D01*
X750236Y570251D02*
X753903D01*
X750266Y422651D02*
X753873D01*
X747976Y579251D02*
X753608D01*
X750685Y427151D02*
X753454D01*
X750705Y574751D02*
X753434D01*
X750737Y437051D02*
X753402D01*
X750769Y433451D02*
X753370D01*
X750798Y571151D02*
X753341D01*
X750815Y423551D02*
X753324D01*
X751037Y426251D02*
X753102D01*
X751047Y573851D02*
X753092D01*
X751062Y436151D02*
X753077D01*
X751077Y434351D02*
X753062D01*
X751090Y572051D02*
X753049D01*
X751097Y424451D02*
X753042D01*
X749631Y586451D02*
X752988D01*
X749754Y580151D02*
X752974D01*
X751167Y425351D02*
X752972D01*
X751168Y572951D02*
X752971D01*
X751169Y435251D02*
X752970D01*
X750463Y585551D02*
X752970D01*
X750923Y584651D02*
X752970D01*
X751139Y583751D02*
X752970D01*
X751150Y582851D02*
X752970D01*
X750958Y581951D02*
X752970D01*
X750530Y581051D02*
X752970D01*
X743260Y637751D02*
X751767D01*
X744128Y599951D02*
X750898D01*
X744757Y607151D02*
X750269D01*
X745160Y636851D02*
X749867D01*
X745443Y600851D02*
X749584D01*
X745738Y606251D02*
X749288D01*
X747186Y631451D02*
X749098D01*
X745953Y635951D02*
X749074D01*
X746110Y601751D02*
X748917D01*
X746275Y605351D02*
X748752D01*
X746378Y632351D02*
X748648D01*
X746391Y635051D02*
X748635D01*
X746471Y602651D02*
X748555D01*
X746547Y604451D02*
X748479D01*
X746586Y633251D02*
X748440D01*
X746590Y634151D02*
X748436D01*
X746610Y603551D02*
X748417D01*
X737976Y579251D02*
X746164D01*
X738766Y428951D02*
X745374D01*
X491750Y420851D02*
X745370D01*
X509581Y419951D02*
X745370D01*
X510756Y419051D02*
X745370D01*
X511375Y418151D02*
X745359D01*
X511705Y417251D02*
X745347D01*
X511816Y416351D02*
X745347D01*
X511728Y415451D02*
X745347D01*
X738846Y576551D02*
X745293D01*
X511425Y414551D02*
X745246D01*
X738970Y438851D02*
X745169D01*
X739091Y431651D02*
X745048D01*
X739197Y569351D02*
X744942D01*
X739258Y421751D02*
X744881D01*
X511782Y401951D02*
X744856D01*
X739631Y586451D02*
X744508D01*
X739754Y580151D02*
X744385D01*
X743020Y629651D02*
X744177D01*
X740034Y428051D02*
X744106D01*
X740069Y575651D02*
X744070D01*
X740126Y437951D02*
X744013D01*
X740183Y432551D02*
X743956D01*
X740236Y570251D02*
X743903D01*
X740266Y422651D02*
X743873D01*
X740463Y585551D02*
X743676D01*
X740530Y581051D02*
X743609D01*
X740685Y427151D02*
X743454D01*
X740705Y574751D02*
X743434D01*
X740737Y437051D02*
X743402D01*
X740769Y433451D02*
X743370D01*
X740798Y571151D02*
X743341D01*
X740815Y423551D02*
X743324D01*
X510846Y413651D02*
X743321D01*
X740923Y584651D02*
X743216D01*
X740958Y581951D02*
X743181D01*
X511800Y402851D02*
X743146D01*
X741037Y426251D02*
X743102D01*
X741047Y573851D02*
X743092D01*
X741062Y436151D02*
X743077D01*
X741077Y434351D02*
X743062D01*
X741090Y572051D02*
X743049D01*
X741097Y424451D02*
X743042D01*
X741139Y583751D02*
X743000D01*
X741150Y582851D02*
X742989D01*
X741167Y425351D02*
X742972D01*
X741168Y572951D02*
X742971D01*
X741169Y435251D02*
X742970D01*
X509770Y412751D02*
X742261D01*
X511615Y403751D02*
X742146D01*
X738986Y629651D02*
X742006D01*
X733260Y637751D02*
X741767D01*
X500750Y411851D02*
X741542D01*
X511195Y404651D02*
X741462D01*
X501650Y410951D02*
X741040D01*
X510434Y405551D02*
X740985D01*
X734213Y599951D02*
X740898D01*
X502550Y410051D02*
X740703D01*
X508740Y406451D02*
X740668D01*
X503450Y409151D02*
X740506D01*
X505250Y407351D02*
X740489D01*
X504350Y408251D02*
X740436D01*
X734757Y607151D02*
X740269D01*
X738086Y630551D02*
X739911D01*
X735160Y636851D02*
X739867D01*
X735443Y600851D02*
X739584D01*
X735738Y606251D02*
X739288D01*
X737186Y631451D02*
X739098D01*
X735953Y635951D02*
X739074D01*
X736110Y601751D02*
X738917D01*
X736275Y605351D02*
X738752D01*
X736378Y632351D02*
X738648D01*
X736391Y635051D02*
X738635D01*
X736471Y602651D02*
X738555D01*
X736547Y604451D02*
X738479D01*
X736586Y633251D02*
X738440D01*
X736590Y634151D02*
X738436D01*
X736610Y603551D02*
X738417D01*
X727976Y579251D02*
X736164D01*
X730786Y627851D02*
X735977D01*
X728766Y428951D02*
X735374D01*
X728846Y576551D02*
X735293D01*
X728970Y438851D02*
X735169D01*
X729886Y628751D02*
X735077D01*
X729091Y431651D02*
X735048D01*
X729197Y569351D02*
X734942D01*
X729258Y421751D02*
X734881D01*
X729631Y586451D02*
X734508D01*
X729754Y580151D02*
X734385D01*
X733020Y629651D02*
X734177D01*
X730034Y428051D02*
X734106D01*
X730069Y575651D02*
X734070D01*
X730126Y437951D02*
X734013D01*
X730183Y432551D02*
X733956D01*
X730236Y570251D02*
X733903D01*
X730266Y422651D02*
X733873D01*
X730463Y585551D02*
X733676D01*
X730530Y581051D02*
X733609D01*
X730685Y427151D02*
X733454D01*
X730705Y574751D02*
X733434D01*
X730737Y437051D02*
X733402D01*
X730769Y433451D02*
X733370D01*
X730798Y571151D02*
X733341D01*
X730815Y423551D02*
X733324D01*
X730923Y584651D02*
X733216D01*
X730958Y581951D02*
X733181D01*
X731037Y426251D02*
X733102D01*
X731047Y573851D02*
X733092D01*
X731062Y436151D02*
X733077D01*
X731077Y434351D02*
X733062D01*
X731090Y572051D02*
X733049D01*
X731097Y424451D02*
X733042D01*
X731139Y583751D02*
X733000D01*
X731150Y582851D02*
X732989D01*
X731167Y425351D02*
X732972D01*
X731168Y572951D02*
X732971D01*
X731169Y435251D02*
X732970D01*
X728986Y629651D02*
X732006D01*
X723260Y637751D02*
X731767D01*
X724141Y591851D02*
X731017D01*
X724213Y596351D02*
X730820D01*
X724141Y595451D02*
X730820D01*
X724141Y594551D02*
X730820D01*
X724213Y599951D02*
X730813D01*
X724213Y599051D02*
X730813D01*
X724213Y598151D02*
X730813D01*
X724213Y597251D02*
X730813D01*
X724141Y593651D02*
X730751D01*
X724141Y592751D02*
X730648D01*
X724757Y607151D02*
X730269D01*
X728086Y630551D02*
X729911D01*
X725160Y636851D02*
X729867D01*
X725443Y600851D02*
X729584D01*
X725738Y606251D02*
X729288D01*
X727186Y631451D02*
X729098D01*
X725953Y635951D02*
X729074D01*
X726110Y601751D02*
X728917D01*
X726275Y605351D02*
X728752D01*
X723486Y625151D02*
X728677D01*
X726378Y632351D02*
X728648D01*
X726391Y635051D02*
X728635D01*
X726471Y602651D02*
X728555D01*
X726547Y604451D02*
X728479D01*
X726586Y633251D02*
X728440D01*
X726590Y634151D02*
X728436D01*
X726610Y603551D02*
X728417D01*
X722586Y626051D02*
X727777D01*
X721686Y626951D02*
X726877D01*
X717976Y579251D02*
X726164D01*
X720786Y627851D02*
X725977D01*
X718766Y428951D02*
X725374D01*
X718846Y576551D02*
X725293D01*
X718970Y438851D02*
X725169D01*
X719886Y628751D02*
X725077D01*
X719091Y431651D02*
X725048D01*
X719197Y569351D02*
X724942D01*
X719258Y421751D02*
X724881D01*
X719631Y586451D02*
X724508D01*
X719754Y580151D02*
X724385D01*
X723020Y629651D02*
X724177D01*
X720034Y428051D02*
X724106D01*
X720069Y575651D02*
X724070D01*
X720126Y437951D02*
X724013D01*
X720183Y432551D02*
X723956D01*
X720236Y570251D02*
X723903D01*
X720266Y422651D02*
X723873D01*
X720463Y585551D02*
X723676D01*
X720530Y581051D02*
X723609D01*
X720685Y427151D02*
X723454D01*
X720705Y574751D02*
X723434D01*
X720737Y437051D02*
X723402D01*
X720769Y433451D02*
X723370D01*
X720798Y571151D02*
X723341D01*
X720815Y423551D02*
X723324D01*
X720923Y584651D02*
X723216D01*
X720958Y581951D02*
X723181D01*
X721037Y426251D02*
X723102D01*
X721047Y573851D02*
X723092D01*
X721062Y436151D02*
X723077D01*
X721077Y434351D02*
X723062D01*
X721090Y572051D02*
X723049D01*
X721097Y424451D02*
X723042D01*
X721139Y583751D02*
X723000D01*
X721150Y582851D02*
X722989D01*
X721167Y425351D02*
X722972D01*
X721168Y572951D02*
X722971D01*
X721169Y435251D02*
X722970D01*
X718986Y629651D02*
X722006D01*
X713260Y637751D02*
X721767D01*
X714213Y589151D02*
X721221D01*
X714213Y599951D02*
X720813D01*
X714213Y599051D02*
X720813D01*
X714213Y598151D02*
X720813D01*
X714213Y597251D02*
X720813D01*
X714213Y596351D02*
X720775D01*
X714213Y595451D02*
X720741D01*
X714213Y594551D02*
X720741D01*
X714213Y593651D02*
X720741D01*
X714213Y592751D02*
X720741D01*
X714213Y591851D02*
X720741D01*
X714213Y590051D02*
X720632D01*
X714213Y590951D02*
X720588D01*
X715286Y623351D02*
X720477D01*
X714757Y607151D02*
X720269D01*
X718086Y630551D02*
X719911D01*
X715160Y636851D02*
X719867D01*
X715443Y600851D02*
X719584D01*
X714386Y624251D02*
X719577D01*
X715738Y606251D02*
X719288D01*
X717186Y631451D02*
X719098D01*
X715953Y635951D02*
X719074D01*
X716110Y601751D02*
X718917D01*
X716275Y605351D02*
X718752D01*
X713486Y625151D02*
X718677D01*
X716378Y632351D02*
X718648D01*
X716391Y635051D02*
X718635D01*
X716471Y602651D02*
X718555D01*
X716547Y604451D02*
X718479D01*
X716586Y633251D02*
X718440D01*
X716590Y634151D02*
X718436D01*
X716610Y603551D02*
X718417D01*
X712586Y626051D02*
X717777D01*
X711686Y626951D02*
X716877D01*
X714213Y579251D02*
X716164D01*
X710786Y627851D02*
X715977D01*
X708766Y428951D02*
X715374D01*
X713169Y576551D02*
X715293D01*
X708970Y438851D02*
X715169D01*
X709886Y628751D02*
X715077D01*
X709091Y431651D02*
X715048D01*
X709258Y421751D02*
X714881D01*
X714213Y586451D02*
X714508D01*
X714213Y580151D02*
X714385D01*
X713020Y629651D02*
X714177D01*
X710034Y428051D02*
X714106D01*
X712269Y575651D02*
X714070D01*
X710126Y437951D02*
X714013D01*
X710183Y432551D02*
X713956D01*
X710266Y422651D02*
X713873D01*
X710685Y427151D02*
X713454D01*
X711369Y574751D02*
X713434D01*
X710737Y437051D02*
X713402D01*
X710769Y433451D02*
X713370D01*
X710815Y423551D02*
X713324D01*
X711037Y426251D02*
X713102D01*
X711047Y573851D02*
X713092D01*
X711062Y436151D02*
X713077D01*
X711077Y434351D02*
X713062D01*
X711090Y572051D02*
X713049D01*
X711097Y424451D02*
X713042D01*
X711167Y425351D02*
X712972D01*
X711168Y572951D02*
X712971D01*
X711169Y435251D02*
X712970D01*
X710798Y571151D02*
X712960D01*
X707086Y621551D02*
X712277D01*
X710236Y570251D02*
X712060D01*
X708986Y629651D02*
X712006D01*
X703260Y637751D02*
X711767D01*
X706186Y622451D02*
X711377D01*
X704216Y599951D02*
X710813D01*
X704216Y599051D02*
X710813D01*
X704216Y598151D02*
X710813D01*
X704216Y597251D02*
X710813D01*
X704344Y596351D02*
X710813D01*
X704361Y595451D02*
X710813D01*
X703873Y594551D02*
X710813D01*
X698855Y593651D02*
X710813D01*
X698959Y592751D02*
X710813D01*
X708492Y591851D02*
X710813D01*
X708939Y590951D02*
X710813D01*
X708895Y590051D02*
X710813D01*
X708778Y589151D02*
X710813D01*
X708778Y588251D02*
X710813D01*
X708778Y587351D02*
X710813D01*
X709631Y586451D02*
X710813D01*
X710463Y585551D02*
X710813D01*
X710530Y581051D02*
X710813D01*
X709754Y580151D02*
X710813D01*
X707976Y579251D02*
X710813D01*
X705286Y623351D02*
X710477D01*
X704757Y607151D02*
X710269D01*
X694213Y578351D02*
X710160D01*
X708086Y630551D02*
X709911D01*
X705160Y636851D02*
X709867D01*
X705443Y600851D02*
X709584D01*
X704386Y624251D02*
X709577D01*
X705738Y606251D02*
X709288D01*
X694879Y577451D02*
X709260D01*
X707186Y631451D02*
X709098D01*
X705953Y635951D02*
X709074D01*
X706110Y601751D02*
X708917D01*
X706275Y605351D02*
X708752D01*
X703486Y625151D02*
X708677D01*
X706378Y632351D02*
X708648D01*
X706391Y635051D02*
X708635D01*
X706471Y602651D02*
X708555D01*
X706547Y604451D02*
X708479D01*
X706586Y633251D02*
X708440D01*
X706590Y634151D02*
X708436D01*
X706610Y603551D02*
X708417D01*
X702586Y626051D02*
X707777D01*
X701686Y626951D02*
X706877D01*
X697976Y579251D02*
X706164D01*
X700786Y627851D02*
X705977D01*
X538905Y617951D02*
X705896D01*
X698787Y591851D02*
X705681D01*
X698785Y589151D02*
X705378D01*
X698770Y588251D02*
X705378D01*
X698770Y587351D02*
X705378D01*
X698766Y428951D02*
X705374D01*
X698846Y576551D02*
X705293D01*
X698787Y590051D02*
X705278D01*
X698787Y590951D02*
X705234D01*
X698970Y438851D02*
X705169D01*
X699886Y628751D02*
X705077D01*
X699091Y431651D02*
X705048D01*
X538905Y618851D02*
X704977D01*
X699258Y421751D02*
X704881D01*
X699631Y586451D02*
X704508D01*
X699754Y580151D02*
X704385D01*
X703020Y629651D02*
X704177D01*
X700034Y428051D02*
X704106D01*
X538905Y619751D02*
X704077D01*
X700069Y575651D02*
X704070D01*
X700126Y437951D02*
X704013D01*
X700183Y432551D02*
X703956D01*
X700236Y570251D02*
X703903D01*
X700266Y422651D02*
X703873D01*
X700463Y585551D02*
X703676D01*
X700530Y581051D02*
X703609D01*
X700685Y427151D02*
X703454D01*
X700705Y574751D02*
X703434D01*
X700737Y437051D02*
X703402D01*
X700769Y433451D02*
X703370D01*
X700798Y571151D02*
X703341D01*
X700815Y423551D02*
X703324D01*
X700923Y584651D02*
X703216D01*
X700958Y581951D02*
X703181D01*
X538905Y620651D02*
X703177D01*
X701037Y426251D02*
X703102D01*
X701047Y573851D02*
X703092D01*
X701062Y436151D02*
X703077D01*
X701077Y434351D02*
X703062D01*
X701090Y572051D02*
X703049D01*
X701097Y424451D02*
X703042D01*
X701139Y583751D02*
X703000D01*
X701150Y582851D02*
X702989D01*
X701167Y425351D02*
X702972D01*
X701168Y572951D02*
X702971D01*
X701169Y435251D02*
X702970D01*
X538905Y621551D02*
X702277D01*
X698986Y629651D02*
X702006D01*
X693260Y637751D02*
X701767D01*
X538905Y622451D02*
X701377D01*
X698151Y594551D02*
X701166D01*
X694213Y599951D02*
X700816D01*
X694213Y599051D02*
X700816D01*
X694213Y598151D02*
X700816D01*
X694213Y597251D02*
X700816D01*
X694213Y596351D02*
X700696D01*
X694213Y595451D02*
X700679D01*
X538905Y623351D02*
X700477D01*
X694757Y607151D02*
X700269D01*
X698086Y630551D02*
X699911D01*
X695160Y636851D02*
X699867D01*
X695443Y600851D02*
X699584D01*
X538905Y624251D02*
X699577D01*
X695738Y606251D02*
X699288D01*
X697186Y631451D02*
X699098D01*
X695953Y635951D02*
X699074D01*
X696110Y601751D02*
X698917D01*
X696275Y605351D02*
X698752D01*
X538905Y625151D02*
X698677D01*
X696378Y632351D02*
X698648D01*
X696391Y635051D02*
X698635D01*
X696471Y602651D02*
X698555D01*
X696547Y604451D02*
X698479D01*
X696586Y633251D02*
X698440D01*
X696590Y634151D02*
X698436D01*
X696610Y603551D02*
X698417D01*
X538905Y626051D02*
X697777D01*
X538905Y626951D02*
X696877D01*
X694213Y579251D02*
X696164D01*
X694213Y594551D02*
X696022D01*
X677878Y627851D02*
X695977D01*
X694213Y591851D02*
X695387D01*
X694213Y590951D02*
X695387D01*
X694213Y590051D02*
X695387D01*
X688766Y428951D02*
X695374D01*
X694213Y589151D02*
X695370D01*
X694213Y588251D02*
X695370D01*
X694213Y587351D02*
X695370D01*
X694213Y593651D02*
X695318D01*
X694213Y592751D02*
X695215D01*
X688970Y438851D02*
X695169D01*
X678555Y628751D02*
X695077D01*
X689091Y431651D02*
X695048D01*
X689258Y421751D02*
X694881D01*
X694213Y586451D02*
X694508D01*
X694213Y580151D02*
X694385D01*
X693020Y629651D02*
X694177D01*
X690034Y428051D02*
X694106D01*
X690126Y437951D02*
X694013D01*
X690183Y432551D02*
X693956D01*
X690266Y422651D02*
X693873D01*
X690685Y427151D02*
X693454D01*
X690737Y437051D02*
X693402D01*
X690769Y433451D02*
X693370D01*
X690815Y423551D02*
X693324D01*
X691037Y426251D02*
X693102D01*
X691062Y436151D02*
X693077D01*
X691077Y434351D02*
X693062D01*
X691097Y424451D02*
X693042D01*
X691167Y425351D02*
X692972D01*
X691169Y435251D02*
X692970D01*
X683020Y629651D02*
X692006D01*
X683260Y637751D02*
X691767D01*
X684213Y599951D02*
X690813D01*
X684213Y599051D02*
X690813D01*
X684213Y598151D02*
X690813D01*
X688369Y597251D02*
X690813D01*
X688911Y596351D02*
X690813D01*
X688928Y595451D02*
X690813D01*
X688787Y594551D02*
X690813D01*
X688787Y593651D02*
X690813D01*
X688787Y592751D02*
X690813D01*
X688787Y591851D02*
X690813D01*
X688787Y590951D02*
X690813D01*
X688770Y590051D02*
X690813D01*
X688770Y589151D02*
X690813D01*
X688770Y588251D02*
X690813D01*
X688770Y587351D02*
X690813D01*
X689631Y586451D02*
X690813D01*
X690463Y585551D02*
X690813D01*
X684757Y607151D02*
X690269D01*
X685115Y630551D02*
X689911D01*
X685160Y636851D02*
X689867D01*
X685443Y600851D02*
X689584D01*
X685738Y606251D02*
X689288D01*
X685928Y631451D02*
X689098D01*
X685953Y635951D02*
X689074D01*
X686110Y601751D02*
X688917D01*
X686275Y605351D02*
X688752D01*
X686378Y632351D02*
X688648D01*
X686391Y635051D02*
X688635D01*
X686471Y602651D02*
X688555D01*
X686547Y604451D02*
X688479D01*
X686586Y633251D02*
X688440D01*
X686590Y634151D02*
X688436D01*
X686610Y603551D02*
X688417D01*
X684213Y597251D02*
X685804D01*
X684213Y594551D02*
X685387D01*
X684213Y593651D02*
X685387D01*
X684213Y592751D02*
X685387D01*
X684213Y591851D02*
X685387D01*
X684213Y590951D02*
X685387D01*
X678766Y428951D02*
X685374D01*
X684213Y590051D02*
X685370D01*
X684213Y589151D02*
X685370D01*
X684213Y588251D02*
X685370D01*
X684213Y587351D02*
X685370D01*
X684213Y596351D02*
X685262D01*
X684213Y595451D02*
X685245D01*
X678970Y438851D02*
X685169D01*
X679091Y431651D02*
X685048D01*
X679258Y421751D02*
X684881D01*
X684213Y586451D02*
X684508D01*
X680034Y428051D02*
X684106D01*
X680126Y437951D02*
X684013D01*
X680183Y432551D02*
X683956D01*
X680266Y422651D02*
X683873D01*
X544739Y567551D02*
X683766D01*
X680685Y427151D02*
X683454D01*
X680737Y437051D02*
X683402D01*
X680769Y433451D02*
X683370D01*
X680815Y423551D02*
X683324D01*
X681037Y426251D02*
X683102D01*
X681062Y436151D02*
X683077D01*
X681077Y434351D02*
X683062D01*
X681097Y424451D02*
X683042D01*
X681167Y425351D02*
X682972D01*
X681169Y435251D02*
X682970D01*
X545946Y568451D02*
X682866D01*
X678620Y629651D02*
X682006D01*
X679197Y569351D02*
X681966D01*
X678620Y637751D02*
X681767D01*
X679427Y656651D02*
X681298D01*
X680236Y570251D02*
X681108D01*
X680798Y571151D02*
X680814D01*
X676300Y599951D02*
X680813D01*
X535795Y599051D02*
X680813D01*
X566582Y598151D02*
X680813D01*
X567481Y597251D02*
X680813D01*
X567977Y596351D02*
X680813D01*
X568221Y595451D02*
X680813D01*
X568257Y594551D02*
X680813D01*
X568091Y593651D02*
X680813D01*
X567696Y592751D02*
X680813D01*
X566976Y591851D02*
X680813D01*
X575849Y590951D02*
X680813D01*
X577472Y590051D02*
X680813D01*
X578220Y589151D02*
X680813D01*
X578632Y588251D02*
X680813D01*
X578810Y587351D02*
X680813D01*
X679631Y586451D02*
X680813D01*
X680463Y585551D02*
X680813D01*
X680530Y581051D02*
X680813D01*
X679754Y580151D02*
X680813D01*
X677976Y579251D02*
X680813D01*
X545646Y578351D02*
X680813D01*
X546538Y577451D02*
X680813D01*
X678846Y576551D02*
X680813D01*
X680069Y575651D02*
X680813D01*
X680705Y574751D02*
X680813D01*
X676525Y607151D02*
X680269D01*
X678620Y630551D02*
X679911D01*
X678620Y649451D02*
X679879D01*
X678620Y636851D02*
X679867D01*
X678620Y655751D02*
X679647D01*
X676613Y600851D02*
X679584D01*
X676613Y606251D02*
X679288D01*
X678620Y631451D02*
X679098D01*
X678620Y635951D02*
X679074D01*
X678620Y650351D02*
X679021D01*
X676613Y601751D02*
X678917D01*
X678620Y654851D02*
X678894D01*
X676613Y605351D02*
X678752D01*
X678620Y632351D02*
X678648D01*
X678620Y635051D02*
X678635D01*
X676613Y602651D02*
X678555D01*
X676613Y604451D02*
X678479D01*
X676613Y603551D02*
X678417D01*
X667976Y579251D02*
X676164D01*
X668766Y428951D02*
X675374D01*
X668846Y576551D02*
X675293D01*
X668970Y438851D02*
X675169D01*
X669091Y431651D02*
X675048D01*
X669197Y569351D02*
X674942D01*
X669258Y421751D02*
X674881D01*
X669631Y586451D02*
X674508D01*
X669754Y580151D02*
X674385D01*
X670034Y428051D02*
X674106D01*
X670069Y575651D02*
X674070D01*
X670126Y437951D02*
X674013D01*
X670183Y432551D02*
X673956D01*
X670236Y570251D02*
X673903D01*
X670266Y422651D02*
X673873D01*
X670463Y585551D02*
X673676D01*
X670530Y581051D02*
X673609D01*
X670685Y427151D02*
X673454D01*
X670705Y574751D02*
X673434D01*
X670737Y437051D02*
X673402D01*
X670769Y433451D02*
X673370D01*
X670798Y571151D02*
X673341D01*
X670815Y423551D02*
X673324D01*
X670923Y584651D02*
X673216D01*
X670958Y581951D02*
X673181D01*
X671037Y426251D02*
X673102D01*
X671047Y573851D02*
X673092D01*
X671062Y436151D02*
X673077D01*
X671077Y434351D02*
X673062D01*
X671090Y572051D02*
X673049D01*
X671097Y424451D02*
X673042D01*
X671139Y583751D02*
X673000D01*
X671150Y582851D02*
X672989D01*
X671167Y425351D02*
X672972D01*
X671168Y572951D02*
X672971D01*
X671169Y435251D02*
X672970D01*
X535795Y599951D02*
X668726D01*
X659972Y607151D02*
X668501D01*
X660746Y606251D02*
X668413D01*
X661173Y605351D02*
X668413D01*
X661364Y604451D02*
X668413D01*
X661352Y603551D02*
X668413D01*
X661135Y602651D02*
X668413D01*
X660675Y601751D02*
X668413D01*
X659841Y600851D02*
X668413D01*
X657976Y579251D02*
X666164D01*
X658766Y428951D02*
X665374D01*
X658846Y576551D02*
X665293D01*
X658970Y438851D02*
X665169D01*
X659091Y431651D02*
X665048D01*
X659197Y569351D02*
X664942D01*
X659258Y421751D02*
X664881D01*
X659631Y586451D02*
X664508D01*
X659754Y580151D02*
X664385D01*
X660034Y428051D02*
X664106D01*
X660069Y575651D02*
X664070D01*
X660126Y437951D02*
X664013D01*
X660183Y432551D02*
X663956D01*
X660236Y570251D02*
X663903D01*
X660266Y422651D02*
X663873D01*
X660463Y585551D02*
X663676D01*
X660530Y581051D02*
X663609D01*
X660685Y427151D02*
X663454D01*
X660705Y574751D02*
X663434D01*
X660737Y437051D02*
X663402D01*
X660769Y433451D02*
X663370D01*
X660798Y571151D02*
X663341D01*
X660815Y423551D02*
X663324D01*
X660923Y584651D02*
X663216D01*
X660958Y581951D02*
X663181D01*
X661037Y426251D02*
X663102D01*
X661047Y573851D02*
X663092D01*
X661062Y436151D02*
X663077D01*
X661077Y434351D02*
X663062D01*
X661090Y572051D02*
X663049D01*
X661097Y424451D02*
X663042D01*
X661139Y583751D02*
X663000D01*
X661150Y582851D02*
X662989D01*
X661167Y425351D02*
X662972D01*
X661168Y572951D02*
X662971D01*
X661169Y435251D02*
X662970D01*
X538905Y627851D02*
X659388D01*
X538905Y628751D02*
X658434D01*
X425697Y667451D02*
X657627D01*
X538905Y629651D02*
X657534D01*
X425697Y666551D02*
X656727D01*
X538905Y630551D02*
X656634D01*
X568270Y608051D02*
X656364D01*
X647976Y579251D02*
X656164D01*
X425697Y665651D02*
X655827D01*
X538905Y631451D02*
X655734D01*
X648766Y428951D02*
X655374D01*
X648846Y576551D02*
X655293D01*
X648970Y438851D02*
X655169D01*
X649091Y431651D02*
X655048D01*
X649197Y569351D02*
X654942D01*
X508335Y664751D02*
X654927D01*
X649258Y421751D02*
X654881D01*
X538905Y632351D02*
X654834D01*
X535795Y600851D02*
X654726D01*
X567816Y607151D02*
X654595D01*
X649631Y586451D02*
X654508D01*
X649754Y580151D02*
X654385D01*
X650034Y428051D02*
X654106D01*
X650069Y575651D02*
X654070D01*
X510402Y663851D02*
X654027D01*
X650126Y437951D02*
X654013D01*
X650183Y432551D02*
X653956D01*
X538905Y633251D02*
X653934D01*
X650236Y570251D02*
X653903D01*
X535795Y601751D02*
X653892D01*
X650266Y422651D02*
X653873D01*
X566996Y606251D02*
X653821D01*
X650463Y585551D02*
X653676D01*
X650530Y581051D02*
X653609D01*
X650685Y427151D02*
X653454D01*
X650705Y574751D02*
X653434D01*
X535795Y602651D02*
X653431D01*
X650737Y437051D02*
X653402D01*
X564803Y605351D02*
X653394D01*
X650769Y433451D02*
X653370D01*
X650798Y571151D02*
X653341D01*
X650815Y423551D02*
X653324D01*
X650923Y584651D02*
X653216D01*
X535795Y603551D02*
X653215D01*
X535795Y604451D02*
X653203D01*
X650958Y581951D02*
X653181D01*
X511213Y662951D02*
X653127D01*
X651037Y426251D02*
X653102D01*
X651047Y573851D02*
X653092D01*
X651062Y436151D02*
X653077D01*
X651077Y434351D02*
X653062D01*
X651090Y572051D02*
X653049D01*
X651097Y424451D02*
X653042D01*
X538905Y634151D02*
X653034D01*
X651139Y583751D02*
X653000D01*
X651150Y582851D02*
X652989D01*
X651167Y425351D02*
X652972D01*
X651168Y572951D02*
X652971D01*
X651169Y435251D02*
X652970D01*
X535422Y662051D02*
X652227D01*
X538905Y635051D02*
X652134D01*
X535929Y661151D02*
X651360D01*
X538905Y635951D02*
X651298D01*
X535925Y660251D02*
X651066D01*
X535795Y659351D02*
X651065D01*
X535795Y658451D02*
X651065D01*
X535795Y657551D02*
X651065D01*
X535795Y656651D02*
X651065D01*
X535795Y655751D02*
X651065D01*
X535795Y654851D02*
X651065D01*
X535795Y653951D02*
X651065D01*
X535795Y653051D02*
X651065D01*
X535795Y652151D02*
X651065D01*
X535795Y651251D02*
X651065D01*
X535795Y650351D02*
X651065D01*
X538533Y649451D02*
X651065D01*
X539040Y648551D02*
X651065D01*
X539035Y647651D02*
X651065D01*
X538905Y646751D02*
X651065D01*
X538905Y645851D02*
X651065D01*
X538905Y644951D02*
X651065D01*
X538905Y644051D02*
X651065D01*
X538905Y643151D02*
X651065D01*
X538905Y642251D02*
X651065D01*
X538905Y641351D02*
X651065D01*
X538905Y640451D02*
X651065D01*
X538905Y639551D02*
X651065D01*
X538905Y638651D02*
X651065D01*
X538905Y637751D02*
X651065D01*
X538905Y636851D02*
X651065D01*
X637976Y579251D02*
X646164D01*
X638766Y428951D02*
X645374D01*
X638846Y576551D02*
X645293D01*
X638970Y438851D02*
X645169D01*
X639091Y431651D02*
X645048D01*
X639197Y569351D02*
X644942D01*
X639258Y421751D02*
X644881D01*
X639631Y586451D02*
X644508D01*
X639754Y580151D02*
X644385D01*
X640034Y428051D02*
X644106D01*
X640069Y575651D02*
X644070D01*
X640126Y437951D02*
X644013D01*
X640183Y432551D02*
X643956D01*
X640236Y570251D02*
X643903D01*
X640266Y422651D02*
X643873D01*
X640463Y585551D02*
X643676D01*
X640530Y581051D02*
X643609D01*
X640685Y427151D02*
X643454D01*
X640705Y574751D02*
X643434D01*
X640737Y437051D02*
X643402D01*
X640769Y433451D02*
X643370D01*
X640798Y571151D02*
X643341D01*
X640815Y423551D02*
X643324D01*
X640923Y584651D02*
X643216D01*
X640958Y581951D02*
X643181D01*
X641037Y426251D02*
X643102D01*
X641047Y573851D02*
X643092D01*
X641062Y436151D02*
X643077D01*
X641077Y434351D02*
X643062D01*
X641090Y572051D02*
X643049D01*
X641097Y424451D02*
X643042D01*
X641139Y583751D02*
X643000D01*
X641150Y582851D02*
X642989D01*
X641167Y425351D02*
X642972D01*
X641168Y572951D02*
X642971D01*
X641169Y435251D02*
X642970D01*
X627976Y579251D02*
X636164D01*
X628766Y428951D02*
X635374D01*
X628846Y576551D02*
X635293D01*
X628970Y438851D02*
X635169D01*
X629091Y431651D02*
X635048D01*
X629197Y569351D02*
X634942D01*
X629258Y421751D02*
X634881D01*
X629631Y586451D02*
X634508D01*
X629754Y580151D02*
X634385D01*
X630034Y428051D02*
X634106D01*
X630069Y575651D02*
X634070D01*
X630126Y437951D02*
X634013D01*
X630183Y432551D02*
X633956D01*
X630236Y570251D02*
X633903D01*
X630266Y422651D02*
X633873D01*
X630463Y585551D02*
X633676D01*
X630530Y581051D02*
X633609D01*
X630685Y427151D02*
X633454D01*
X630705Y574751D02*
X633434D01*
X630737Y437051D02*
X633402D01*
X630769Y433451D02*
X633370D01*
X630798Y571151D02*
X633341D01*
X630815Y423551D02*
X633324D01*
X630923Y584651D02*
X633216D01*
X630958Y581951D02*
X633181D01*
X631037Y426251D02*
X633102D01*
X631047Y573851D02*
X633092D01*
X631062Y436151D02*
X633077D01*
X631077Y434351D02*
X633062D01*
X631090Y572051D02*
X633049D01*
X631097Y424451D02*
X633042D01*
X631139Y583751D02*
X633000D01*
X631150Y582851D02*
X632989D01*
X631167Y425351D02*
X632972D01*
X631168Y572951D02*
X632971D01*
X631169Y435251D02*
X632970D01*
X617976Y579251D02*
X626164D01*
X618766Y428951D02*
X625374D01*
X618846Y576551D02*
X625293D01*
X618970Y438851D02*
X625169D01*
X619091Y431651D02*
X625048D01*
X619197Y569351D02*
X624942D01*
X619258Y421751D02*
X624881D01*
X619631Y586451D02*
X624508D01*
X619754Y580151D02*
X624385D01*
X620034Y428051D02*
X624106D01*
X620069Y575651D02*
X624070D01*
X620126Y437951D02*
X624013D01*
X620183Y432551D02*
X623956D01*
X620236Y570251D02*
X623903D01*
X620266Y422651D02*
X623873D01*
X620463Y585551D02*
X623676D01*
X620530Y581051D02*
X623609D01*
X620685Y427151D02*
X623454D01*
X620705Y574751D02*
X623434D01*
X620737Y437051D02*
X623402D01*
X620769Y433451D02*
X623370D01*
X620798Y571151D02*
X623341D01*
X620815Y423551D02*
X623324D01*
X620923Y584651D02*
X623216D01*
X620958Y581951D02*
X623181D01*
X621037Y426251D02*
X623102D01*
X621047Y573851D02*
X623092D01*
X621062Y436151D02*
X623077D01*
X621077Y434351D02*
X623062D01*
X621090Y572051D02*
X623049D01*
X621097Y424451D02*
X623042D01*
X621139Y583751D02*
X623000D01*
X621150Y582851D02*
X622989D01*
X621167Y425351D02*
X622972D01*
X621168Y572951D02*
X622971D01*
X621169Y435251D02*
X622970D01*
X607976Y579251D02*
X616164D01*
X610890Y428951D02*
X615374D01*
X608846Y576551D02*
X615293D01*
X608970Y438851D02*
X615169D01*
X609091Y431651D02*
X615048D01*
X609197Y569351D02*
X614942D01*
X611065Y421751D02*
X614881D01*
X609631Y586451D02*
X614508D01*
X609754Y580151D02*
X614385D01*
X611170Y428051D02*
X614106D01*
X610069Y575651D02*
X614070D01*
X610126Y437951D02*
X614013D01*
X610183Y432551D02*
X613956D01*
X610236Y570251D02*
X613903D01*
X611170Y422651D02*
X613873D01*
X610463Y585551D02*
X613676D01*
X610530Y581051D02*
X613609D01*
X611170Y427151D02*
X613454D01*
X610705Y574751D02*
X613434D01*
X610737Y437051D02*
X613402D01*
X610769Y433451D02*
X613370D01*
X610798Y571151D02*
X613341D01*
X611170Y423551D02*
X613324D01*
X610923Y584651D02*
X613216D01*
X610958Y581951D02*
X613181D01*
X611170Y426251D02*
X613102D01*
X611047Y573851D02*
X613092D01*
X611062Y436151D02*
X613077D01*
X611077Y434351D02*
X613062D01*
X611090Y572051D02*
X613049D01*
X611170Y424451D02*
X613042D01*
X611139Y583751D02*
X613000D01*
X611150Y582851D02*
X612989D01*
X611170Y425351D02*
X612972D01*
X611168Y572951D02*
X612971D01*
X611169Y435251D02*
X612970D01*
X544232Y579251D02*
X606164D01*
X547157Y576551D02*
X605293D01*
X541196Y438851D02*
X605169D01*
X511097Y431651D02*
X605048D01*
X546744Y569351D02*
X604942D01*
X578786Y586451D02*
X604508D01*
X522223Y580151D02*
X604385D01*
X547585Y575651D02*
X604070D01*
X540753Y437951D02*
X604013D01*
X510255Y432551D02*
X603956D01*
X547301Y570251D02*
X603903D01*
X578557Y585551D02*
X603676D01*
X523030Y581051D02*
X603609D01*
X547861Y574751D02*
X603434D01*
X539952Y437051D02*
X603402D01*
X479150Y433451D02*
X603370D01*
X547681Y571151D02*
X603341D01*
X511799Y428951D02*
X603249D01*
X578079Y584651D02*
X603216D01*
X523475Y581951D02*
X603181D01*
X548003Y573851D02*
X603092D01*
X537985Y436151D02*
X603077D01*
X490850Y421751D02*
X603074D01*
X478250Y434351D02*
X603062D01*
X547916Y572051D02*
X603049D01*
X577215Y583751D02*
X603000D01*
X523681Y582851D02*
X602989D01*
X548022Y572951D02*
X602971D01*
X477350Y435251D02*
X602970D01*
X511612Y428051D02*
X602970D01*
X511189Y427151D02*
X602970D01*
X510423Y426251D02*
X602970D01*
X508701Y425351D02*
X602970D01*
X488150Y424451D02*
X602970D01*
X489050Y423551D02*
X602970D01*
X489950Y422651D02*
X602970D01*
X548892Y517151D02*
X587278D01*
X578894Y484751D02*
X586712D01*
X558084Y477551D02*
X586389D01*
X551086Y524351D02*
X586054D01*
X548892Y518051D02*
X585723D01*
X578967Y483851D02*
X585497D01*
X558396Y478451D02*
X585344D01*
X550186Y523451D02*
X585171D01*
X548892Y518951D02*
X584990D01*
X578768Y482951D02*
X584864D01*
X558570Y479351D02*
X584779D01*
X549286Y522551D02*
X584683D01*
X548892Y519851D02*
X584587D01*
X578229Y482051D02*
X584525D01*
X558619Y480251D02*
X584485D01*
X548892Y521651D02*
X584446D01*
X548892Y520751D02*
X584416D01*
X576895Y481151D02*
X584405D01*
X558545D02*
X574916D01*
X553694Y486551D02*
X574120D01*
X538892Y491951D02*
X573973D01*
X538892Y497351D02*
X573843D01*
X538892Y492851D02*
X573796D01*
X539023Y487451D02*
X573684D01*
X565472Y590951D02*
X573600D01*
X558343Y482051D02*
X573582D01*
X555688Y485651D02*
X573284D01*
X539023Y491051D02*
X573220D01*
X538892Y496451D02*
X573161D01*
X538892Y493751D02*
X573139D01*
X539023Y488351D02*
X573088D01*
X561203Y543251D02*
X573083D01*
X558001Y482951D02*
X573043D01*
X556764Y484751D02*
X572917D01*
X539023Y490151D02*
X572893D01*
X538892Y495551D02*
X572873D01*
X538892Y494651D02*
X572867D01*
X539023Y489251D02*
X572853D01*
X557492Y483851D02*
X572844D01*
X561829Y550451D02*
X572498D01*
X523682Y583751D02*
X572234D01*
X521306Y590051D02*
X571976D01*
X562377Y544151D02*
X571784D01*
X562771Y549551D02*
X571508D01*
X523480Y584651D02*
X571370D01*
X521306Y589151D02*
X571229D01*
X563068Y545051D02*
X571122D01*
X563288Y548651D02*
X570968D01*
X523038Y585551D02*
X570892D01*
X521306Y588251D02*
X570817D01*
X563446Y545951D02*
X570763D01*
X563547Y547751D02*
X570692D01*
X522238Y586451D02*
X570662D01*
X521306Y587351D02*
X570639D01*
X563597Y546851D02*
X570627D01*
X535795Y605351D02*
X564016D01*
X538905Y613451D02*
X563598D01*
X525472Y590951D02*
X562861D01*
X535795Y606251D02*
X561823D01*
X535795Y598151D02*
X561752D01*
X538905Y612551D02*
X561748D01*
X526976Y591851D02*
X561358D01*
X535795Y607151D02*
X561003D01*
X538905Y611651D02*
X560962D01*
X535795Y597251D02*
X560852D01*
X527696Y592751D02*
X560637D01*
X538473Y608051D02*
X560549D01*
X538905Y610751D02*
X560527D01*
X535795Y596351D02*
X560356D01*
X539025Y608951D02*
X560338D01*
X539049Y609851D02*
X560331D01*
X535558Y593651D02*
X560242D01*
X535881Y595451D02*
X560113D01*
X535959Y594551D02*
X560077D01*
X520981Y543251D02*
X557803D01*
X500854Y542351D02*
X557803D01*
X499791Y541451D02*
X557803D01*
X493265Y540551D02*
X557788D01*
X493265Y539651D02*
X557788D01*
X521346Y563051D02*
X557659D01*
X521463Y538751D02*
X557514D01*
X521575Y555851D02*
X557430D01*
X521829Y550451D02*
X557176D01*
X522377Y544151D02*
X556629D01*
X522533Y562151D02*
X556473D01*
X522580Y537851D02*
X556397D01*
X522641Y556751D02*
X556364D01*
X522771Y549551D02*
X556235D01*
X523068Y545051D02*
X555937D01*
X523155Y561251D02*
X555850D01*
X523175Y536951D02*
X555801D01*
X523216Y557651D02*
X555789D01*
X523288Y548651D02*
X555718D01*
X523446Y545951D02*
X555560D01*
X523488Y560351D02*
X555517D01*
X523487Y534251D02*
X555490D01*
X523516Y558551D02*
X555489D01*
X523490Y536051D02*
X555487D01*
X523547Y547751D02*
X555459D01*
X523597Y546851D02*
X555409D01*
X523602Y559451D02*
X555403D01*
X523588Y535151D02*
X555388D01*
X523699Y533351D02*
X555277D01*
X524599Y532451D02*
X554377D01*
X525499Y531551D02*
X553477D01*
X526399Y530651D02*
X552577D01*
X527299Y529751D02*
X551677D01*
X528199Y528851D02*
X550777D01*
X539023Y486551D02*
X550322D01*
X529099Y527951D02*
X549877D01*
X518817Y473951D02*
X549729D01*
X529999Y527051D02*
X548977D01*
X539023Y485651D02*
X548328D01*
X530899Y526151D02*
X548077D01*
X518817Y474851D02*
X548064D01*
X539023Y484751D02*
X547252D01*
X531799Y525251D02*
X547177D01*
X518817Y475751D02*
X547079D01*
X539183Y483851D02*
X546524D01*
X539381Y476651D02*
X546403D01*
X532699Y524351D02*
X546277D01*
X538892Y498251D02*
X546112D01*
X540360Y482951D02*
X546015D01*
X540455Y477551D02*
X545932D01*
X540980Y482051D02*
X545673D01*
X541032Y478451D02*
X545620D01*
X533599Y523451D02*
X545597D01*
X534499Y522551D02*
X545492D01*
X535399Y521651D02*
X545492D01*
X536299Y520751D02*
X545492D01*
X537199Y519851D02*
X545492D01*
X538099Y518951D02*
X545492D01*
X538784Y518051D02*
X545492D01*
X538892Y517151D02*
X545492D01*
X538892Y516251D02*
X545492D01*
X538892Y515351D02*
X545492D01*
X538892Y514451D02*
X545492D01*
X538892Y513551D02*
X545492D01*
X538892Y512651D02*
X545492D01*
X538892Y511751D02*
X545492D01*
X538892Y510851D02*
X545492D01*
X538892Y509951D02*
X545492D01*
X538892Y509051D02*
X545492D01*
X538892Y508151D02*
X545492D01*
X538892Y507251D02*
X545492D01*
X538892Y506351D02*
X545492D01*
X541310Y481151D02*
X545471D01*
X541335Y479351D02*
X545445D01*
X541423Y480251D02*
X545397D01*
X539698Y505451D02*
X544685D01*
X539926Y499151D02*
X544458D01*
X540555Y504551D02*
X543828D01*
X540679Y500051D02*
X543704D01*
X541029Y503651D02*
X543355D01*
X541095Y500951D02*
X543289D01*
X541255Y502751D02*
X543128D01*
X541276Y501851D02*
X543107D01*
X520203Y579251D02*
X538603D01*
X521306Y567551D02*
X538096D01*
X500051Y578351D02*
X537189D01*
X521306Y568451D02*
X536888D01*
X525317Y444251D02*
X536709D01*
X525759Y436151D02*
X536661D01*
X500986Y577451D02*
X536297D01*
X521306Y569351D02*
X536091D01*
X535795Y608051D02*
X535937D01*
X535795Y649451D02*
X535876D01*
X522114Y576551D02*
X535678D01*
X517361Y490151D02*
X535623D01*
X518261Y489251D02*
X535623D01*
X519161Y488351D02*
X535623D01*
X520061Y487451D02*
X535623D01*
X520961Y486551D02*
X535623D01*
X521861Y485651D02*
X535623D01*
X522761Y484751D02*
X535623D01*
X522339Y570251D02*
X535534D01*
X516461Y491051D02*
X535505D01*
X493265Y516251D02*
X535492D01*
X493265Y515351D02*
X535492D01*
X493265Y514451D02*
X535492D01*
X493265Y513551D02*
X535492D01*
X493265Y512651D02*
X535492D01*
X493265Y511751D02*
X535492D01*
X493265Y510851D02*
X535492D01*
X499342Y509951D02*
X535492D01*
X500647Y509051D02*
X535492D01*
X501312Y508151D02*
X535492D01*
X501671Y507251D02*
X535492D01*
X501808Y506351D02*
X535492D01*
X501255Y498251D02*
X535492D01*
X510161Y497351D02*
X535492D01*
X511061Y496451D02*
X535492D01*
X511961Y495551D02*
X535492D01*
X512861Y494651D02*
X535492D01*
X513761Y493751D02*
X535492D01*
X514661Y492851D02*
X535492D01*
X515561Y491951D02*
X535492D01*
X526742Y483851D02*
X535463D01*
X527046Y476651D02*
X535265D01*
X522971Y575651D02*
X535250D01*
X523093Y571151D02*
X535154D01*
X493265Y517151D02*
X535091D01*
X523444Y574751D02*
X534974D01*
X523509Y572051D02*
X534918D01*
X523670Y573851D02*
X534831D01*
X523691Y572951D02*
X534813D01*
X527524Y443351D02*
X534703D01*
X527603Y437051D02*
X534694D01*
X501744Y505451D02*
X534685D01*
X500547Y499151D02*
X534458D01*
X527951Y482951D02*
X534285D01*
X528096Y477551D02*
X534191D01*
X493265Y518051D02*
X534191D01*
X528345Y442451D02*
X533898D01*
X528388Y437951D02*
X533893D01*
X501470Y504551D02*
X533828D01*
X499411Y500051D02*
X533704D01*
X528582Y482051D02*
X533666D01*
X528663Y478451D02*
X533613D01*
X528799Y441551D02*
X533453D01*
X528822Y438851D02*
X533450D01*
X500931Y503651D02*
X533355D01*
X528920Y481151D02*
X533335D01*
X528957Y479351D02*
X533311D01*
X493265Y518951D02*
X533291D01*
X499411Y500951D02*
X533289D01*
X529011Y440651D02*
X533248D01*
X529018Y439751D02*
X533247D01*
X529039Y480251D02*
X533223D01*
X499945Y502751D02*
X533128D01*
X499411Y501851D02*
X533107D01*
X511662Y662051D02*
X532767D01*
X528091Y593651D02*
X532631D01*
X511672Y659351D02*
X532394D01*
X511232Y658451D02*
X532394D01*
X510437Y657551D02*
X532394D01*
X508519Y656651D02*
X532394D01*
X469495Y655751D02*
X532394D01*
X469435Y654851D02*
X532394D01*
X468852Y653951D02*
X532394D01*
X467952Y653051D02*
X532394D01*
X508375Y652151D02*
X532394D01*
X510409Y651251D02*
X532394D01*
X511217Y650351D02*
X532394D01*
X511664Y649451D02*
X532394D01*
X511870Y648551D02*
X532394D01*
X511871Y647651D02*
X532394D01*
X511670Y646751D02*
X532394D01*
X511229Y645851D02*
X532394D01*
X510430Y644951D02*
X532394D01*
X508487Y644051D02*
X532394D01*
X505258Y643151D02*
X532394D01*
X504358Y642251D02*
X532394D01*
X503458Y641351D02*
X532394D01*
X502558Y640451D02*
X532394D01*
X508254Y639551D02*
X532394D01*
X510390Y638651D02*
X532394D01*
X511207Y637751D02*
X532394D01*
X511658Y636851D02*
X532394D01*
X511868Y635951D02*
X532394D01*
X511873Y635051D02*
X532394D01*
X511675Y634151D02*
X532394D01*
X511239Y633251D02*
X532394D01*
X510449Y632351D02*
X532394D01*
X526684Y631451D02*
X532394D01*
X528294Y630551D02*
X532394D01*
X529260Y629651D02*
X532394D01*
X529925Y628751D02*
X532394D01*
X530388Y627851D02*
X532394D01*
X530693Y626951D02*
X532394D01*
X530861Y626051D02*
X532394D01*
X530904Y625151D02*
X532394D01*
X530824Y624251D02*
X532394D01*
X530616Y623351D02*
X532394D01*
X530267Y622451D02*
X532394D01*
X529750Y621551D02*
X532394D01*
X529009Y620651D02*
X532394D01*
X527910Y619751D02*
X532394D01*
X525994Y618851D02*
X532394D01*
X525994Y617951D02*
X532394D01*
X525994Y617051D02*
X532394D01*
X526106Y616151D02*
X532394D01*
X526109Y615251D02*
X532394D01*
X526109Y614351D02*
X532394D01*
X526109Y613451D02*
X532394D01*
X527071Y612551D02*
X532394D01*
X527857Y611651D02*
X532394D01*
X528292Y610751D02*
X532394D01*
X528488Y609851D02*
X532394D01*
X528481Y608951D02*
X532394D01*
X528270Y608051D02*
X532394D01*
X527816Y607151D02*
X532394D01*
X526996Y606251D02*
X532394D01*
X526109Y605351D02*
X532394D01*
X526109Y604451D02*
X532394D01*
X526109Y603551D02*
X532394D01*
X526030Y602651D02*
X532394D01*
X525400Y601751D02*
X532394D01*
X524500Y600851D02*
X532394D01*
X523600Y599951D02*
X532394D01*
X522700Y599051D02*
X532394D01*
X526582Y598151D02*
X532394D01*
X527481Y597251D02*
X532394D01*
X527977Y596351D02*
X532394D01*
X493265Y519851D02*
X532391D01*
X528221Y595451D02*
X532308D01*
X511872Y660251D02*
X532263D01*
X511869Y661151D02*
X532260D01*
X528257Y594551D02*
X532230D01*
X493265Y520751D02*
X531491D01*
X493265Y521651D02*
X530591D01*
X493265Y522551D02*
X529691D01*
X493265Y523451D02*
X528791D01*
X493265Y524351D02*
X527891D01*
X493265Y525251D02*
X526991D01*
X493265Y526151D02*
X526091D01*
X493265Y527051D02*
X525191D01*
X501324Y444251D02*
X524563D01*
X493265Y527951D02*
X524291D01*
X477291Y436151D02*
X524120D01*
X493265Y528851D02*
X523391D01*
X521306Y590951D02*
X522861D01*
X518817Y476651D02*
X522833D01*
X509495Y615251D02*
X522709D01*
X509495Y614351D02*
X522709D01*
X510694Y613451D02*
X522709D01*
X495007Y605351D02*
X522709D01*
X495007Y604451D02*
X522709D01*
X509495Y616151D02*
X522594D01*
X509495Y618851D02*
X522594D01*
X509495Y617951D02*
X522594D01*
X509495Y617051D02*
X522594D01*
X493265Y529751D02*
X522491D01*
X495007Y603551D02*
X522391D01*
X500670Y443351D02*
X522355D01*
X477291Y437051D02*
X522276D01*
X508572Y631451D02*
X521904D01*
X495007Y606251D02*
X521823D01*
X518817Y477551D02*
X521784D01*
X511375Y612551D02*
X521748D01*
X493265Y530651D02*
X521591D01*
X499395Y442451D02*
X521534D01*
X495007Y602651D02*
X521491D01*
X477291Y437951D02*
X521491D01*
X521306Y591851D02*
X521358D01*
X518633Y478451D02*
X521217D01*
X477291Y441551D02*
X521080D01*
X477291Y438851D02*
X521057D01*
X510086Y607151D02*
X521003D01*
X511745Y611651D02*
X520962D01*
X516035Y481151D02*
X520959D01*
X517835Y479351D02*
X520922D01*
X477291Y440651D02*
X520868D01*
X477291Y439751D02*
X520861D01*
X516935Y480251D02*
X520840D01*
X510217Y619751D02*
X520677D01*
X515135Y482051D02*
X520653D01*
X495007Y601751D02*
X520591D01*
X511045Y608051D02*
X520549D01*
X511890Y610751D02*
X520527D01*
X511570Y608951D02*
X520338D01*
X511835Y609851D02*
X520331D01*
X495007Y630551D02*
X520294D01*
X500226Y482951D02*
X519753D01*
X495007Y600851D02*
X519691D01*
X511113Y620651D02*
X519579D01*
X495007Y629651D02*
X519328D01*
X477291Y579251D02*
X519010D01*
X501079Y483851D02*
X518853D01*
X511608Y621551D02*
X518838D01*
X495007Y599951D02*
X518791D01*
X495007Y628751D02*
X518663D01*
X511850Y622451D02*
X518321D01*
X495007Y627851D02*
X518200D01*
X498233Y599051D02*
X518052D01*
X501427Y543251D02*
X518024D01*
X511885Y623351D02*
X517972D01*
X501551Y484751D02*
X517953D01*
X500316Y598151D02*
X517906D01*
X501128Y597251D02*
X517906D01*
X508940Y596351D02*
X517906D01*
X509867Y595451D02*
X517906D01*
X510767Y594551D02*
X517906D01*
X511667Y593651D02*
X517906D01*
X512567Y592751D02*
X517906D01*
X513467Y591851D02*
X517906D01*
X514367Y590951D02*
X517906D01*
X515267Y590051D02*
X517906D01*
X516167Y589151D02*
X517906D01*
X517067Y588251D02*
X517906D01*
X503895Y569351D02*
X517906D01*
X503895Y568451D02*
X517906D01*
X503895Y567551D02*
X517906D01*
X509086Y626951D02*
X517895D01*
X503895Y566651D02*
X517840D01*
X503895Y565751D02*
X517803D01*
X503895Y564851D02*
X517803D01*
X503895Y563951D02*
X517803D01*
X511718Y624251D02*
X517764D01*
X510599Y626051D02*
X517726D01*
X511322Y625151D02*
X517683D01*
X503895Y563051D02*
X517659D01*
X499952Y531551D02*
X517539D01*
X499331Y538751D02*
X517514D01*
X501719Y555851D02*
X517430D01*
X493265Y550451D02*
X517176D01*
X501500Y576551D02*
X517098D01*
X501776Y485651D02*
X517053D01*
X477291Y580151D02*
X516990D01*
X503855Y570251D02*
X516873D01*
X501726Y544151D02*
X516629D01*
X503895Y562151D02*
X516473D01*
X500935Y532451D02*
X516409D01*
X500643Y537851D02*
X516397D01*
X501411Y556751D02*
X516364D01*
X501757Y575651D02*
X516242D01*
X493265Y549551D02*
X516235D01*
X498869Y581051D02*
X516183D01*
X501795Y486551D02*
X516153D01*
X503285Y571151D02*
X516119D01*
X501811Y545051D02*
X515937D01*
X503895Y561251D02*
X515850D01*
X501472Y533351D02*
X515808D01*
X501309Y536951D02*
X515801D01*
X500826Y557651D02*
X515789D01*
X501805Y574751D02*
X515769D01*
X500470Y581951D02*
X515737D01*
X501798Y584651D02*
X515733D01*
X499546Y548651D02*
X515718D01*
X500576Y572051D02*
X515704D01*
X501696Y545951D02*
X515560D01*
X501652Y573851D02*
X515542D01*
X501213Y582851D02*
X515532D01*
X501621Y583751D02*
X515530D01*
X501272Y572951D02*
X515522D01*
X503786Y560351D02*
X515517D01*
X501745Y534251D02*
X515490D01*
X499733Y558551D02*
X515489D01*
X501670Y536051D02*
X515487D01*
X500737Y547751D02*
X515459D01*
X501362Y546851D02*
X515409D01*
X502897Y559451D02*
X515403D01*
X501808Y535151D02*
X515388D01*
X501612Y487451D02*
X515253D01*
X501772Y585551D02*
X514959D01*
X501195Y488351D02*
X514353D01*
X501540Y586451D02*
X514059D01*
X500438Y489251D02*
X513453D01*
X501059Y587351D02*
X513159D01*
X477291Y450551D02*
X512828D01*
X498767Y490151D02*
X512553D01*
X500189Y588251D02*
X512259D01*
X477291Y451451D02*
X511797D01*
X493265Y491051D02*
X511653D01*
X495949Y589151D02*
X511359D01*
X499153Y452351D02*
X510897D01*
X493265Y491951D02*
X510753D01*
X495049Y590051D02*
X510459D01*
X500571Y453251D02*
X509997D01*
X500092Y492851D02*
X509853D01*
X498448Y590951D02*
X509559D01*
X501269Y454151D02*
X509097D01*
X501007Y493751D02*
X508953D01*
X500356Y591851D02*
X508659D01*
X501650Y455051D02*
X508197D01*
X501150Y592751D02*
X507759D01*
X501658Y639551D02*
X507337D01*
X501804Y455951D02*
X507297D01*
X468335Y664751D02*
X507255D01*
X468375Y652151D02*
X507215D01*
X506158Y644051D02*
X507103D01*
X469495Y656651D02*
X507072D01*
X495007Y631451D02*
X507018D01*
X487250Y425351D02*
X506732D01*
X506150Y406451D02*
X506694D01*
X495007Y626951D02*
X506505D01*
X501758Y456851D02*
X506397D01*
X495007Y618851D02*
X506095D01*
X495007Y617951D02*
X506095D01*
X495007Y617051D02*
X506095D01*
X495007Y616151D02*
X506095D01*
X495007Y615251D02*
X506095D01*
X495007Y614351D02*
X506095D01*
X492650Y419951D02*
X505852D01*
X499850Y412751D02*
X505663D01*
X495007Y607151D02*
X505505D01*
X501502Y457751D02*
X505497D01*
X495007Y619751D02*
X505374D01*
X500758Y638651D02*
X505200D01*
X470242Y399251D02*
X505191D01*
X470402Y663851D02*
X505188D01*
X470409Y651251D02*
X505181D01*
X480050Y432551D02*
X505178D01*
X470437Y657551D02*
X505154D01*
X495007Y632351D02*
X505142D01*
X486350Y426251D02*
X505010D01*
X495007Y626051D02*
X504992D01*
X495007Y613451D02*
X504896D01*
X493550Y419051D02*
X504677D01*
X500990Y458651D02*
X504629D01*
X498950Y413651D02*
X504587D01*
X495007Y608051D02*
X504546D01*
X495007Y620651D02*
X504477D01*
X499858Y637751D02*
X504384D01*
X471213Y662951D02*
X504377D01*
X471217Y650351D02*
X504374D01*
X471232Y658451D02*
X504358D01*
X495358Y633251D02*
X504352D01*
X471090Y400151D02*
X504343D01*
X480950Y431651D02*
X504336D01*
X500058Y459551D02*
X504333D01*
X501773Y466751D02*
X504333D01*
X501797Y465851D02*
X504333D01*
X501620Y464951D02*
X504333D01*
X501210Y464051D02*
X504333D01*
X500464Y463151D02*
X504333D01*
X498851Y462251D02*
X504333D01*
X477291Y461351D02*
X504333D01*
X477291Y460451D02*
X504333D01*
X495007Y625151D02*
X504269D01*
X485450Y427151D02*
X504244D01*
X495007Y612551D02*
X504216D01*
X494450Y418151D02*
X504058D01*
X495007Y608951D02*
X504021D01*
X498050Y414551D02*
X504008D01*
X495007Y621551D02*
X503983D01*
X498958Y636851D02*
X503932D01*
X471662Y662051D02*
X503929D01*
X471664Y649451D02*
X503927D01*
X471670Y646751D02*
X503921D01*
X471672Y659351D02*
X503919D01*
X496258Y634151D02*
X503916D01*
X471559Y401051D02*
X503874D01*
X495007Y624251D02*
X503872D01*
X481850Y430751D02*
X503870D01*
X495007Y611651D02*
X503845D01*
X484550Y428051D02*
X503821D01*
X471615Y403751D02*
X503818D01*
X495007Y609851D02*
X503756D01*
X495007Y622451D02*
X503741D01*
X495350Y417251D02*
X503728D01*
X498058Y635951D02*
X503723D01*
X471869Y661151D02*
X503722D01*
X471870Y648551D02*
X503721D01*
X471871Y647651D02*
X503719D01*
X471872Y660251D02*
X503718D01*
X497158Y635051D02*
X503717D01*
X495007Y623351D02*
X503706D01*
X497150Y415451D02*
X503705D01*
X495007Y610751D02*
X503700D01*
X471782Y401951D02*
X503651D01*
X482750Y429851D02*
X503650D01*
X483650Y428951D02*
X503634D01*
X471800Y402851D02*
X503633D01*
X496250Y416351D02*
X503617D01*
X501542Y467651D02*
X503589D01*
X471229Y645851D02*
X503150D01*
X471195Y404651D02*
X503142D01*
X501063Y468551D02*
X502689D01*
X470430Y644951D02*
X502250D01*
X470434Y405551D02*
X502242D01*
X500196Y469451D02*
X501789D01*
X469495Y644051D02*
X501350D01*
X468740Y406451D02*
X501342D01*
X469742Y643151D02*
X500450D01*
X465250Y407351D02*
X500442D01*
X470642Y642251D02*
X499550D01*
X464350Y408251D02*
X499542D01*
X471542Y641351D02*
X498650D01*
X463450Y409151D02*
X498642D01*
X472442Y640451D02*
X497750D01*
X462645Y410051D02*
X497742D01*
X495007Y599051D02*
X497190D01*
X495007Y590951D02*
X496975D01*
X473342Y639551D02*
X496850D01*
X462645Y410951D02*
X496842D01*
X493265Y490151D02*
X496655D01*
X477291Y462251D02*
X496571D01*
X477291Y581051D02*
X496554D01*
X477291Y452351D02*
X496270D01*
X493265Y538751D02*
X496092D01*
X493265Y509951D02*
X496080D01*
X477291Y442451D02*
X496028D01*
X493265Y501851D02*
X496011D01*
X493265Y500951D02*
X496011D01*
X493265Y500051D02*
X496011D01*
X473865Y638651D02*
X495950D01*
X462645Y411851D02*
X495942D01*
X493265Y548651D02*
X495877D01*
X493265Y551351D02*
X495811D01*
X493807Y558551D02*
X495689D01*
X493265Y541451D02*
X495631D01*
X477291Y449651D02*
X495514D01*
X493265Y502751D02*
X495478D01*
X493265Y531551D02*
X495470D01*
X477291Y578351D02*
X495371D01*
X477291Y459551D02*
X495364D01*
X493265Y492851D02*
X495331D01*
X477291Y469451D02*
X495227D01*
X494589Y482951D02*
X495197D01*
X495007Y598151D02*
X495107D01*
X495007Y591851D02*
X495067D01*
X473905Y637751D02*
X495050D01*
X469770Y412751D02*
X495042D01*
X493265Y489251D02*
X494984D01*
X477291Y463151D02*
X494958D01*
X477291Y581951D02*
X494953D01*
X493265Y499151D02*
X494876D01*
X477291Y453251D02*
X494852D01*
X477291Y572051D02*
X494847D01*
X493265Y537851D02*
X494780D01*
X493265Y509051D02*
X494775D01*
X477291Y443351D02*
X494753D01*
X493265Y547751D02*
X494686D01*
X493265Y552251D02*
X494655D01*
X493265Y557651D02*
X494597D01*
X493265Y542351D02*
X494569D01*
X477291Y448751D02*
X494510D01*
X493265Y503651D02*
X494492D01*
X493265Y532451D02*
X494488D01*
X477291Y577451D02*
X494436D01*
X477291Y458651D02*
X494433D01*
X493265Y493751D02*
X494415D01*
X477291Y468551D02*
X494360D01*
X493689Y483851D02*
X494343D01*
X493265Y488351D02*
X494227D01*
X477291Y464051D02*
X494213D01*
X477291Y582851D02*
X494210D01*
X493265Y498251D02*
X494167D01*
X477291Y454151D02*
X494154D01*
X477291Y572951D02*
X494151D01*
X473905Y636851D02*
X494150D01*
X470846Y413651D02*
X494142D01*
X493265Y536951D02*
X494114D01*
X493265Y508151D02*
X494111D01*
X477291Y444251D02*
X494098D01*
X493265Y546851D02*
X494061D01*
X493265Y553151D02*
X494044D01*
X493265Y556751D02*
X494011D01*
X493265Y543251D02*
X493996D01*
X477291Y447851D02*
X493963D01*
X493265Y504551D02*
X493953D01*
X493265Y533351D02*
X493951D01*
X477291Y576551D02*
X493922D01*
X477291Y457751D02*
X493920D01*
X493265Y494651D02*
X493911D01*
X477291Y467651D02*
X493881D01*
X493265Y484751D02*
X493872D01*
X477291Y586451D02*
X493840D01*
X493265Y487451D02*
X493810D01*
X477291Y464951D02*
X493803D01*
X477291Y583751D02*
X493801D01*
X493265Y497351D02*
X493779D01*
X477291Y455051D02*
X493772D01*
X477291Y573851D02*
X493771D01*
X493265Y536051D02*
X493752D01*
X493265Y507251D02*
X493751D01*
X477291Y445151D02*
X493745D01*
X493265Y545951D02*
X493727D01*
X493265Y554051D02*
X493719D01*
X493265Y555851D02*
X493704D01*
X493265Y544151D02*
X493697D01*
X477291Y446951D02*
X493683D01*
X493265Y505451D02*
X493678D01*
X493265Y534251D02*
X493677D01*
X477291Y575651D02*
X493666D01*
X477291Y456851D02*
X493665D01*
X493265Y495551D02*
X493661D01*
X477291Y585551D02*
X493651D01*
X477291Y466751D02*
X493650D01*
X493265Y485651D02*
X493647D01*
X493265Y486551D02*
X493627D01*
X477291Y465851D02*
X493625D01*
X477291Y584651D02*
X493625D01*
X493265Y496451D02*
X493620D01*
X477291Y455951D02*
X493618D01*
X477291Y574751D02*
X493618D01*
X493265Y535151D02*
X493615D01*
X493265Y506351D02*
X493614D01*
X477291Y446051D02*
X493614D01*
X493265Y545051D02*
X493612D01*
X493265Y554951D02*
X493611D01*
X473905Y635951D02*
X493250D01*
X471425Y414551D02*
X493242D01*
X477273Y587351D02*
X492940D01*
X473905Y635051D02*
X492350D01*
X471728Y415451D02*
X492342D01*
X476846Y588251D02*
X492044D01*
X473905Y634151D02*
X491697D01*
X475949Y589151D02*
X491624D01*
X473905Y633251D02*
X491607D01*
X473905Y632351D02*
X491607D01*
X473905Y631451D02*
X491607D01*
X473905Y630551D02*
X491607D01*
X473905Y629651D02*
X491607D01*
X473905Y628751D02*
X491607D01*
X473905Y627851D02*
X491607D01*
X473905Y626951D02*
X491607D01*
X473905Y626051D02*
X491607D01*
X473905Y625151D02*
X491607D01*
X473905Y624251D02*
X491607D01*
X473905Y623351D02*
X491607D01*
X473905Y622451D02*
X491607D01*
X473905Y621551D02*
X491607D01*
X473905Y620651D02*
X491607D01*
X473905Y619751D02*
X491607D01*
X473702Y618851D02*
X491607D01*
X472904Y617951D02*
X491607D01*
X472004Y617051D02*
X491607D01*
X471104Y616151D02*
X491607D01*
X470204Y615251D02*
X491607D01*
X469495Y614351D02*
X491607D01*
X470694Y613451D02*
X491607D01*
X471375Y612551D02*
X491607D01*
X471745Y611651D02*
X491607D01*
X471890Y610751D02*
X491607D01*
X471835Y609851D02*
X491607D01*
X471570Y608951D02*
X491607D01*
X471045Y608051D02*
X491607D01*
X470086Y607151D02*
X491607D01*
X469495Y606251D02*
X491607D01*
X469495Y605351D02*
X491607D01*
X469495Y604451D02*
X491607D01*
X469495Y603551D02*
X491607D01*
X469488Y602651D02*
X491607D01*
X469411Y601751D02*
X491607D01*
X469411Y600851D02*
X491607D01*
X469411Y599951D02*
X491607D01*
X470980Y599051D02*
X491607D01*
X471799Y598151D02*
X491607D01*
X471811Y597251D02*
X491607D01*
X471811Y596351D02*
X491607D01*
X471811Y595451D02*
X491607D01*
X471811Y594551D02*
X491607D01*
X471811Y593651D02*
X491607D01*
X472349Y592751D02*
X491607D01*
X473249Y591851D02*
X491607D01*
X474149Y590951D02*
X491607D01*
X475049Y590051D02*
X491607D01*
X471816Y416351D02*
X491442D01*
X471705Y417251D02*
X490542D01*
X471375Y418151D02*
X489642D01*
X470756Y419051D02*
X488742D01*
X469581Y419951D02*
X487842D01*
X477291Y470351D02*
X487008D01*
X469417Y420851D02*
X486942D01*
X477291Y571151D02*
X486697D01*
X469417Y421751D02*
X486042D01*
X477291Y471251D02*
X485973D01*
X477291Y570251D02*
X485782D01*
X469245Y422651D02*
X485142D01*
X477291Y472151D02*
X485073D01*
X477291Y569351D02*
X484882D01*
X468476Y423551D02*
X484242D01*
X477291Y473051D02*
X484173D01*
X477291Y568451D02*
X483982D01*
X467576Y424451D02*
X483342D01*
X477291Y473951D02*
X483273D01*
X477291Y567551D02*
X483082D01*
X477291Y474851D02*
X482557D01*
X477291Y566651D02*
X482494D01*
X477291Y475751D02*
X482443D01*
X477291Y476651D02*
X482443D01*
X477291Y477551D02*
X482443D01*
X477291Y478451D02*
X482443D01*
X477291Y479351D02*
X482443D01*
X477291Y480251D02*
X482443D01*
X477291Y481151D02*
X482443D01*
X477291Y482051D02*
X482443D01*
X477291Y482951D02*
X482443D01*
X477291Y483851D02*
X482443D01*
X477291Y484751D02*
X482443D01*
X477291Y485651D02*
X482443D01*
X477291Y486551D02*
X482443D01*
X477291Y487451D02*
X482443D01*
X477291Y488351D02*
X482443D01*
X477291Y489251D02*
X482443D01*
X477291Y490151D02*
X482443D01*
X477291Y491051D02*
X482443D01*
X477291Y491951D02*
X482443D01*
X477291Y492851D02*
X482443D01*
X477291Y493751D02*
X482443D01*
X477291Y494651D02*
X482443D01*
X477291Y495551D02*
X482443D01*
X477291Y496451D02*
X482443D01*
X477291Y497351D02*
X482443D01*
X477291Y498251D02*
X482443D01*
X477291Y499151D02*
X482443D01*
X477291Y500051D02*
X482443D01*
X477291Y500951D02*
X482443D01*
X477291Y501851D02*
X482443D01*
X477291Y502751D02*
X482443D01*
X477291Y503651D02*
X482443D01*
X477291Y504551D02*
X482443D01*
X477291Y505451D02*
X482443D01*
X477291Y506351D02*
X482443D01*
X477291Y507251D02*
X482443D01*
X477291Y508151D02*
X482443D01*
X477291Y509051D02*
X482443D01*
X477291Y509951D02*
X482443D01*
X477291Y510851D02*
X482443D01*
X477291Y511751D02*
X482443D01*
X477291Y512651D02*
X482443D01*
X477291Y513551D02*
X482443D01*
X477291Y514451D02*
X482443D01*
X477291Y515351D02*
X482443D01*
X477291Y516251D02*
X482443D01*
X477291Y517151D02*
X482443D01*
X477291Y518051D02*
X482443D01*
X477291Y518951D02*
X482443D01*
X477291Y519851D02*
X482443D01*
X477291Y520751D02*
X482443D01*
X477291Y521651D02*
X482443D01*
X477291Y522551D02*
X482443D01*
X477291Y523451D02*
X482443D01*
X477291Y524351D02*
X482443D01*
X477291Y525251D02*
X482443D01*
X477291Y526151D02*
X482443D01*
X477291Y527051D02*
X482443D01*
X477291Y527951D02*
X482443D01*
X477291Y528851D02*
X482443D01*
X477291Y529751D02*
X482443D01*
X477291Y530651D02*
X482443D01*
X477291Y531551D02*
X482443D01*
X477291Y532451D02*
X482443D01*
X477291Y533351D02*
X482443D01*
X477291Y534251D02*
X482443D01*
X477291Y535151D02*
X482443D01*
X477291Y536051D02*
X482443D01*
X477291Y536951D02*
X482443D01*
X477291Y537851D02*
X482443D01*
X477291Y538751D02*
X482443D01*
X477291Y539651D02*
X482443D01*
X477291Y540551D02*
X482443D01*
X477291Y541451D02*
X482443D01*
X477291Y542351D02*
X482443D01*
X477291Y543251D02*
X482443D01*
X477291Y544151D02*
X482443D01*
X477291Y545051D02*
X482443D01*
X477291Y545951D02*
X482443D01*
X477291Y546851D02*
X482443D01*
X477291Y547751D02*
X482443D01*
X477291Y548651D02*
X482443D01*
X477291Y549551D02*
X482443D01*
X477291Y550451D02*
X482443D01*
X477291Y551351D02*
X482443D01*
X477291Y552251D02*
X482443D01*
X477291Y553151D02*
X482443D01*
X477291Y554051D02*
X482443D01*
X477291Y554951D02*
X482443D01*
X477291Y555851D02*
X482443D01*
X477291Y556751D02*
X482443D01*
X477291Y557651D02*
X482443D01*
X477291Y558551D02*
X482443D01*
X477291Y559451D02*
X482443D01*
X477291Y560351D02*
X482443D01*
X477291Y561251D02*
X482443D01*
X477291Y562151D02*
X482443D01*
X477291Y563051D02*
X482443D01*
X477291Y563951D02*
X482443D01*
X477291Y564851D02*
X482443D01*
X477291Y565751D02*
X482443D01*
X468701Y425351D02*
X482442D01*
X470423Y426251D02*
X481542D01*
X471189Y427151D02*
X480642D01*
X471612Y428051D02*
X479742D01*
X471799Y428951D02*
X478842D01*
X471783Y429851D02*
X477942D01*
X471563Y430751D02*
X477042D01*
X471097Y431651D02*
X476142D01*
X470255Y432551D02*
X475242D01*
X469417Y433451D02*
X474344D01*
X469417Y434351D02*
X473910D01*
X471772Y585551D02*
X473891D01*
X471798Y584651D02*
X473891D01*
X471621Y583751D02*
X473891D01*
X471213Y582851D02*
X473891D01*
X470470Y581951D02*
X473891D01*
X468869Y581051D02*
X473891D01*
X465007Y580151D02*
X473891D01*
X465007Y579251D02*
X473891D01*
X470051Y578351D02*
X473891D01*
X470986Y577451D02*
X473891D01*
X471500Y576551D02*
X473891D01*
X471757Y575651D02*
X473891D01*
X471805Y574751D02*
X473891D01*
X471652Y573851D02*
X473891D01*
X471272Y572951D02*
X473891D01*
X470576Y572051D02*
X473891D01*
X469166Y571151D02*
X473891D01*
X465007Y570251D02*
X473891D01*
X465007Y569351D02*
X473891D01*
X469900Y568451D02*
X473891D01*
X470909Y567551D02*
X473891D01*
X471457Y566651D02*
X473891D01*
X471739Y565751D02*
X473891D01*
X471809Y564851D02*
X473891D01*
X471679Y563951D02*
X473891D01*
X471327Y563051D02*
X473891D01*
X470675Y562151D02*
X473891D01*
X469406Y561251D02*
X473891D01*
X465007Y560351D02*
X473891D01*
X465007Y559451D02*
X473891D01*
X469733Y558551D02*
X473891D01*
X470826Y557651D02*
X473891D01*
X471411Y556751D02*
X473891D01*
X471719Y555851D02*
X473891D01*
X471811Y554951D02*
X473891D01*
X471704Y554051D02*
X473891D01*
X471379Y553151D02*
X473891D01*
X470767Y552251D02*
X473891D01*
X469611Y551351D02*
X473891D01*
X465007Y550451D02*
X473891D01*
X465549Y549551D02*
X473891D01*
X469546Y548651D02*
X473891D01*
X470737Y547751D02*
X473891D01*
X471362Y546851D02*
X473891D01*
X471696Y545951D02*
X473891D01*
X471811Y545051D02*
X473891D01*
X471726Y544151D02*
X473891D01*
X471427Y543251D02*
X473891D01*
X470854Y542351D02*
X473891D01*
X469791Y541451D02*
X473891D01*
X464549Y540551D02*
X473891D01*
X465449Y539651D02*
X473891D01*
X469331Y538751D02*
X473891D01*
X470643Y537851D02*
X473891D01*
X471309Y536951D02*
X473891D01*
X471670Y536051D02*
X473891D01*
X471808Y535151D02*
X473891D01*
X471745Y534251D02*
X473891D01*
X471472Y533351D02*
X473891D01*
X470935Y532451D02*
X473891D01*
X469952Y531551D02*
X473891D01*
X463585Y530651D02*
X473891D01*
X462685Y529751D02*
X473891D01*
X461785Y528851D02*
X473891D01*
X460885Y527951D02*
X473891D01*
X459985Y527051D02*
X473891D01*
X459085Y526151D02*
X473891D01*
X458185Y525251D02*
X473891D01*
X457285Y524351D02*
X473891D01*
X456385Y523451D02*
X473891D01*
X455485Y522551D02*
X473891D01*
X454585Y521651D02*
X473891D01*
X453685Y520751D02*
X473891D01*
X452785Y519851D02*
X473891D01*
X451885Y518951D02*
X473891D01*
X450985Y518051D02*
X473891D01*
X455450Y517151D02*
X473891D01*
X456947Y516251D02*
X473891D01*
X457665Y515351D02*
X473891D01*
X458060Y514451D02*
X473891D01*
X458224Y513551D02*
X473891D01*
X458187Y512651D02*
X473891D01*
X457943Y511751D02*
X473891D01*
X457446Y510851D02*
X473891D01*
X471505Y509951D02*
X473891D01*
X471811Y509051D02*
X473891D01*
X471811Y508151D02*
X473891D01*
X471811Y507251D02*
X473891D01*
X471811Y506351D02*
X473891D01*
X471811Y505451D02*
X473891D01*
X471811Y504551D02*
X473891D01*
X471811Y503651D02*
X473891D01*
X471720Y502751D02*
X473891D01*
X455834Y501851D02*
X473891D01*
X455834Y500951D02*
X473891D01*
X469089Y500051D02*
X473891D01*
X470547Y499151D02*
X473891D01*
X471255Y498251D02*
X473891D01*
X471643Y497351D02*
X473891D01*
X471803Y496451D02*
X473891D01*
X471761Y495551D02*
X473891D01*
X471512Y494651D02*
X473891D01*
X471007Y493751D02*
X473891D01*
X470092Y492851D02*
X473891D01*
X465877Y491951D02*
X473891D01*
X464977Y491051D02*
X473891D01*
X468767Y490151D02*
X473891D01*
X470438Y489251D02*
X473891D01*
X471195Y488351D02*
X473891D01*
X471612Y487451D02*
X473891D01*
X471795Y486551D02*
X473891D01*
X471776Y485651D02*
X473891D01*
X471551Y484751D02*
X473891D01*
X471079Y483851D02*
X473891D01*
X470226Y482951D02*
X473891D01*
X461621Y482051D02*
X473891D01*
X461621Y481151D02*
X473891D01*
X468271Y480251D02*
X473891D01*
X470322Y479351D02*
X473891D01*
X471131Y478451D02*
X473891D01*
X471579Y477551D02*
X473891D01*
X471785Y476651D02*
X473891D01*
X471788Y475751D02*
X473891D01*
X471587Y474851D02*
X473891D01*
X471146Y473951D02*
X473891D01*
X470350Y473051D02*
X473891D01*
X468420Y472151D02*
X473891D01*
X461621Y471251D02*
X473891D01*
X461621Y470351D02*
X473891D01*
X470196Y469451D02*
X473891D01*
X471063Y468551D02*
X473891D01*
X471542Y467651D02*
X473891D01*
X471773Y466751D02*
X473891D01*
X471797Y465851D02*
X473891D01*
X471620Y464951D02*
X473891D01*
X471210Y464051D02*
X473891D01*
X470464Y463151D02*
X473891D01*
X468851Y462251D02*
X473891D01*
X461621Y461351D02*
X473891D01*
X461621Y460451D02*
X473891D01*
X470058Y459551D02*
X473891D01*
X470990Y458651D02*
X473891D01*
X471502Y457751D02*
X473891D01*
X471758Y456851D02*
X473891D01*
X471804Y455951D02*
X473891D01*
X471650Y455051D02*
X473891D01*
X471269Y454151D02*
X473891D01*
X470571Y453251D02*
X473891D01*
X469153Y452351D02*
X473891D01*
X465377Y451451D02*
X473891D01*
X465007Y450551D02*
X473891D01*
X469908Y449651D02*
X473891D01*
X470913Y448751D02*
X473891D01*
X471459Y447851D02*
X473891D01*
X471740Y446951D02*
X473891D01*
X471809Y446051D02*
X473891D01*
X471678Y445151D02*
X473891D01*
X471324Y444251D02*
X473891D01*
X470670Y443351D02*
X473891D01*
X469411Y442451D02*
X473891D01*
X469411Y441551D02*
X473891D01*
X469411Y440651D02*
X473891D01*
X469411Y439751D02*
X473891D01*
X469411Y438851D02*
X473891D01*
X469411Y437951D02*
X473891D01*
X469417Y437051D02*
X473891D01*
X469417Y436151D02*
X473891D01*
X469417Y435251D02*
X473891D01*
X471540Y586451D02*
X473840D01*
X471059Y587351D02*
X472940D01*
X470189Y588251D02*
X472040D01*
X465007Y589151D02*
X471140D01*
X465007Y590051D02*
X470240D01*
X425697Y664751D02*
X467255D01*
X467052Y652151D02*
X467215D01*
X461621Y480251D02*
X467152D01*
X461621Y472151D02*
X467003D01*
X466676Y425351D02*
X466732D01*
X466150Y406451D02*
X466694D01*
X464077Y490151D02*
X466655D01*
X461621Y462251D02*
X466571D01*
X465007Y581051D02*
X466554D01*
X455834Y500051D02*
X466334D01*
X465007Y571151D02*
X466257D01*
X425697Y656651D02*
X466095D01*
X457914Y420851D02*
X466017D01*
X465007Y561251D02*
X466016D01*
X458199Y419951D02*
X465852D01*
X425697Y655751D02*
X465844D01*
X465007Y551351D02*
X465811D01*
X465007Y558551D02*
X465689D01*
X462609Y412751D02*
X465663D01*
X463649Y541451D02*
X465631D01*
X465007Y568451D02*
X465522D01*
X465007Y449651D02*
X465514D01*
X464485Y531551D02*
X465470D01*
X457362Y421751D02*
X465468D01*
X465007Y578351D02*
X465371D01*
X461621Y459551D02*
X465364D01*
X465007Y588251D02*
X465234D01*
X461621Y469451D02*
X465227D01*
X461621Y482951D02*
X465197D01*
X425697Y399251D02*
X465191D01*
X425697Y663851D02*
X465188D01*
X425697Y657551D02*
X465154D01*
X461621Y479351D02*
X465101D01*
X461621Y473051D02*
X465073D01*
X463177Y489251D02*
X464984D01*
X461621Y463151D02*
X464958D01*
X425697Y654851D02*
X464944D01*
X455834Y499151D02*
X464876D01*
X458271Y419051D02*
X464677D01*
X462100Y413651D02*
X464587D01*
X462999Y542351D02*
X464569D01*
X456345Y422651D02*
X464568D01*
X461621Y458651D02*
X464433D01*
X425697Y662951D02*
X464377D01*
X461621Y468551D02*
X464360D01*
X425697Y658451D02*
X464358D01*
X461621Y483851D02*
X464343D01*
X425697Y400151D02*
X464343D01*
X461621Y478451D02*
X464292D01*
X461621Y473951D02*
X464276D01*
X462277Y488351D02*
X464227D01*
X461621Y464051D02*
X464213D01*
X455834Y498251D02*
X464167D01*
X458144Y418151D02*
X464058D01*
X425697Y653951D02*
X464044D01*
X461200Y414551D02*
X464008D01*
X462999Y543251D02*
X463996D01*
X425697Y662051D02*
X463929D01*
X461621Y457751D02*
X463920D01*
X425697Y659351D02*
X463919D01*
X456544Y509951D02*
X463918D01*
X461621Y467651D02*
X463881D01*
X425697Y401051D02*
X463874D01*
X461621Y484751D02*
X463872D01*
X461621Y477551D02*
X463844D01*
X461621Y474851D02*
X463836D01*
X425697Y403751D02*
X463818D01*
X461621Y487451D02*
X463810D01*
X461621Y464951D02*
X463803D01*
X455834Y497351D02*
X463779D01*
X461621Y455051D02*
X463772D01*
X455834Y494651D02*
X463769D01*
X444833Y536051D02*
X463752D01*
X458500Y417251D02*
X463728D01*
X462999Y545951D02*
X463727D01*
X425697Y661151D02*
X463722D01*
X425697Y660251D02*
X463718D01*
X460300Y415451D02*
X463705D01*
X455834Y502751D02*
X463702D01*
X462999Y544151D02*
X463697D01*
X455873Y423551D02*
X463668D01*
X461621Y456851D02*
X463665D01*
X455834Y495551D02*
X463661D01*
X425697Y401951D02*
X463651D01*
X461621Y466751D02*
X463650D01*
X461621Y485651D02*
X463647D01*
X461621Y476651D02*
X463637D01*
X461621Y475751D02*
X463635D01*
X425697Y402851D02*
X463633D01*
X461621Y486551D02*
X463627D01*
X461621Y465851D02*
X463625D01*
X455834Y496451D02*
X463620D01*
X461621Y455951D02*
X463618D01*
X459400Y416351D02*
X463617D01*
X462999Y545051D02*
X463612D01*
X455834Y509051D02*
X463611D01*
X455834Y508151D02*
X463611D01*
X455834Y507251D02*
X463611D01*
X455834Y506351D02*
X463611D01*
X455834Y505451D02*
X463611D01*
X455834Y504551D02*
X463611D01*
X455834Y503651D02*
X463611D01*
X462999Y546851D02*
X463440D01*
X445733Y536951D02*
X463340D01*
X443933Y535151D02*
X463277D01*
X461621Y454151D02*
X463269D01*
X425697Y653051D02*
X463144D01*
X425697Y404651D02*
X463142D01*
X455834Y493751D02*
X462869D01*
X455873Y424451D02*
X462768D01*
X446633Y537851D02*
X462440D01*
X443033Y534251D02*
X462377D01*
X461621Y453251D02*
X462369D01*
X425697Y652151D02*
X462244D01*
X425697Y405551D02*
X462242D01*
X455834Y492851D02*
X461969D01*
X455873Y425351D02*
X461908D01*
X461621Y452351D02*
X461704D01*
X455873Y426251D02*
X461608D01*
X461487Y443351D02*
X461607D01*
X460764Y442451D02*
X461607D01*
X459864Y441551D02*
X461607D01*
X458964Y440651D02*
X461607D01*
X458064Y439751D02*
X461607D01*
X457164Y438851D02*
X461607D01*
X456264Y437951D02*
X461607D01*
X455873Y437051D02*
X461607D01*
X455873Y436151D02*
X461607D01*
X455873Y435251D02*
X461607D01*
X455873Y434351D02*
X461607D01*
X455873Y433451D02*
X461607D01*
X455873Y432551D02*
X461607D01*
X455873Y431651D02*
X461607D01*
X455873Y430751D02*
X461607D01*
X455873Y429851D02*
X461607D01*
X455873Y428951D02*
X461607D01*
X455873Y428051D02*
X461607D01*
X455873Y427151D02*
X461607D01*
X447533Y538751D02*
X461540D01*
X442133Y533351D02*
X461477D01*
X425697Y651251D02*
X461344D01*
X425697Y406451D02*
X461342D01*
X455834Y491951D02*
X461069D01*
X448433Y539651D02*
X460640D01*
X441861Y532451D02*
X460577D01*
X425697Y650351D02*
X460444D01*
X425697Y407351D02*
X460442D01*
X455834Y491051D02*
X460169D01*
X449333Y540551D02*
X459824D01*
X425697Y649451D02*
X459728D01*
X441974Y531551D02*
X459677D01*
X425697Y648551D02*
X459599D01*
X425697Y647651D02*
X459599D01*
X425697Y646751D02*
X459599D01*
X425697Y645851D02*
X459599D01*
X425697Y644951D02*
X459599D01*
X425697Y644051D02*
X459599D01*
X425697Y643151D02*
X459599D01*
X425697Y642251D02*
X459599D01*
X425697Y641351D02*
X459599D01*
X425697Y640451D02*
X459599D01*
X425697Y639551D02*
X459599D01*
X425697Y638651D02*
X459599D01*
X425695Y637751D02*
X459599D01*
X394801Y636851D02*
X459599D01*
X394801Y635951D02*
X459599D01*
X394801Y635051D02*
X459599D01*
X394801Y634151D02*
X459599D01*
X394801Y633251D02*
X459599D01*
X394801Y632351D02*
X459599D01*
X394801Y631451D02*
X459599D01*
X394801Y630551D02*
X459599D01*
X394801Y629651D02*
X459599D01*
X394801Y628751D02*
X459599D01*
X394801Y627851D02*
X459599D01*
X394801Y626951D02*
X459599D01*
X394801Y626051D02*
X459599D01*
X394801Y625151D02*
X459599D01*
X394801Y624251D02*
X459599D01*
X394801Y623351D02*
X459599D01*
X394801Y622451D02*
X459599D01*
X394801Y621551D02*
X459599D01*
X394801Y620651D02*
X459599D01*
X394801Y619751D02*
X459599D01*
X394801Y618851D02*
X459599D01*
X394801Y617951D02*
X459599D01*
X394801Y617051D02*
X459599D01*
X394801Y616151D02*
X459599D01*
X394801Y615251D02*
X459599D01*
X394801Y614351D02*
X459599D01*
X394801Y613451D02*
X459599D01*
X394801Y612551D02*
X459599D01*
X394801Y611651D02*
X459599D01*
X394801Y610751D02*
X459599D01*
X394801Y609851D02*
X459599D01*
X394801Y608951D02*
X459599D01*
X394801Y608051D02*
X459599D01*
X394801Y607151D02*
X459599D01*
X394801Y606251D02*
X459599D01*
X394801Y605351D02*
X459599D01*
X394801Y604451D02*
X459599D01*
X394801Y603551D02*
X459599D01*
X394801Y602651D02*
X459599D01*
X394801Y601751D02*
X459599D01*
X394801Y600851D02*
X459599D01*
X394801Y599951D02*
X459599D01*
X394801Y599051D02*
X459599D01*
X394801Y598151D02*
X459599D01*
X394801Y597251D02*
X459599D01*
X394801Y596351D02*
X459599D01*
X394801Y595451D02*
X459599D01*
X394801Y594551D02*
X459599D01*
X394801Y593651D02*
X459599D01*
X394801Y592751D02*
X459599D01*
X434336Y591851D02*
X459599D01*
X437053Y590951D02*
X459599D01*
X438582Y590051D02*
X459599D01*
X439697Y589151D02*
X459599D01*
X440568Y588251D02*
X459599D01*
X441267Y587351D02*
X459599D01*
X441830Y586451D02*
X459599D01*
X442281Y585551D02*
X459599D01*
X442635Y584651D02*
X459599D01*
X442901Y583751D02*
X459599D01*
X443085Y582851D02*
X459599D01*
X443193Y581951D02*
X459599D01*
X443226Y581051D02*
X459599D01*
X443185Y580151D02*
X459599D01*
X443068Y579251D02*
X459599D01*
X442874Y578351D02*
X459599D01*
X442599Y577451D02*
X459599D01*
X450186Y576551D02*
X459599D01*
X450841Y575651D02*
X459599D01*
X450920Y574751D02*
X459599D01*
X450755Y573851D02*
X459599D01*
X450755Y572951D02*
X459599D01*
X450755Y572051D02*
X459599D01*
X450755Y571151D02*
X459599D01*
X450755Y570251D02*
X459599D01*
X450755Y569351D02*
X459599D01*
X450755Y568451D02*
X459599D01*
X450755Y567551D02*
X459599D01*
X450755Y566651D02*
X459599D01*
X450755Y565751D02*
X459599D01*
X450755Y564851D02*
X459599D01*
X450755Y563951D02*
X459599D01*
X450755Y563051D02*
X459599D01*
X450755Y562151D02*
X459599D01*
X450755Y561251D02*
X459599D01*
X450755Y560351D02*
X459599D01*
X450755Y559451D02*
X459599D01*
X450755Y558551D02*
X459599D01*
X450755Y557651D02*
X459599D01*
X456297Y556751D02*
X459599D01*
X457318Y555851D02*
X459599D01*
X457873Y554951D02*
X459599D01*
X458158Y554051D02*
X459599D01*
X458232Y553151D02*
X459599D01*
X458106Y552251D02*
X459599D01*
X457758Y551351D02*
X459599D01*
X457113Y550451D02*
X459599D01*
X455864Y549551D02*
X459599D01*
X450755Y548651D02*
X459599D01*
X450755Y547751D02*
X459599D01*
X450755Y546851D02*
X459599D01*
X450755Y545951D02*
X459599D01*
X450755Y545051D02*
X459599D01*
X450755Y544151D02*
X459599D01*
X450755Y543251D02*
X459599D01*
X450723Y542351D02*
X459599D01*
X450233Y541451D02*
X459599D01*
X425697Y408251D02*
X459571D01*
X455834Y490151D02*
X459269D01*
X425697Y409151D02*
X459248D01*
X425697Y410951D02*
X459245D01*
X425697Y410051D02*
X459245D01*
X425697Y411851D02*
X459092D01*
X441886Y530651D02*
X458777D01*
X455834Y489251D02*
X458450D01*
X455834Y488351D02*
X458221D01*
X455834Y487451D02*
X458221D01*
X455837Y486551D02*
X458221D01*
X455873Y485651D02*
X458221D01*
X455873Y484751D02*
X458221D01*
X455873Y483851D02*
X458221D01*
X455873Y482951D02*
X458221D01*
X455873Y482051D02*
X458221D01*
X455873Y481151D02*
X458221D01*
X455873Y480251D02*
X458221D01*
X455873Y479351D02*
X458221D01*
X455873Y478451D02*
X458221D01*
X455873Y477551D02*
X458221D01*
X455873Y476651D02*
X458221D01*
X455873Y475751D02*
X458221D01*
X455873Y474851D02*
X458221D01*
X455873Y473951D02*
X458221D01*
X455873Y473051D02*
X458221D01*
X455873Y472151D02*
X458221D01*
X455873Y471251D02*
X458221D01*
X455873Y470351D02*
X458221D01*
X455873Y469451D02*
X458221D01*
X455873Y468551D02*
X458221D01*
X455873Y467651D02*
X458221D01*
X455873Y466751D02*
X458221D01*
X455873Y465851D02*
X458221D01*
X455873Y464951D02*
X458221D01*
X455873Y464051D02*
X458221D01*
X455873Y463151D02*
X458221D01*
X456882Y462251D02*
X458221D01*
X457647Y461351D02*
X458221D01*
X458069Y460451D02*
X458221D01*
X458019Y457751D02*
X458221D01*
X457552Y456851D02*
X458221D01*
X456708Y455951D02*
X458221D01*
X394801Y455051D02*
X458221D01*
X394801Y454151D02*
X458221D01*
X394801Y453251D02*
X458221D01*
X394801Y452351D02*
X458221D01*
X394801Y451451D02*
X458221D01*
X394801Y450551D02*
X458221D01*
X394801Y449651D02*
X458221D01*
X394801Y448751D02*
X458221D01*
X394801Y447851D02*
X458221D01*
X394801Y446951D02*
X458221D01*
X394801Y446051D02*
X458221D01*
X394801Y445151D02*
X458221D01*
X425697Y412751D02*
X458192D01*
X441584Y529751D02*
X457877D01*
X394801Y444251D02*
X457755D01*
X425697Y413651D02*
X457292D01*
X441006Y528851D02*
X456977D01*
X394801Y443351D02*
X456855D01*
X425697Y414551D02*
X456392D01*
X439933Y527951D02*
X456077D01*
X394801Y442451D02*
X455955D01*
X430667Y527051D02*
X455177D01*
X394801Y441551D02*
X455055D01*
X430792Y526151D02*
X454277D01*
X394801Y440651D02*
X454155D01*
X430716Y525251D02*
X453377D01*
X394801Y439751D02*
X453255D01*
X450085Y517151D02*
X452817D01*
X394801Y438851D02*
X452577D01*
X439509Y524351D02*
X452477D01*
X448708Y485651D02*
X452473D01*
X448708Y484751D02*
X452473D01*
X448708Y483851D02*
X452473D01*
X448708Y482951D02*
X452473D01*
X448708Y482051D02*
X452473D01*
X448708Y481151D02*
X452473D01*
X448708Y480251D02*
X452473D01*
X448708Y479351D02*
X452473D01*
X448708Y478451D02*
X452473D01*
X448708Y477551D02*
X452473D01*
X448708Y476651D02*
X452473D01*
X448708Y475751D02*
X452473D01*
X448692Y474851D02*
X452473D01*
X448279Y473951D02*
X452473D01*
X447383Y473051D02*
X452473D01*
X446483Y472151D02*
X452473D01*
X445583Y471251D02*
X452473D01*
X444683Y470351D02*
X452473D01*
X443783Y469451D02*
X452473D01*
X442883Y468551D02*
X452473D01*
X442842Y467651D02*
X452473D01*
X442842Y466751D02*
X452473D01*
X442842Y465851D02*
X452473D01*
X442842Y464951D02*
X452473D01*
X442842Y464051D02*
X452473D01*
X442842Y463151D02*
X452473D01*
X394801Y437951D02*
X452473D01*
X394801Y437051D02*
X452473D01*
X394801Y436151D02*
X452473D01*
X394801Y435251D02*
X452473D01*
X394801Y434351D02*
X452473D01*
X394801Y433451D02*
X452473D01*
X394801Y432551D02*
X452473D01*
X394801Y431651D02*
X452473D01*
X394801Y430751D02*
X452473D01*
X394801Y429851D02*
X452473D01*
X394801Y428951D02*
X452473D01*
X394801Y428051D02*
X452473D01*
X394801Y427151D02*
X452473D01*
X394801Y426251D02*
X452473D01*
X425673Y425351D02*
X452473D01*
X425697Y424451D02*
X452473D01*
X425697Y423551D02*
X452473D01*
X442860Y415451D02*
X452455D01*
X448708Y509051D02*
X452434D01*
X448708Y508151D02*
X452434D01*
X448708Y507251D02*
X452434D01*
X448708Y506351D02*
X452434D01*
X448708Y505451D02*
X452434D01*
X448708Y504551D02*
X452434D01*
X448708Y503651D02*
X452434D01*
X448708Y502751D02*
X452434D01*
X448708Y501851D02*
X452434D01*
X448708Y500951D02*
X452434D01*
X448708Y500051D02*
X452434D01*
X448708Y499151D02*
X452434D01*
X448708Y498251D02*
X452434D01*
X448708Y497351D02*
X452434D01*
X448708Y496451D02*
X452434D01*
X448708Y495551D02*
X452434D01*
X448708Y494651D02*
X452434D01*
X448708Y493751D02*
X452434D01*
X448708Y492851D02*
X452434D01*
X448708Y491951D02*
X452434D01*
X448708Y491051D02*
X452434D01*
X448708Y490151D02*
X452434D01*
X448708Y489251D02*
X452434D01*
X448708Y488351D02*
X452434D01*
X448708Y487451D02*
X452434D01*
X448708Y486551D02*
X452434D01*
X450755Y549551D02*
X452404D01*
X443314Y422651D02*
X452001D01*
X450755Y556751D02*
X451971D01*
X448708Y509951D02*
X451724D01*
X443677Y455951D02*
X451638D01*
X440812Y523451D02*
X451577D01*
X443851Y462251D02*
X451464D01*
X449185Y516251D02*
X451321D01*
X444115Y416351D02*
X451199D01*
X450755Y550451D02*
X451155D01*
X444330Y421751D02*
X450985D01*
X450755Y555851D02*
X450950D01*
X448708Y510851D02*
X450822D01*
X444520Y456851D02*
X450794D01*
X444616Y461351D02*
X450699D01*
X441475Y522551D02*
X450677D01*
X448708Y515351D02*
X450602D01*
X444763Y417251D02*
X450552D01*
X444883Y420851D02*
X450432D01*
X444987Y457751D02*
X450328D01*
X448708Y511751D02*
X450325D01*
X445038Y460451D02*
X450277D01*
X448708Y514451D02*
X450208D01*
X445112Y418151D02*
X450203D01*
X445167Y419951D02*
X450148D01*
X445208Y458651D02*
X450107D01*
X445224Y459551D02*
X450091D01*
X448708Y512651D02*
X450081D01*
X445240Y419051D02*
X450075D01*
X448708Y513551D02*
X450044D01*
X441835Y521651D02*
X449777D01*
X441971Y520751D02*
X448877D01*
X441907Y519851D02*
X447977D01*
X442234Y576551D02*
X447924D01*
X440478Y573851D02*
X447355D01*
X439583Y572951D02*
X447355D01*
X438432Y572051D02*
X447355D01*
X436833Y571151D02*
X447355D01*
X433690Y570251D02*
X447355D01*
X394801Y569351D02*
X447355D01*
X394801Y568451D02*
X447355D01*
X394801Y567551D02*
X447355D01*
X394801Y566651D02*
X447355D01*
X394801Y565751D02*
X447355D01*
X394801Y564851D02*
X447355D01*
X394801Y563951D02*
X447355D01*
X394801Y563051D02*
X447355D01*
X394801Y562151D02*
X447355D01*
X394801Y561251D02*
X447355D01*
X394801Y560351D02*
X447355D01*
X394801Y559451D02*
X447355D01*
X394801Y558551D02*
X447355D01*
X394801Y557651D02*
X447355D01*
X440099Y556751D02*
X447355D01*
X441090Y555851D02*
X447355D01*
X441630Y554951D02*
X447355D01*
X441906Y554051D02*
X447355D01*
X441971Y553151D02*
X447355D01*
X441836Y552251D02*
X447355D01*
X441477Y551351D02*
X447355D01*
X440815Y550451D02*
X447355D01*
X439517Y549551D02*
X447355D01*
X430715Y548651D02*
X447355D01*
X430792Y547751D02*
X447355D01*
X430668Y546851D02*
X447355D01*
X439927Y545951D02*
X447355D01*
X441003Y545051D02*
X447355D01*
X441582Y544151D02*
X447355D01*
X441771Y575651D02*
X447269D01*
X441885Y543251D02*
X447224D01*
X441194Y574751D02*
X447190D01*
X441632Y518951D02*
X447077D01*
X441974Y542351D02*
X446324D01*
X441093Y518051D02*
X446177D01*
X440105Y517151D02*
X445447D01*
X441862Y541451D02*
X445424D01*
X430639Y516251D02*
X445308D01*
X430787Y515351D02*
X445308D01*
X430735Y514451D02*
X445308D01*
X439240Y513551D02*
X445308D01*
X440705Y512651D02*
X445308D01*
X441416Y511751D02*
X445308D01*
X441805Y510851D02*
X445308D01*
X441965Y509951D02*
X445308D01*
X441925Y509051D02*
X445308D01*
X441676Y508151D02*
X445308D01*
X441173Y507251D02*
X445308D01*
X440260Y506351D02*
X445308D01*
X394801Y505451D02*
X445308D01*
X394801Y504551D02*
X445308D01*
X394801Y503651D02*
X445308D01*
X394801Y502751D02*
X445308D01*
X394801Y501851D02*
X445308D01*
X394801Y500951D02*
X445308D01*
X394801Y500051D02*
X445308D01*
X394801Y499151D02*
X445308D01*
X394801Y498251D02*
X445308D01*
X394801Y497351D02*
X445308D01*
X394801Y496451D02*
X445308D01*
X394801Y495551D02*
X445308D01*
X394801Y494651D02*
X445308D01*
X394801Y493751D02*
X445308D01*
X394801Y492851D02*
X445308D01*
X436587Y491951D02*
X445308D01*
X438268Y491051D02*
X445308D01*
X439460Y490151D02*
X445308D01*
X440380Y489251D02*
X445308D01*
X441115Y488351D02*
X445308D01*
X441708Y487451D02*
X445308D01*
X442184Y486551D02*
X445308D01*
X442559Y485651D02*
X445308D01*
X442845Y484751D02*
X445308D01*
X443049Y483851D02*
X445308D01*
X443174Y482951D02*
X445308D01*
X443225Y482051D02*
X445308D01*
X443201Y481151D02*
X445308D01*
X443103Y480251D02*
X445308D01*
X442927Y479351D02*
X445308D01*
X442672Y478451D02*
X445308D01*
X442329Y477551D02*
X445308D01*
X441890Y476651D02*
X445308D01*
X441342Y475751D02*
X445275D01*
X441532Y540551D02*
X444524D01*
X440661Y474851D02*
X444375D01*
X440914Y539651D02*
X443624D01*
X439814Y473951D02*
X443475D01*
X439740Y538751D02*
X442724D01*
X438734Y473051D02*
X442575D01*
X430693Y537851D02*
X441824D01*
X437272Y472151D02*
X441675D01*
X430793Y536951D02*
X440924D01*
X434842Y471251D02*
X440775D01*
X430693Y536051D02*
X440024D01*
X394801Y470351D02*
X439878D01*
X394801Y469451D02*
X439458D01*
X394801Y468551D02*
X439442D01*
X394801Y467651D02*
X439442D01*
X394801Y466751D02*
X439442D01*
X394801Y465851D02*
X439442D01*
X394801Y464951D02*
X439442D01*
X394801Y464051D02*
X439442D01*
X394801Y463151D02*
X439442D01*
X425697Y415451D02*
X439423D01*
X425697Y422651D02*
X438970D01*
X394801Y455951D02*
X438607D01*
X394801Y462251D02*
X438433D01*
X425697Y416351D02*
X438168D01*
X425697Y421751D02*
X437953D01*
X394801Y456851D02*
X437763D01*
X394801Y461351D02*
X437668D01*
X425697Y417251D02*
X437520D01*
X425697Y420851D02*
X437401D01*
X394801Y457751D02*
X437296D01*
X394801Y460451D02*
X437246D01*
X425697Y418151D02*
X437171D01*
X425697Y419951D02*
X437116D01*
X394801Y458651D02*
X437075D01*
X394801Y459551D02*
X437059D01*
X425697Y419051D02*
X437044D01*
X430473Y513551D02*
X436508D01*
X430427Y524351D02*
X436239D01*
X430426Y549551D02*
X436231D01*
X430378Y535151D02*
X436015D01*
X430376Y538751D02*
X436008D01*
X430324Y545951D02*
X435821D01*
X430322Y527951D02*
X435815D01*
X394801Y556751D02*
X435649D01*
X430265Y517151D02*
X435643D01*
X394801Y506351D02*
X435488D01*
X429952Y512651D02*
X435043D01*
X429869Y523451D02*
X434936D01*
X429866Y550451D02*
X434933D01*
X429780Y534251D02*
X434837D01*
X429777Y539651D02*
X434834D01*
X429684Y545051D02*
X434745D01*
X429681Y528851D02*
X434742D01*
X394801Y555851D02*
X434658D01*
X429578Y518051D02*
X434655D01*
X394801Y507251D02*
X434575D01*
X429003Y511751D02*
X434332D01*
X428840Y522551D02*
X434273D01*
X428834Y551351D02*
X434271D01*
X428658Y533351D02*
X434217D01*
X428652Y540551D02*
X434216D01*
X428452Y544151D02*
X434166D01*
X428444Y529751D02*
X434164D01*
X394801Y554951D02*
X434118D01*
X428200Y518951D02*
X434116D01*
X394801Y508151D02*
X434072D01*
X394801Y510851D02*
X433943D01*
X394801Y521651D02*
X433913D01*
X394801Y552251D02*
X433912D01*
X394801Y532451D02*
X433887D01*
X394801Y541451D02*
X433886D01*
X394801Y543251D02*
X433863D01*
X394801Y530651D02*
X433862D01*
X394801Y554051D02*
X433842D01*
X394801Y519851D02*
X433841D01*
X394801Y509051D02*
X433823D01*
X394801Y509951D02*
X433783D01*
X394801Y520751D02*
X433777D01*
X394801Y553151D02*
X433777D01*
X394801Y531551D02*
X433774D01*
X394801Y542351D02*
X433774D01*
X394801Y570251D02*
X430876D01*
X394801Y591851D02*
X430231D01*
X394801Y471251D02*
X429724D01*
X394801Y491951D02*
X427980D01*
X394801Y571151D02*
X427733D01*
X394801Y590951D02*
X427514D01*
X394801Y472151D02*
X427295D01*
X394801Y491051D02*
X426299D01*
X394801Y572051D02*
X426135D01*
X394801Y590051D02*
X425985D01*
X394801Y473051D02*
X425833D01*
X394801Y518951D02*
X425186D01*
X394801Y490151D02*
X425107D01*
X394801Y572951D02*
X424984D01*
X394801Y529751D02*
X424942D01*
X394801Y544151D02*
X424934D01*
X394801Y589151D02*
X424870D01*
X394801Y473951D02*
X424753D01*
X394801Y540551D02*
X424734D01*
X394801Y533351D02*
X424727D01*
X394801Y551351D02*
X424551D01*
X394801Y522551D02*
X424545D01*
X394801Y511751D02*
X424383D01*
X394801Y489251D02*
X424187D01*
X394801Y573851D02*
X424089D01*
X394801Y588251D02*
X423998D01*
X394801Y474851D02*
X423906D01*
X394801Y518051D02*
X423808D01*
X394801Y528851D02*
X423705D01*
X394801Y545051D02*
X423701D01*
X394801Y539651D02*
X423609D01*
X394801Y534251D02*
X423606D01*
X394801Y550451D02*
X423520D01*
X394801Y523451D02*
X423517D01*
X394801Y488351D02*
X423452D01*
X394801Y512651D02*
X423433D01*
X394801Y574751D02*
X423373D01*
X394801Y587351D02*
X423300D01*
X394801Y475751D02*
X423225D01*
X394801Y517151D02*
X423121D01*
X394801Y527951D02*
X423064D01*
X394801Y545951D02*
X423062D01*
X394801Y538751D02*
X423010D01*
X394801Y535151D02*
X423008D01*
X394801Y549551D02*
X422960D01*
X394801Y524351D02*
X422959D01*
X394801Y513551D02*
X422913D01*
X394801Y487451D02*
X422859D01*
X394801Y575651D02*
X422796D01*
X394801Y516251D02*
X422747D01*
X394801Y586451D02*
X422737D01*
X394801Y527051D02*
X422719D01*
X394801Y546851D02*
X422718D01*
X394801Y537851D02*
X422693D01*
X394801Y536051D02*
X422692D01*
X394801Y476651D02*
X422677D01*
X394801Y548651D02*
X422671D01*
X394801Y525251D02*
X422670D01*
X394801Y514451D02*
X422651D01*
X394801Y515351D02*
X422598D01*
X394801Y526151D02*
X422594D01*
X394801Y547751D02*
X422594D01*
X394801Y536951D02*
X422593D01*
X394801Y486551D02*
X422383D01*
X394801Y576551D02*
X422333D01*
X394801Y585551D02*
X422286D01*
X394801Y477551D02*
X422238D01*
X394801Y485651D02*
X422008D01*
X394801Y577451D02*
X421968D01*
X394801Y584651D02*
X421932D01*
X394801Y478451D02*
X421895D01*
X394801Y484751D02*
X421722D01*
X394801Y578351D02*
X421693D01*
X394801Y583751D02*
X421666D01*
X394801Y479351D02*
X421640D01*
X394801Y483851D02*
X421518D01*
X394801Y579251D02*
X421499D01*
X394801Y582851D02*
X421481D01*
X394801Y480251D02*
X421464D01*
X394801Y482951D02*
X421392D01*
X394801Y580151D02*
X421382D01*
X394801Y581951D02*
X421374D01*
X394801Y481151D02*
X421366D01*
X394801Y482051D02*
X421342D01*
X394801Y581051D02*
X421341D01*
X393701Y393701D02*
X1102362D01*
Y669291*
X393701*
Y393701*
G54D19*
X409449Y661417D03*
X415016Y659110D03*
X417323Y653543D03*
X415016Y647976D03*
X409449Y645669D03*
X403882Y647976D03*
X401575Y653543D03*
X403882Y659110D03*
X1086614Y417323D03*
X1092181Y415016D03*
X1094488Y409449D03*
X1092181Y403882D03*
X1086614Y401575D03*
X1081047Y403882D03*
X1078740Y409449D03*
X1081047Y415016D03*
X1086614Y661417D03*
X1092181Y659110D03*
X1094488Y653543D03*
X1092181Y647976D03*
X1086614Y645669D03*
X1081047Y647976D03*
X1078740Y653543D03*
X1081047Y659110D03*
X409449Y417323D03*
X415016Y415016D03*
X417323Y409449D03*
X415016Y403882D03*
X409449Y401575D03*
X403882Y403882D03*
X401575Y409449D03*
X403882Y415016D03*
G54D20*
X441142Y459173D02*
Y469214D01*
X447008Y475080*
Y516477*
X466613Y536082*
X463307Y426316D02*
Y451785D01*
X467711Y456189*
X463307Y426316D02*
X467717Y421906D01*
Y416299*
X454173Y419173D02*
X460945Y412402D01*
Y409252*
X467717Y402480*
X454173Y419173D02*
Y438265D01*
X459921Y444013*
Y488399*
X467711Y496189*
Y446189D02*
Y437762D01*
X467717Y437757*
Y429331*
X747047Y408189D02*
Y417948D01*
X747070Y417970*
Y425218*
X437874Y531496D02*
X449055Y542677D01*
Y575039*
X466613Y536082D02*
X467711Y534984D01*
X519488Y535157D02*
X537192Y517454D01*
Y502206*
X454134Y513268D02*
Y486240D01*
X454173Y486201*
Y459173*
X497711Y506189D02*
Y496189D01*
X508919*
X524940Y480168*
X537192Y502206D02*
Y491267D01*
X537323Y491136*
Y480197*
X547192Y502206D02*
Y522861D01*
X559488Y535157*
Y541109*
X559503Y541123*
Y547075*
X941526Y532782D02*
Y540087D01*
X946457Y545018*
Y552323*
X1077987Y519248D02*
Y534370D01*
X463307Y613876D02*
Y549388D01*
X467711Y544984*
X463307Y613876D02*
X467795Y618364D01*
Y623059*
Y610551D02*
Y615246D01*
X472205Y619656*
Y638283*
X507795Y610551D02*
Y623059D01*
X467795D02*
Y635476D01*
X519606Y583307D02*
Y598361D01*
X524409Y603165*
Y609432*
X519503Y559388D02*
Y566296D01*
X519606Y566400*
Y573307*
X497711Y594984D02*
X507929D01*
X519606Y583307*
X467711Y594984D02*
Y602726D01*
X467795Y602810*
Y610551*
X467711Y594984D02*
X475591Y587105D01*
Y434606*
X507717Y402480*
X537205Y609449D02*
Y648110D01*
X534094Y594843D02*
Y660709D01*
X687070Y583249D02*
Y590656D01*
X687087Y590673*
Y595866*
X692513Y603719D02*
Y577412D01*
X697070Y572856*
X682513Y603719D02*
Y571207D01*
X685256Y568465*
X712679*
X717070Y572856*
X722441Y590591D02*
Y596012D01*
X722513Y596085*
Y603719*
X697070Y583249D02*
Y589219D01*
X697087Y589236*
Y592992*
X707070Y572856D02*
X712513Y578299D01*
Y603719*
X707070Y583249D02*
X707078D01*
Y590591*
X707087*
X732513Y603719D02*
Y597253D01*
X732520Y597246*
Y592992*
X702513Y603719D02*
X702516D01*
Y595866*
X702520*
X956457Y552323D02*
Y545087D01*
X961526Y540018*
Y532782*
X461299Y648802D02*
Y541396D01*
X466613Y536082*
X461299Y648802D02*
X467795Y655298D01*
Y660686*
X493307Y633604D02*
Y589388D01*
X497711Y584984*
X493307Y633604D02*
X507795Y648092D01*
X467795D02*
Y642693D01*
X472205Y638283*
X524294Y625286D02*
Y616161D01*
X524409Y616045*
Y609432*
X692513Y633719D02*
X706941Y619291D01*
X835193*
X870626Y654724*
X702513Y633719D02*
X714933Y621299D01*
X827201*
X860626Y654724*
X712513Y633719D02*
X722925Y623307D01*
X819209*
X850626Y654724*
X722513Y633719D02*
X730917Y625315D01*
X811217*
X840626Y654724*
X732513Y633719D02*
X738909Y627323D01*
X803224*
X830626Y654724*
X742513Y633719D02*
X746902Y629331D01*
X785232*
X810626Y654724*
G54D21*
X515230Y400708D03*
X543069Y428547D03*
G54D22*
X445551Y401417D03*
X445633Y442466D03*
X431714Y456386D03*
X417794Y442466D03*
X403875Y456386D03*
X529150Y414627D03*
X487392Y456386D03*
Y400708D03*
X612666Y442466D03*
Y414627D03*
X598747Y428547D03*
Y400708D03*
X584828Y442466D03*
Y414627D03*
X570908Y428547D03*
Y400708D03*
X556989Y442466D03*
Y414627D03*
X543069Y400708D03*
X682264D03*
X668344Y442466D03*
Y414627D03*
X654425Y400708D03*
X640505Y442466D03*
Y414627D03*
X626586Y400708D03*
X765780D03*
X737941D03*
X724022Y442466D03*
Y414627D03*
X710102Y400708D03*
X696183Y414627D03*
X849297Y428547D03*
X835377Y442466D03*
Y414627D03*
X821458Y428547D03*
Y400708D03*
X807538Y442466D03*
Y414627D03*
X793619Y428547D03*
Y400708D03*
X779700Y442466D03*
Y414627D03*
X932813Y428547D03*
Y400708D03*
X918894Y442466D03*
Y414627D03*
X904974Y428547D03*
Y400708D03*
X891055Y442466D03*
Y414627D03*
X877136Y428547D03*
X863216Y442466D03*
Y414627D03*
X1002410Y442466D03*
Y414627D03*
X988491Y428547D03*
Y400708D03*
X974572Y442466D03*
Y414627D03*
X960652Y456386D03*
Y428547D03*
Y400708D03*
X946733Y442466D03*
Y414627D03*
X1072007Y428547D03*
X1058088Y414627D03*
X1044169Y400708D03*
X1030249Y414627D03*
X1016330Y428547D03*
Y400708D03*
X448268Y528740D03*
X417794Y525983D03*
Y498144D03*
Y470305D03*
X403875Y539902D03*
Y512063D03*
Y484225D03*
X529150Y498144D03*
X539882Y540630D03*
X612666Y498144D03*
X598747Y484225D03*
X584828Y498144D03*
X570908Y539902D03*
X556989Y498144D03*
X682264Y539902D03*
Y484225D03*
X668344Y498144D03*
X654425Y539902D03*
Y484225D03*
X640505Y498144D03*
X626586Y539902D03*
Y484225D03*
X765780Y539902D03*
X737941D03*
Y484225D03*
X724022Y498144D03*
X710102Y539902D03*
Y484225D03*
X849297Y539902D03*
Y484225D03*
X835377Y498144D03*
X821458Y539902D03*
Y484225D03*
X807538Y498144D03*
X793619Y539902D03*
Y484225D03*
X779700Y498144D03*
X932813Y539902D03*
X918894Y498144D03*
X904974Y539902D03*
Y484225D03*
X891055Y498144D03*
X877136Y539902D03*
Y484225D03*
X863216Y498144D03*
X988491Y539902D03*
X960652Y484225D03*
X1085927Y525983D03*
Y498144D03*
Y470305D03*
X1072007Y512063D03*
X1058088Y525983D03*
Y470305D03*
X1030249D03*
X1016330Y539902D03*
X445633Y609499D03*
X431714Y623419D03*
Y595580D03*
X417794Y609499D03*
Y581661D03*
Y553822D03*
X403875Y623419D03*
Y595580D03*
Y567741D03*
X449055Y575039D03*
X483268Y587992D03*
X529150Y581661D03*
X487392Y623419D03*
X539882Y555866D03*
X612666Y609499D03*
Y553822D03*
X598747Y623419D03*
X584828Y609499D03*
X570908Y623419D03*
Y567741D03*
X556989Y581661D03*
X543069Y623419D03*
Y595580D03*
X537205Y609449D03*
X534094Y594843D03*
X682264Y623419D03*
X668344Y553822D03*
X654425Y623419D03*
X640505Y609499D03*
Y553822D03*
X626586Y623419D03*
X687087Y595866D03*
X747441Y595512D03*
X765780Y595580D03*
Y567741D03*
X751861Y553822D03*
X724022D03*
X696183D03*
X722441Y590591D03*
X707087D03*
X697087Y592992D03*
X732520D03*
X702520Y595866D03*
X849297Y623419D03*
Y595580D03*
Y567741D03*
X835377Y609499D03*
Y581661D03*
Y553822D03*
X821458Y595580D03*
Y567741D03*
X807538Y609499D03*
Y581661D03*
Y553822D03*
X793619Y595580D03*
Y567741D03*
X779700Y609499D03*
Y581661D03*
Y553822D03*
X932813Y623419D03*
Y595580D03*
Y567741D03*
X918894Y609499D03*
Y581661D03*
Y553822D03*
X904974Y623419D03*
Y595580D03*
Y567741D03*
X891055Y609499D03*
Y581661D03*
Y553822D03*
X877136Y623419D03*
Y595580D03*
Y567741D03*
X863216Y609499D03*
Y581661D03*
Y553822D03*
X1002410D03*
X988491Y623419D03*
Y567741D03*
X974572Y553822D03*
X960652Y623419D03*
Y567741D03*
X946733Y609499D03*
Y581661D03*
X1085927Y609499D03*
Y581661D03*
Y553822D03*
X1072007Y623419D03*
Y595580D03*
Y567741D03*
X1058088Y609499D03*
Y581661D03*
Y553822D03*
X1016330Y623419D03*
Y567741D03*
X445633Y637338D03*
X445866Y659764D03*
X529150Y637338D03*
X612666D03*
X598747Y651258D03*
X584828Y637338D03*
X570908Y651258D03*
X556989Y637338D03*
X543069Y651258D03*
X537205Y648110D03*
X534094Y660709D03*
X640505Y637338D03*
X626586Y651258D03*
X765780D03*
X737941D03*
X710102D03*
X793619D03*
X779700Y637338D03*
X932813Y651258D03*
X918894Y637338D03*
X891055D03*
X863216D03*
X1002410D03*
X988491Y651258D03*
X974572Y637338D03*
X960652Y651258D03*
X946733Y637338D03*
X1058088D03*
X1016330Y651258D03*
G54D23*
X1037970Y598459D02*
X1038820Y599308D01*
X1037970Y604400D02*
X1038820Y603550D01*
X1047754Y604400D02*
X1046905Y603550D01*
X1047754Y598459D02*
X1046905Y599308D01*
X669484Y649798D02*
X670262Y650576D01*
X675282Y649798D02*
X674505Y650576D01*
X675282Y655596D02*
X674505Y654818D01*
X669484Y655596D02*
X670262Y654818D01*
X1043282Y623951D02*
X1044060Y624729D01*
X1049080Y623951D02*
X1048302Y624729D01*
X1049080Y629750D02*
X1048302Y628972D01*
X1043282Y629750D02*
X1044060Y628972D01*
X654384Y646954D02*
X655162Y646176D01*
X654384Y641156D02*
X655162Y641934D01*
X660183Y641156D02*
X659405Y641934D01*
X660183Y646954D02*
X659405Y646176D01*
X669614Y636618D02*
X670392Y635840D01*
X669614Y630820D02*
X670392Y631598D01*
X675412Y630820D02*
X674634Y631598D01*
X675412Y636618D02*
X674634Y635840D01*
X886848Y650947D02*
X888505Y652603D01*
X886848Y658502D02*
X888505Y656846D01*
X894404Y658502D02*
X892747Y656846D01*
X894404Y650947D02*
X892747Y652603D01*
X1040559Y447731D02*
X1041337Y446953D01*
X1040559Y441933D02*
X1041337Y442711D01*
X1046357Y441933D02*
X1045579Y442711D01*
X1046357Y447731D02*
X1045579Y446953D01*
X1038399Y456473D02*
X1039249Y457322D01*
X1038399Y462414D02*
X1039249Y461565D01*
X1048183Y462414D02*
X1047334Y461565D01*
X1048183Y456473D02*
X1047334Y457322D01*
X1087981Y450403D02*
X1085589Y452795D01*
X1075402Y450403D02*
X1077794Y452795D01*
X1075402Y462983D02*
X1077794Y460590D01*
X1087981Y462983D02*
X1085589Y460590D01*
X944391Y479277D02*
X943613Y478499D01*
X938593Y479277D02*
X939371Y478499D01*
X938593Y473479D02*
X939371Y474257D01*
X944391Y473479D02*
X943613Y474257D01*
X500610Y479088D02*
X499833Y478310D01*
X494812Y479088D02*
X495590Y478310D01*
X494812Y473290D02*
X495590Y474068D01*
X500610Y473290D02*
X499833Y474068D01*
X944425Y499883D02*
X943648Y500661D01*
X944425Y505681D02*
X943648Y504904D01*
X938627Y505681D02*
X939405Y504904D01*
X938627Y499883D02*
X939405Y500661D01*
X500610Y567883D02*
X499833Y567105D01*
X494812Y567883D02*
X495590Y567105D01*
X494812Y562085D02*
X495590Y562863D01*
X500610Y562085D02*
X499833Y562863D01*
X877727Y651825D02*
X878505Y652603D01*
X883525Y651825D02*
X882747Y652603D01*
X883525Y657624D02*
X882747Y656846D01*
X877727Y657624D02*
X878505Y656846D01*
X759614Y606618D02*
X760392Y605840D01*
X759614Y600820D02*
X760392Y601598D01*
X765412Y600820D02*
X764634Y601598D01*
X765412Y606618D02*
X764634Y605840D01*
X659969Y569956D02*
X659191Y570734D01*
X659969Y575755D02*
X659191Y574977D01*
X654170Y575755D02*
X654948Y574977D01*
X654170Y569956D02*
X654948Y570734D01*
X561268Y591938D02*
X562045Y592716D01*
X567066Y591938D02*
X566288Y592716D01*
X567066Y597736D02*
X566288Y596959D01*
X561268Y597736D02*
X562045Y596959D01*
X1086367Y432333D02*
X1085589Y433110D01*
X1086367Y441683D02*
X1085589Y440905D01*
X1077016Y441683D02*
X1077794Y440905D01*
X1077016Y432333D02*
X1077794Y433110D01*
X470610Y489088D02*
X469833Y488310D01*
X464812Y489088D02*
X465590Y488310D01*
X464812Y483290D02*
X465590Y484068D01*
X470610Y483290D02*
X469833Y484068D01*
X1049942Y497101D02*
X1050720Y497879D01*
X1055740Y497101D02*
X1054963Y497879D01*
X1055740Y502899D02*
X1054963Y502121D01*
X1049942Y502899D02*
X1050720Y502121D01*
X556604Y556489D02*
X557381Y557267D01*
X562402Y556489D02*
X561624Y557267D01*
X562402Y562288D02*
X561624Y561510D01*
X556604Y562288D02*
X557381Y561510D01*
X1037970Y588459D02*
X1038820Y589308D01*
X1037970Y594400D02*
X1038820Y593550D01*
X1047754Y594400D02*
X1046905Y593550D01*
X1047754Y588459D02*
X1046905Y589308D01*
X679484Y649798D02*
X680262Y650576D01*
X685282Y649798D02*
X684505Y650576D01*
X685282Y655596D02*
X684505Y654818D01*
X679484Y655596D02*
X680262Y654818D01*
X1040559Y437731D02*
X1041337Y436953D01*
X1040559Y431933D02*
X1041337Y432711D01*
X1046357Y431933D02*
X1045579Y432711D01*
X1046357Y437731D02*
X1045579Y436953D01*
X571825Y589907D02*
X572603Y589129D01*
X571825Y584109D02*
X572603Y584887D01*
X577624Y584109D02*
X576846Y584887D01*
X577624Y589907D02*
X576846Y589129D01*
X1050054Y556156D02*
X1050831Y556934D01*
X1055852Y556156D02*
X1055074Y556934D01*
X1055852Y561954D02*
X1055074Y561176D01*
X1050054Y561954D02*
X1050831Y561176D01*
X434975Y506786D02*
X435753Y507564D01*
X440773Y506786D02*
X439995Y507564D01*
X440773Y512584D02*
X439995Y511806D01*
X434975Y512584D02*
X435753Y511806D01*
X578075Y497248D02*
X577297Y496471D01*
X573736Y497248D02*
X574514Y496471D01*
X573736Y492909D02*
X574514Y493687D01*
X578075Y492909D02*
X577297Y493687D01*
X1038399Y466473D02*
X1039249Y467322D01*
X1038399Y472414D02*
X1039249Y471565D01*
X1048183Y472414D02*
X1047334Y471565D01*
X1048183Y466473D02*
X1047334Y467322D01*
X759969Y422319D02*
X759191Y423097D01*
X759969Y428117D02*
X759191Y427339D01*
X754170Y428117D02*
X754948Y427339D01*
X754170Y422319D02*
X754948Y423097D01*
X1080886Y541471D02*
X1080108Y542249D01*
X1080886Y547269D02*
X1080108Y546491D01*
X1075088Y547269D02*
X1075866Y546491D01*
X1075088Y541471D02*
X1075866Y542249D01*
X954425Y529883D02*
X953648Y530661D01*
X954425Y535681D02*
X953648Y534904D01*
X948627Y535681D02*
X949405Y534904D01*
X948627Y529883D02*
X949405Y530661D01*
X1053282Y623951D02*
X1054060Y624729D01*
X1059080Y623951D02*
X1058302Y624729D01*
X1059080Y629750D02*
X1058302Y628972D01*
X1053282Y629750D02*
X1054060Y628972D01*
X510616Y419198D02*
X509838Y418421D01*
X504817Y419198D02*
X505595Y418421D01*
X504817Y413400D02*
X505595Y414178D01*
X510616Y413400D02*
X509838Y414178D01*
X954391Y479277D02*
X953613Y478499D01*
X948593Y479277D02*
X949371Y478499D01*
X948593Y473479D02*
X949371Y474257D01*
X954391Y473479D02*
X953613Y474257D01*
X709969Y422319D02*
X709191Y423097D01*
X709969Y428117D02*
X709191Y427339D01*
X704170Y428117D02*
X704948Y427339D01*
X704170Y422319D02*
X704948Y423097D01*
X679614Y636618D02*
X680392Y635840D01*
X679614Y630820D02*
X680392Y631598D01*
X685412Y630820D02*
X684634Y631598D01*
X685412Y636618D02*
X684634Y635840D01*
G74*
X0Y0D02*
M02*
