*
*
G04 PADS 9.5 Build Number: 522968 generated Gerber (RS-274-X) file*
G04 PC Version=2.1*
*
%IN "ECG_COPPER_backup.pcb"*%
*
%MOIN*%
*
%FSLAX35Y35*%
*
*
*
*
G04 PC Standard Apertures*
*
*
G04 Thermal Relief Aperture macro.*
%AMTER*
1,1,$1,0,0*
1,0,$1-$2,0,0*
21,0,$3,$4,0,0,45*
21,0,$3,$4,0,0,135*
%
*
*
G04 Annular Aperture macro.*
%AMANN*
1,1,$1,0,0*
1,0,$2,0,0*
%
*
*
G04 Odd Aperture macro.*
%AMODD*
1,1,$1,0,0*
1,0,$1-0.005,0,0*
%
*
*
G04 PC Custom Aperture Macros*
*
*
*
*
*
*
G04 PC Aperture Table*
*
%ADD010C,0.001*%
%ADD011R,0.06X0.06*%
%ADD012C,0.06*%
%ADD013C,0.19685*%
%ADD014C,0.11024*%
%ADD015C,0.03937*%
%ADD016R,0.11024X0.11024*%
%ADD017C,0.05512*%
%ADD018C,0.01*%
%ADD019C,0.02165*%
%ADD020C,0.012*%
%ADD021C,0.055*%
%ADD022C,0.01575*%
%ADD023C,0.015*%
*
*
*
*
G04 PC Circuitry*
G04 Layer Name ECG_COPPER_backup.pcb - circuitry*
%LPD*%
*
*
G04 PC Custom Flashes*
G04 Layer Name ECG_COPPER_backup.pcb - flashes*
%LPD*%
*
*
G04 PC Circuitry*
G04 Layer Name ECG_COPPER_backup.pcb - circuitry*
%LPD*%
*
G54D10*
G54D11*
G01X890626Y654724D03*
X870626Y404646D03*
X672513Y603719D03*
X467711Y506189D03*
Y594984D03*
X757070Y583249D03*
X607070Y425218D03*
X1077987Y534370D03*
X971526Y532782D03*
G54D12*
X880626Y654724D03*
X870626D03*
X860626D03*
X850626D03*
X840626D03*
X830626D03*
X820626D03*
X810626D03*
X860626Y404646D03*
X850626D03*
X840626D03*
X830626D03*
X672383Y652697D03*
X682383D03*
X682513Y603719D03*
X692513D03*
X702513D03*
X712513D03*
X722513D03*
X732513D03*
X742513D03*
X752513D03*
X762513D03*
Y633719D03*
X752513D03*
X742513D03*
X732513D03*
X722513D03*
X712513D03*
X702513D03*
X692513D03*
X682513D03*
X672513D03*
X657283Y604055D03*
Y644055D03*
X467711Y496189D03*
Y486189D03*
Y476189D03*
Y466189D03*
Y456189D03*
Y446189D03*
X497711D03*
Y456189D03*
Y466189D03*
Y476189D03*
Y486189D03*
Y496189D03*
Y506189D03*
X467711Y584984D03*
Y574984D03*
Y564984D03*
Y554984D03*
Y544984D03*
Y534984D03*
X497711D03*
Y544984D03*
Y554984D03*
Y564984D03*
Y574984D03*
Y584984D03*
Y594984D03*
X454134Y513268D03*
Y553268D03*
X437874Y509685D03*
Y520591D03*
Y531496D03*
Y542402D03*
Y553307D03*
X426693Y515138D03*
Y526043D03*
Y536949D03*
Y547854D03*
X559503Y559388D03*
X519503D03*
X519488Y535157D03*
X559488D03*
X519503Y547075D03*
X559503D03*
X524409Y609432D03*
X564409D03*
X564167Y594837D03*
X524167D03*
X519606Y583307D03*
Y573307D03*
X507795Y660686D03*
X467795D03*
X507795Y648092D03*
X467795D03*
X507795Y635476D03*
X467795D03*
Y623059D03*
X507795D03*
Y610551D03*
X467795D03*
X574724Y547008D03*
Y587008D03*
X547192Y502206D03*
X537192D03*
X467717Y429331D03*
X507717D03*
X467717Y416299D03*
X507717D03*
X537323Y440197D03*
Y480197D03*
X524940Y440168D03*
Y480168D03*
X588504Y481063D03*
Y521063D03*
X454173Y419173D03*
Y459173D03*
X441142D03*
Y419173D03*
X507717Y402480D03*
X467717D03*
X757070Y572856D03*
X747070Y583249D03*
Y572856D03*
X737070Y583249D03*
Y572856D03*
X727070Y583249D03*
Y572856D03*
X717070Y583249D03*
Y572856D03*
X707070Y583249D03*
Y572856D03*
X697070Y583249D03*
Y572856D03*
X687070Y583249D03*
Y572856D03*
X677070Y583249D03*
Y572856D03*
X667070Y583249D03*
Y572856D03*
X657070Y583249D03*
Y572856D03*
X647070Y583249D03*
Y572856D03*
X637070Y583249D03*
Y572856D03*
X627070Y583249D03*
Y572856D03*
X617070Y583249D03*
Y572856D03*
X607070Y583249D03*
Y572856D03*
Y435218D03*
X617070Y425218D03*
Y435218D03*
X627070Y425218D03*
Y435218D03*
X637070Y425218D03*
Y435218D03*
X647070Y425218D03*
Y435218D03*
X657070Y425218D03*
Y435218D03*
X667070Y425218D03*
Y435218D03*
X677070Y425218D03*
Y435218D03*
X687070Y425218D03*
Y435218D03*
X697070Y425218D03*
Y435218D03*
X707070Y425218D03*
Y435218D03*
X717070Y425218D03*
Y435218D03*
X727070Y425218D03*
Y435218D03*
X737070Y425218D03*
Y435218D03*
X747070Y425218D03*
Y435218D03*
X757070Y425218D03*
Y435218D03*
X1043458Y444832D03*
Y434832D03*
X1042841Y500000D03*
X1052841D03*
X1077987Y519248D03*
Y479248D03*
Y544370D03*
X961526Y532782D03*
X951526D03*
X941526D03*
Y502782D03*
X951526D03*
X961526D03*
X971526D03*
X956457Y552323D03*
X946457D03*
X951492Y476378D03*
X941492D03*
X1042953Y559055D03*
X1052953D03*
X1046181Y626850D03*
X1056181D03*
G54D13*
X432283Y581102D03*
Y481890D03*
X409449Y653543D03*
X1086614Y409449D03*
Y653543D03*
X409449Y409449D03*
G54D14*
X524294Y625286D03*
X541417Y573268D03*
X552008Y480157D03*
X1081692Y437008D03*
X747047Y408189D03*
G54D15*
X575906Y495079D03*
Y489567D03*
Y484055D03*
G54D16*
X1081692Y456693D03*
G54D17*
X1045457Y459688D02*
Y459199D01*
X1041126*
Y459688*
X1045457*
X1044094Y459199D02*
Y459688D01*
X1045457Y469688D02*
Y469199D01*
X1041126*
Y469688*
X1045457*
X1044094Y469199D02*
Y469688D01*
X1045457Y479688D02*
Y479199D01*
X1041126*
Y479688*
X1045457*
X1044094Y479199D02*
Y479688D01*
X1045028Y581673D02*
Y581185D01*
X1040697*
Y581673*
X1045028*
X1044094Y581185D02*
Y581673D01*
X1045028Y591673D02*
Y591185D01*
X1040697*
Y591673*
X1045028*
X1044094Y591185D02*
Y591673D01*
X1045028Y601673D02*
Y601185D01*
X1040697*
Y601673*
X1045028*
X1044094Y601185D02*
Y601673D01*
G54D18*
X1046941Y500000D02*
G75*
G03X1046941I-4100J0D01*
G01X1047053Y559055D02*
G03X1047053I-4100J0D01*
G01X975626Y502782D02*
G03X975626I-4100J0D01*
G01X761170Y435218D02*
G03X761170I-4100J0D01*
G01X701170D02*
G03X701170I-4100J0D01*
G01X661170Y583249D02*
G03X661170I-4100J0D01*
G01X592604Y521063D02*
G03X592604I-4100J0D01*
G01X471811Y476189D02*
G03X471811I-4100J0D01*
G01Y564984D02*
G03X471811I-4100J0D01*
G01X1088303Y437008D02*
G03X1088303I-6611J0D01*
G01X1047558Y434832D02*
G03X1047558I-4100J0D01*
G01Y444832D02*
G03X1047558I-4100J0D01*
G01X1082087Y519248D02*
G03X1082087I-4100J0D01*
G01Y544370D02*
G03X1082087I-4100J0D01*
G01X1060281Y626850D02*
G03X1060281I-4100J0D01*
G01X1050281D02*
G03X1050281I-4100J0D01*
G01X965626Y532782D02*
G03X965626I-4100J0D01*
G01X978581Y591429D02*
G03X978581I-8731J0D01*
G01X955626Y532782D02*
G03X955626I-4100J0D01*
G01X960557Y552323D02*
G03X960557I-4100J0D01*
G01X945626Y532782D02*
G03X945626I-4100J0D01*
G01X950557Y552323D02*
G03X950557I-4100J0D01*
G01X884726Y654724D02*
G03X884726I-4100J0D01*
G01X874726D02*
G03X874726I-4100J0D01*
G01X864726D02*
G03X864726I-4100J0D01*
G01X854726D02*
G03X854726I-4100J0D01*
G01X844726D02*
G03X844726I-4100J0D01*
G01X834726D02*
G03X834726I-4100J0D01*
G01X824726D02*
G03X824726I-4100J0D01*
G01X814726D02*
G03X814726I-4100J0D01*
G01X761170Y572856D02*
G03X761170I-4100J0D01*
G01X766613Y603719D02*
G03X766613I-4100J0D01*
G01Y633719D02*
G03X766613I-4100J0D01*
G01X751170Y572856D02*
G03X751170I-4100J0D01*
G01Y583249D02*
G03X751170I-4100J0D01*
G01X756613Y603719D02*
G03X756613I-4100J0D01*
G01Y633719D02*
G03X756613I-4100J0D01*
G01X741170Y572856D02*
G03X741170I-4100J0D01*
G01Y583249D02*
G03X741170I-4100J0D01*
G01X746613Y603719D02*
G03X746613I-4100J0D01*
G01Y633719D02*
G03X746613I-4100J0D01*
G01X731170Y572856D02*
G03X731170I-4100J0D01*
G01Y583249D02*
G03X731170I-4100J0D01*
G01X721170Y572856D02*
G03X721170I-4100J0D01*
G01Y583249D02*
G03X721170I-4100J0D01*
G01X711170Y572856D02*
G03X711170I-4100J0D01*
G01Y583249D02*
G03X711170I-4100J0D01*
G01X736613Y603719D02*
G03X736613I-4100J0D01*
G01Y633719D02*
G03X736613I-4100J0D01*
G01X726613Y603719D02*
G03X726613I-4100J0D01*
G01Y633719D02*
G03X726613I-4100J0D01*
G01X716613Y603719D02*
G03X716613I-4100J0D01*
G01Y633719D02*
G03X716613I-4100J0D01*
G01X706613Y603719D02*
G03X706613I-4100J0D01*
G01Y633719D02*
G03X706613I-4100J0D01*
G01X696613Y603719D02*
G03X696613I-4100J0D01*
G01Y633719D02*
G03X696613I-4100J0D01*
G01X681170Y572856D02*
G03X681170I-4100J0D01*
G01Y583249D02*
G03X681170I-4100J0D01*
G01X686613Y603719D02*
G03X686613I-4100J0D01*
G01Y633719D02*
G03X686613I-4100J0D01*
G01X686483Y652697D02*
G03X686483I-4100J0D01*
G01X671170Y572856D02*
G03X671170I-4100J0D01*
G01X661170D02*
G03X661170I-4100J0D01*
G01X651170D02*
G03X651170I-4100J0D01*
G01X641170D02*
G03X641170I-4100J0D01*
G01Y583249D02*
G03X641170I-4100J0D01*
G01X631170Y572856D02*
G03X631170I-4100J0D01*
G01Y583249D02*
G03X631170I-4100J0D01*
G01X621170Y572856D02*
G03X621170I-4100J0D01*
G01Y583249D02*
G03X621170I-4100J0D01*
G01X611170Y572856D02*
G03X611170I-4100J0D01*
G01Y583249D02*
G03X611170I-4100J0D01*
G01X676613Y633719D02*
G03X676613I-4100J0D01*
G01X676483Y652697D02*
G03X676483I-4100J0D01*
G01X661383Y644055D02*
G03X661383I-4100J0D01*
G01X563588Y535157D02*
G03X563588I-4100J0D01*
G01X578824Y587008D02*
G03X578824I-4100J0D01*
G01X563603Y559388D02*
G03X563603I-4100J0D01*
G01X568267Y594837D02*
G03X568267I-4100J0D01*
G01X523706Y583307D02*
G03X523706I-4100J0D01*
G01X501811Y564984D02*
G03X501811I-4100J0D01*
G01X528509Y609432D02*
G03X528509I-4100J0D01*
G01X530906Y625286D02*
G03X530906I-6612J0D01*
G01X501811Y584984D02*
G03X501811I-4100J0D01*
G01Y594984D02*
G03X501811I-4100J0D01*
G01X511895Y623059D02*
G03X511895I-4100J0D01*
G01X430793Y515138D02*
G03X430793I-4100J0D01*
G01Y526043D02*
G03X430793I-4100J0D01*
G01Y536949D02*
G03X430793I-4100J0D01*
G01Y547854D02*
G03X430793I-4100J0D01*
G01X443226Y581102D02*
G03X443226I-10943J0D01*
G01X458273Y459173D02*
G03X458273I-4100J0D01*
G01X471811Y486189D02*
G03X471811I-4100J0D01*
G01Y496189D02*
G03X471811I-4100J0D01*
G01Y534984D02*
G03X471811I-4100J0D01*
G01Y544984D02*
G03X471811I-4100J0D01*
G01X445242Y459173D02*
G03X445242I-4100J0D01*
G01X443226Y481890D02*
G03X443226I-10943J0D01*
G01X441974Y509685D02*
G03X441974I-4100J0D01*
G01Y520591D02*
G03X441974I-4100J0D01*
G01Y531496D02*
G03X441974I-4100J0D01*
G01X471895Y610551D02*
G03X471895I-4100J0D01*
G01Y623059D02*
G03X471895I-4100J0D01*
G01Y635476D02*
G03X471895I-4100J0D01*
G01Y648092D02*
G03X471895I-4100J0D01*
G01X471811Y446189D02*
G03X471811I-4100J0D01*
G01Y456189D02*
G03X471811I-4100J0D01*
G01X529040Y480168D02*
G03X529040I-4100J0D01*
G01X501811Y446189D02*
G03X501811I-4100J0D01*
G01Y456189D02*
G03X501811I-4100J0D01*
G01Y466189D02*
G03X501811I-4100J0D01*
G01Y476189D02*
G03X501811I-4100J0D01*
G01X681170Y425218D02*
G03X681170I-4100J0D01*
G01Y435218D02*
G03X681170I-4100J0D01*
G01X671170Y425218D02*
G03X671170I-4100J0D01*
G01Y435218D02*
G03X671170I-4100J0D01*
G01X661170Y425218D02*
G03X661170I-4100J0D01*
G01Y435218D02*
G03X661170I-4100J0D01*
G01X651170Y425218D02*
G03X651170I-4100J0D01*
G01Y435218D02*
G03X651170I-4100J0D01*
G01X641170Y425218D02*
G03X641170I-4100J0D01*
G01Y435218D02*
G03X641170I-4100J0D01*
G01X631170Y425218D02*
G03X631170I-4100J0D01*
G01Y435218D02*
G03X631170I-4100J0D01*
G01X621170Y425218D02*
G03X621170I-4100J0D01*
G01Y435218D02*
G03X621170I-4100J0D01*
G01X611170D02*
G03X611170I-4100J0D01*
G01X551292Y502206D02*
G03X551292I-4100J0D01*
G01X541292D02*
G03X541292I-4100J0D01*
G01X501811Y496189D02*
G03X501811I-4100J0D01*
G01Y506189D02*
G03X501811I-4100J0D01*
G01X691170Y572856D02*
G03X691170I-4100J0D01*
G01Y583249D02*
G03X691170I-4100J0D01*
G01Y425218D02*
G03X691170I-4100J0D01*
G01X701170Y572856D02*
G03X701170I-4100J0D01*
G01Y583249D02*
G03X701170I-4100J0D01*
G01X741170Y425218D02*
G03X741170I-4100J0D01*
G01Y435218D02*
G03X741170I-4100J0D01*
G01X731170Y425218D02*
G03X731170I-4100J0D01*
G01Y435218D02*
G03X731170I-4100J0D01*
G01X721170Y425218D02*
G03X721170I-4100J0D01*
G01Y435218D02*
G03X721170I-4100J0D01*
G01X711170Y425218D02*
G03X711170I-4100J0D01*
G01X511817Y402480D02*
G03X511817I-4100J0D01*
G01Y416299D02*
G03X511817I-4100J0D01*
G01X471817Y402480D02*
G03X471817I-4100J0D01*
G01X955592Y476378D02*
G03X955592I-4100J0D01*
G01X955626Y502782D02*
G03X955626I-4100J0D01*
G01X945592Y476378D02*
G03X945592I-4100J0D01*
G01X945626Y502782D02*
G03X945626I-4100J0D01*
G01X864726Y404646D02*
G03X864726I-4100J0D01*
G01X854726D02*
G03X854726I-4100J0D01*
G01X844726D02*
G03X844726I-4100J0D01*
G01X834726D02*
G03X834726I-4100J0D01*
G01X753659Y408189D02*
G03X753659I-6612J0D01*
G01X989423Y469444D02*
G03X989423I-8730J0D01*
G01X1083713Y475382D02*
Y485484D01*
X1055580*
X1047413Y493651*
Y571392*
X1050406Y574305*
X1050406D02*
Y585917D01*
X1050406D02*
X1032350D01*
X1032306Y535061*
X1024139Y526902*
X606328*
X598161Y535068*
Y584853*
X602391Y589083*
X650128*
X652390Y586821*
Y578571*
X662059*
Y593415*
X658415Y597059*
X591467*
X583886Y589478*
Y535068*
X575719Y526902*
X489478*
X481311Y535068*
Y566407*
X477667Y570051*
X463138*
Y560224*
X472180*
X474442Y557963*
X474428Y482627*
X472166Y480366*
X472166D02*
X463138D01*
X463137Y471638*
X477904Y471641*
X481547Y475285*
Y504778*
X489713Y512945*
X683710Y512978*
X691878Y504811*
Y430813*
X702059Y430817*
Y504812*
X710226Y512979*
X743947Y512980*
X752114Y504813*
Y430775*
X762846Y430777*
Y504819*
X771012Y512986*
X964361Y513015*
X966623Y510749*
X966595Y495643*
X968270Y493965*
X1024172*
X1032339Y485785*
X1032326Y477060*
X1034001Y475382*
X1040584*
X1037270Y479199D02*
G03X1040584Y475382I3856J0D01*
G01X1037270Y479199D02*
Y479688D01*
X1041126Y483544D02*
G03X1037270Y479688I-0J-3856D01*
G01X1041126Y483544D02*
X1045457D01*
X1049313Y479688D02*
G03X1045457Y483544I-3856J-0D01*
G01X1049313Y479688D02*
Y479199D01*
X1045999Y475382D02*
G03X1049313Y479199I-542J3817D01*
G01X1045999Y475382D02*
X1076622D01*
X1079352D02*
G03X1076622I-1365J3866D01*
G01X1079352D02*
X1083713D01*
X1101232Y425697D02*
Y637295D01*
X1070866*
X1070366Y637795D02*
G03X1070866Y637295I500J0D01*
G01X1070366Y637795D02*
Y668191D01*
X425697*
Y637795*
X425197Y637295D02*
G03X425697Y637795I-0J500D01*
G01X425197Y637295D02*
X394801D01*
Y425697*
X425197*
X425697Y425197D02*
G03X425197Y425697I-500J-0D01*
G01X425697Y425197D02*
Y394801D01*
X1070366*
Y425197*
X1070866Y425697D02*
G03X1070366Y425197I0J-500D01*
G01X1070866Y425697D02*
X1101232D01*
X1046941Y500000D02*
G03X1046941I-4100J0D01*
G01X1047053Y559055D02*
G03X1047053I-4100J0D01*
G01X1048883Y581673D02*
Y581185D01*
X1045028Y577329D02*
G03X1048883Y581185I-0J3856D01*
G01X1045028Y577329D02*
X1040697D01*
X1036841Y581185D02*
G03X1040697Y577329I3856J0D01*
G01X1036841Y581185D02*
Y581673D01*
X1040697Y585529D02*
G03X1036841Y581673I-0J-3856D01*
G01X1040697Y585529D02*
X1045028D01*
X1048883Y581673D02*
G03X1045028Y585529I-3855J0D01*
G01X975626Y502782D02*
G03X975626I-4100J0D01*
G01X761170Y435218D02*
G03X761170I-4100J0D01*
G01X701170D02*
G03X701170I-4100J0D01*
G01X661170Y583249D02*
G03X661170I-4100J0D01*
G01X592604Y521063D02*
G03X592604I-4100J0D01*
G01X471811Y476189D02*
G03X471811I-4100J0D01*
G01Y564984D02*
G03X471811I-4100J0D01*
G01X1088303Y437008D02*
G03X1088303I-6611J0D01*
G01Y462205D02*
Y451181D01*
X1087203Y450081D02*
G03X1088303Y451181I0J1100D01*
G01X1087203Y450081D02*
X1076180D01*
X1075080Y451181D02*
G03X1076180Y450081I1100J0D01*
G01X1075080Y451181D02*
Y462205D01*
X1076180Y463305D02*
G03X1075080Y462205I-0J-1100D01*
G01X1076180Y463305D02*
X1087203D01*
X1088303Y462205D02*
G03X1087203Y463305I-1100J-0D01*
G01X1047558Y434832D02*
G03X1047558I-4100J0D01*
G01Y444832D02*
G03X1047558I-4100J0D01*
G01X1049313Y459688D02*
Y459199D01*
X1045457Y455344D02*
G03X1049313Y459199I-0J3855D01*
G01X1045457Y455344D02*
X1041126D01*
X1037270Y459199D02*
G03X1041126Y455344I3856J0D01*
G01X1037270Y459199D02*
Y459688D01*
X1041126Y463544D02*
G03X1037270Y459688I-0J-3856D01*
G01X1041126Y463544D02*
X1045457D01*
X1049313Y459688D02*
G03X1045457Y463544I-3856J-0D01*
G01X1049313Y469688D02*
Y469199D01*
X1045457Y465344D02*
G03X1049313Y469199I-0J3855D01*
G01X1045457Y465344D02*
X1041126D01*
X1037270Y469199D02*
G03X1041126Y465344I3856J0D01*
G01X1037270Y469199D02*
Y469688D01*
X1041126Y473544D02*
G03X1037270Y469688I-0J-3856D01*
G01X1041126Y473544D02*
X1045457D01*
X1049313Y469688D02*
G03X1045457Y473544I-3856J-0D01*
G01X1085313Y485484D02*
Y475382D01*
X1083713Y473782D02*
G03X1085313Y475382I-0J1600D01*
G01X1083713Y473782D02*
X1034001D01*
X1032869Y474251D02*
G03X1034001Y473782I1132J1131D01*
G01X1032869Y474251D02*
X1031193Y475929D01*
X1030726Y477060D02*
G03X1031193Y475929I1600J-0D01*
G01X1030726Y477060D02*
Y477062D01*
X1030738Y485124*
X1023508Y492365*
X968270*
X967138Y492835D02*
G03X968270Y492365I1132J1130D01*
G01X967138Y492835D02*
X965463Y494513D01*
X964995Y495643D02*
G03X965463Y494513I1600J0D01*
G01X964995Y495643D02*
Y495646D01*
X965004Y500611*
X965012Y504941D02*
G03X965004Y500611I-3486J-2159D01*
G01X965012Y504941D02*
X965021Y510088D01*
X963697Y511415*
X771675Y511386*
X764446Y504156*
Y430777*
X762847Y429177D02*
G03X764446Y430777I-1J1600D01*
G01X762847Y429177D02*
X758140Y429176D01*
X755998Y429175D02*
G03X758140Y429176I1072J-3957D01*
G01X755998Y429175D02*
X752114D01*
X750514Y430775D02*
G03X752114Y429175I1600J-0D01*
G01X750514Y430775D02*
Y432994D01*
Y437442D02*
G03Y432994I-3444J-2224D01*
G01Y437442D02*
Y504150D01*
X743284Y511380*
X710888Y511379*
X703659Y504149*
Y437494*
Y432942D02*
G03Y437494I3411J2276D01*
G01Y432942D02*
Y430817D01*
X702060Y429217D02*
G03X703659Y430817I-1J1600D01*
G01X702060Y429217D02*
X697980Y429215D01*
X696155D02*
G03X697980I915J-3997D01*
G01X696155D02*
X691879Y429213D01*
X690278Y430813D02*
G03X691879Y429213I1600J-0D01*
G01X690278Y430813D02*
Y432665D01*
Y437771D02*
G03Y432665I-3208J-2553D01*
G01Y437771D02*
Y504149D01*
X683047Y511378*
X490376Y511345*
X483147Y504116*
Y475285*
X482679Y474154D02*
G03X483147Y475285I-1132J1131D01*
G01X482679Y474154D02*
X479035Y470510D01*
X477904Y470041D02*
G03X479035Y470510I-0J1600D01*
G01X477904Y470041D02*
X469121Y470039D01*
X471552Y464753D02*
G03X469121Y470039I-3841J1436D01*
G01X471552Y464753D02*
X494436Y441868D01*
X521209*
X528671D02*
G03X521209I-3731J-1700D01*
G01X528671D02*
X530834D01*
X531146Y441897D02*
G03X530834Y441868I-0J-1700D01*
G01X531146Y441897D02*
X533592D01*
Y438497D02*
G03Y441897I3731J1700D01*
G01Y438497D02*
X531429D01*
X531117Y438468D02*
G03X531429Y438497I-0J1700D01*
G01X531117Y438468D02*
X528671D01*
X521209D02*
G03X528671I3731J1700D01*
G01X521209D02*
X493732D01*
X492530Y438966D02*
G03X493732Y438468I1202J1202D01*
G01X492530Y438966D02*
X469147Y462349D01*
X466300Y470038D02*
G03X469147Y462349I1411J-3849D01*
G01X466300Y470038D02*
X463137D01*
X461537Y471638D02*
G03X463137Y470038I1600J-0D01*
G01X461537Y471638D02*
X461537D01*
X461538Y480366*
X463138Y481966D02*
G03X461538Y480366I-0J-1600D01*
G01X463138Y481966D02*
X471504D01*
X472828Y483290*
X472842Y557300*
X471517Y558624*
X469597*
X466275Y551144D02*
G03X469597Y558624I1436J3840D01*
G01X466275Y551144D02*
X456331Y541199D01*
X455129Y540702D02*
G03X456331Y541199I-0J1700D01*
G01X455129Y540702D02*
X441605D01*
Y544102D02*
G03Y540702I-3731J-1700D01*
G01Y544102D02*
X454425D01*
X463871Y553548*
X465825Y558624D02*
G03X463871Y553548I1886J-3640D01*
G01X465825Y558624D02*
X463138D01*
X461538Y560224D02*
G03X463138Y558624I1600J0D01*
G01X461538Y560224D02*
X461538D01*
Y570051*
X463138Y571651D02*
G03X461538Y570051I0J-1600D01*
G01X463138Y571651D02*
X465323D01*
X463980Y573284D02*
G03X465323Y571651I3731J1700D01*
G01X463980Y573284D02*
X457305D01*
X456874Y573339D02*
G03X457305Y573284I431J1645D01*
G01X456874Y573339D02*
X449875D01*
Y576739D02*
G03Y573339I-820J-1700D01*
G01Y576739D02*
X457249D01*
X457680Y576684D02*
G03X457249Y576739I-431J-1645D01*
G01X457680Y576684D02*
X463980D01*
X470099Y571651D02*
G03X463980Y576684I-2388J3333D01*
G01X470099Y571651D02*
X477667D01*
X478798Y571183D02*
G03X477667Y571651I-1131J-1132D01*
G01X478798Y571183D02*
X482442Y567538D01*
X482911Y566407D02*
G03X482442Y567538I-1600J0D01*
G01X482911Y566407D02*
Y535731D01*
X490141Y528502*
X575056*
X582286Y535731*
Y589478*
X582754Y590609D02*
G03X582286Y589478I1132J-1131D01*
G01X582754Y590609D02*
X590336Y598190D01*
X591467Y598659D02*
G03X590336Y598190I-0J-1600D01*
G01X591467Y598659D02*
X658415D01*
X659546Y598190D02*
G03X658415Y598659I-1131J-1131D01*
G01X659546Y598190D02*
X663190Y594546D01*
X663659Y593415D02*
G03X663190Y594546I-1600J-0D01*
G01X663659Y593415D02*
Y585525D01*
Y580974D02*
G03Y585525I3411J2275D01*
G01Y580974D02*
Y578571D01*
X662059Y576971D02*
G03X663659Y578571I0J1600D01*
G01X662059Y576971D02*
X652390D01*
X650790Y578571D02*
G03X652390Y576971I1600J-0D01*
G01X650790Y578571D02*
Y581526D01*
Y584973D02*
G03Y581526I-3720J-1724D01*
G01Y584973D02*
Y586158D01*
X649466Y587483*
X603054*
X599761Y584190*
Y535731*
X606991Y528502*
X1023477*
X1030706Y535725*
X1030750Y585919*
X1032350Y587517D02*
G03X1030750Y585919I-0J-1600D01*
G01X1032350Y587517D02*
X1039507D01*
X1036841Y591185D02*
G03X1039507Y587517I3856J0D01*
G01X1036841Y591185D02*
Y591673D01*
X1040697Y595529D02*
G03X1036841Y591673I-0J-3856D01*
G01X1040697Y595529D02*
X1045028D01*
X1048883Y591673D02*
G03X1045028Y595529I-3855J0D01*
G01X1048883Y591673D02*
Y591185D01*
X1046218Y587517D02*
G03X1048883Y591185I-1190J3668D01*
G01X1046218Y587517D02*
X1050406D01*
X1052006Y585917D02*
G03X1050406Y587517I-1600J0D01*
G01X1052006Y585917D02*
Y574305D01*
X1051522Y573159D02*
G03X1052006Y574305I-1116J1146D01*
G01X1051522Y573159D02*
X1049013Y570717D01*
Y560192*
Y557919D02*
G03Y560192I3940J1136D01*
G01Y557919D02*
Y501469D01*
Y498531D02*
G03Y501469I3828J1469D01*
G01Y498531D02*
Y494314D01*
X1056243Y487084*
X1083713*
X1085313Y485484D02*
G03X1083713Y487084I-1600J0D01*
G01X1082087Y519248D02*
G03X1082087I-4100J0D01*
G01Y537370D02*
Y531370D01*
X1080987Y530270D02*
G03X1082087Y531370I-0J1100D01*
G01X1080987Y530270D02*
X1074987D01*
X1073887Y531370D02*
G03X1074987Y530270I1100J0D01*
G01X1073887Y531370D02*
Y537370D01*
X1074987Y538470D02*
G03X1073887Y537370I-0J-1100D01*
G01X1074987Y538470D02*
X1080987D01*
X1082087Y537370D02*
G03X1080987Y538470I-1100J0D01*
G01X1082087Y544370D02*
G03X1082087I-4100J0D01*
G01X1060281Y626850D02*
G03X1060281I-4100J0D01*
G01X1048883Y601673D02*
Y601185D01*
X1045028Y597329D02*
G03X1048883Y601185I-0J3856D01*
G01X1045028Y597329D02*
X1040697D01*
X1036841Y601185D02*
G03X1040697Y597329I3856J0D01*
G01X1036841Y601185D02*
Y601673D01*
X1040697Y605529D02*
G03X1036841Y601673I-0J-3856D01*
G01X1040697Y605529D02*
X1045028D01*
X1048883Y601673D02*
G03X1045028Y605529I-3855J0D01*
G01X1050281Y626850D02*
G03X1050281I-4100J0D01*
G01X975626Y535782D02*
Y529782D01*
X974526Y528682D02*
G03X975626Y529782I0J1100D01*
G01X974526Y528682D02*
X968526D01*
X967426Y529782D02*
G03X968526Y528682I1100J0D01*
G01X967426Y529782D02*
Y535782D01*
X968526Y536882D02*
G03X967426Y535782I0J-1100D01*
G01X968526Y536882D02*
X974526D01*
X975626Y535782D02*
G03X974526Y536882I-1100J0D01*
G01X965626Y532782D02*
G03X965626I-4100J0D01*
G01X978581Y591429D02*
G03X978581I-8731J0D01*
G01X955626Y532782D02*
G03X955626I-4100J0D01*
G01X960557Y552323D02*
G03X960557I-4100J0D01*
G01X945626Y532782D02*
G03X945626I-4100J0D01*
G01X950557Y552323D02*
G03X950557I-4100J0D01*
G01X894726Y657724D02*
Y651724D01*
X893626Y650624D02*
G03X894726Y651724I-0J1100D01*
G01X893626Y650624D02*
X887626D01*
X886526Y651724D02*
G03X887626Y650624I1100J0D01*
G01X886526Y651724D02*
Y657724D01*
X887626Y658824D02*
G03X886526Y657724I-0J-1100D01*
G01X887626Y658824D02*
X893626D01*
X894726Y657724D02*
G03X893626Y658824I-1100J0D01*
G01X884726Y654724D02*
G03X884726I-4100J0D01*
G01X874726D02*
G03X874726I-4100J0D01*
G01X864726D02*
G03X864726I-4100J0D01*
G01X854726D02*
G03X854726I-4100J0D01*
G01X844726D02*
G03X844726I-4100J0D01*
G01X834726D02*
G03X834726I-4100J0D01*
G01X824726D02*
G03X824726I-4100J0D01*
G01X814726D02*
G03X814726I-4100J0D01*
G01X761170Y572856D02*
G03X761170I-4100J0D01*
G01Y586249D02*
Y580249D01*
X760070Y579149D02*
G03X761170Y580249I-0J1100D01*
G01X760070Y579149D02*
X754070D01*
X752970Y580249D02*
G03X754070Y579149I1100J0D01*
G01X752970Y580249D02*
Y586249D01*
X754070Y587349D02*
G03X752970Y586249I-0J-1100D01*
G01X754070Y587349D02*
X760070D01*
X761170Y586249D02*
G03X760070Y587349I-1100J0D01*
G01X766613Y603719D02*
G03X766613I-4100J0D01*
G01Y633719D02*
G03X766613I-4100J0D01*
G01X751170Y572856D02*
G03X751170I-4100J0D01*
G01Y583249D02*
G03X751170I-4100J0D01*
G01X756613Y603719D02*
G03X756613I-4100J0D01*
G01Y633719D02*
G03X756613I-4100J0D01*
G01X741170Y572856D02*
G03X741170I-4100J0D01*
G01Y583249D02*
G03X741170I-4100J0D01*
G01X746613Y603719D02*
G03X746613I-4100J0D01*
G01Y633719D02*
G03X746613I-4100J0D01*
G01X731170Y572856D02*
G03X731170I-4100J0D01*
G01Y583249D02*
G03X731170I-4100J0D01*
G01X721170Y572856D02*
G03X721170I-4100J0D01*
G01Y583249D02*
G03X721170I-4100J0D01*
G01X711170Y572856D02*
G03X711170I-4100J0D01*
G01Y583249D02*
G03X711170I-4100J0D01*
G01X731700Y591292D02*
G03Y594692I820J1700D01*
G01Y591292D02*
X724193D01*
X721621Y588891D02*
G03X724193Y591292I820J1700D01*
G01X721621Y588891D02*
X707907D01*
X705334Y591292D02*
G03X707907Y588891I1753J-701D01*
G01X705334Y591292D02*
X697907D01*
X695609Y594166D02*
G03X697907Y591292I1478J-1174D01*
G01X695609Y594166D02*
X687907D01*
Y597566D02*
G03Y594166I-820J-1700D01*
G01Y597566D02*
X701700D01*
X703998Y594692D02*
G03X701700Y597566I-1478J1174D01*
G01X703998Y594692D02*
X731700D01*
X736613Y603719D02*
G03X736613I-4100J0D01*
G01Y633719D02*
G03X736613I-4100J0D01*
G01X726613Y603719D02*
G03X726613I-4100J0D01*
G01Y633719D02*
G03X726613I-4100J0D01*
G01X716613Y603719D02*
G03X716613I-4100J0D01*
G01Y633719D02*
G03X716613I-4100J0D01*
G01X706613Y603719D02*
G03X706613I-4100J0D01*
G01Y633719D02*
G03X706613I-4100J0D01*
G01X696613Y603719D02*
G03X696613I-4100J0D01*
G01Y633719D02*
G03X696613I-4100J0D01*
G01X681170Y572856D02*
G03X681170I-4100J0D01*
G01Y583249D02*
G03X681170I-4100J0D01*
G01X686613Y603719D02*
G03X686613I-4100J0D01*
G01Y633719D02*
G03X686613I-4100J0D01*
G01X686483Y652697D02*
G03X686483I-4100J0D01*
G01X671170Y572856D02*
G03X671170I-4100J0D01*
G01X661170D02*
G03X661170I-4100J0D01*
G01X651170D02*
G03X651170I-4100J0D01*
G01X641170D02*
G03X641170I-4100J0D01*
G01Y583249D02*
G03X641170I-4100J0D01*
G01X631170Y572856D02*
G03X631170I-4100J0D01*
G01Y583249D02*
G03X631170I-4100J0D01*
G01X621170Y572856D02*
G03X621170I-4100J0D01*
G01Y583249D02*
G03X621170I-4100J0D01*
G01X611170Y572856D02*
G03X611170I-4100J0D01*
G01Y583249D02*
G03X611170I-4100J0D01*
G01X676613Y606719D02*
Y600719D01*
X675513Y599619D02*
G03X676613Y600719I0J1100D01*
G01X675513Y599619D02*
X669513D01*
X668413Y600719D02*
G03X669513Y599619I1100J0D01*
G01X668413Y600719D02*
Y602019D01*
X665066*
X664052Y602355D02*
G03X665066Y602019I1014J1364D01*
G01X664052Y602355D02*
X661014D01*
Y605755D02*
G03Y602355I-3731J-1700D01*
G01Y605755D02*
X664730D01*
X665745Y605419D02*
G03X664730Y605755I-1015J-1364D01*
G01X665745Y605419D02*
X668413D01*
Y606719*
X669513Y607819D02*
G03X668413Y606719I0J-1100D01*
G01X669513Y607819D02*
X675513D01*
X676613Y606719D02*
G03X675513Y607819I-1100J0D01*
G01X676613Y633719D02*
G03X676613I-4100J0D01*
G01X676483Y652697D02*
G03X676483I-4100J0D01*
G01X661383Y644055D02*
G03X661383I-4100J0D01*
G01X563588Y535157D02*
G03X563588I-4100J0D01*
G01X570993Y545308D02*
G03Y548708I3731J1700D01*
G01Y545308D02*
X567147D01*
X566675Y545375D02*
G03X567147Y545308I472J1633D01*
G01X566675Y545375D02*
X563234D01*
Y548775D02*
G03Y545375I-3731J-1700D01*
G01Y548775D02*
X567080D01*
X567552Y548708D02*
G03X567080Y548775I-472J-1633D01*
G01X567552Y548708D02*
X570993D01*
X578824Y587008D02*
G03X578824I-4100J0D01*
G01X563603Y559388D02*
G03X563603I-4100J0D01*
G01X568267Y594837D02*
G03X568267I-4100J0D01*
G01X515757Y533457D02*
G03Y536857I3731J1700D01*
G01Y533457D02*
X509261D01*
X508513Y533284D02*
G03X509261Y533457I-0J1700D01*
G01X508513Y533284D02*
X501442D01*
Y536684D02*
G03Y533284I-3731J-1700D01*
G01Y536684D02*
X507938D01*
X508687Y536857D02*
G03X507938Y536684I-0J-1700D01*
G01X508687Y536858D02*
X515757D01*
X515772Y545375D02*
G03Y548775I3731J1700D01*
G01Y545375D02*
X510357D01*
X508764Y543782*
X507562Y543284D02*
G03X508764Y543782I-0J1700D01*
G01X507562Y543284D02*
X501442D01*
Y546684D02*
G03Y543284I-3731J-1700D01*
G01Y546684D02*
X506857D01*
X508450Y548277*
X509652Y548775D02*
G03X508450Y548277I0J-1700D01*
G01X509652Y548775D02*
X515772D01*
Y557688D02*
G03Y561088I3731J1700D01*
G01Y557688D02*
X511513D01*
X507607Y553782*
X506405Y553284D02*
G03X507607Y553782I-0J1700D01*
G01X506405Y553284D02*
X501442D01*
Y556684D02*
G03Y553284I-3731J-1700D01*
G01Y556684D02*
X505701D01*
X509607Y560591*
X510809Y561088D02*
G03X509607Y560591I0J-1700D01*
G01X510809Y561088D02*
X515772D01*
X535028Y571568D02*
G03Y574968I6389J1700D01*
G01Y571568D02*
X529276D01*
X528912Y571607D02*
G03X529276Y571568I364J1661D01*
G01X528912Y571607D02*
X523337D01*
Y575007D02*
G03Y571607I-3731J-1700D01*
G01Y575007D02*
X529236D01*
X529600Y574968D02*
G03X529236Y575007I-364J-1661D01*
G01X529600Y574968D02*
X535028D01*
X523706Y583307D02*
G03X523706I-4100J0D01*
G01X501811Y564984D02*
G03X501811I-4100J0D01*
G01X533275Y593143D02*
G03Y596543I819J1700D01*
G01Y593142D02*
X530368D01*
X530234Y593137D02*
G03X530368Y593143I0J1700D01*
G01X530234Y593137D02*
X527898D01*
X520436D02*
G03X527898I3731J1700D01*
G01X520436D02*
X518269D01*
X501552Y576420*
X499147Y578824D02*
G03X501552Y576420I-1436J-3840D01*
G01X499147Y578824D02*
X516363Y596039D01*
X517565Y596537D02*
G03X516363Y596039I-0J-1700D01*
G01X517565Y596537D02*
X520436D01*
X527898D02*
G03X520436I-3731J-1700D01*
G01X527898D02*
X530106D01*
X530239Y596543D02*
G03X530106Y596537I0J-1700D01*
G01X530239Y596543D02*
X533275D01*
X560678Y607732D02*
G03Y611132I3731J1700D01*
G01Y607732D02*
X549709D01*
X549469Y607749D02*
G03X549709Y607732I240J1683D01*
G01X549469Y607749D02*
X538025D01*
Y611149D02*
G03Y607749I-820J-1700D01*
G01Y611149D02*
X549692D01*
X549932Y611132D02*
G03X549692Y611149I-240J-1683D01*
G01X549932Y611132D02*
X560678D01*
X528509Y609432D02*
G03X528509I-4100J0D01*
G01X530906Y625286D02*
G03X530906I-6612J0D01*
G01X501811Y584984D02*
G03X501811I-4100J0D01*
G01Y594984D02*
G03X501811I-4100J0D01*
G01X504064Y608851D02*
G03Y612251I3731J1700D01*
G01Y608851D02*
X493983D01*
X471552Y586420*
X469147Y588824D02*
G03X471552Y586420I-1436J-3840D01*
G01X469147Y588824D02*
X492076Y611753D01*
X493279Y612251D02*
G03X492076Y611753I-0J-1700D01*
G01X493279Y612251D02*
X504064D01*
X511895Y623059D02*
G03X511895I-4100J0D01*
G01X503955Y636912D02*
G03X506359Y639317I3840J-1436D01*
G01X503955Y636912D02*
X481881Y658986D01*
X471526*
Y662386D02*
G03Y658986I-3731J-1700D01*
G01Y662386D02*
X482585D01*
X483787Y661888D02*
G03X482585Y662386I-1202J-1202D01*
G01X483787Y661888D02*
X506359Y639317D01*
X536385Y646410D02*
G03Y649810I820J1700D01*
G01Y646410D02*
X523846D01*
X523597Y646392D02*
G03X523846Y646410I0J1700D01*
G01X523597Y646392D02*
X511526D01*
Y649792D02*
G03Y646392I-3731J-1700D01*
G01Y649792D02*
X523366D01*
X523615Y649810D02*
G03X523366Y649792I0J-1700D01*
G01X523615Y649810D02*
X536385D01*
X533278Y659007D02*
G03X533271Y662407I816J1702D01*
G01X533278Y659007D02*
X522026Y658986D01*
X522023*
X511526*
Y662386D02*
G03Y658986I-3731J-1700D01*
G01Y662386D02*
X522021D01*
X533271Y662407*
X430793Y515138D02*
G03X430793I-4100J0D01*
G01Y526043D02*
G03X430793I-4100J0D01*
G01Y536949D02*
G03X430793I-4100J0D01*
G01Y547854D02*
G03X430793I-4100J0D01*
G01X443226Y581102D02*
G03X443226I-10943J0D01*
G01X450442Y417473D02*
G03Y420873I3731J1700D01*
G01Y417473D02*
X444873D01*
Y420873D02*
G03Y417473I-3731J-1700D01*
G01Y420873D02*
X450442D01*
X458273Y459173D02*
G03X458273I-4100J0D01*
G01X450403Y551568D02*
G03Y554968I3731J1700D01*
G01Y551568D02*
X446024D01*
X445660Y551607D02*
G03X446024Y551568I364J1661D01*
G01X445660Y551607D02*
X441605D01*
Y555007D02*
G03Y551607I-3731J-1700D01*
G01Y555007D02*
X445984D01*
X446348Y554968D02*
G03X445984Y555007I-364J-1661D01*
G01X446348Y554968D02*
X450403D01*
X471811Y486189D02*
G03X471811I-4100J0D01*
G01Y496189D02*
G03X471811I-4100J0D01*
G01Y509189D02*
Y503189D01*
X470711Y502089D02*
G03X471811Y503189I0J1100D01*
G01X470711Y502089D02*
X464711D01*
X463611Y503189D02*
G03X464711Y502089I1100J-0D01*
G01X463611Y503189D02*
Y507885D01*
X459928Y511568*
X457865*
Y514968D02*
G03Y511568I-3731J-1700D01*
G01Y514968D02*
X460633D01*
X461835Y514470D02*
G03X460633Y514968I-1202J-1202D01*
G01X461835Y514470D02*
X466015Y510289D01*
X470711*
X471811Y509189D02*
G03X470711Y510289I-1100J-0D01*
G01X471811Y534984D02*
G03X471811I-4100J0D01*
G01Y544984D02*
G03X471811I-4100J0D01*
G01X445242Y459173D02*
G03X445242I-4100J0D01*
G01X443226Y481890D02*
G03X443226I-10943J0D01*
G01X441974Y509685D02*
G03X441974I-4100J0D01*
G01Y520591D02*
G03X441974I-4100J0D01*
G01Y531496D02*
G03X441974I-4100J0D01*
G01X471811Y597984D02*
Y591984D01*
X470711Y590884D02*
G03X471811Y591984I0J1100D01*
G01X470711Y590884D02*
X464711D01*
X463611Y591984D02*
G03X464711Y590884I1100J-0D01*
G01X463611Y591984D02*
Y597984D01*
X464711Y599084D02*
G03X463611Y597984I0J-1100D01*
G01X464711Y599084D02*
X470711D01*
X471811Y597984D02*
G03X470711Y599084I-1100J-0D01*
G01X471895Y610551D02*
G03X471895I-4100J0D01*
G01Y623059D02*
G03X471895I-4100J0D01*
G01Y635476D02*
G03X471895I-4100J0D01*
G01Y648092D02*
G03X471895I-4100J0D01*
G01X471811Y446189D02*
G03X471811I-4100J0D01*
G01Y456189D02*
G03X471811I-4100J0D01*
G01X545618Y478457D02*
G03Y481857I6390J1700D01*
G01Y478457D02*
X543429D01*
X543065Y478497D02*
G03X543429Y478457I364J1660D01*
G01X543065Y478497D02*
X541054D01*
Y481897D02*
G03Y478497I-3731J-1700D01*
G01Y481897D02*
X543390D01*
X543754Y481857D02*
G03X543390Y481897I-364J-1660D01*
G01X543754Y481858D02*
X545618D01*
X529040Y480168D02*
G03X529040I-4100J0D01*
G01X501811Y446189D02*
G03X501811I-4100J0D01*
G01Y456189D02*
G03X501811I-4100J0D01*
G01Y466189D02*
G03X501811I-4100J0D01*
G01Y476189D02*
G03X501811I-4100J0D01*
G01X681170Y425218D02*
G03X681170I-4100J0D01*
G01Y435218D02*
G03X681170I-4100J0D01*
G01X671170Y425218D02*
G03X671170I-4100J0D01*
G01Y435218D02*
G03X671170I-4100J0D01*
G01X661170Y425218D02*
G03X661170I-4100J0D01*
G01Y435218D02*
G03X661170I-4100J0D01*
G01X651170Y425218D02*
G03X651170I-4100J0D01*
G01Y435218D02*
G03X651170I-4100J0D01*
G01X641170Y425218D02*
G03X641170I-4100J0D01*
G01Y435218D02*
G03X641170I-4100J0D01*
G01X631170Y425218D02*
G03X631170I-4100J0D01*
G01Y435218D02*
G03X631170I-4100J0D01*
G01X621170Y425218D02*
G03X621170I-4100J0D01*
G01Y435218D02*
G03X621170I-4100J0D01*
G01X611170Y428218D02*
Y422218D01*
X610070Y421118D02*
G03X611170Y422218I-0J1100D01*
G01X610070Y421118D02*
X604070D01*
X602970Y422218D02*
G03X604070Y421118I1100J-0D01*
G01X602970Y422218D02*
Y428218D01*
X604070Y429318D02*
G03X602970Y428218I-0J-1100D01*
G01X604070Y429318D02*
X610070D01*
X611170Y428218D02*
G03X610070Y429318I-1100J-0D01*
G01X611170Y435218D02*
G03X611170I-4100J0D01*
G01X584664Y482499D02*
G03X587068Y484903I3840J-1436D01*
G01X584664Y482499D02*
X579296Y487867D01*
X578460*
X577255Y486811D02*
G03X578460Y487867I-1349J2756D01*
G01X574556Y486811D02*
G03X577255I1350J-2756D01*
G01X573351Y487867D02*
G03X574556Y486811I2555J1700D01*
G01X573351Y487867D02*
X529273D01*
X526393Y484987*
X525191Y484489D02*
G03X526393Y484987I-0J1700D01*
G01X525191Y484489D02*
X501442D01*
Y487889D02*
G03Y484489I-3731J-1700D01*
G01Y487889D02*
X524486D01*
X527366Y490769*
X528569Y491267D02*
G03X527366Y490769I-0J-1700D01*
G01X528569Y491267D02*
X573351D01*
X574556Y492323D02*
G03X573351Y491267I1350J-2756D01*
G01X577255Y492323D02*
G03X574556I-1349J2756D01*
G01X578460Y491267D02*
G03X577255Y492323I-2554J-1700D01*
G01X578460Y491267D02*
X580000D01*
X581202Y490769D02*
G03X580000Y491267I-1202J-1202D01*
G01X581202Y490769D02*
X587068Y484903D01*
X551292Y502206D02*
G03X551292I-4100J0D01*
G01X541292D02*
G03X541292I-4100J0D01*
G01X501811Y496189D02*
G03X501811I-4100J0D01*
G01Y506189D02*
G03X501811I-4100J0D01*
G01X691170Y572856D02*
G03X691170I-4100J0D01*
G01Y583249D02*
G03X691170I-4100J0D01*
G01Y425218D02*
G03X691170I-4100J0D01*
G01X701170Y572856D02*
G03X701170I-4100J0D01*
G01Y583249D02*
G03X701170I-4100J0D01*
G01X741170Y425218D02*
G03X741170I-4100J0D01*
G01Y435218D02*
G03X741170I-4100J0D01*
G01X731170Y425218D02*
G03X731170I-4100J0D01*
G01Y435218D02*
G03X731170I-4100J0D01*
G01X721170Y425218D02*
G03X721170I-4100J0D01*
G01Y435218D02*
G03X721170I-4100J0D01*
G01X711170Y425218D02*
G03X711170I-4100J0D01*
G01X511817Y402480D02*
G03X511817I-4100J0D01*
G01Y416299D02*
G03X511817I-4100J0D01*
G01X471817Y402480D02*
G03X471817I-4100J0D01*
G01X745633Y421378D02*
G03X743229Y423782I1437J3840D01*
G01X745633Y421378D02*
X742109Y417853D01*
X740907Y417355D02*
G03X742109Y417853I-0J1700D01*
G01X740907Y417355D02*
X564734D01*
X563531Y417853D02*
G03X564734Y417355I1203J1202D01*
G01X563531Y417853D02*
X549344Y432040D01*
X510794*
X503986Y427631D02*
G03X510794Y432040I3731J1700D01*
G01X503986Y427631D02*
X481452D01*
X471557Y417735*
X469153Y420139D02*
G03X471557Y417735I-1436J-3840D01*
G01X469153Y420140D02*
X479546Y430533D01*
X480748Y431031D02*
G03X479546Y430533I0J-1700D01*
G01X480748Y431031D02*
X503986D01*
X504639Y432040D02*
G03X503986Y431031I3078J-2709D01*
G01X504639Y432040D02*
X480134D01*
X476223Y428129*
X475021Y427631D02*
G03X476223Y428129I-0J1700D01*
G01X475021Y427631D02*
X471448D01*
X471447Y431031D02*
G03Y427631I-3730J-1700D01*
G01X471448Y431031D02*
X474317D01*
X478228Y434942*
X479430Y435440D02*
G03X478228Y434942I0J-1700D01*
G01X479430Y435440D02*
X550048D01*
X551251Y434942D02*
G03X550048Y435440I-1203J-1202D01*
G01X551251Y434942D02*
X565438Y420755D01*
X740203*
X743229Y423782*
X955592Y476378D02*
G03X955592I-4100J0D01*
G01X955626Y502782D02*
G03X955626I-4100J0D01*
G01X945592Y476378D02*
G03X945592I-4100J0D01*
G01X945626Y502782D02*
G03X945626I-4100J0D01*
G01X874726Y407646D02*
Y401646D01*
X873626Y400546D02*
G03X874726Y401646I-0J1100D01*
G01X873626Y400546D02*
X867626D01*
X866526Y401646D02*
G03X867626Y400546I1100J-0D01*
G01X866526Y401646D02*
Y407646D01*
X867626Y408746D02*
G03X866526Y407646I-0J-1100D01*
G01X867626Y408746D02*
X873626D01*
X874726Y407646D02*
G03X873626Y408746I-1100J-0D01*
G01X864726Y404646D02*
G03X864726I-4100J0D01*
G01X854726D02*
G03X854726I-4100J0D01*
G01X844726D02*
G03X844726I-4100J0D01*
G01X834726D02*
G03X834726I-4100J0D01*
G01X753659Y408189D02*
G03X753659I-6612J0D01*
G01X989423Y469444D02*
G03X989423I-8730J0D01*
G01X1032337Y484773D02*
X1083713D01*
X1032336Y483873D02*
X1083713D01*
X1079699Y482973D02*
X1083713D01*
X1080958Y482073D02*
X1083713D01*
X1081607Y481173D02*
X1083713D01*
X1081957Y480273D02*
X1083713D01*
X1082085Y479373D02*
X1083713D01*
X1082013Y478473D02*
X1083713D01*
X1081729Y477573D02*
X1083713D01*
X1081178Y476673D02*
X1083713D01*
X1080163Y475773D02*
X1083713D01*
X1047475Y482973D02*
X1076275D01*
X1047226Y475773D02*
X1075810D01*
X1048486Y482073D02*
X1075016D01*
X1048370Y476673D02*
X1074796D01*
X1049015Y481173D02*
X1074367D01*
X1048953Y477573D02*
X1074244D01*
X1049268Y480273D02*
X1074017D01*
X1049244Y478473D02*
X1073961D01*
X1049313Y479373D02*
X1073889D01*
X1032339Y485673D02*
X1055391D01*
X1031552Y486573D02*
X1054491D01*
X1030653Y487473D02*
X1053591D01*
X1029755Y488373D02*
X1052691D01*
X1028856Y489273D02*
X1051791D01*
X1027957Y490173D02*
X1050891D01*
X1032350Y585573D02*
X1050406D01*
X1047450Y584673D02*
X1050406D01*
X1048261Y583773D02*
X1050406D01*
X1048692Y582873D02*
X1050406D01*
X1048872Y581973D02*
X1050406D01*
X1048882Y581073D02*
X1050406D01*
X1048748Y580173D02*
X1050406D01*
X1048376Y579273D02*
X1050406D01*
X1047666Y578373D02*
X1050406D01*
X1046073Y577473D02*
X1050406D01*
X1032342Y576573D02*
X1050406D01*
X1032341Y575673D02*
X1050406D01*
X1032340Y574773D02*
X1050406D01*
X1027059Y491073D02*
X1049991D01*
X1032340Y573873D02*
X1049962D01*
X1026160Y491973D02*
X1049091D01*
X1032339Y572973D02*
X1049037D01*
X1025261Y492873D02*
X1048191D01*
X1032338Y572073D02*
X1048113D01*
X1024363Y493773D02*
X1047413D01*
X967563Y494673D02*
X1047413D01*
X966665Y495573D02*
X1047413D01*
X1044932Y496473D02*
X1047413D01*
X1045989Y497373D02*
X1047413D01*
X1046560Y498273D02*
X1047413D01*
X1046857Y499173D02*
X1047413D01*
X1046941Y500073D02*
X1047413D01*
X1046824Y500973D02*
X1047413D01*
X1046488Y501873D02*
X1047413D01*
X1045861Y502773D02*
X1047413D01*
X1044662Y503673D02*
X1047413D01*
X975214Y504573D02*
X1047413D01*
X974619Y505473D02*
X1047413D01*
X973505Y506373D02*
X1047413D01*
X966616Y507273D02*
X1047413D01*
X966618Y508173D02*
X1047413D01*
X966620Y509073D02*
X1047413D01*
X966621Y509973D02*
X1047413D01*
X966499Y510873D02*
X1047413D01*
X965600Y511773D02*
X1047413D01*
X964702Y512673D02*
X1047413D01*
X474434Y513573D02*
X1047413D01*
X474434Y514473D02*
X1047413D01*
X474434Y515373D02*
X1047413D01*
X474434Y516273D02*
X1047413D01*
X589801Y517173D02*
X1047413D01*
X591310Y518073D02*
X1047413D01*
X592032Y518973D02*
X1047413D01*
X592428Y519873D02*
X1047413D01*
X592594Y520773D02*
X1047413D01*
X592558Y521673D02*
X1047413D01*
X592316Y522573D02*
X1047413D01*
X591821Y523473D02*
X1047413D01*
X590923Y524373D02*
X1047413D01*
X474436Y525273D02*
X1047413D01*
X474436Y526173D02*
X1047413D01*
X1024311Y527073D02*
X1047413D01*
X1025212Y527973D02*
X1047413D01*
X1026113Y528873D02*
X1047413D01*
X1027013Y529773D02*
X1047413D01*
X1027914Y530673D02*
X1047413D01*
X1028815Y531573D02*
X1047413D01*
X1029716Y532473D02*
X1047413D01*
X1030616Y533373D02*
X1047413D01*
X1031517Y534273D02*
X1047413D01*
X1032306Y535173D02*
X1047413D01*
X1032307Y536073D02*
X1047413D01*
X1032307Y536973D02*
X1047413D01*
X1032308Y537873D02*
X1047413D01*
X1032309Y538773D02*
X1047413D01*
X1032310Y539673D02*
X1047413D01*
X1032311Y540573D02*
X1047413D01*
X1032311Y541473D02*
X1047413D01*
X1032312Y542373D02*
X1047413D01*
X1032313Y543273D02*
X1047413D01*
X1032314Y544173D02*
X1047413D01*
X1032315Y545073D02*
X1047413D01*
X1032315Y545973D02*
X1047413D01*
X1032316Y546873D02*
X1047413D01*
X1032317Y547773D02*
X1047413D01*
X1032318Y548673D02*
X1047413D01*
X1032318Y549573D02*
X1047413D01*
X1032319Y550473D02*
X1047413D01*
X1032320Y551373D02*
X1047413D01*
X1032321Y552273D02*
X1047413D01*
X1032322Y553173D02*
X1047413D01*
X1032322Y554073D02*
X1047413D01*
X1043340Y554973D02*
X1047413D01*
X1045539Y555873D02*
X1047413D01*
X1046359Y556773D02*
X1047413D01*
X1046813Y557673D02*
X1047413D01*
X1047024Y558573D02*
X1047413D01*
X1047031Y559473D02*
X1047413D01*
X1046835Y560373D02*
X1047413D01*
X1046401Y561273D02*
X1047413D01*
X1045615Y562173D02*
X1047413D01*
X1043767Y563073D02*
X1047413D01*
X1032331Y563973D02*
X1047413D01*
X1032332Y564873D02*
X1047413D01*
X1032332Y565773D02*
X1047413D01*
X1032333Y566673D02*
X1047413D01*
X1032334Y567573D02*
X1047413D01*
X1032335Y568473D02*
X1047413D01*
X1032336Y569373D02*
X1047413D01*
X1032336Y570273D02*
X1047413D01*
X1032337Y571173D02*
X1047413D01*
X1032323Y554973D02*
X1042566D01*
X1032330Y563073D02*
X1042138D01*
X975528Y503673D02*
X1041020D01*
X966597Y496473D02*
X1040750D01*
X1032324Y555873D02*
X1040367D01*
X1032329Y562173D02*
X1040291D01*
X975626Y502773D02*
X1039822D01*
X966598Y497373D02*
X1039693D01*
X1032343Y577473D02*
X1039652D01*
X1032325Y556773D02*
X1039546D01*
X1032329Y561273D02*
X1039505D01*
X1033610Y475773D02*
X1039357D01*
X975524Y501873D02*
X1039194D01*
X966600Y498273D02*
X1039122D01*
X1032335Y482973D02*
X1039108D01*
X1032325Y557673D02*
X1039093D01*
X1032328Y560373D02*
X1039070D01*
X1032326Y558573D02*
X1038881D01*
X1032327Y559473D02*
X1038874D01*
X975206Y500973D02*
X1038858D01*
X973472Y499173D02*
X1038825D01*
X974604Y500073D02*
X1038742D01*
X1032349Y584673D02*
X1038275D01*
X1032712Y476673D02*
X1038213D01*
X1032333Y482073D02*
X1038097D01*
X1032343Y578373D02*
X1038058D01*
X1032326Y477573D02*
X1037630D01*
X1032332Y481173D02*
X1037568D01*
X1032348Y583773D02*
X1037463D01*
X1032344Y579273D02*
X1037348D01*
X1032328Y478473D02*
X1037339D01*
X1032331Y480273D02*
X1037315D01*
X1032329Y479373D02*
X1037270D01*
X1032347Y582873D02*
X1037032D01*
X1032345Y580173D02*
X1036976D01*
X1032347Y581973D02*
X1036853D01*
X1032346Y581073D02*
X1036843D01*
X966601Y499173D02*
X969580D01*
X966615Y506373D02*
X969548D01*
X966603Y500073D02*
X968449D01*
X966613Y505473D02*
X968433D01*
X966605Y500973D02*
X967847D01*
X966611Y504573D02*
X967838D01*
X966606Y501873D02*
X967528D01*
X966610Y503673D02*
X967524D01*
X966608Y502773D02*
X967426D01*
X744253Y512673D02*
X770700D01*
X745153Y511773D02*
X769800D01*
X746054Y510873D02*
X768900D01*
X746954Y509973D02*
X768000D01*
X747854Y509073D02*
X767101D01*
X748754Y508173D02*
X766201D01*
X749654Y507273D02*
X765301D01*
X750554Y506373D02*
X764401D01*
X751454Y505473D02*
X763501D01*
X759130Y431673D02*
X762846D01*
X760203Y432573D02*
X762846D01*
X760780Y433473D02*
X762846D01*
X761082Y434373D02*
X762846D01*
X761169Y435273D02*
X762846D01*
X761057Y436173D02*
X762846D01*
X760726Y437073D02*
X762846D01*
X760106Y437973D02*
X762846D01*
X758926Y438873D02*
X762846D01*
X752114Y439773D02*
X762846D01*
X752114Y440673D02*
X762846D01*
X752114Y441573D02*
X762846D01*
X752114Y442473D02*
X762846D01*
X752114Y443373D02*
X762846D01*
X752114Y444273D02*
X762846D01*
X752114Y445173D02*
X762846D01*
X752114Y446073D02*
X762846D01*
X752114Y446973D02*
X762846D01*
X752114Y447873D02*
X762846D01*
X752114Y448773D02*
X762846D01*
X752114Y449673D02*
X762846D01*
X752114Y450573D02*
X762846D01*
X752114Y451473D02*
X762846D01*
X752114Y452373D02*
X762846D01*
X752114Y453273D02*
X762846D01*
X752114Y454173D02*
X762846D01*
X752114Y455073D02*
X762846D01*
X752114Y455973D02*
X762846D01*
X752114Y456873D02*
X762846D01*
X752114Y457773D02*
X762846D01*
X752114Y458673D02*
X762846D01*
X752114Y459573D02*
X762846D01*
X752114Y460473D02*
X762846D01*
X752114Y461373D02*
X762846D01*
X752114Y462273D02*
X762846D01*
X752114Y463173D02*
X762846D01*
X752114Y464073D02*
X762846D01*
X752114Y464973D02*
X762846D01*
X752114Y465873D02*
X762846D01*
X752114Y466773D02*
X762846D01*
X752114Y467673D02*
X762846D01*
X752114Y468573D02*
X762846D01*
X752114Y469473D02*
X762846D01*
X752114Y470373D02*
X762846D01*
X752114Y471273D02*
X762846D01*
X752114Y472173D02*
X762846D01*
X752114Y473073D02*
X762846D01*
X752114Y473973D02*
X762846D01*
X752114Y474873D02*
X762846D01*
X752114Y475773D02*
X762846D01*
X752114Y476673D02*
X762846D01*
X752114Y477573D02*
X762846D01*
X752114Y478473D02*
X762846D01*
X752114Y479373D02*
X762846D01*
X752114Y480273D02*
X762846D01*
X752114Y481173D02*
X762846D01*
X752114Y482073D02*
X762846D01*
X752114Y482973D02*
X762846D01*
X752114Y483873D02*
X762846D01*
X752114Y484773D02*
X762846D01*
X752114Y485673D02*
X762846D01*
X752114Y486573D02*
X762846D01*
X752114Y487473D02*
X762846D01*
X752114Y488373D02*
X762846D01*
X752114Y489273D02*
X762846D01*
X752114Y490173D02*
X762846D01*
X752114Y491073D02*
X762846D01*
X752114Y491973D02*
X762846D01*
X752114Y492873D02*
X762846D01*
X752114Y493773D02*
X762846D01*
X752114Y494673D02*
X762846D01*
X752114Y495573D02*
X762846D01*
X752114Y496473D02*
X762846D01*
X752114Y497373D02*
X762846D01*
X752114Y498273D02*
X762846D01*
X752114Y499173D02*
X762846D01*
X752114Y500073D02*
X762846D01*
X752114Y500973D02*
X762846D01*
X752114Y501873D02*
X762846D01*
X752114Y502773D02*
X762846D01*
X752114Y503673D02*
X762846D01*
X752114Y504573D02*
X762846D01*
X752114Y438873D02*
X755213D01*
X752114Y431673D02*
X755009D01*
X752114Y437973D02*
X754034D01*
X752114Y432573D02*
X753936D01*
X752114Y437073D02*
X753413D01*
X752114Y433473D02*
X753359D01*
X752114Y436173D02*
X753082D01*
X752114Y434373D02*
X753057D01*
X752114Y435273D02*
X752970D01*
X684015Y512673D02*
X709921D01*
X684915Y511773D02*
X709021D01*
X685815Y510873D02*
X708121D01*
X686715Y509973D02*
X707221D01*
X687615Y509073D02*
X706321D01*
X688515Y508173D02*
X705421D01*
X689416Y507273D02*
X704521D01*
X690316Y506373D02*
X703621D01*
X691216Y505473D02*
X702721D01*
X699130Y431673D02*
X702059D01*
X700203Y432573D02*
X702059D01*
X700780Y433473D02*
X702059D01*
X701082Y434373D02*
X702059D01*
X701169Y435273D02*
X702059D01*
X701057Y436173D02*
X702059D01*
X700726Y437073D02*
X702059D01*
X700106Y437973D02*
X702059D01*
X698926Y438873D02*
X702059D01*
X691878Y439773D02*
X702059D01*
X691878Y440673D02*
X702059D01*
X691878Y441573D02*
X702059D01*
X691878Y442473D02*
X702059D01*
X691878Y443373D02*
X702059D01*
X691878Y444273D02*
X702059D01*
X691878Y445173D02*
X702059D01*
X691878Y446073D02*
X702059D01*
X691878Y446973D02*
X702059D01*
X691878Y447873D02*
X702059D01*
X691878Y448773D02*
X702059D01*
X691878Y449673D02*
X702059D01*
X691878Y450573D02*
X702059D01*
X691878Y451473D02*
X702059D01*
X691878Y452373D02*
X702059D01*
X691878Y453273D02*
X702059D01*
X691878Y454173D02*
X702059D01*
X691878Y455073D02*
X702059D01*
X691878Y455973D02*
X702059D01*
X691878Y456873D02*
X702059D01*
X691878Y457773D02*
X702059D01*
X691878Y458673D02*
X702059D01*
X691878Y459573D02*
X702059D01*
X691878Y460473D02*
X702059D01*
X691878Y461373D02*
X702059D01*
X691878Y462273D02*
X702059D01*
X691878Y463173D02*
X702059D01*
X691878Y464073D02*
X702059D01*
X691878Y464973D02*
X702059D01*
X691878Y465873D02*
X702059D01*
X691878Y466773D02*
X702059D01*
X691878Y467673D02*
X702059D01*
X691878Y468573D02*
X702059D01*
X691878Y469473D02*
X702059D01*
X691878Y470373D02*
X702059D01*
X691878Y471273D02*
X702059D01*
X691878Y472173D02*
X702059D01*
X691878Y473073D02*
X702059D01*
X691878Y473973D02*
X702059D01*
X691878Y474873D02*
X702059D01*
X691878Y475773D02*
X702059D01*
X691878Y476673D02*
X702059D01*
X691878Y477573D02*
X702059D01*
X691878Y478473D02*
X702059D01*
X691878Y479373D02*
X702059D01*
X691878Y480273D02*
X702059D01*
X691878Y481173D02*
X702059D01*
X691878Y482073D02*
X702059D01*
X691878Y482973D02*
X702059D01*
X691878Y483873D02*
X702059D01*
X691878Y484773D02*
X702059D01*
X691878Y485673D02*
X702059D01*
X691878Y486573D02*
X702059D01*
X691878Y487473D02*
X702059D01*
X691878Y488373D02*
X702059D01*
X691878Y489273D02*
X702059D01*
X691878Y490173D02*
X702059D01*
X691878Y491073D02*
X702059D01*
X691878Y491973D02*
X702059D01*
X691878Y492873D02*
X702059D01*
X691878Y493773D02*
X702059D01*
X691878Y494673D02*
X702059D01*
X691878Y495573D02*
X702059D01*
X691878Y496473D02*
X702059D01*
X691878Y497373D02*
X702059D01*
X691878Y498273D02*
X702059D01*
X691878Y499173D02*
X702059D01*
X691878Y500073D02*
X702059D01*
X691878Y500973D02*
X702059D01*
X691878Y501873D02*
X702059D01*
X691878Y502773D02*
X702059D01*
X691878Y503673D02*
X702059D01*
X691878Y504573D02*
X702059D01*
X691878Y438873D02*
X695213D01*
X691878Y431673D02*
X695009D01*
X691878Y437973D02*
X694034D01*
X691878Y432573D02*
X693936D01*
X691878Y437073D02*
X693413D01*
X691878Y433473D02*
X693359D01*
X691878Y436173D02*
X693082D01*
X691878Y434373D02*
X693057D01*
X691878Y435273D02*
X692970D01*
X587181Y592773D02*
X662059D01*
X586281Y591873D02*
X662059D01*
X585381Y590973D02*
X662059D01*
X584481Y590073D02*
X662059D01*
X583886Y589173D02*
X662059D01*
X650938Y588273D02*
X662059D01*
X651838Y587373D02*
X662059D01*
X659602Y586473D02*
X662059D01*
X660447Y585573D02*
X662059D01*
X660914Y584673D02*
X662059D01*
X661136Y583773D02*
X662059D01*
X661152Y582873D02*
X662059D01*
X660966Y581973D02*
X662059D01*
X660545Y581073D02*
X662059D01*
X659780Y580173D02*
X662059D01*
X658071Y579273D02*
X662059D01*
X588081Y593673D02*
X661801D01*
X588981Y594573D02*
X660901D01*
X589881Y595473D02*
X660001D01*
X590781Y596373D02*
X659101D01*
X652390Y579273D02*
X656068D01*
X652390Y586473D02*
X654537D01*
X652390Y580173D02*
X654359D01*
X652390Y585573D02*
X653692D01*
X652390Y581073D02*
X653595D01*
X652390Y584673D02*
X653225D01*
X652390Y581973D02*
X653173D01*
X652390Y583773D02*
X653003D01*
X652390Y582873D02*
X652987D01*
X575891Y527073D02*
X606156D01*
X576791Y527973D02*
X605256D01*
X577691Y528873D02*
X604356D01*
X578591Y529773D02*
X603456D01*
X579491Y530673D02*
X602556D01*
X580391Y531573D02*
X601656D01*
X583886Y588273D02*
X601582D01*
X581291Y532473D02*
X600756D01*
X583886Y587373D02*
X600682D01*
X582191Y533373D02*
X599856D01*
X583886Y586473D02*
X599782D01*
X583091Y534273D02*
X598956D01*
X583886Y585573D02*
X598882D01*
X583886Y535173D02*
X598161D01*
X583886Y536073D02*
X598161D01*
X583886Y536973D02*
X598161D01*
X583886Y537873D02*
X598161D01*
X583886Y538773D02*
X598161D01*
X583886Y539673D02*
X598161D01*
X583886Y540573D02*
X598161D01*
X583886Y541473D02*
X598161D01*
X583886Y542373D02*
X598161D01*
X583886Y543273D02*
X598161D01*
X583886Y544173D02*
X598161D01*
X583886Y545073D02*
X598161D01*
X583886Y545973D02*
X598161D01*
X583886Y546873D02*
X598161D01*
X583886Y547773D02*
X598161D01*
X583886Y548673D02*
X598161D01*
X583886Y549573D02*
X598161D01*
X583886Y550473D02*
X598161D01*
X583886Y551373D02*
X598161D01*
X583886Y552273D02*
X598161D01*
X583886Y553173D02*
X598161D01*
X583886Y554073D02*
X598161D01*
X583886Y554973D02*
X598161D01*
X583886Y555873D02*
X598161D01*
X583886Y556773D02*
X598161D01*
X583886Y557673D02*
X598161D01*
X583886Y558573D02*
X598161D01*
X583886Y559473D02*
X598161D01*
X583886Y560373D02*
X598161D01*
X583886Y561273D02*
X598161D01*
X583886Y562173D02*
X598161D01*
X583886Y563073D02*
X598161D01*
X583886Y563973D02*
X598161D01*
X583886Y564873D02*
X598161D01*
X583886Y565773D02*
X598161D01*
X583886Y566673D02*
X598161D01*
X583886Y567573D02*
X598161D01*
X583886Y568473D02*
X598161D01*
X583886Y569373D02*
X598161D01*
X583886Y570273D02*
X598161D01*
X583886Y571173D02*
X598161D01*
X583886Y572073D02*
X598161D01*
X583886Y572973D02*
X598161D01*
X583886Y573873D02*
X598161D01*
X583886Y574773D02*
X598161D01*
X583886Y575673D02*
X598161D01*
X583886Y576573D02*
X598161D01*
X583886Y577473D02*
X598161D01*
X583886Y578373D02*
X598161D01*
X583886Y579273D02*
X598161D01*
X583886Y580173D02*
X598161D01*
X583886Y581073D02*
X598161D01*
X583886Y581973D02*
X598161D01*
X583886Y582873D02*
X598161D01*
X583886Y583773D02*
X598161D01*
X583886Y584673D02*
X598161D01*
X474434Y517173D02*
X587207D01*
X474436Y524373D02*
X586085D01*
X474434Y518073D02*
X585698D01*
X474435Y523473D02*
X585187D01*
X474435Y518973D02*
X584976D01*
X474435Y522573D02*
X584692D01*
X474435Y519873D02*
X584580D01*
X474435Y521673D02*
X584450D01*
X474435Y520773D02*
X584414D01*
X474433Y512673D02*
X489441D01*
X474436Y527073D02*
X489306D01*
X474433Y511773D02*
X488541D01*
X474436Y527973D02*
X488406D01*
X474433Y510873D02*
X487641D01*
X474436Y528873D02*
X487506D01*
X474433Y509973D02*
X486742D01*
X474437Y529773D02*
X486606D01*
X474433Y509073D02*
X485842D01*
X474437Y530673D02*
X485706D01*
X474433Y508173D02*
X484942D01*
X474437Y531573D02*
X484806D01*
X474432Y507273D02*
X484042D01*
X474437Y532473D02*
X483906D01*
X474432Y506373D02*
X483142D01*
X474437Y533373D02*
X483006D01*
X474432Y505473D02*
X482242D01*
X474437Y534273D02*
X482106D01*
X471790Y475773D02*
X481547D01*
X471783Y476673D02*
X481547D01*
X471571Y477573D02*
X481547D01*
X471116Y478473D02*
X481547D01*
X470294Y479373D02*
X481547D01*
X468068Y480273D02*
X481547D01*
X472974Y481173D02*
X481547D01*
X473874Y482073D02*
X481547D01*
X474428Y482973D02*
X481547D01*
X474428Y483873D02*
X481547D01*
X474428Y484773D02*
X481547D01*
X474428Y485673D02*
X481547D01*
X474429Y486573D02*
X481547D01*
X474429Y487473D02*
X481547D01*
X474429Y488373D02*
X481547D01*
X474429Y489273D02*
X481547D01*
X474429Y490173D02*
X481547D01*
X474429Y491073D02*
X481547D01*
X474430Y491973D02*
X481547D01*
X474430Y492873D02*
X481547D01*
X474430Y493773D02*
X481547D01*
X474430Y494673D02*
X481547D01*
X474430Y495573D02*
X481547D01*
X474430Y496473D02*
X481547D01*
X474431Y497373D02*
X481547D01*
X474431Y498273D02*
X481547D01*
X474431Y499173D02*
X481547D01*
X474431Y500073D02*
X481547D01*
X474431Y500973D02*
X481547D01*
X474431Y501873D02*
X481547D01*
X474432Y502773D02*
X481547D01*
X474432Y503673D02*
X481547D01*
X474432Y504573D02*
X481547D01*
X474438Y535173D02*
X481311D01*
X474438Y536073D02*
X481311D01*
X474438Y536973D02*
X481311D01*
X474438Y537873D02*
X481311D01*
X474438Y538773D02*
X481311D01*
X474438Y539673D02*
X481311D01*
X474439Y540573D02*
X481311D01*
X474439Y541473D02*
X481311D01*
X474439Y542373D02*
X481311D01*
X474439Y543273D02*
X481311D01*
X474439Y544173D02*
X481311D01*
X474439Y545073D02*
X481311D01*
X474440Y545973D02*
X481311D01*
X474440Y546873D02*
X481311D01*
X474440Y547773D02*
X481311D01*
X474440Y548673D02*
X481311D01*
X474440Y549573D02*
X481311D01*
X474440Y550473D02*
X481311D01*
X474441Y551373D02*
X481311D01*
X474441Y552273D02*
X481311D01*
X474441Y553173D02*
X481311D01*
X474441Y554073D02*
X481311D01*
X474441Y554973D02*
X481311D01*
X474441Y555873D02*
X481311D01*
X474441Y556773D02*
X481311D01*
X474442Y557673D02*
X481311D01*
X473831Y558573D02*
X481311D01*
X472931Y559473D02*
X481311D01*
X463138Y560373D02*
X481311D01*
X469455Y561273D02*
X481311D01*
X470696Y562173D02*
X481311D01*
X471339Y563073D02*
X481311D01*
X471685Y563973D02*
X481311D01*
X471810Y564873D02*
X481311D01*
X471735Y565773D02*
X481311D01*
X471595Y474873D02*
X481136D01*
X471447Y566673D02*
X481045D01*
X471161Y473973D02*
X480236D01*
X470890Y567573D02*
X480145D01*
X470377Y473073D02*
X479336D01*
X469864Y568473D02*
X479245D01*
X468539Y472173D02*
X478436D01*
X463138Y569373D02*
X478345D01*
X463138Y480273D02*
X467354D01*
X463137Y472173D02*
X466883D01*
X463138Y561273D02*
X465967D01*
X463138Y568473D02*
X465559D01*
X463138Y479373D02*
X465129D01*
X463137Y473073D02*
X465046D01*
X463138Y562173D02*
X464726D01*
X463138Y567573D02*
X464533D01*
X463138Y478473D02*
X464307D01*
X463137Y473973D02*
X464261D01*
X463138Y563073D02*
X464084D01*
X463138Y566673D02*
X463976D01*
X463137Y477573D02*
X463852D01*
X463137Y474873D02*
X463828D01*
X463138Y563973D02*
X463738D01*
X463138Y565773D02*
X463688D01*
X463137Y476673D02*
X463640D01*
X463137Y475773D02*
X463632D01*
X463138Y564873D02*
X463613D01*
X765160Y636851D02*
X1101232D01*
X765953Y635951D02*
X1101232D01*
X766391Y635051D02*
X1101232D01*
X766590Y634151D02*
X1101232D01*
X766586Y633251D02*
X1101232D01*
X766378Y632351D02*
X1101232D01*
X765928Y631451D02*
X1101232D01*
X1057947Y630551D02*
X1101232D01*
X1059176Y629651D02*
X1101232D01*
X1059814Y628751D02*
X1101232D01*
X1060157Y627851D02*
X1101232D01*
X1060280Y626951D02*
X1101232D01*
X1060202Y626051D02*
X1101232D01*
X1059912Y625151D02*
X1101232D01*
X1059352Y624251D02*
X1101232D01*
X1058317Y623351D02*
X1101232D01*
X530267Y622451D02*
X1101232D01*
X529750Y621551D02*
X1101232D01*
X529009Y620651D02*
X1101232D01*
X527910Y619751D02*
X1101232D01*
X525812Y618851D02*
X1101232D01*
X394801Y617951D02*
X1101232D01*
X394801Y617051D02*
X1101232D01*
X394801Y616151D02*
X1101232D01*
X394801Y615251D02*
X1101232D01*
X509336Y614351D02*
X1101232D01*
X565221Y613451D02*
X1101232D01*
X567071Y612551D02*
X1101232D01*
X567857Y611651D02*
X1101232D01*
X568292Y610751D02*
X1101232D01*
X568488Y609851D02*
X1101232D01*
X568481Y608951D02*
X1101232D01*
X658203Y608051D02*
X1101232D01*
X764757Y607151D02*
X1101232D01*
X765738Y606251D02*
X1101232D01*
X1046187Y605351D02*
X1101232D01*
X1047702Y604451D02*
X1101232D01*
X1048396Y603551D02*
X1101232D01*
X1048758Y602651D02*
X1101232D01*
X1048883Y601751D02*
X1101232D01*
X1048869Y600851D02*
X1101232D01*
X1048681Y599951D02*
X1101232D01*
X1048239Y599051D02*
X1101232D01*
X1047407Y598151D02*
X1101232D01*
X976356Y597251D02*
X1101232D01*
X977061Y596351D02*
X1101232D01*
X1045802Y595451D02*
X1101232D01*
X1047594Y594551D02*
X1101232D01*
X1048338Y593651D02*
X1101232D01*
X1048730Y592751D02*
X1101232D01*
X1048879Y591851D02*
X1101232D01*
X1048876Y590951D02*
X1101232D01*
X1048713Y590051D02*
X1101232D01*
X1048303Y589151D02*
X1101232D01*
X1047529Y588251D02*
X1101232D01*
X1051117Y587351D02*
X1101232D01*
X1051914Y586451D02*
X1101232D01*
X1052006Y585551D02*
X1101232D01*
X1052006Y584651D02*
X1101232D01*
X1052006Y583751D02*
X1101232D01*
X1052006Y582851D02*
X1101232D01*
X1052006Y581951D02*
X1101232D01*
X1052006Y581051D02*
X1101232D01*
X1052006Y580151D02*
X1101232D01*
X1052006Y579251D02*
X1101232D01*
X1052006Y578351D02*
X1101232D01*
X1052006Y577451D02*
X1101232D01*
X1052006Y576551D02*
X1101232D01*
X1052006Y575651D02*
X1101232D01*
X1052006Y574751D02*
X1101232D01*
X1051940Y573851D02*
X1101232D01*
X1051308Y572951D02*
X1101232D01*
X1050383Y572051D02*
X1101232D01*
X1049459Y571151D02*
X1101232D01*
X1049013Y570251D02*
X1101232D01*
X1049013Y569351D02*
X1101232D01*
X1049013Y568451D02*
X1101232D01*
X1049013Y567551D02*
X1101232D01*
X1049013Y566651D02*
X1101232D01*
X1049013Y565751D02*
X1101232D01*
X1049013Y564851D02*
X1101232D01*
X1049013Y563951D02*
X1101232D01*
X1053872Y563051D02*
X1101232D01*
X1055641Y562151D02*
X1101232D01*
X1056415Y561251D02*
X1101232D01*
X1056843Y560351D02*
X1101232D01*
X1057034Y559451D02*
X1101232D01*
X1057022Y558551D02*
X1101232D01*
X1056805Y557651D02*
X1101232D01*
X1056344Y556751D02*
X1101232D01*
X1055510Y555851D02*
X1101232D01*
X1049013Y554951D02*
X1101232D01*
X1049013Y554051D02*
X1101232D01*
X1049013Y553151D02*
X1101232D01*
X1049013Y552251D02*
X1101232D01*
X1049013Y551351D02*
X1101232D01*
X1049013Y550451D02*
X1101232D01*
X1049013Y549551D02*
X1101232D01*
X1049013Y548651D02*
X1101232D01*
X1080307Y547751D02*
X1101232D01*
X1081251Y546851D02*
X1101232D01*
X1081770Y545951D02*
X1101232D01*
X1082030Y545051D02*
X1101232D01*
X1082081Y544151D02*
X1101232D01*
X1081931Y543251D02*
X1101232D01*
X1081555Y542351D02*
X1101232D01*
X1080866Y541451D02*
X1101232D01*
X1079478Y540551D02*
X1101232D01*
X1049013Y539651D02*
X1101232D01*
X1049013Y538751D02*
X1101232D01*
X1081976Y537851D02*
X1101232D01*
X1082087Y536951D02*
X1101232D01*
X1082087Y536051D02*
X1101232D01*
X1082087Y535151D02*
X1101232D01*
X1082087Y534251D02*
X1101232D01*
X1082087Y533351D02*
X1101232D01*
X1082087Y532451D02*
X1101232D01*
X1082087Y531551D02*
X1101232D01*
X1081819Y530651D02*
X1101232D01*
X1049013Y529751D02*
X1101232D01*
X1049013Y528851D02*
X1101232D01*
X1049013Y527951D02*
X1101232D01*
X1049013Y527051D02*
X1101232D01*
X1049013Y526151D02*
X1101232D01*
X1049013Y525251D02*
X1101232D01*
X1049013Y524351D02*
X1101232D01*
X1049013Y523451D02*
X1101232D01*
X1080416Y522551D02*
X1101232D01*
X1081309Y521651D02*
X1101232D01*
X1081802Y520751D02*
X1101232D01*
X1082042Y519851D02*
X1101232D01*
X1082076Y518951D02*
X1101232D01*
X1081908Y518051D02*
X1101232D01*
X1081510Y517151D02*
X1101232D01*
X1080784Y516251D02*
X1101232D01*
X1079260Y515351D02*
X1101232D01*
X1049013Y514451D02*
X1101232D01*
X1049013Y513551D02*
X1101232D01*
X1049013Y512651D02*
X1101232D01*
X1049013Y511751D02*
X1101232D01*
X1049013Y510851D02*
X1101232D01*
X1049013Y509951D02*
X1101232D01*
X1049013Y509051D02*
X1101232D01*
X1049013Y508151D02*
X1101232D01*
X1049013Y507251D02*
X1101232D01*
X1049013Y506351D02*
X1101232D01*
X1049013Y505451D02*
X1101232D01*
X1049013Y504551D02*
X1101232D01*
X1054707Y503651D02*
X1101232D01*
X1055882Y502751D02*
X1101232D01*
X1056500Y501851D02*
X1101232D01*
X1056830Y500951D02*
X1101232D01*
X1056941Y500051D02*
X1101232D01*
X1056852Y499151D02*
X1101232D01*
X1056549Y498251D02*
X1101232D01*
X1055970Y497351D02*
X1101232D01*
X1054894Y496451D02*
X1101232D01*
X1049013Y495551D02*
X1101232D01*
X1049013Y494651D02*
X1101232D01*
X1049577Y493751D02*
X1101232D01*
X1050477Y492851D02*
X1101232D01*
X1051377Y491951D02*
X1101232D01*
X1052277Y491051D02*
X1101232D01*
X1053177Y490151D02*
X1101232D01*
X1054077Y489251D02*
X1101232D01*
X1054977Y488351D02*
X1101232D01*
X1055877Y487451D02*
X1101232D01*
X1084905Y486551D02*
X1101232D01*
X1085304Y485651D02*
X1101232D01*
X1085313Y484751D02*
X1101232D01*
X1085313Y483851D02*
X1101232D01*
X1085313Y482951D02*
X1101232D01*
X1085313Y482051D02*
X1101232D01*
X1085313Y481151D02*
X1101232D01*
X1085313Y480251D02*
X1101232D01*
X1085313Y479351D02*
X1101232D01*
X1085313Y478451D02*
X1101232D01*
X1085313Y477551D02*
X1101232D01*
X1085313Y476651D02*
X1101232D01*
X1085313Y475751D02*
X1101232D01*
X1085222Y474851D02*
X1101232D01*
X1084428Y473951D02*
X1101232D01*
X1047343Y473051D02*
X1101232D01*
X1048423Y472151D02*
X1101232D01*
X1048982Y471251D02*
X1101232D01*
X1049255Y470351D02*
X1101232D01*
X1049313Y469451D02*
X1101232D01*
X1049258Y468551D02*
X1101232D01*
X1048988Y467651D02*
X1101232D01*
X1048435Y466751D02*
X1101232D01*
X1047368Y465851D02*
X1101232D01*
X988178Y464951D02*
X1101232D01*
X987558Y464051D02*
X1101232D01*
X1087765Y463151D02*
X1101232D01*
X1088302Y462251D02*
X1101232D01*
X1088303Y461351D02*
X1101232D01*
X1088303Y460451D02*
X1101232D01*
X1088303Y459551D02*
X1101232D01*
X1088303Y458651D02*
X1101232D01*
X1088303Y457751D02*
X1101232D01*
X1088303Y456851D02*
X1101232D01*
X1088303Y455951D02*
X1101232D01*
X1088303Y455051D02*
X1101232D01*
X1088303Y454151D02*
X1101232D01*
X1088303Y453251D02*
X1101232D01*
X1088303Y452351D02*
X1101232D01*
X1088303Y451451D02*
X1101232D01*
X1088105Y450551D02*
X1101232D01*
X764446Y449651D02*
X1101232D01*
X1044664Y448751D02*
X1101232D01*
X1046233Y447851D02*
X1101232D01*
X1046968Y446951D02*
X1101232D01*
X1047373Y446051D02*
X1101232D01*
X1047546Y445151D02*
X1101232D01*
X1047517Y444251D02*
X1101232D01*
X1083559Y443351D02*
X1101232D01*
X1085446Y442451D02*
X1101232D01*
X1086496Y441551D02*
X1101232D01*
X1087209Y440651D02*
X1101232D01*
X1087708Y439751D02*
X1101232D01*
X1088041Y438851D02*
X1101232D01*
X1088236Y437951D02*
X1101232D01*
X1088303Y437051D02*
X1101232D01*
X1088248Y436151D02*
X1101232D01*
X1088066Y435251D02*
X1101232D01*
X1087746Y434351D02*
X1101232D01*
X1087265Y433451D02*
X1101232D01*
X1086575Y432551D02*
X1101232D01*
X1085567Y431651D02*
X1101232D01*
X1083828Y430751D02*
X1101232D01*
X764151Y429851D02*
X1101232D01*
X758766Y428951D02*
X1101232D01*
X760034Y428051D02*
X1101232D01*
X760685Y427151D02*
X1101232D01*
X761037Y426251D02*
X1101232D01*
X1047281Y443351D02*
X1079825D01*
X1043849Y430751D02*
X1079555D01*
X1046796Y442451D02*
X1077938D01*
X1046044Y431651D02*
X1077816D01*
X1045916Y441551D02*
X1076888D01*
X1046865Y432551D02*
X1076808D01*
X1049013Y515351D02*
X1076714D01*
X1049013Y540551D02*
X1076496D01*
X764446Y440651D02*
X1076174D01*
X1047318Y433451D02*
X1076118D01*
X764446Y439751D02*
X1075676D01*
X1049013Y547751D02*
X1075667D01*
X1047530Y434351D02*
X1075637D01*
X1047153Y463151D02*
X1075618D01*
X1049013Y522551D02*
X1075557D01*
X1044271Y438851D02*
X1075342D01*
X1047537Y435251D02*
X1075318D01*
X764446Y450551D02*
X1075278D01*
X1049013Y516251D02*
X1075189D01*
X1046120Y437951D02*
X1075147D01*
X1047340Y436151D02*
X1075136D01*
X1049013Y541451D02*
X1075108D01*
X1048338Y462251D02*
X1075081D01*
X1046906Y437051D02*
X1075080D01*
X1048936Y461351D02*
X1075080D01*
X1049236Y460451D02*
X1075080D01*
X1049313Y459551D02*
X1075080D01*
X1049273Y458651D02*
X1075080D01*
X1049030Y457751D02*
X1075080D01*
X1048515Y456851D02*
X1075080D01*
X1047534Y455951D02*
X1075080D01*
X764446Y455051D02*
X1075080D01*
X764446Y454151D02*
X1075080D01*
X764446Y453251D02*
X1075080D01*
X764446Y452351D02*
X1075080D01*
X764446Y451451D02*
X1075080D01*
X1049013Y546851D02*
X1074722D01*
X1049013Y521651D02*
X1074665D01*
X1049013Y517151D02*
X1074464D01*
X1049013Y542351D02*
X1074419D01*
X1049013Y545951D02*
X1074204D01*
X1049013Y520751D02*
X1074172D01*
X1049013Y530651D02*
X1074155D01*
X1049013Y518051D02*
X1074066D01*
X1049013Y543251D02*
X1074043D01*
X1049013Y537851D02*
X1073997D01*
X1049013Y545051D02*
X1073944D01*
X1049013Y519851D02*
X1073931D01*
X1049013Y518951D02*
X1073898D01*
X1049013Y544151D02*
X1073893D01*
X1049013Y536951D02*
X1073887D01*
X1049013Y536051D02*
X1073887D01*
X1049013Y535151D02*
X1073887D01*
X1049013Y534251D02*
X1073887D01*
X1049013Y533351D02*
X1073887D01*
X1049013Y532451D02*
X1073887D01*
X1049013Y531551D02*
X1073887D01*
X761167Y425351D02*
X1070390D01*
X763260Y637751D02*
X1070368D01*
X425697Y667451D02*
X1070366D01*
X425697Y666551D02*
X1070366D01*
X425697Y665651D02*
X1070366D01*
X508335Y664751D02*
X1070366D01*
X510402Y663851D02*
X1070366D01*
X511213Y662951D02*
X1070366D01*
X535422Y662051D02*
X1070366D01*
X535929Y661151D02*
X1070366D01*
X535925Y660251D02*
X1070366D01*
X535405Y659351D02*
X1070366D01*
X894452Y658451D02*
X1070366D01*
X894726Y657551D02*
X1070366D01*
X894726Y656651D02*
X1070366D01*
X894726Y655751D02*
X1070366D01*
X894726Y654851D02*
X1070366D01*
X894726Y653951D02*
X1070366D01*
X894726Y653051D02*
X1070366D01*
X894726Y652151D02*
X1070366D01*
X894619Y651251D02*
X1070366D01*
X685746Y650351D02*
X1070366D01*
X684888Y649451D02*
X1070366D01*
X539040Y648551D02*
X1070366D01*
X659254Y647651D02*
X1070366D01*
X660373Y646751D02*
X1070366D01*
X660969Y645851D02*
X1070366D01*
X661284Y644951D02*
X1070366D01*
X661383Y644051D02*
X1070366D01*
X661282Y643151D02*
X1070366D01*
X660965Y642251D02*
X1070366D01*
X660365Y641351D02*
X1070366D01*
X659237Y640451D02*
X1070366D01*
X508254Y639551D02*
X1070366D01*
X510390Y638651D02*
X1070366D01*
X761097Y424451D02*
X1070366D01*
X760815Y423551D02*
X1070366D01*
X760266Y422651D02*
X1070366D01*
X759258Y421751D02*
X1070366D01*
X745107Y420851D02*
X1070366D01*
X744207Y419951D02*
X1070366D01*
X743307Y419051D02*
X1070366D01*
X742407Y418151D02*
X1070366D01*
X511705Y417251D02*
X1070366D01*
X511816Y416351D02*
X1070366D01*
X511728Y415451D02*
X1070366D01*
X748849Y414551D02*
X1070366D01*
X750774Y413651D02*
X1070366D01*
X751833Y412751D02*
X1070366D01*
X752553Y411851D02*
X1070366D01*
X753055Y410951D02*
X1070366D01*
X753392Y410051D02*
X1070366D01*
X753589Y409151D02*
X1070366D01*
X874545Y408251D02*
X1070366D01*
X874726Y407351D02*
X1070366D01*
X874726Y406451D02*
X1070366D01*
X874726Y405551D02*
X1070366D01*
X874726Y404651D02*
X1070366D01*
X874726Y403751D02*
X1070366D01*
X874726Y402851D02*
X1070366D01*
X874726Y401951D02*
X1070366D01*
X874551Y401051D02*
X1070366D01*
X511090Y400151D02*
X1070366D01*
X510242Y399251D02*
X1070366D01*
X425697Y398351D02*
X1070366D01*
X425697Y397451D02*
X1070366D01*
X425697Y396551D02*
X1070366D01*
X425697Y395651D02*
X1070366D01*
X1047947Y630551D02*
X1054415D01*
X1048317Y623351D02*
X1054045D01*
X1049176Y629651D02*
X1053186D01*
X1049352Y624251D02*
X1053011D01*
X1049814Y628751D02*
X1052548D01*
X1049912Y625151D02*
X1052450D01*
X1050157Y627851D02*
X1052205D01*
X1050202Y626051D02*
X1052160D01*
X1050280Y626951D02*
X1052082D01*
X1049013Y563051D02*
X1052033D01*
X1049013Y503651D02*
X1050975D01*
X1049013Y496451D02*
X1050789D01*
X1049013Y555851D02*
X1050395D01*
X1049013Y562151D02*
X1050264D01*
X1049013Y502751D02*
X1049801D01*
X1049013Y497351D02*
X1049712D01*
X1049013Y556751D02*
X1049562D01*
X1049013Y561251D02*
X1049490D01*
X1049013Y501851D02*
X1049183D01*
X1049013Y498251D02*
X1049133D01*
X1049013Y557651D02*
X1049101D01*
X1049013Y560351D02*
X1049063D01*
X765115Y630551D02*
X1044415D01*
X530616Y623351D02*
X1044045D01*
X763020Y629651D02*
X1043186D01*
X764446Y430751D02*
X1043067D01*
X530824Y624251D02*
X1043011D01*
X764446Y438851D02*
X1042645D01*
X529925Y628751D02*
X1042548D01*
X530904Y625151D02*
X1042450D01*
X764446Y448751D02*
X1042252D01*
X530388Y627851D02*
X1042205D01*
X530861Y626051D02*
X1042160D01*
X530693Y626951D02*
X1042082D01*
X764446Y441551D02*
X1041000D01*
X764446Y431651D02*
X1040872D01*
X764446Y437951D02*
X1040796D01*
X764446Y447851D02*
X1040683D01*
X764446Y442451D02*
X1040120D01*
X764446Y432551D02*
X1040051D01*
X764446Y437051D02*
X1040010D01*
X764446Y446951D02*
X1039948D01*
X977599Y595451D02*
X1039923D01*
X764446Y443351D02*
X1039635D01*
X764446Y433451D02*
X1039598D01*
X764446Y436151D02*
X1039576D01*
X764446Y446051D02*
X1039543D01*
X766275Y605351D02*
X1039537D01*
X986744Y463151D02*
X1039430D01*
X764446Y444251D02*
X1039399D01*
X764446Y434351D02*
X1039386D01*
X764446Y435251D02*
X1039379D01*
X764446Y445151D02*
X1039370D01*
X988643Y473051D02*
X1039240D01*
X988650Y465851D02*
X1039215D01*
X764446Y455951D02*
X1039049D01*
X975422Y598151D02*
X1038318D01*
X985641Y462251D02*
X1038245D01*
X977982Y588251D02*
X1038195D01*
X988993Y472151D02*
X1038159D01*
X988998Y466751D02*
X1038147D01*
X978004Y594551D02*
X1038130D01*
X764446Y456851D02*
X1038068D01*
X766547Y604451D02*
X1038022D01*
X983968Y461351D02*
X1037647D01*
X989234Y471251D02*
X1037601D01*
X989237Y467651D02*
X1037595D01*
X764446Y457751D02*
X1037553D01*
X974108Y599051D02*
X1037486D01*
X978278Y589151D02*
X1037421D01*
X978293Y593651D02*
X1037387D01*
X764446Y460451D02*
X1037346D01*
X766610Y603551D02*
X1037329D01*
X989376Y470351D02*
X1037327D01*
X989377Y468551D02*
X1037325D01*
X764446Y458651D02*
X1037309D01*
X989423Y469451D02*
X1037270D01*
X764446Y459551D02*
X1037270D01*
X971748Y599951D02*
X1037044D01*
X978471Y590051D02*
X1037012D01*
X978480Y592751D02*
X1036995D01*
X766471Y602651D02*
X1036967D01*
X765443Y600851D02*
X1036855D01*
X978568Y590951D02*
X1036848D01*
X978571Y591851D02*
X1036845D01*
X766110Y601751D02*
X1036842D01*
X988170Y473951D02*
X1033286D01*
X987547Y474851D02*
X1032271D01*
X977570Y587351D02*
X1031639D01*
X986729Y475751D02*
X1031372D01*
X977022Y586451D02*
X1030841D01*
X985620Y476651D02*
X1030779D01*
X976305Y585551D02*
X1030750D01*
X975352Y584651D02*
X1030749D01*
X974005Y583751D02*
X1030748D01*
X971472Y582851D02*
X1030747D01*
X761170Y581951D02*
X1030746D01*
X761170Y581051D02*
X1030746D01*
X761165Y580151D02*
X1030745D01*
X760531Y579251D02*
X1030744D01*
X663644Y578351D02*
X1030743D01*
X663202Y577451D02*
X1030743D01*
X758846Y576551D02*
X1030742D01*
X760069Y575651D02*
X1030741D01*
X760705Y574751D02*
X1030740D01*
X761047Y573851D02*
X1030739D01*
X761168Y572951D02*
X1030739D01*
X761090Y572051D02*
X1030738D01*
X764446Y484751D02*
X1030737D01*
X760798Y571151D02*
X1030737D01*
X760236Y570251D02*
X1030736D01*
X764446Y483851D02*
X1030736D01*
X759197Y569351D02*
X1030736D01*
X599761Y568451D02*
X1030735D01*
X764446Y482951D02*
X1030735D01*
X599761Y567551D02*
X1030734D01*
X599761Y566651D02*
X1030733D01*
X764446Y482051D02*
X1030733D01*
X599761Y565751D02*
X1030732D01*
X764446Y481151D02*
X1030732D01*
X599761Y564851D02*
X1030732D01*
X599761Y563951D02*
X1030731D01*
X952838Y480251D02*
X1030730D01*
X599761Y563051D02*
X1030730D01*
X599761Y562151D02*
X1030729D01*
X954316Y479351D02*
X1030729D01*
X599761Y561251D02*
X1030729D01*
X599761Y560351D02*
X1030728D01*
X955030Y478451D02*
X1030728D01*
X599761Y559451D02*
X1030727D01*
X983932Y477551D02*
X1030726D01*
X599761Y558551D02*
X1030726D01*
X599761Y557651D02*
X1030725D01*
X599761Y556751D02*
X1030725D01*
X958546Y555851D02*
X1030724D01*
X959604Y554951D02*
X1030723D01*
X960175Y554051D02*
X1030722D01*
X960472Y553151D02*
X1030722D01*
X960556Y552251D02*
X1030721D01*
X960440Y551351D02*
X1030720D01*
X960104Y550451D02*
X1030719D01*
X959477Y549551D02*
X1030718D01*
X958280Y548651D02*
X1030718D01*
X599761Y547751D02*
X1030717D01*
X599761Y546851D02*
X1030716D01*
X599761Y545951D02*
X1030715D01*
X599761Y545051D02*
X1030714D01*
X599761Y544151D02*
X1030714D01*
X599761Y543251D02*
X1030713D01*
X599761Y542351D02*
X1030712D01*
X599761Y541451D02*
X1030711D01*
X599761Y540551D02*
X1030711D01*
X599761Y539651D02*
X1030710D01*
X599761Y538751D02*
X1030709D01*
X599761Y537851D02*
X1030708D01*
X599761Y536951D02*
X1030707D01*
X975593Y536051D02*
X1030707D01*
X764446Y485651D02*
X1030212D01*
X975626Y535151D02*
X1030131D01*
X764446Y486551D02*
X1029314D01*
X975626Y534251D02*
X1029231D01*
X764446Y487451D02*
X1028415D01*
X975626Y533351D02*
X1028330D01*
X764446Y488351D02*
X1027516D01*
X975626Y532451D02*
X1027429D01*
X764446Y489251D02*
X1026618D01*
X975626Y531551D02*
X1026528D01*
X764446Y490151D02*
X1025719D01*
X975626Y530651D02*
X1025628D01*
X764446Y491051D02*
X1024820D01*
X975626Y529751D02*
X1024727D01*
X764446Y491951D02*
X1023922D01*
X975111Y528851D02*
X1023826D01*
X955421Y477551D02*
X977453D01*
X764446Y461351D02*
X977418D01*
X955583Y476651D02*
X975766D01*
X764446Y462251D02*
X975745D01*
X955544Y475751D02*
X974656D01*
X764446Y463151D02*
X974642D01*
X955297Y474851D02*
X973839D01*
X764446Y464051D02*
X973827D01*
X954796Y473951D02*
X973216D01*
X764446Y464951D02*
X973207D01*
X953888Y473051D02*
X972743D01*
X764446Y465851D02*
X972736D01*
X764446Y472151D02*
X972393D01*
X764446Y466751D02*
X972388D01*
X764446Y471251D02*
X972152D01*
X764446Y467651D02*
X972149D01*
X764446Y470351D02*
X972010D01*
X764446Y468551D02*
X972008D01*
X764446Y469451D02*
X971963D01*
X761170Y582851D02*
X968229D01*
X764128Y599951D02*
X967952D01*
X962689Y528851D02*
X967941D01*
X964002Y536051D02*
X967459D01*
X964287Y529751D02*
X967427D01*
X964873Y535151D02*
X967426D01*
X965354Y534251D02*
X967426D01*
X965587Y533351D02*
X967426D01*
X965613Y532451D02*
X967426D01*
X965437Y531551D02*
X967426D01*
X965029Y530651D02*
X967426D01*
X764446Y492851D02*
X967122D01*
X764446Y493751D02*
X966224D01*
X761170Y583751D02*
X965696D01*
X498233Y599051D02*
X965592D01*
X764446Y494651D02*
X965340D01*
X770240Y509951D02*
X965021D01*
X769340Y509051D02*
X965020D01*
X768441Y508151D02*
X965018D01*
X767541Y507251D02*
X965016D01*
X963545Y506351D02*
X965015D01*
X964639Y505451D02*
X965013D01*
X964584Y500051D02*
X965003D01*
X963429Y499151D02*
X965001D01*
X764446Y498251D02*
X965000D01*
X764446Y497351D02*
X964998D01*
X764446Y495551D02*
X964998D01*
X764446Y496451D02*
X964996D01*
X761170Y584651D02*
X964348D01*
X659586Y598151D02*
X964279D01*
X771140Y510851D02*
X964260D01*
X761170Y585551D02*
X963396D01*
X703802Y597251D02*
X963344D01*
X761151Y586451D02*
X962679D01*
X704344Y596351D02*
X962639D01*
X663659Y587351D02*
X962131D01*
X704361Y595451D02*
X962101D01*
X663659Y588251D02*
X961719D01*
X733584Y594551D02*
X961697D01*
X723661Y589151D02*
X961423D01*
X734288Y593651D02*
X961407D01*
X724250Y590051D02*
X961230D01*
X734392Y592751D02*
X961221D01*
X724294Y590951D02*
X961133D01*
X734023Y591851D02*
X961130D01*
X952689Y528851D02*
X960363D01*
X953429Y499151D02*
X959623D01*
X953545Y506351D02*
X959507D01*
X954002Y536051D02*
X959051D01*
X954287Y529751D02*
X958766D01*
X954584Y500051D02*
X958469D01*
X954639Y505451D02*
X958413D01*
X954873Y535151D02*
X958179D01*
X955029Y530651D02*
X958024D01*
X955194Y500951D02*
X957858D01*
X955225Y504551D02*
X957827D01*
X955354Y534251D02*
X957698D01*
X955437Y531551D02*
X957616D01*
X955519Y501851D02*
X957533D01*
X955533Y503651D02*
X957519D01*
X955587Y533351D02*
X957466D01*
X955613Y532451D02*
X957440D01*
X955626Y502751D02*
X957426D01*
X948280Y548651D02*
X954633D01*
X948546Y555851D02*
X954368D01*
X949477Y549551D02*
X953436D01*
X949604Y554951D02*
X953310D01*
X950104Y550451D02*
X952809D01*
X950175Y554051D02*
X952739D01*
X950440Y551351D02*
X952474D01*
X950472Y553151D02*
X952441D01*
X950556Y552251D02*
X952357D01*
X942689Y528851D02*
X950363D01*
X942838Y480251D02*
X950146D01*
X943429Y499151D02*
X949623D01*
X943545Y506351D02*
X949507D01*
X943888Y473051D02*
X949096D01*
X944002Y536051D02*
X949051D01*
X944287Y529751D02*
X948766D01*
X944316Y479351D02*
X948668D01*
X944584Y500051D02*
X948469D01*
X944639Y505451D02*
X948413D01*
X944796Y473951D02*
X948188D01*
X944873Y535151D02*
X948179D01*
X945029Y530651D02*
X948024D01*
X945030Y478451D02*
X947955D01*
X945194Y500951D02*
X947858D01*
X945225Y504551D02*
X947827D01*
X945354Y534251D02*
X947698D01*
X945297Y474851D02*
X947687D01*
X945437Y531551D02*
X947616D01*
X945421Y477551D02*
X947563D01*
X945519Y501851D02*
X947533D01*
X945533Y503651D02*
X947519D01*
X945587Y533351D02*
X947466D01*
X945544Y475751D02*
X947440D01*
X945613Y532451D02*
X947440D01*
X945626Y502751D02*
X947426D01*
X945583Y476651D02*
X947401D01*
X599761Y548651D02*
X944633D01*
X599761Y555851D02*
X944368D01*
X599761Y549551D02*
X943436D01*
X599761Y554951D02*
X943310D01*
X599761Y550451D02*
X942809D01*
X599761Y554051D02*
X942739D01*
X599761Y551351D02*
X942474D01*
X599761Y553151D02*
X942441D01*
X599761Y552251D02*
X942357D01*
X606642Y528851D02*
X940363D01*
X764446Y480251D02*
X940146D01*
X764446Y499151D02*
X939623D01*
X766641Y506351D02*
X939507D01*
X764446Y473051D02*
X939096D01*
X599761Y536051D02*
X939051D01*
X605742Y529751D02*
X938766D01*
X764446Y479351D02*
X938668D01*
X764446Y500051D02*
X938469D01*
X765741Y505451D02*
X938413D01*
X764446Y473951D02*
X938188D01*
X600342Y535151D02*
X938179D01*
X604842Y530651D02*
X938024D01*
X764446Y478451D02*
X937955D01*
X764446Y500951D02*
X937858D01*
X764841Y504551D02*
X937827D01*
X601242Y534251D02*
X937698D01*
X764446Y474851D02*
X937687D01*
X603942Y531551D02*
X937616D01*
X764446Y477551D02*
X937563D01*
X764446Y501851D02*
X937533D01*
X764446Y503651D02*
X937519D01*
X602142Y533351D02*
X937466D01*
X764446Y475751D02*
X937440D01*
X603042Y532451D02*
X937440D01*
X764446Y502751D02*
X937426D01*
X764446Y476651D02*
X937401D01*
X882336Y658451D02*
X886800D01*
X882804Y651251D02*
X886633D01*
X883596Y657551D02*
X886526D01*
X884245Y656651D02*
X886526D01*
X884595Y655751D02*
X886526D01*
X884724Y654851D02*
X886526D01*
X884652Y653951D02*
X886526D01*
X884369Y653051D02*
X886526D01*
X883818Y652151D02*
X886526D01*
X872336Y658451D02*
X878916D01*
X872804Y651251D02*
X878448D01*
X873596Y657551D02*
X877656D01*
X873818Y652151D02*
X877434D01*
X874245Y656651D02*
X877007D01*
X874369Y653051D02*
X876883D01*
X874595Y655751D02*
X876656D01*
X874652Y653951D02*
X876600D01*
X874724Y654851D02*
X876528D01*
X862336Y658451D02*
X868916D01*
X862804Y651251D02*
X868448D01*
X863596Y657551D02*
X867656D01*
X863818Y652151D02*
X867434D01*
X864245Y656651D02*
X867007D01*
X864369Y653051D02*
X866883D01*
X862579Y408251D02*
X866707D01*
X862597Y401051D02*
X866701D01*
X864595Y655751D02*
X866656D01*
X864652Y653951D02*
X866600D01*
X864724Y654851D02*
X866528D01*
X863707Y407351D02*
X866526D01*
X864307Y406451D02*
X866526D01*
X864625Y405551D02*
X866526D01*
X864726Y404651D02*
X866526D01*
X864627Y403751D02*
X866526D01*
X864312Y402851D02*
X866526D01*
X863716Y401951D02*
X866526D01*
X852336Y658451D02*
X858916D01*
X852579Y408251D02*
X858673D01*
X852597Y401051D02*
X858655D01*
X852804Y651251D02*
X858448D01*
X853596Y657551D02*
X857656D01*
X853707Y407351D02*
X857545D01*
X853716Y401951D02*
X857536D01*
X853818Y652151D02*
X857434D01*
X854245Y656651D02*
X857007D01*
X854307Y406451D02*
X856945D01*
X854312Y402851D02*
X856940D01*
X854369Y653051D02*
X856883D01*
X854595Y655751D02*
X856656D01*
X854625Y405551D02*
X856627D01*
X854627Y403751D02*
X856625D01*
X854652Y653951D02*
X856600D01*
X854724Y654851D02*
X856528D01*
X854726Y404651D02*
X856526D01*
X842336Y658451D02*
X848916D01*
X842579Y408251D02*
X848673D01*
X842597Y401051D02*
X848655D01*
X842804Y651251D02*
X848448D01*
X843596Y657551D02*
X847656D01*
X843707Y407351D02*
X847545D01*
X843716Y401951D02*
X847536D01*
X843818Y652151D02*
X847434D01*
X844245Y656651D02*
X847007D01*
X844307Y406451D02*
X846945D01*
X844312Y402851D02*
X846940D01*
X844369Y653051D02*
X846883D01*
X844595Y655751D02*
X846656D01*
X844625Y405551D02*
X846627D01*
X844627Y403751D02*
X846625D01*
X844652Y653951D02*
X846600D01*
X844724Y654851D02*
X846528D01*
X844726Y404651D02*
X846526D01*
X832336Y658451D02*
X838916D01*
X832579Y408251D02*
X838673D01*
X832597Y401051D02*
X838655D01*
X832804Y651251D02*
X838448D01*
X833596Y657551D02*
X837656D01*
X833707Y407351D02*
X837545D01*
X833716Y401951D02*
X837536D01*
X833818Y652151D02*
X837434D01*
X834245Y656651D02*
X837007D01*
X834307Y406451D02*
X836945D01*
X834312Y402851D02*
X836940D01*
X834369Y653051D02*
X836883D01*
X834595Y655751D02*
X836656D01*
X834625Y405551D02*
X836627D01*
X834627Y403751D02*
X836625D01*
X834652Y653951D02*
X836600D01*
X834724Y654851D02*
X836528D01*
X834726Y404651D02*
X836526D01*
X822336Y658451D02*
X828916D01*
X753659Y408251D02*
X828673D01*
X511559Y401051D02*
X828655D01*
X822804Y651251D02*
X828448D01*
X823596Y657551D02*
X827656D01*
X753606Y407351D02*
X827545D01*
X749238Y401951D02*
X827536D01*
X823818Y652151D02*
X827434D01*
X824245Y656651D02*
X827007D01*
X753426Y406451D02*
X826945D01*
X750948Y402851D02*
X826940D01*
X824369Y653051D02*
X826883D01*
X824595Y655751D02*
X826656D01*
X753110Y405551D02*
X826627D01*
X751948Y403751D02*
X826625D01*
X824652Y653951D02*
X826600D01*
X824724Y654851D02*
X826528D01*
X752633Y404651D02*
X826526D01*
X812336Y658451D02*
X818916D01*
X812804Y651251D02*
X818448D01*
X813596Y657551D02*
X817656D01*
X813818Y652151D02*
X817434D01*
X814245Y656651D02*
X817007D01*
X814369Y653051D02*
X816883D01*
X814595Y655751D02*
X816656D01*
X814652Y653951D02*
X816600D01*
X814724Y654851D02*
X816528D01*
X511232Y658451D02*
X808916D01*
X686220Y651251D02*
X808448D01*
X510437Y657551D02*
X807656D01*
X686447Y652151D02*
X807434D01*
X683468Y656651D02*
X807007D01*
X686468Y653051D02*
X806883D01*
X685119Y655751D02*
X806656D01*
X686287Y653951D02*
X806600D01*
X685872Y654851D02*
X806528D01*
X753020Y629651D02*
X762006D01*
X753260Y637751D02*
X761767D01*
X754128Y599951D02*
X760898D01*
X754757Y607151D02*
X760269D01*
X755115Y630551D02*
X759911D01*
X755160Y636851D02*
X759867D01*
X755443Y600851D02*
X759584D01*
X755738Y606251D02*
X759288D01*
X755928Y631451D02*
X759098D01*
X755953Y635951D02*
X759074D01*
X756110Y601751D02*
X758917D01*
X756275Y605351D02*
X758752D01*
X756378Y632351D02*
X758648D01*
X756391Y635051D02*
X758635D01*
X756471Y602651D02*
X758555D01*
X756547Y604451D02*
X758479D01*
X756586Y633251D02*
X758440D01*
X756590Y634151D02*
X758436D01*
X756610Y603551D02*
X758417D01*
X748766Y428951D02*
X755374D01*
X748846Y576551D02*
X755293D01*
X749197Y569351D02*
X754942D01*
X749258Y421751D02*
X754881D01*
X750034Y428051D02*
X754106D01*
X750069Y575651D02*
X754070D01*
X750236Y570251D02*
X753903D01*
X750266Y422651D02*
X753873D01*
X747976Y579251D02*
X753608D01*
X750685Y427151D02*
X753454D01*
X750705Y574751D02*
X753434D01*
X750798Y571151D02*
X753341D01*
X750815Y423551D02*
X753324D01*
X751037Y426251D02*
X753102D01*
X751047Y573851D02*
X753092D01*
X751090Y572051D02*
X753049D01*
X751097Y424451D02*
X753042D01*
X749631Y586451D02*
X752988D01*
X749754Y580151D02*
X752974D01*
X751167Y425351D02*
X752972D01*
X751168Y572951D02*
X752971D01*
X750463Y585551D02*
X752970D01*
X750923Y584651D02*
X752970D01*
X751139Y583751D02*
X752970D01*
X751150Y582851D02*
X752970D01*
X750958Y581951D02*
X752970D01*
X750530Y581051D02*
X752970D01*
X743020Y629651D02*
X752006D01*
X743260Y637751D02*
X751767D01*
X744128Y599951D02*
X750898D01*
X703334Y429851D02*
X750808D01*
X703658Y430751D02*
X750514D01*
X750183Y432551D02*
X750514D01*
X749091Y431651D02*
X750514D01*
X750126Y437951D02*
X750514D01*
X748970Y438851D02*
X750514D01*
X703659Y439751D02*
X750514D01*
X703659Y440651D02*
X750514D01*
X703659Y441551D02*
X750514D01*
X703659Y442451D02*
X750514D01*
X703659Y443351D02*
X750514D01*
X703659Y444251D02*
X750514D01*
X703659Y445151D02*
X750514D01*
X703659Y446051D02*
X750514D01*
X703659Y446951D02*
X750514D01*
X703659Y447851D02*
X750514D01*
X703659Y448751D02*
X750514D01*
X703659Y449651D02*
X750514D01*
X703659Y450551D02*
X750514D01*
X703659Y451451D02*
X750514D01*
X703659Y452351D02*
X750514D01*
X703659Y453251D02*
X750514D01*
X703659Y454151D02*
X750514D01*
X703659Y455051D02*
X750514D01*
X703659Y455951D02*
X750514D01*
X703659Y456851D02*
X750514D01*
X703659Y457751D02*
X750514D01*
X703659Y458651D02*
X750514D01*
X703659Y459551D02*
X750514D01*
X703659Y460451D02*
X750514D01*
X703659Y461351D02*
X750514D01*
X703659Y462251D02*
X750514D01*
X703659Y463151D02*
X750514D01*
X703659Y464051D02*
X750514D01*
X703659Y464951D02*
X750514D01*
X703659Y465851D02*
X750514D01*
X703659Y466751D02*
X750514D01*
X703659Y467651D02*
X750514D01*
X703659Y468551D02*
X750514D01*
X703659Y469451D02*
X750514D01*
X703659Y470351D02*
X750514D01*
X703659Y471251D02*
X750514D01*
X703659Y472151D02*
X750514D01*
X703659Y473051D02*
X750514D01*
X703659Y473951D02*
X750514D01*
X703659Y474851D02*
X750514D01*
X703659Y475751D02*
X750514D01*
X703659Y476651D02*
X750514D01*
X703659Y477551D02*
X750514D01*
X703659Y478451D02*
X750514D01*
X703659Y479351D02*
X750514D01*
X703659Y480251D02*
X750514D01*
X703659Y481151D02*
X750514D01*
X703659Y482051D02*
X750514D01*
X703659Y482951D02*
X750514D01*
X703659Y483851D02*
X750514D01*
X703659Y484751D02*
X750514D01*
X703659Y485651D02*
X750514D01*
X703659Y486551D02*
X750514D01*
X703659Y487451D02*
X750514D01*
X703659Y488351D02*
X750514D01*
X703659Y489251D02*
X750514D01*
X703659Y490151D02*
X750514D01*
X703659Y491051D02*
X750514D01*
X703659Y491951D02*
X750514D01*
X703659Y492851D02*
X750514D01*
X703659Y493751D02*
X750514D01*
X703659Y494651D02*
X750514D01*
X703659Y495551D02*
X750514D01*
X703659Y496451D02*
X750514D01*
X703659Y497351D02*
X750514D01*
X703659Y498251D02*
X750514D01*
X703659Y499151D02*
X750514D01*
X703659Y500051D02*
X750514D01*
X703659Y500951D02*
X750514D01*
X703659Y501851D02*
X750514D01*
X703659Y502751D02*
X750514D01*
X703659Y503651D02*
X750514D01*
X744757Y607151D02*
X750269D01*
X704061Y504551D02*
X750114D01*
X745115Y630551D02*
X749911D01*
X745160Y636851D02*
X749867D01*
X745443Y600851D02*
X749584D01*
X745738Y606251D02*
X749288D01*
X704961Y505451D02*
X749214D01*
X745928Y631451D02*
X749098D01*
X745953Y635951D02*
X749074D01*
X746110Y601751D02*
X748917D01*
X746275Y605351D02*
X748752D01*
X746378Y632351D02*
X748648D01*
X746391Y635051D02*
X748635D01*
X746471Y602651D02*
X748555D01*
X746547Y604451D02*
X748479D01*
X746586Y633251D02*
X748440D01*
X746590Y634151D02*
X748436D01*
X746610Y603551D02*
X748417D01*
X705861Y506351D02*
X748314D01*
X706761Y507251D02*
X747414D01*
X707661Y508151D02*
X746514D01*
X737976Y579251D02*
X746164D01*
X708561Y509051D02*
X745614D01*
X738766Y428951D02*
X745374D01*
X738846Y576551D02*
X745293D01*
X511425Y414551D02*
X745246D01*
X738970Y438851D02*
X745169D01*
X739091Y431651D02*
X745048D01*
X739197Y569351D02*
X744942D01*
X511782Y401951D02*
X744856D01*
X709461Y509951D02*
X744714D01*
X739631Y586451D02*
X744508D01*
X739754Y580151D02*
X744385D01*
X740034Y428051D02*
X744106D01*
X740069Y575651D02*
X744070D01*
X740126Y437951D02*
X744013D01*
X740183Y432551D02*
X743956D01*
X740236Y570251D02*
X743903D01*
X710361Y510851D02*
X743813D01*
X740463Y585551D02*
X743676D01*
X740530Y581051D02*
X743609D01*
X740685Y427151D02*
X743454D01*
X740705Y574751D02*
X743434D01*
X740737Y437051D02*
X743402D01*
X740769Y433451D02*
X743370D01*
X740798Y571151D02*
X743341D01*
X510846Y413651D02*
X743321D01*
X740923Y584651D02*
X743216D01*
X740958Y581951D02*
X743181D01*
X511800Y402851D02*
X743146D01*
X741037Y426251D02*
X743102D01*
X741047Y573851D02*
X743092D01*
X741062Y436151D02*
X743077D01*
X741077Y434351D02*
X743062D01*
X741090Y572051D02*
X743049D01*
X741097Y424451D02*
X743042D01*
X741139Y583751D02*
X743000D01*
X740815Y423551D02*
X742998D01*
X741150Y582851D02*
X742989D01*
X741167Y425351D02*
X742972D01*
X741168Y572951D02*
X742971D01*
X741169Y435251D02*
X742970D01*
X509770Y412751D02*
X742261D01*
X511615Y403751D02*
X742146D01*
X740266Y422651D02*
X742098D01*
X733020Y629651D02*
X742006D01*
X733260Y637751D02*
X741767D01*
X425697Y411851D02*
X741542D01*
X511195Y404651D02*
X741462D01*
X739258Y421751D02*
X741198D01*
X425697Y410951D02*
X741040D01*
X510434Y405551D02*
X740985D01*
X734128Y599951D02*
X740898D01*
X425697Y410051D02*
X740703D01*
X508740Y406451D02*
X740668D01*
X425697Y409151D02*
X740506D01*
X425697Y407351D02*
X740489D01*
X425697Y408251D02*
X740436D01*
X565342Y420851D02*
X740298D01*
X734757Y607151D02*
X740269D01*
X735115Y630551D02*
X739911D01*
X735160Y636851D02*
X739867D01*
X735443Y600851D02*
X739584D01*
X735738Y606251D02*
X739288D01*
X735928Y631451D02*
X739098D01*
X735953Y635951D02*
X739074D01*
X736110Y601751D02*
X738917D01*
X736275Y605351D02*
X738752D01*
X736378Y632351D02*
X738648D01*
X736391Y635051D02*
X738635D01*
X736471Y602651D02*
X738555D01*
X736547Y604451D02*
X738479D01*
X736586Y633251D02*
X738440D01*
X736590Y634151D02*
X738436D01*
X736610Y603551D02*
X738417D01*
X727976Y579251D02*
X736164D01*
X728766Y428951D02*
X735374D01*
X728846Y576551D02*
X735293D01*
X728970Y438851D02*
X735169D01*
X729091Y431651D02*
X735048D01*
X729197Y569351D02*
X734942D01*
X729258Y421751D02*
X734881D01*
X729631Y586451D02*
X734508D01*
X729754Y580151D02*
X734385D01*
X730034Y428051D02*
X734106D01*
X730069Y575651D02*
X734070D01*
X730126Y437951D02*
X734013D01*
X730183Y432551D02*
X733956D01*
X730236Y570251D02*
X733903D01*
X730266Y422651D02*
X733873D01*
X730463Y585551D02*
X733676D01*
X730530Y581051D02*
X733609D01*
X730685Y427151D02*
X733454D01*
X730705Y574751D02*
X733434D01*
X730737Y437051D02*
X733402D01*
X730769Y433451D02*
X733370D01*
X730798Y571151D02*
X733341D01*
X730815Y423551D02*
X733324D01*
X730923Y584651D02*
X733216D01*
X730958Y581951D02*
X733181D01*
X731037Y426251D02*
X733102D01*
X731047Y573851D02*
X733092D01*
X731062Y436151D02*
X733077D01*
X731077Y434351D02*
X733062D01*
X731090Y572051D02*
X733049D01*
X731097Y424451D02*
X733042D01*
X731139Y583751D02*
X733000D01*
X731150Y582851D02*
X732989D01*
X731167Y425351D02*
X732972D01*
X731168Y572951D02*
X732971D01*
X731169Y435251D02*
X732970D01*
X723020Y629651D02*
X732006D01*
X723260Y637751D02*
X731767D01*
X724128Y599951D02*
X730898D01*
X724757Y607151D02*
X730269D01*
X725115Y630551D02*
X729911D01*
X725160Y636851D02*
X729867D01*
X725443Y600851D02*
X729584D01*
X725738Y606251D02*
X729288D01*
X725928Y631451D02*
X729098D01*
X725953Y635951D02*
X729074D01*
X726110Y601751D02*
X728917D01*
X726275Y605351D02*
X728752D01*
X726378Y632351D02*
X728648D01*
X726391Y635051D02*
X728635D01*
X726471Y602651D02*
X728555D01*
X726547Y604451D02*
X728479D01*
X726586Y633251D02*
X728440D01*
X726590Y634151D02*
X728436D01*
X726610Y603551D02*
X728417D01*
X717976Y579251D02*
X726164D01*
X718766Y428951D02*
X725374D01*
X718846Y576551D02*
X725293D01*
X718970Y438851D02*
X725169D01*
X719091Y431651D02*
X725048D01*
X719197Y569351D02*
X724942D01*
X719258Y421751D02*
X724881D01*
X719631Y586451D02*
X724508D01*
X719754Y580151D02*
X724385D01*
X720034Y428051D02*
X724106D01*
X720069Y575651D02*
X724070D01*
X720126Y437951D02*
X724013D01*
X720183Y432551D02*
X723956D01*
X720236Y570251D02*
X723903D01*
X720266Y422651D02*
X723873D01*
X720463Y585551D02*
X723676D01*
X720530Y581051D02*
X723609D01*
X720685Y427151D02*
X723454D01*
X720705Y574751D02*
X723434D01*
X720737Y437051D02*
X723402D01*
X720769Y433451D02*
X723370D01*
X720798Y571151D02*
X723341D01*
X720815Y423551D02*
X723324D01*
X720923Y584651D02*
X723216D01*
X720958Y581951D02*
X723181D01*
X721037Y426251D02*
X723102D01*
X721047Y573851D02*
X723092D01*
X721062Y436151D02*
X723077D01*
X721077Y434351D02*
X723062D01*
X721090Y572051D02*
X723049D01*
X721097Y424451D02*
X723042D01*
X721139Y583751D02*
X723000D01*
X721150Y582851D02*
X722989D01*
X721167Y425351D02*
X722972D01*
X721168Y572951D02*
X722971D01*
X721169Y435251D02*
X722970D01*
X713020Y629651D02*
X722006D01*
X713260Y637751D02*
X721767D01*
X714128Y599951D02*
X720898D01*
X714757Y607151D02*
X720269D01*
X715115Y630551D02*
X719911D01*
X715160Y636851D02*
X719867D01*
X715443Y600851D02*
X719584D01*
X715738Y606251D02*
X719288D01*
X715928Y631451D02*
X719098D01*
X715953Y635951D02*
X719074D01*
X716110Y601751D02*
X718917D01*
X716275Y605351D02*
X718752D01*
X716378Y632351D02*
X718648D01*
X716391Y635051D02*
X718635D01*
X716471Y602651D02*
X718555D01*
X716547Y604451D02*
X718479D01*
X716586Y633251D02*
X718440D01*
X716590Y634151D02*
X718436D01*
X716610Y603551D02*
X718417D01*
X707976Y579251D02*
X716164D01*
X708766Y428951D02*
X715374D01*
X708846Y576551D02*
X715293D01*
X708970Y438851D02*
X715169D01*
X709091Y431651D02*
X715048D01*
X709197Y569351D02*
X714942D01*
X709258Y421751D02*
X714881D01*
X709631Y586451D02*
X714508D01*
X709754Y580151D02*
X714385D01*
X710034Y428051D02*
X714106D01*
X710069Y575651D02*
X714070D01*
X710126Y437951D02*
X714013D01*
X710183Y432551D02*
X713956D01*
X710236Y570251D02*
X713903D01*
X710266Y422651D02*
X713873D01*
X710463Y585551D02*
X713676D01*
X710530Y581051D02*
X713609D01*
X710685Y427151D02*
X713454D01*
X710705Y574751D02*
X713434D01*
X710737Y437051D02*
X713402D01*
X710769Y433451D02*
X713370D01*
X710798Y571151D02*
X713341D01*
X710815Y423551D02*
X713324D01*
X710923Y584651D02*
X713216D01*
X710958Y581951D02*
X713181D01*
X711037Y426251D02*
X713102D01*
X711047Y573851D02*
X713092D01*
X711062Y436151D02*
X713077D01*
X711077Y434351D02*
X713062D01*
X711090Y572051D02*
X713049D01*
X711097Y424451D02*
X713042D01*
X711139Y583751D02*
X713000D01*
X711150Y582851D02*
X712989D01*
X711167Y425351D02*
X712972D01*
X711168Y572951D02*
X712971D01*
X711169Y435251D02*
X712970D01*
X703020Y629651D02*
X712006D01*
X703260Y637751D02*
X711767D01*
X704128Y599951D02*
X710898D01*
X704757Y607151D02*
X710269D01*
X705115Y630551D02*
X709911D01*
X705160Y636851D02*
X709867D01*
X705443Y600851D02*
X709584D01*
X705738Y606251D02*
X709288D01*
X705928Y631451D02*
X709098D01*
X705953Y635951D02*
X709074D01*
X706110Y601751D02*
X708917D01*
X706275Y605351D02*
X708752D01*
X706378Y632351D02*
X708648D01*
X706391Y635051D02*
X708635D01*
X706471Y602651D02*
X708555D01*
X706547Y604451D02*
X708479D01*
X706586Y633251D02*
X708440D01*
X706590Y634151D02*
X708436D01*
X706610Y603551D02*
X708417D01*
X697976Y579251D02*
X706164D01*
X663659Y589151D02*
X705866D01*
X698766Y428951D02*
X705374D01*
X698846Y576551D02*
X705293D01*
X663659Y590051D02*
X705278D01*
X663659Y590951D02*
X705234D01*
X703659Y438851D02*
X705169D01*
X703659Y431651D02*
X705048D01*
X699197Y569351D02*
X704942D01*
X699258Y421751D02*
X704881D01*
X699631Y586451D02*
X704508D01*
X699754Y580151D02*
X704385D01*
X700034Y428051D02*
X704106D01*
X700069Y575651D02*
X704070D01*
X703659Y437951D02*
X704013D01*
X703659Y432551D02*
X703956D01*
X700236Y570251D02*
X703903D01*
X700266Y422651D02*
X703873D01*
X700463Y585551D02*
X703676D01*
X700530Y581051D02*
X703609D01*
X700685Y427151D02*
X703454D01*
X700705Y574751D02*
X703434D01*
X700798Y571151D02*
X703341D01*
X700815Y423551D02*
X703324D01*
X700923Y584651D02*
X703216D01*
X700958Y581951D02*
X703181D01*
X701037Y426251D02*
X703102D01*
X701047Y573851D02*
X703092D01*
X701090Y572051D02*
X703049D01*
X701097Y424451D02*
X703042D01*
X701139Y583751D02*
X703000D01*
X701150Y582851D02*
X702989D01*
X701167Y425351D02*
X702972D01*
X701168Y572951D02*
X702971D01*
X693020Y629651D02*
X702006D01*
X693260Y637751D02*
X701767D01*
X694128Y599951D02*
X700898D01*
X694757Y607151D02*
X700269D01*
X695115Y630551D02*
X699911D01*
X695160Y636851D02*
X699867D01*
X695443Y600851D02*
X699584D01*
X695738Y606251D02*
X699288D01*
X695928Y631451D02*
X699098D01*
X695953Y635951D02*
X699074D01*
X696110Y601751D02*
X698917D01*
X696275Y605351D02*
X698752D01*
X696378Y632351D02*
X698648D01*
X696391Y635051D02*
X698635D01*
X696471Y602651D02*
X698555D01*
X696547Y604451D02*
X698479D01*
X696586Y633251D02*
X698440D01*
X696590Y634151D02*
X698436D01*
X696610Y603551D02*
X698417D01*
X687976Y579251D02*
X696164D01*
X663659Y591851D02*
X695583D01*
X688766Y428951D02*
X695374D01*
X663642Y593651D02*
X695318D01*
X688846Y576551D02*
X695293D01*
X663659Y592751D02*
X695215D01*
X689197Y569351D02*
X694942D01*
X689258Y421751D02*
X694881D01*
X689631Y586451D02*
X694508D01*
X689754Y580151D02*
X694385D01*
X690034Y428051D02*
X694106D01*
X690069Y575651D02*
X694070D01*
X690236Y570251D02*
X693903D01*
X690266Y422651D02*
X693873D01*
X690463Y585551D02*
X693676D01*
X690530Y581051D02*
X693609D01*
X690685Y427151D02*
X693454D01*
X690705Y574751D02*
X693434D01*
X690798Y571151D02*
X693341D01*
X690815Y423551D02*
X693324D01*
X690923Y584651D02*
X693216D01*
X690958Y581951D02*
X693181D01*
X691037Y426251D02*
X693102D01*
X691047Y573851D02*
X693092D01*
X691090Y572051D02*
X693049D01*
X691097Y424451D02*
X693042D01*
X691139Y583751D02*
X693000D01*
X691150Y582851D02*
X692989D01*
X691167Y425351D02*
X692972D01*
X691168Y572951D02*
X692971D01*
X683020Y629651D02*
X692006D01*
X683260Y637751D02*
X691767D01*
X684128Y599951D02*
X690898D01*
X556342Y429851D02*
X690599D01*
X555442Y430751D02*
X690279D01*
X690183Y432551D02*
X690278D01*
X689091Y431651D02*
X690278D01*
X690126Y437951D02*
X690278D01*
X688970Y438851D02*
X690278D01*
X541399Y439751D02*
X690278D01*
X541398Y440651D02*
X690278D01*
X541193Y441551D02*
X690278D01*
X540748Y442451D02*
X690278D01*
X539943Y443351D02*
X690278D01*
X537937Y444251D02*
X690278D01*
X501678Y445151D02*
X690278D01*
X501809Y446051D02*
X690278D01*
X501740Y446951D02*
X690278D01*
X501459Y447851D02*
X690278D01*
X500913Y448751D02*
X690278D01*
X499908Y449651D02*
X690278D01*
X485754Y450551D02*
X690278D01*
X484854Y451451D02*
X690278D01*
X499153Y452351D02*
X690278D01*
X500571Y453251D02*
X690278D01*
X501269Y454151D02*
X690278D01*
X501650Y455051D02*
X690278D01*
X501804Y455951D02*
X690278D01*
X501758Y456851D02*
X690278D01*
X501502Y457751D02*
X690278D01*
X500990Y458651D02*
X690278D01*
X500058Y459551D02*
X690278D01*
X475854Y460451D02*
X690278D01*
X474954Y461351D02*
X690278D01*
X498851Y462251D02*
X690278D01*
X500464Y463151D02*
X690278D01*
X501210Y464051D02*
X690278D01*
X501620Y464951D02*
X690278D01*
X501797Y465851D02*
X690278D01*
X501773Y466751D02*
X690278D01*
X501542Y467651D02*
X690278D01*
X501063Y468551D02*
X690278D01*
X500196Y469451D02*
X690278D01*
X478850Y470351D02*
X690278D01*
X479776Y471251D02*
X690278D01*
X498420Y472151D02*
X690278D01*
X500350Y473051D02*
X690278D01*
X554286Y473951D02*
X690278D01*
X555952Y474851D02*
X690278D01*
X556937Y475751D02*
X690278D01*
X557613Y476651D02*
X690278D01*
X590619Y477551D02*
X690278D01*
X591664Y478451D02*
X690278D01*
X592229Y479351D02*
X690278D01*
X592523Y480251D02*
X690278D01*
X592603Y481151D02*
X690278D01*
X592483Y482051D02*
X690278D01*
X592144Y482951D02*
X690278D01*
X591510Y483851D02*
X690278D01*
X590296Y484751D02*
X690278D01*
X586320Y485651D02*
X690278D01*
X585420Y486551D02*
X690278D01*
X584520Y487451D02*
X690278D01*
X583620Y488351D02*
X690278D01*
X582720Y489251D02*
X690278D01*
X581820Y490151D02*
X690278D01*
X580830Y491051D02*
X690278D01*
X577838Y491951D02*
X690278D01*
X578015Y492851D02*
X690278D01*
X578672Y493751D02*
X690278D01*
X578944Y494651D02*
X690278D01*
X578938Y495551D02*
X690278D01*
X578650Y496451D02*
X690278D01*
X577968Y497351D02*
X690278D01*
X548271Y498251D02*
X690278D01*
X549926Y499151D02*
X690278D01*
X550679Y500051D02*
X690278D01*
X551095Y500951D02*
X690278D01*
X551276Y501851D02*
X690278D01*
X551255Y502751D02*
X690278D01*
X551029Y503651D02*
X690278D01*
X684757Y607151D02*
X690269D01*
X685115Y630551D02*
X689911D01*
X550555Y504551D02*
X689876D01*
X685160Y636851D02*
X689867D01*
X685443Y600851D02*
X689584D01*
X685738Y606251D02*
X689288D01*
X685928Y631451D02*
X689098D01*
X685953Y635951D02*
X689074D01*
X549698Y505451D02*
X688976D01*
X686110Y601751D02*
X688917D01*
X686275Y605351D02*
X688752D01*
X686378Y632351D02*
X688648D01*
X686391Y635051D02*
X688635D01*
X686471Y602651D02*
X688555D01*
X686547Y604451D02*
X688479D01*
X686586Y633251D02*
X688440D01*
X686590Y634151D02*
X688436D01*
X686610Y603551D02*
X688417D01*
X501808Y506351D02*
X688076D01*
X501671Y507251D02*
X687175D01*
X501312Y508151D02*
X686275D01*
X677976Y579251D02*
X686164D01*
X660486Y597251D02*
X685804D01*
X663186Y594551D02*
X685733D01*
X500647Y509051D02*
X685375D01*
X678766Y428951D02*
X685374D01*
X678846Y576551D02*
X685293D01*
X661386Y596351D02*
X685262D01*
X662286Y595451D02*
X685245D01*
X678970Y438851D02*
X685169D01*
X679091Y431651D02*
X685048D01*
X679197Y569351D02*
X684942D01*
X679258Y421751D02*
X684881D01*
X679631Y586451D02*
X684508D01*
X499342Y509951D02*
X684475D01*
X679754Y580151D02*
X684385D01*
X680034Y428051D02*
X684106D01*
X680069Y575651D02*
X684070D01*
X680126Y437951D02*
X684013D01*
X680183Y432551D02*
X683956D01*
X680236Y570251D02*
X683903D01*
X680266Y422651D02*
X683873D01*
X680463Y585551D02*
X683676D01*
X680530Y581051D02*
X683609D01*
X489881Y510851D02*
X683575D01*
X680685Y427151D02*
X683454D01*
X680705Y574751D02*
X683434D01*
X680737Y437051D02*
X683402D01*
X680769Y433451D02*
X683370D01*
X680798Y571151D02*
X683341D01*
X680815Y423551D02*
X683324D01*
X680923Y584651D02*
X683216D01*
X680958Y581951D02*
X683181D01*
X681037Y426251D02*
X683102D01*
X681047Y573851D02*
X683092D01*
X681062Y436151D02*
X683077D01*
X681077Y434351D02*
X683062D01*
X681090Y572051D02*
X683049D01*
X681097Y424451D02*
X683042D01*
X681139Y583751D02*
X683000D01*
X681150Y582851D02*
X682989D01*
X681167Y425351D02*
X682972D01*
X681168Y572951D02*
X682971D01*
X681169Y435251D02*
X682970D01*
X673020Y629651D02*
X682006D01*
X673260Y637751D02*
X681767D01*
X673468Y656651D02*
X681298D01*
X676300Y599951D02*
X680898D01*
X676525Y607151D02*
X680269D01*
X675115Y630551D02*
X679911D01*
X674888Y649451D02*
X679879D01*
X675160Y636851D02*
X679867D01*
X675119Y655751D02*
X679647D01*
X676613Y600851D02*
X679584D01*
X676613Y606251D02*
X679288D01*
X675928Y631451D02*
X679098D01*
X675953Y635951D02*
X679074D01*
X675746Y650351D02*
X679021D01*
X676613Y601751D02*
X678917D01*
X675872Y654851D02*
X678894D01*
X676613Y605351D02*
X678752D01*
X676378Y632351D02*
X678648D01*
X676391Y635051D02*
X678635D01*
X676613Y602651D02*
X678555D01*
X676220Y651251D02*
X678547D01*
X676287Y653951D02*
X678480D01*
X676613Y604451D02*
X678479D01*
X676586Y633251D02*
X678440D01*
X676590Y634151D02*
X678436D01*
X676613Y603551D02*
X678417D01*
X676447Y652151D02*
X678320D01*
X676468Y653051D02*
X678298D01*
X667976Y579251D02*
X676164D01*
X668766Y428951D02*
X675374D01*
X668846Y576551D02*
X675293D01*
X668970Y438851D02*
X675169D01*
X669091Y431651D02*
X675048D01*
X669197Y569351D02*
X674942D01*
X669258Y421751D02*
X674881D01*
X669631Y586451D02*
X674508D01*
X669754Y580151D02*
X674385D01*
X670034Y428051D02*
X674106D01*
X670069Y575651D02*
X674070D01*
X670126Y437951D02*
X674013D01*
X670183Y432551D02*
X673956D01*
X670236Y570251D02*
X673903D01*
X670266Y422651D02*
X673873D01*
X670463Y585551D02*
X673676D01*
X670530Y581051D02*
X673609D01*
X670685Y427151D02*
X673454D01*
X670705Y574751D02*
X673434D01*
X670737Y437051D02*
X673402D01*
X670769Y433451D02*
X673370D01*
X670798Y571151D02*
X673341D01*
X670815Y423551D02*
X673324D01*
X670923Y584651D02*
X673216D01*
X670958Y581951D02*
X673181D01*
X671037Y426251D02*
X673102D01*
X671047Y573851D02*
X673092D01*
X671062Y436151D02*
X673077D01*
X671077Y434351D02*
X673062D01*
X671090Y572051D02*
X673049D01*
X671097Y424451D02*
X673042D01*
X671139Y583751D02*
X673000D01*
X671150Y582851D02*
X672989D01*
X671167Y425351D02*
X672972D01*
X671168Y572951D02*
X672971D01*
X671169Y435251D02*
X672970D01*
X529260Y629651D02*
X672006D01*
X511207Y637751D02*
X671767D01*
X508519Y656651D02*
X671298D01*
X528294Y630551D02*
X669911D01*
X538533Y649451D02*
X669879D01*
X511658Y636851D02*
X669867D01*
X489925Y655751D02*
X669647D01*
X526684Y631451D02*
X669098D01*
X511868Y635951D02*
X669074D01*
X511217Y650351D02*
X669021D01*
X490825Y654851D02*
X668894D01*
X485082Y599951D02*
X668726D01*
X510449Y632351D02*
X668648D01*
X511873Y635051D02*
X668635D01*
X510409Y651251D02*
X668547D01*
X659972Y607151D02*
X668501D01*
X491725Y653951D02*
X668480D01*
X511239Y633251D02*
X668440D01*
X511675Y634151D02*
X668436D01*
X660746Y606251D02*
X668413D01*
X660675Y601751D02*
X668413D01*
X659841Y600851D02*
X668413D01*
X508375Y652151D02*
X668320D01*
X492625Y653051D02*
X668298D01*
X663659Y579251D02*
X666164D01*
X658766Y428951D02*
X665374D01*
X658846Y576551D02*
X665293D01*
X658970Y438851D02*
X665169D01*
X659091Y431651D02*
X665048D01*
X659197Y569351D02*
X664942D01*
X659258Y421751D02*
X664881D01*
X663659Y586451D02*
X664508D01*
X663659Y580151D02*
X664385D01*
X660034Y428051D02*
X664106D01*
X660069Y575651D02*
X664070D01*
X660126Y437951D02*
X664013D01*
X660183Y432551D02*
X663956D01*
X660236Y570251D02*
X663903D01*
X660266Y422651D02*
X663873D01*
X663659Y585551D02*
X663676D01*
X660685Y427151D02*
X663454D01*
X660705Y574751D02*
X663434D01*
X660737Y437051D02*
X663402D01*
X660769Y433451D02*
X663370D01*
X660798Y571151D02*
X663341D01*
X660815Y423551D02*
X663324D01*
X661037Y426251D02*
X663102D01*
X661047Y573851D02*
X663092D01*
X661062Y436151D02*
X663077D01*
X661077Y434351D02*
X663062D01*
X661090Y572051D02*
X663049D01*
X661097Y424451D02*
X663042D01*
X661167Y425351D02*
X662972D01*
X661168Y572951D02*
X662971D01*
X661169Y435251D02*
X662970D01*
X568270Y608051D02*
X656364D01*
X648766Y428951D02*
X655374D01*
X505225Y640451D02*
X655329D01*
X539035Y647651D02*
X655313D01*
X648846Y576551D02*
X655293D01*
X648970Y438851D02*
X655169D01*
X649091Y431651D02*
X655048D01*
X649197Y569351D02*
X654942D01*
X649258Y421751D02*
X654881D01*
X485982Y600851D02*
X654726D01*
X567816Y607151D02*
X654595D01*
X504325Y641351D02*
X654202D01*
X538514Y646751D02*
X654194D01*
X650034Y428051D02*
X654106D01*
X650069Y575651D02*
X654070D01*
X650126Y437951D02*
X654013D01*
X650183Y432551D02*
X653956D01*
X650236Y570251D02*
X653903D01*
X486882Y601751D02*
X653892D01*
X650266Y422651D02*
X653873D01*
X566996Y606251D02*
X653821D01*
X503425Y642251D02*
X653602D01*
X511229Y645851D02*
X653598D01*
X650685Y427151D02*
X653454D01*
X650705Y574751D02*
X653434D01*
X487782Y602651D02*
X653431D01*
X650737Y437051D02*
X653402D01*
X564803Y605351D02*
X653394D01*
X650769Y433451D02*
X653370D01*
X650798Y571151D02*
X653341D01*
X650815Y423551D02*
X653324D01*
X502525Y643151D02*
X653284D01*
X510430Y644951D02*
X653282D01*
X488682Y603551D02*
X653215D01*
X489582Y604451D02*
X653203D01*
X508487Y644051D02*
X653183D01*
X651037Y426251D02*
X653102D01*
X651047Y573851D02*
X653092D01*
X651062Y436151D02*
X653077D01*
X651077Y434351D02*
X653062D01*
X651090Y572051D02*
X653049D01*
X651097Y424451D02*
X653042D01*
X651167Y425351D02*
X652972D01*
X651168Y572951D02*
X652971D01*
X651169Y435251D02*
X652970D01*
X599761Y577451D02*
X651247D01*
X599761Y578351D02*
X650805D01*
X650463Y585551D02*
X650790D01*
X650530Y581051D02*
X650790D01*
X649754Y580151D02*
X650790D01*
X647976Y579251D02*
X650790D01*
X649631Y586451D02*
X650498D01*
X602922Y587351D02*
X649598D01*
X637976Y579251D02*
X646164D01*
X638766Y428951D02*
X645374D01*
X638846Y576551D02*
X645293D01*
X638970Y438851D02*
X645169D01*
X639091Y431651D02*
X645048D01*
X639197Y569351D02*
X644942D01*
X639258Y421751D02*
X644881D01*
X639631Y586451D02*
X644508D01*
X639754Y580151D02*
X644385D01*
X640034Y428051D02*
X644106D01*
X640069Y575651D02*
X644070D01*
X640126Y437951D02*
X644013D01*
X640183Y432551D02*
X643956D01*
X640236Y570251D02*
X643903D01*
X640266Y422651D02*
X643873D01*
X640463Y585551D02*
X643676D01*
X640530Y581051D02*
X643609D01*
X640685Y427151D02*
X643454D01*
X640705Y574751D02*
X643434D01*
X640737Y437051D02*
X643402D01*
X640769Y433451D02*
X643370D01*
X640798Y571151D02*
X643341D01*
X640815Y423551D02*
X643324D01*
X640923Y584651D02*
X643216D01*
X640958Y581951D02*
X643181D01*
X641037Y426251D02*
X643102D01*
X641047Y573851D02*
X643092D01*
X641062Y436151D02*
X643077D01*
X641077Y434351D02*
X643062D01*
X641090Y572051D02*
X643049D01*
X641097Y424451D02*
X643042D01*
X641139Y583751D02*
X643000D01*
X641150Y582851D02*
X642989D01*
X641167Y425351D02*
X642972D01*
X641168Y572951D02*
X642971D01*
X641169Y435251D02*
X642970D01*
X627976Y579251D02*
X636164D01*
X628766Y428951D02*
X635374D01*
X628846Y576551D02*
X635293D01*
X628970Y438851D02*
X635169D01*
X629091Y431651D02*
X635048D01*
X629197Y569351D02*
X634942D01*
X629258Y421751D02*
X634881D01*
X629631Y586451D02*
X634508D01*
X629754Y580151D02*
X634385D01*
X630034Y428051D02*
X634106D01*
X630069Y575651D02*
X634070D01*
X630126Y437951D02*
X634013D01*
X630183Y432551D02*
X633956D01*
X630236Y570251D02*
X633903D01*
X630266Y422651D02*
X633873D01*
X630463Y585551D02*
X633676D01*
X630530Y581051D02*
X633609D01*
X630685Y427151D02*
X633454D01*
X630705Y574751D02*
X633434D01*
X630737Y437051D02*
X633402D01*
X630769Y433451D02*
X633370D01*
X630798Y571151D02*
X633341D01*
X630815Y423551D02*
X633324D01*
X630923Y584651D02*
X633216D01*
X630958Y581951D02*
X633181D01*
X631037Y426251D02*
X633102D01*
X631047Y573851D02*
X633092D01*
X631062Y436151D02*
X633077D01*
X631077Y434351D02*
X633062D01*
X631090Y572051D02*
X633049D01*
X631097Y424451D02*
X633042D01*
X631139Y583751D02*
X633000D01*
X631150Y582851D02*
X632989D01*
X631167Y425351D02*
X632972D01*
X631168Y572951D02*
X632971D01*
X631169Y435251D02*
X632970D01*
X617976Y579251D02*
X626164D01*
X618766Y428951D02*
X625374D01*
X618846Y576551D02*
X625293D01*
X618970Y438851D02*
X625169D01*
X619091Y431651D02*
X625048D01*
X619197Y569351D02*
X624942D01*
X619258Y421751D02*
X624881D01*
X619631Y586451D02*
X624508D01*
X619754Y580151D02*
X624385D01*
X620034Y428051D02*
X624106D01*
X620069Y575651D02*
X624070D01*
X620126Y437951D02*
X624013D01*
X620183Y432551D02*
X623956D01*
X620236Y570251D02*
X623903D01*
X620266Y422651D02*
X623873D01*
X620463Y585551D02*
X623676D01*
X620530Y581051D02*
X623609D01*
X620685Y427151D02*
X623454D01*
X620705Y574751D02*
X623434D01*
X620737Y437051D02*
X623402D01*
X620769Y433451D02*
X623370D01*
X620798Y571151D02*
X623341D01*
X620815Y423551D02*
X623324D01*
X620923Y584651D02*
X623216D01*
X620958Y581951D02*
X623181D01*
X621037Y426251D02*
X623102D01*
X621047Y573851D02*
X623092D01*
X621062Y436151D02*
X623077D01*
X621077Y434351D02*
X623062D01*
X621090Y572051D02*
X623049D01*
X621097Y424451D02*
X623042D01*
X621139Y583751D02*
X623000D01*
X621150Y582851D02*
X622989D01*
X621167Y425351D02*
X622972D01*
X621168Y572951D02*
X622971D01*
X621169Y435251D02*
X622970D01*
X607976Y579251D02*
X616164D01*
X610890Y428951D02*
X615374D01*
X608846Y576551D02*
X615293D01*
X608970Y438851D02*
X615169D01*
X609091Y431651D02*
X615048D01*
X609197Y569351D02*
X614942D01*
X611065Y421751D02*
X614881D01*
X609631Y586451D02*
X614508D01*
X609754Y580151D02*
X614385D01*
X611170Y428051D02*
X614106D01*
X610069Y575651D02*
X614070D01*
X610126Y437951D02*
X614013D01*
X610183Y432551D02*
X613956D01*
X610236Y570251D02*
X613903D01*
X611170Y422651D02*
X613873D01*
X610463Y585551D02*
X613676D01*
X610530Y581051D02*
X613609D01*
X611170Y427151D02*
X613454D01*
X610705Y574751D02*
X613434D01*
X610737Y437051D02*
X613402D01*
X610769Y433451D02*
X613370D01*
X610798Y571151D02*
X613341D01*
X611170Y423551D02*
X613324D01*
X610923Y584651D02*
X613216D01*
X610958Y581951D02*
X613181D01*
X611170Y426251D02*
X613102D01*
X611047Y573851D02*
X613092D01*
X611062Y436151D02*
X613077D01*
X611077Y434351D02*
X613062D01*
X611090Y572051D02*
X613049D01*
X611170Y424451D02*
X613042D01*
X611139Y583751D02*
X613000D01*
X611150Y582851D02*
X612989D01*
X611170Y425351D02*
X612972D01*
X611168Y572951D02*
X612971D01*
X611169Y435251D02*
X612970D01*
X599761Y579251D02*
X606164D01*
X599761Y576551D02*
X605293D01*
X541196Y438851D02*
X605169D01*
X554542Y431651D02*
X605048D01*
X599761Y569351D02*
X604942D01*
X602022Y586451D02*
X604508D01*
X599761Y580151D02*
X604385D01*
X599761Y575651D02*
X604070D01*
X540753Y437951D02*
X604013D01*
X553642Y432551D02*
X603956D01*
X599761Y570251D02*
X603903D01*
X601122Y585551D02*
X603676D01*
X599761Y581051D02*
X603609D01*
X599761Y574751D02*
X603434D01*
X539952Y437051D02*
X603402D01*
X552742Y433451D02*
X603370D01*
X599761Y571151D02*
X603341D01*
X557242Y428951D02*
X603249D01*
X600222Y584651D02*
X603216D01*
X599761Y581951D02*
X603181D01*
X599761Y573851D02*
X603092D01*
X537985Y436151D02*
X603077D01*
X564442Y421751D02*
X603074D01*
X551842Y434351D02*
X603062D01*
X599761Y572051D02*
X603049D01*
X599761Y583751D02*
X603000D01*
X599761Y582851D02*
X602989D01*
X599761Y572951D02*
X602971D01*
X550829Y435251D02*
X602970D01*
X558142Y428051D02*
X602970D01*
X559042Y427151D02*
X602970D01*
X559942Y426251D02*
X602970D01*
X560842Y425351D02*
X602970D01*
X561742Y424451D02*
X602970D01*
X562642Y423551D02*
X602970D01*
X563542Y422651D02*
X602970D01*
X566582Y598151D02*
X590296D01*
X567481Y597251D02*
X589396D01*
X567977Y596351D02*
X588496D01*
X568221Y595451D02*
X587596D01*
X568257Y594551D02*
X586696D01*
X558084Y477551D02*
X586389D01*
X568091Y593651D02*
X585796D01*
X558396Y478451D02*
X585344D01*
X567696Y592751D02*
X584896D01*
X558570Y479351D02*
X584779D01*
X578229Y482051D02*
X584525D01*
X558619Y480251D02*
X584485D01*
X576895Y481151D02*
X584405D01*
X578768Y482951D02*
X584212D01*
X566976Y591851D02*
X583996D01*
X578967Y483851D02*
X583312D01*
X575849Y590951D02*
X583096D01*
X578894Y484751D02*
X582412D01*
X577472Y590051D02*
X582392D01*
X563490Y536051D02*
X582286D01*
X563175Y536951D02*
X582286D01*
X562580Y537851D02*
X582286D01*
X561463Y538751D02*
X582286D01*
X482911Y539651D02*
X582286D01*
X482911Y540551D02*
X582286D01*
X499791Y541451D02*
X582286D01*
X500854Y542351D02*
X582286D01*
X576366Y543251D02*
X582286D01*
X577665Y544151D02*
X582286D01*
X578327Y545051D02*
X582286D01*
X578686Y545951D02*
X582286D01*
X578821Y546851D02*
X582286D01*
X578757Y547751D02*
X582286D01*
X578481Y548651D02*
X582286D01*
X577941Y549551D02*
X582286D01*
X576951Y550451D02*
X582286D01*
X499611Y551351D02*
X582286D01*
X500767Y552251D02*
X582286D01*
X501379Y553151D02*
X582286D01*
X507876Y554051D02*
X582286D01*
X508776Y554951D02*
X582286D01*
X561575Y555851D02*
X582286D01*
X562641Y556751D02*
X582286D01*
X563216Y557651D02*
X582286D01*
X563516Y558551D02*
X582286D01*
X563602Y559451D02*
X582286D01*
X563488Y560351D02*
X582286D01*
X563155Y561251D02*
X582286D01*
X562533Y562151D02*
X582286D01*
X561346Y563051D02*
X582286D01*
X501679Y563951D02*
X582286D01*
X501809Y564851D02*
X582286D01*
X501739Y565751D02*
X582286D01*
X501457Y566651D02*
X582286D01*
X544739Y567551D02*
X582286D01*
X545946Y568451D02*
X582286D01*
X546744Y569351D02*
X582286D01*
X547301Y570251D02*
X582286D01*
X547681Y571151D02*
X582286D01*
X547916Y572051D02*
X582286D01*
X548022Y572951D02*
X582286D01*
X548003Y573851D02*
X582286D01*
X547861Y574751D02*
X582286D01*
X547585Y575651D02*
X582286D01*
X547157Y576551D02*
X582286D01*
X546538Y577451D02*
X582286D01*
X545646Y578351D02*
X582286D01*
X544232Y579251D02*
X582286D01*
X522223Y580151D02*
X582286D01*
X523030Y581051D02*
X582286D01*
X523475Y581951D02*
X582286D01*
X523681Y582851D02*
X582286D01*
X577215Y583751D02*
X582286D01*
X578079Y584651D02*
X582286D01*
X578557Y585551D02*
X582286D01*
X578786Y586451D02*
X582286D01*
X578810Y587351D02*
X582286D01*
X578632Y588251D02*
X582286D01*
X578220Y589151D02*
X582286D01*
X563588Y535151D02*
X581705D01*
X578527Y485651D02*
X581512D01*
X563487Y534251D02*
X580805D01*
X577691Y486551D02*
X580612D01*
X563169Y533351D02*
X579905D01*
X578128Y487451D02*
X579712D01*
X562568Y532451D02*
X579005D01*
X561438Y531551D02*
X578105D01*
X487992Y530651D02*
X577205D01*
X488892Y529751D02*
X576305D01*
X489792Y528851D02*
X575405D01*
X558545Y481151D02*
X574916D01*
X553694Y486551D02*
X574120D01*
X483147Y491951D02*
X573973D01*
X501643Y497351D02*
X573843D01*
X500092Y492851D02*
X573796D01*
X528856Y487451D02*
X573684D01*
X565472Y590951D02*
X573600D01*
X558343Y482051D02*
X573582D01*
X555688Y485651D02*
X573284D01*
X501803Y496451D02*
X573161D01*
X501007Y493751D02*
X573139D01*
X560981Y543251D02*
X573083D01*
X558001Y482951D02*
X573043D01*
X556764Y484751D02*
X572917D01*
X501761Y495551D02*
X572873D01*
X501512Y494651D02*
X572867D01*
X557492Y483851D02*
X572844D01*
X561829Y550451D02*
X572498D01*
X523682Y583751D02*
X572234D01*
X515182Y590051D02*
X571976D01*
X562377Y544151D02*
X571784D01*
X562771Y549551D02*
X571508D01*
X523480Y584651D02*
X571370D01*
X514282Y589151D02*
X571229D01*
X563068Y545051D02*
X571122D01*
X523038Y585551D02*
X570892D01*
X513382Y588251D02*
X570817D01*
X522238Y586451D02*
X570662D01*
X520284Y587351D02*
X570639D01*
X524803Y605351D02*
X564016D01*
X525221Y613451D02*
X563598D01*
X511375Y418151D02*
X563234D01*
X525472Y590951D02*
X562861D01*
X510756Y419051D02*
X562334D01*
X526996Y606251D02*
X561823D01*
X526582Y598151D02*
X561752D01*
X527071Y612551D02*
X561748D01*
X509581Y419951D02*
X561434D01*
X526976Y591851D02*
X561358D01*
X527816Y607151D02*
X561003D01*
X527857Y611651D02*
X560962D01*
X527481Y597251D02*
X560852D01*
X527696Y592751D02*
X560637D01*
X474672Y420851D02*
X560534D01*
X535229Y596351D02*
X560356D01*
X535558Y593651D02*
X560242D01*
X535881Y595451D02*
X560113D01*
X535959Y594551D02*
X560077D01*
X475572Y421751D02*
X559634D01*
X476472Y422651D02*
X558734D01*
X520981Y543251D02*
X558024D01*
X477372Y423551D02*
X557834D01*
X521346Y563051D02*
X557659D01*
X521438Y531551D02*
X557539D01*
X521463Y538751D02*
X557514D01*
X521575Y555851D02*
X557430D01*
X521829Y550451D02*
X557176D01*
X478272Y424451D02*
X556934D01*
X522377Y544151D02*
X556629D01*
X522533Y562151D02*
X556473D01*
X522568Y532451D02*
X556409D01*
X522580Y537851D02*
X556397D01*
X522641Y556751D02*
X556364D01*
X522771Y549551D02*
X556235D01*
X508701Y425351D02*
X556034D01*
X523068Y545051D02*
X555937D01*
X523155Y561251D02*
X555850D01*
X523169Y533351D02*
X555808D01*
X523175Y536951D02*
X555801D01*
X523216Y557651D02*
X555789D01*
X523288Y548651D02*
X555718D01*
X523446Y545951D02*
X555560D01*
X523488Y560351D02*
X555517D01*
X523487Y534251D02*
X555490D01*
X523516Y558551D02*
X555489D01*
X523490Y536051D02*
X555487D01*
X523547Y547751D02*
X555459D01*
X523597Y546851D02*
X555409D01*
X523602Y559451D02*
X555403D01*
X523588Y535151D02*
X555388D01*
X510423Y426251D02*
X555134D01*
X511189Y427151D02*
X554234D01*
X511612Y428051D02*
X553334D01*
X511799Y428951D02*
X552434D01*
X511783Y429851D02*
X551534D01*
X511563Y430751D02*
X550634D01*
X527956Y486551D02*
X550322D01*
X511097Y431651D02*
X549734D01*
X501146Y473951D02*
X549729D01*
X527056Y485651D02*
X548328D01*
X501587Y474851D02*
X548064D01*
X526097Y484751D02*
X547252D01*
X501788Y475751D02*
X547079D01*
X539183Y483851D02*
X546524D01*
X539381Y476651D02*
X546403D01*
X538271Y498251D02*
X546112D01*
X540360Y482951D02*
X546015D01*
X540455Y477551D02*
X545932D01*
X540980Y482051D02*
X545673D01*
X541032Y478451D02*
X545620D01*
X539698Y505451D02*
X544685D01*
X539926Y499151D02*
X544458D01*
X540555Y504551D02*
X543828D01*
X540679Y500051D02*
X543704D01*
X541029Y503651D02*
X543355D01*
X541095Y500951D02*
X543289D01*
X541255Y502751D02*
X543128D01*
X541276Y501851D02*
X543107D01*
X520203Y579251D02*
X538603D01*
X500909Y567551D02*
X538096D01*
X503482Y578351D02*
X537189D01*
X499900Y568451D02*
X536888D01*
X525317Y444251D02*
X536709D01*
X525759Y436151D02*
X536661D01*
X502582Y577451D02*
X536297D01*
X501255Y498251D02*
X536112D01*
X520682Y569351D02*
X536091D01*
X528270Y608051D02*
X535937D01*
X528292Y610751D02*
X535838D01*
X522114Y576551D02*
X535678D01*
X522339Y570251D02*
X535534D01*
X526742Y483851D02*
X535463D01*
X528481Y608951D02*
X535384D01*
X528488Y609851D02*
X535361D01*
X527046Y476651D02*
X535265D01*
X522971Y575651D02*
X535250D01*
X523093Y571151D02*
X535154D01*
X527524Y443351D02*
X534703D01*
X527603Y437051D02*
X534694D01*
X501744Y505451D02*
X534685D01*
X500547Y499151D02*
X534458D01*
X527951Y482951D02*
X534285D01*
X528096Y477551D02*
X534191D01*
X528345Y442451D02*
X533898D01*
X528388Y437951D02*
X533893D01*
X501470Y504551D02*
X533828D01*
X499089Y500051D02*
X533704D01*
X528582Y482051D02*
X533666D01*
X528663Y478451D02*
X533613D01*
X500931Y503651D02*
X533355D01*
X528920Y481151D02*
X533335D01*
X528957Y479351D02*
X533311D01*
X483147Y500951D02*
X533289D01*
X529039Y480251D02*
X533223D01*
X499945Y502751D02*
X533128D01*
X483147Y501851D02*
X533107D01*
X483147Y491051D02*
X527739D01*
X498767Y490151D02*
X526748D01*
X500438Y489251D02*
X525848D01*
X501195Y488351D02*
X524948D01*
X501324Y444251D02*
X524563D01*
X394801Y436151D02*
X524120D01*
X490482Y605351D02*
X524016D01*
X510694Y613451D02*
X523598D01*
X501079Y483851D02*
X523137D01*
X516082Y590951D02*
X522861D01*
X501785Y476651D02*
X522833D01*
X394801Y618851D02*
X522776D01*
X500670Y443351D02*
X522355D01*
X394801Y437051D02*
X522276D01*
X500226Y482951D02*
X521929D01*
X508572Y631451D02*
X521904D01*
X491382Y606251D02*
X521823D01*
X501579Y477551D02*
X521784D01*
X500316Y598151D02*
X521752D01*
X511375Y612551D02*
X521748D01*
X499395Y442451D02*
X521534D01*
X394801Y437951D02*
X521491D01*
X516982Y591851D02*
X521358D01*
X483147Y482051D02*
X521297D01*
X501131Y478451D02*
X521217D01*
X510086Y607151D02*
X521003D01*
X511745Y611651D02*
X520962D01*
X483147Y481151D02*
X520959D01*
X500322Y479351D02*
X520922D01*
X501128Y597251D02*
X520852D01*
X498271Y480251D02*
X520840D01*
X510217Y619751D02*
X520677D01*
X517882Y592751D02*
X520637D01*
X511045Y608051D02*
X520549D01*
X511890Y610751D02*
X520527D01*
X511570Y608951D02*
X520338D01*
X511835Y609851D02*
X520331D01*
X394801Y630551D02*
X520294D01*
X511113Y620651D02*
X519579D01*
X394801Y629651D02*
X519328D01*
X504382Y579251D02*
X519010D01*
X512482Y587351D02*
X518928D01*
X511608Y621551D02*
X518838D01*
X394801Y628751D02*
X518663D01*
X480630Y569351D02*
X518531D01*
X511850Y622451D02*
X518321D01*
X394801Y627851D02*
X518200D01*
X501427Y543251D02*
X518024D01*
X511885Y623351D02*
X517972D01*
X509086Y626951D02*
X517895D01*
X511718Y624251D02*
X517764D01*
X510599Y626051D02*
X517726D01*
X511322Y625151D02*
X517683D01*
X501327Y563051D02*
X517659D01*
X499952Y531551D02*
X517539D01*
X499331Y538751D02*
X517514D01*
X509676Y555851D02*
X517430D01*
X482911Y550451D02*
X517176D01*
X501682Y576551D02*
X517098D01*
X505282Y580151D02*
X516990D01*
X511582Y586451D02*
X516974D01*
X479730Y570251D02*
X516873D01*
X501577Y596351D02*
X516790D01*
X509132Y544151D02*
X516629D01*
X500675Y562151D02*
X516473D01*
X500935Y532451D02*
X516409D01*
X500643Y537851D02*
X516397D01*
X510576Y556751D02*
X516364D01*
X501757Y575651D02*
X516242D01*
X482911Y549551D02*
X516235D01*
X506182Y581051D02*
X516183D01*
X510682Y585551D02*
X516175D01*
X499166Y571151D02*
X516119D01*
X510032Y545051D02*
X515937D01*
X499406Y561251D02*
X515850D01*
X508985Y533351D02*
X515808D01*
X501309Y536951D02*
X515801D01*
X511476Y557651D02*
X515789D01*
X501785Y595451D02*
X515774D01*
X501805Y574751D02*
X515769D01*
X507082Y581951D02*
X515737D01*
X509782Y584651D02*
X515733D01*
X500576Y572051D02*
X515704D01*
X501652Y573851D02*
X515542D01*
X507982Y582851D02*
X515532D01*
X508882Y583751D02*
X515530D01*
X501272Y572951D02*
X515522D01*
X501788Y594551D02*
X514874D01*
X501588Y593651D02*
X513974D01*
X501150Y592751D02*
X513074D01*
X500356Y591851D02*
X512174D01*
X498448Y590951D02*
X511274D01*
X475182Y590051D02*
X510374D01*
X474282Y589151D02*
X509474D01*
X482911Y560351D02*
X509367D01*
X499546Y548651D02*
X509015D01*
X500189Y588251D02*
X508574D01*
X482911Y559451D02*
X508467D01*
X500737Y547751D02*
X507924D01*
X501059Y587351D02*
X507674D01*
X499733Y558551D02*
X507567D01*
X506125Y639551D02*
X507337D01*
X468335Y664751D02*
X507255D01*
X493525Y652151D02*
X507215D01*
X501625Y644051D02*
X507103D01*
X489025Y656651D02*
X507072D01*
X501362Y546851D02*
X507024D01*
X468572Y631451D02*
X507018D01*
X501540Y586451D02*
X506774D01*
X479172Y425351D02*
X506732D01*
X468740Y406451D02*
X506694D01*
X500826Y557651D02*
X506667D01*
X469086Y626951D02*
X506505D01*
X469336Y614351D02*
X506254D01*
X501772Y585551D02*
X505874D01*
X473772Y419951D02*
X505852D01*
X501411Y556751D02*
X505767D01*
X469770Y412751D02*
X505663D01*
X492282Y607151D02*
X505505D01*
X470217Y619751D02*
X505374D01*
X470242Y399251D02*
X505191D01*
X470402Y663851D02*
X505188D01*
X494425Y651251D02*
X505181D01*
X500725Y644951D02*
X505160D01*
X488125Y657551D02*
X505154D01*
X470449Y632351D02*
X505142D01*
X480072Y426251D02*
X505010D01*
X470434Y405551D02*
X504999D01*
X470599Y626051D02*
X504992D01*
X501798Y584651D02*
X504974D01*
X470694Y613451D02*
X504896D01*
X472872Y419051D02*
X504677D01*
X470846Y413651D02*
X504587D01*
X493182Y608051D02*
X504546D01*
X471113Y620651D02*
X504477D01*
X471213Y662951D02*
X504377D01*
X495325Y650351D02*
X504374D01*
X499825Y645851D02*
X504362D01*
X487225Y658451D02*
X504358D01*
X471239Y633251D02*
X504352D01*
X471090Y400151D02*
X504343D01*
X479745Y431651D02*
X504336D01*
X471322Y625151D02*
X504269D01*
X480972Y427151D02*
X504244D01*
X471195Y404651D02*
X504238D01*
X471375Y612551D02*
X504216D01*
X501621Y583751D02*
X504074D01*
X471972Y418151D02*
X504058D01*
X471425Y414551D02*
X504008D01*
X471608Y621551D02*
X503983D01*
X471658Y636851D02*
X503932D01*
X483600Y662051D02*
X503929D01*
X496225Y649451D02*
X503927D01*
X498925Y646751D02*
X503921D01*
X486325Y659351D02*
X503919D01*
X471675Y634151D02*
X503916D01*
X471559Y401051D02*
X503874D01*
X471718Y624251D02*
X503872D01*
X471615Y403751D02*
X503818D01*
X471850Y622451D02*
X503741D01*
X471705Y417251D02*
X503728D01*
X471868Y635951D02*
X503723D01*
X484525Y661151D02*
X503722D01*
X497125Y648551D02*
X503721D01*
X498025Y647651D02*
X503719D01*
X485425Y660251D02*
X503718D01*
X471873Y635051D02*
X503717D01*
X471885Y623351D02*
X503706D01*
X471728Y415451D02*
X503705D01*
X471782Y401951D02*
X503651D01*
X471800Y402851D02*
X503633D01*
X471816Y416351D02*
X503617D01*
X501213Y582851D02*
X503174D01*
X471207Y637751D02*
X503117D01*
X500470Y581951D02*
X502274D01*
X470390Y638651D02*
X502217D01*
X498869Y581051D02*
X501374D01*
X468254Y639551D02*
X501317D01*
X443185Y580151D02*
X500474D01*
X425697Y640451D02*
X500417D01*
X443068Y579251D02*
X499574D01*
X425697Y641351D02*
X499517D01*
X425697Y642251D02*
X498617D01*
X425697Y643151D02*
X497717D01*
X484182Y599051D02*
X497190D01*
X483147Y480251D02*
X497152D01*
X480676Y472151D02*
X497003D01*
X476082Y590951D02*
X496975D01*
X468487Y644051D02*
X496817D01*
X483147Y490151D02*
X496655D01*
X474054Y462251D02*
X496571D01*
X468869Y581051D02*
X496554D01*
X483147Y500051D02*
X496334D01*
X483954Y452351D02*
X496270D01*
X478830Y571151D02*
X496257D01*
X482911Y538751D02*
X496092D01*
X488981Y509951D02*
X496080D01*
X493854Y442451D02*
X496028D01*
X482911Y561251D02*
X496016D01*
X470430Y644951D02*
X495917D01*
X482911Y548651D02*
X495877D01*
X482911Y551351D02*
X495811D01*
X482911Y558551D02*
X495689D01*
X482911Y541451D02*
X495631D01*
X481530Y568451D02*
X495522D01*
X486654Y449651D02*
X495514D01*
X483147Y502751D02*
X495478D01*
X487092Y531551D02*
X495470D01*
X470051Y578351D02*
X495371D01*
X476754Y459551D02*
X495364D01*
X483147Y492851D02*
X495331D01*
X473382Y588251D02*
X495234D01*
X470196Y469451D02*
X495227D01*
X483147Y482951D02*
X495197D01*
X483282Y598151D02*
X495107D01*
X483147Y479351D02*
X495101D01*
X481576Y473051D02*
X495073D01*
X476982Y591851D02*
X495067D01*
X471229Y645851D02*
X495017D01*
X483147Y489251D02*
X494984D01*
X473154Y463151D02*
X494958D01*
X470470Y581951D02*
X494953D01*
X483147Y499151D02*
X494876D01*
X483054Y453251D02*
X494852D01*
X470576Y572051D02*
X494847D01*
X482911Y537851D02*
X494780D01*
X488082Y509051D02*
X494775D01*
X492954Y443351D02*
X494753D01*
X482911Y562151D02*
X494748D01*
X482911Y547751D02*
X494686D01*
X482911Y552251D02*
X494655D01*
X482911Y557651D02*
X494597D01*
X482911Y542351D02*
X494569D01*
X482430Y567551D02*
X494514D01*
X487554Y448751D02*
X494510D01*
X483147Y503651D02*
X494492D01*
X486192Y532451D02*
X494488D01*
X470986Y577451D02*
X494436D01*
X477654Y458651D02*
X494433D01*
X483147Y493751D02*
X494415D01*
X472482Y587351D02*
X494363D01*
X471063Y468551D02*
X494360D01*
X483147Y483851D02*
X494343D01*
X482382Y597251D02*
X494295D01*
X483147Y478451D02*
X494292D01*
X482476Y473951D02*
X494276D01*
X477882Y592751D02*
X494273D01*
X483147Y488351D02*
X494227D01*
X472254Y464051D02*
X494213D01*
X471213Y582851D02*
X494210D01*
X483147Y498251D02*
X494167D01*
X482154Y454151D02*
X494154D01*
X471272Y572951D02*
X494151D01*
X471670Y646751D02*
X494117D01*
X482911Y536951D02*
X494114D01*
X487182Y508151D02*
X494111D01*
X492054Y444251D02*
X494098D01*
X482911Y563051D02*
X494096D01*
X482911Y546851D02*
X494061D01*
X482911Y553151D02*
X494044D01*
X482911Y556751D02*
X494011D01*
X482911Y543251D02*
X493996D01*
X482892Y566651D02*
X493965D01*
X488454Y447851D02*
X493963D01*
X483582Y504551D02*
X493953D01*
X485292Y533351D02*
X493951D01*
X471500Y576551D02*
X493922D01*
X478554Y457751D02*
X493920D01*
X483147Y494651D02*
X493911D01*
X471582Y586451D02*
X493883D01*
X471542Y467651D02*
X493881D01*
X483147Y484751D02*
X493872D01*
X481482Y596351D02*
X493846D01*
X483147Y477551D02*
X493844D01*
X483087Y474851D02*
X493836D01*
X478782Y593651D02*
X493834D01*
X483147Y487451D02*
X493810D01*
X471620Y464951D02*
X493803D01*
X471621Y583751D02*
X493801D01*
X483147Y497351D02*
X493779D01*
X481254Y455051D02*
X493772D01*
X471652Y573851D02*
X493771D01*
X482911Y536051D02*
X493752D01*
X486282Y507251D02*
X493751D01*
X491154Y445151D02*
X493745D01*
X482911Y563951D02*
X493744D01*
X482911Y545951D02*
X493727D01*
X482911Y554051D02*
X493719D01*
X482911Y555851D02*
X493704D01*
X482911Y544151D02*
X493697D01*
X482911Y565751D02*
X493684D01*
X489354Y446951D02*
X493683D01*
X484482Y505451D02*
X493678D01*
X484392Y534251D02*
X493677D01*
X471757Y575651D02*
X493666D01*
X479454Y456851D02*
X493665D01*
X483147Y495551D02*
X493661D01*
X471772Y585551D02*
X493651D01*
X471773Y466751D02*
X493650D01*
X483147Y485651D02*
X493647D01*
X480582Y595451D02*
X493638D01*
X483147Y476651D02*
X493637D01*
X483147Y475751D02*
X493635D01*
X479682Y594551D02*
X493634D01*
X483147Y486551D02*
X493627D01*
X471797Y465851D02*
X493625D01*
X471798Y584651D02*
X493625D01*
X483147Y496451D02*
X493620D01*
X480354Y455951D02*
X493618D01*
X471805Y574751D02*
X493618D01*
X483492Y535151D02*
X493615D01*
X485382Y506351D02*
X493614D01*
X490254Y446051D02*
X493614D01*
X482911Y564851D02*
X493613D01*
X482911Y545051D02*
X493612D01*
X482911Y554951D02*
X493611D01*
X471871Y647651D02*
X493217D01*
X394801Y438851D02*
X492658D01*
X471870Y648551D02*
X492317D01*
X471745Y611651D02*
X491974D01*
X394801Y439751D02*
X491745D01*
X471664Y649451D02*
X491417D01*
X471890Y610751D02*
X491074D01*
X394801Y440651D02*
X490845D01*
X471217Y650351D02*
X490517D01*
X471835Y609851D02*
X490174D01*
X394801Y441551D02*
X489945D01*
X470409Y651251D02*
X489617D01*
X471570Y608951D02*
X489274D01*
X469395Y442451D02*
X489045D01*
X468375Y652151D02*
X488717D01*
X471045Y608051D02*
X488374D01*
X470670Y443351D02*
X488145D01*
X425697Y653051D02*
X487817D01*
X470086Y607151D02*
X487474D01*
X471324Y444251D02*
X487245D01*
X425697Y653951D02*
X486917D01*
X394801Y606251D02*
X486574D01*
X471678Y445151D02*
X486345D01*
X425697Y654851D02*
X486017D01*
X394801Y605351D02*
X485674D01*
X471809Y446051D02*
X485445D01*
X425697Y655751D02*
X485117D01*
X394801Y604451D02*
X484774D01*
X471740Y446951D02*
X484545D01*
X468519Y656651D02*
X484217D01*
X394801Y603551D02*
X483874D01*
X471459Y447851D02*
X483645D01*
X470437Y657551D02*
X483317D01*
X394801Y602651D02*
X482974D01*
X470913Y448751D02*
X482745D01*
X471232Y658451D02*
X482417D01*
X394801Y601751D02*
X482074D01*
X469908Y449651D02*
X481845D01*
X394801Y600851D02*
X481174D01*
X394801Y450551D02*
X480945D01*
X394801Y599951D02*
X480274D01*
X394801Y451451D02*
X480045D01*
X478845Y430751D02*
X479813D01*
X470980Y599051D02*
X479374D01*
X469153Y452351D02*
X479145D01*
X477945Y429851D02*
X478864D01*
X394801Y435251D02*
X478650D01*
X471799Y598151D02*
X478474D01*
X470571Y453251D02*
X478245D01*
X477045Y428951D02*
X477964D01*
X394801Y434351D02*
X477636D01*
X471811Y597251D02*
X477574D01*
X471269Y454151D02*
X477345D01*
X476139Y428051D02*
X477064D01*
X394801Y433451D02*
X476736D01*
X471811Y596351D02*
X476674D01*
X471650Y455051D02*
X476445D01*
X471189Y427151D02*
X476164D01*
X470255Y432551D02*
X475836D01*
X471811Y595451D02*
X475774D01*
X471804Y455951D02*
X475545D01*
X470423Y426251D02*
X475264D01*
X471097Y431651D02*
X474936D01*
X471811Y594551D02*
X474874D01*
X471758Y456851D02*
X474645D01*
X468701Y425351D02*
X474364D01*
X471811Y593651D02*
X473974D01*
X471502Y457751D02*
X473745D01*
X425697Y424451D02*
X473464D01*
X471811Y592751D02*
X473074D01*
X470990Y458651D02*
X472845D01*
X471411Y556751D02*
X472841D01*
X471719Y555851D02*
X472841D01*
X471811Y554951D02*
X472841D01*
X471704Y554051D02*
X472841D01*
X471379Y553151D02*
X472841D01*
X470767Y552251D02*
X472841D01*
X469611Y551351D02*
X472840D01*
X465582Y550451D02*
X472840D01*
X464682Y549551D02*
X472840D01*
X469546Y548651D02*
X472840D01*
X470737Y547751D02*
X472840D01*
X471362Y546851D02*
X472840D01*
X471696Y545951D02*
X472839D01*
X471811Y545051D02*
X472839D01*
X471726Y544151D02*
X472839D01*
X471427Y543251D02*
X472839D01*
X470854Y542351D02*
X472839D01*
X469791Y541451D02*
X472839D01*
X441532Y540551D02*
X472838D01*
X440914Y539651D02*
X472838D01*
X469331Y538751D02*
X472838D01*
X470643Y537851D02*
X472838D01*
X471309Y536951D02*
X472838D01*
X471670Y536051D02*
X472838D01*
X471808Y535151D02*
X472838D01*
X471745Y534251D02*
X472837D01*
X471472Y533351D02*
X472837D01*
X470935Y532451D02*
X472837D01*
X469952Y531551D02*
X472837D01*
X441886Y530651D02*
X472837D01*
X441584Y529751D02*
X472837D01*
X441006Y528851D02*
X472836D01*
X439933Y527951D02*
X472836D01*
X430667Y527051D02*
X472836D01*
X430792Y526151D02*
X472836D01*
X430716Y525251D02*
X472836D01*
X439509Y524351D02*
X472836D01*
X440812Y523451D02*
X472835D01*
X441475Y522551D02*
X472835D01*
X441835Y521651D02*
X472835D01*
X441971Y520751D02*
X472835D01*
X441907Y519851D02*
X472835D01*
X441632Y518951D02*
X472835D01*
X441093Y518051D02*
X472834D01*
X455450Y517151D02*
X472834D01*
X456947Y516251D02*
X472834D01*
X457665Y515351D02*
X472834D01*
X461854Y514451D02*
X472834D01*
X462754Y513551D02*
X472834D01*
X463654Y512651D02*
X472833D01*
X464554Y511751D02*
X472833D01*
X465454Y510851D02*
X472833D01*
X471505Y509951D02*
X472833D01*
X471811Y509051D02*
X472833D01*
X471811Y508151D02*
X472833D01*
X471811Y507251D02*
X472832D01*
X471811Y506351D02*
X472832D01*
X471811Y505451D02*
X472832D01*
X471811Y504551D02*
X472832D01*
X471811Y503651D02*
X472832D01*
X471720Y502751D02*
X472832D01*
X394801Y501851D02*
X472831D01*
X394801Y500951D02*
X472831D01*
X469089Y500051D02*
X472831D01*
X470547Y499151D02*
X472831D01*
X471255Y498251D02*
X472831D01*
X471643Y497351D02*
X472831D01*
X471803Y496451D02*
X472830D01*
X471761Y495551D02*
X472830D01*
X471512Y494651D02*
X472830D01*
X471007Y493751D02*
X472830D01*
X470092Y492851D02*
X472830D01*
X436587Y491951D02*
X472830D01*
X438268Y491051D02*
X472829D01*
X468767Y490151D02*
X472829D01*
X470438Y489251D02*
X472829D01*
X471195Y488351D02*
X472829D01*
X471612Y487451D02*
X472829D01*
X471795Y486551D02*
X472829D01*
X471776Y485651D02*
X472828D01*
X471551Y484751D02*
X472828D01*
X471079Y483851D02*
X472828D01*
X425697Y423551D02*
X472564D01*
X470826Y557651D02*
X472491D01*
X470226Y482951D02*
X472489D01*
X471803Y591851D02*
X472174D01*
X470058Y459551D02*
X471945D01*
X456345Y422651D02*
X471664D01*
X469733Y558551D02*
X471591D01*
X443225Y482051D02*
X471588D01*
X471089Y590951D02*
X471274D01*
X458069Y460451D02*
X471045D01*
X457362Y421751D02*
X470764D01*
X438582Y590051D02*
X470374D01*
X457647Y461351D02*
X470145D01*
X457914Y420851D02*
X469864D01*
X439697Y589151D02*
X469474D01*
X468851Y462251D02*
X469245D01*
X425697Y639551D02*
X467337D01*
X425697Y664751D02*
X467255D01*
X425697Y652151D02*
X467215D01*
X425697Y644051D02*
X467103D01*
X425697Y656651D02*
X467072D01*
X394801Y631451D02*
X467018D01*
X425673Y425351D02*
X466732D01*
X425697Y406451D02*
X466694D01*
X439460Y490151D02*
X466655D01*
X456882Y462251D02*
X466571D01*
X443226Y581051D02*
X466554D01*
X394801Y626951D02*
X466505D01*
X394801Y500051D02*
X466334D01*
X394801Y452351D02*
X466270D01*
X394801Y614351D02*
X466254D01*
X439740Y538751D02*
X466092D01*
X394801Y442451D02*
X466028D01*
X463782Y548651D02*
X465877D01*
X458199Y419951D02*
X465852D01*
X394801Y558551D02*
X465689D01*
X425697Y412751D02*
X465663D01*
X456582Y541451D02*
X465631D01*
X394801Y449651D02*
X465514D01*
X394801Y607151D02*
X465505D01*
X441974Y531551D02*
X465470D01*
X394801Y619751D02*
X465374D01*
X442874Y578351D02*
X465371D01*
X458256Y459551D02*
X465364D01*
X394801Y492851D02*
X465331D01*
X440568Y588251D02*
X465234D01*
X394801Y469451D02*
X465227D01*
X425697Y638651D02*
X465200D01*
X443174Y482951D02*
X465197D01*
X425697Y399251D02*
X465191D01*
X425697Y663851D02*
X465188D01*
X425697Y651251D02*
X465181D01*
X394801Y432551D02*
X465178D01*
X425697Y644951D02*
X465160D01*
X425697Y657551D02*
X465154D01*
X394801Y632351D02*
X465142D01*
X394801Y426251D02*
X465010D01*
X425697Y405551D02*
X464999D01*
X394801Y626051D02*
X464992D01*
X440380Y489251D02*
X464984D01*
X455168Y463151D02*
X464958D01*
X443193Y581951D02*
X464953D01*
X394801Y613451D02*
X464896D01*
X394801Y499151D02*
X464876D01*
X394801Y453251D02*
X464852D01*
X438432Y572051D02*
X464847D01*
X430693Y537851D02*
X464780D01*
X394801Y443351D02*
X464753D01*
X462882Y547751D02*
X464686D01*
X458271Y419051D02*
X464677D01*
X394801Y557651D02*
X464597D01*
X425697Y413651D02*
X464587D01*
X457482Y542351D02*
X464569D01*
X394801Y608051D02*
X464546D01*
X394801Y448751D02*
X464510D01*
X441861Y532451D02*
X464488D01*
X394801Y620651D02*
X464477D01*
X394801Y599051D02*
X464443D01*
X442599Y577451D02*
X464436D01*
X458240Y458651D02*
X464433D01*
X394801Y493751D02*
X464415D01*
X425695Y637751D02*
X464384D01*
X425697Y662951D02*
X464377D01*
X425697Y650351D02*
X464374D01*
X441267Y587351D02*
X464363D01*
X425697Y645851D02*
X464362D01*
X394801Y468551D02*
X464360D01*
X425697Y658451D02*
X464358D01*
X394801Y633251D02*
X464352D01*
X443049Y483851D02*
X464343D01*
X425697Y400151D02*
X464343D01*
X394801Y431651D02*
X464336D01*
X437053Y590951D02*
X464334D01*
X394801Y625151D02*
X464269D01*
X394801Y427151D02*
X464244D01*
X425697Y404651D02*
X464238D01*
X441115Y488351D02*
X464227D01*
X394801Y612551D02*
X464216D01*
X394801Y464051D02*
X464213D01*
X443085Y582851D02*
X464210D01*
X394801Y498251D02*
X464167D01*
X394801Y454151D02*
X464154D01*
X439583Y572951D02*
X464151D01*
X430793Y536951D02*
X464114D01*
X394801Y444251D02*
X464098D01*
X461982Y546851D02*
X464061D01*
X458144Y418151D02*
X464058D01*
X394801Y608951D02*
X464021D01*
X456297Y556751D02*
X464011D01*
X425697Y414551D02*
X464008D01*
X458382Y543251D02*
X463996D01*
X394801Y621551D02*
X463983D01*
X394801Y447851D02*
X463963D01*
X441531Y533351D02*
X463951D01*
X394801Y636851D02*
X463932D01*
X425697Y662051D02*
X463929D01*
X425697Y649451D02*
X463927D01*
X425697Y646751D02*
X463921D01*
X458019Y457751D02*
X463920D01*
X425697Y659351D02*
X463919D01*
X394801Y634151D02*
X463916D01*
X394801Y494651D02*
X463911D01*
X441830Y586451D02*
X463883D01*
X394801Y467651D02*
X463881D01*
X425697Y401051D02*
X463874D01*
X394801Y624251D02*
X463872D01*
X442845Y484751D02*
X463872D01*
X394801Y430751D02*
X463870D01*
X394801Y611651D02*
X463845D01*
X394801Y428051D02*
X463821D01*
X425697Y403751D02*
X463818D01*
X441708Y487451D02*
X463810D01*
X394801Y464951D02*
X463803D01*
X442901Y583751D02*
X463801D01*
X394801Y497351D02*
X463779D01*
X394801Y455051D02*
X463772D01*
X394801Y609851D02*
X463756D01*
X430693Y536051D02*
X463752D01*
X394801Y445151D02*
X463745D01*
X394801Y622451D02*
X463741D01*
X457795Y417251D02*
X463728D01*
X461082Y545951D02*
X463727D01*
X394801Y635951D02*
X463723D01*
X425697Y661151D02*
X463722D01*
X425697Y648551D02*
X463721D01*
X425697Y647651D02*
X463719D01*
X458158Y554051D02*
X463719D01*
X425697Y660251D02*
X463718D01*
X394801Y635051D02*
X463717D01*
X394801Y623351D02*
X463706D01*
X455892Y415451D02*
X463705D01*
X457318Y555851D02*
X463704D01*
X394801Y502751D02*
X463702D01*
X394801Y610751D02*
X463700D01*
X459282Y544151D02*
X463697D01*
X394801Y446951D02*
X463683D01*
X440911Y534251D02*
X463677D01*
X457552Y456851D02*
X463665D01*
X394801Y495551D02*
X463661D01*
X425697Y401951D02*
X463651D01*
X442281Y585551D02*
X463651D01*
X394801Y466751D02*
X463650D01*
X394801Y429851D02*
X463650D01*
X442559Y485651D02*
X463647D01*
X394801Y428951D02*
X463634D01*
X425697Y402851D02*
X463633D01*
X442184Y486551D02*
X463627D01*
X394801Y465851D02*
X463625D01*
X442635Y584651D02*
X463625D01*
X394801Y598151D02*
X463624D01*
X394801Y496451D02*
X463620D01*
X434336Y591851D02*
X463619D01*
X456708Y455951D02*
X463618D01*
X457147Y416351D02*
X463617D01*
X439733Y535151D02*
X463615D01*
X394801Y446051D02*
X463614D01*
X460182Y545051D02*
X463612D01*
X457873Y554951D02*
X463611D01*
X394801Y597251D02*
X463611D01*
X394801Y596351D02*
X463611D01*
X394801Y595451D02*
X463611D01*
X394801Y594551D02*
X463611D01*
X394801Y593651D02*
X463611D01*
X394801Y592751D02*
X463611D01*
X441173Y507251D02*
X463611D01*
X440260Y506351D02*
X463611D01*
X394801Y505451D02*
X463611D01*
X394801Y504551D02*
X463611D01*
X394801Y503651D02*
X463611D01*
X458232Y553151D02*
X463474D01*
X441676Y508151D02*
X463345D01*
X458106Y552251D02*
X462574D01*
X441925Y509051D02*
X462445D01*
X394801Y470351D02*
X462186D01*
X436833Y571151D02*
X461976D01*
X443201Y481151D02*
X461743D01*
X394801Y559451D02*
X461737D01*
X457758Y551351D02*
X461674D01*
X434842Y471251D02*
X461584D01*
X433690Y570251D02*
X461551D01*
X456544Y509951D02*
X461545D01*
X394801Y569351D02*
X461538D01*
X394801Y568451D02*
X461538D01*
X394801Y567551D02*
X461538D01*
X394801Y566651D02*
X461538D01*
X394801Y565751D02*
X461538D01*
X394801Y564851D02*
X461538D01*
X394801Y563951D02*
X461538D01*
X394801Y563051D02*
X461538D01*
X394801Y562151D02*
X461538D01*
X394801Y561251D02*
X461538D01*
X394801Y560351D02*
X461538D01*
X443103Y480251D02*
X461538D01*
X442927Y479351D02*
X461538D01*
X442672Y478451D02*
X461538D01*
X442329Y477551D02*
X461537D01*
X441890Y476651D02*
X461537D01*
X441342Y475751D02*
X461537D01*
X440661Y474851D02*
X461537D01*
X439814Y473951D02*
X461537D01*
X438734Y473051D02*
X461537D01*
X437272Y472151D02*
X461537D01*
X457113Y550451D02*
X460774D01*
X457446Y510851D02*
X460645D01*
X455864Y549551D02*
X459874D01*
X430715Y548651D02*
X458974D01*
X430792Y547751D02*
X458074D01*
X430668Y546851D02*
X457174D01*
X439927Y545951D02*
X456274D01*
X441003Y545051D02*
X455374D01*
X441582Y544151D02*
X454474D01*
X442137Y463151D02*
X453178D01*
X440105Y517151D02*
X452817D01*
X442860Y415451D02*
X452455D01*
X439517Y549551D02*
X452404D01*
X443314Y422651D02*
X452001D01*
X440099Y556751D02*
X451971D01*
X441965Y509951D02*
X451724D01*
X443677Y455951D02*
X451638D01*
X443851Y462251D02*
X451464D01*
X430639Y516251D02*
X451321D01*
X444115Y416351D02*
X451199D01*
X440815Y550451D02*
X451155D01*
X444330Y421751D02*
X450985D01*
X441090Y555851D02*
X450950D01*
X441805Y510851D02*
X450822D01*
X444520Y456851D02*
X450794D01*
X444616Y461351D02*
X450699D01*
X430787Y515351D02*
X450602D01*
X444763Y417251D02*
X450552D01*
X441477Y551351D02*
X450510D01*
X444987Y457751D02*
X450328D01*
X441416Y511751D02*
X450325D01*
X445038Y460451D02*
X450277D01*
X430735Y514451D02*
X450208D01*
X445208Y458651D02*
X450107D01*
X445224Y459551D02*
X450091D01*
X440705Y512651D02*
X450081D01*
X439240Y513551D02*
X450044D01*
X442234Y576551D02*
X447924D01*
X440478Y573851D02*
X447589D01*
X441771Y575651D02*
X447269D01*
X441194Y574751D02*
X447190D01*
X394801Y463151D02*
X440147D01*
X425697Y415451D02*
X439423D01*
X425697Y422651D02*
X438970D01*
X394801Y455951D02*
X438607D01*
X394801Y462251D02*
X438433D01*
X425697Y416351D02*
X438168D01*
X425697Y421751D02*
X437953D01*
X394801Y456851D02*
X437763D01*
X394801Y461351D02*
X437668D01*
X425697Y417251D02*
X437520D01*
X425697Y420851D02*
X437401D01*
X394801Y457751D02*
X437296D01*
X394801Y460451D02*
X437246D01*
X425697Y418151D02*
X437171D01*
X425697Y419951D02*
X437116D01*
X394801Y458651D02*
X437075D01*
X394801Y459551D02*
X437059D01*
X425697Y419051D02*
X437044D01*
X430473Y513551D02*
X436508D01*
X430427Y524351D02*
X436239D01*
X430426Y549551D02*
X436231D01*
X430378Y535151D02*
X436015D01*
X430376Y538751D02*
X436008D01*
X430324Y545951D02*
X435821D01*
X430322Y527951D02*
X435815D01*
X394801Y556751D02*
X435649D01*
X430265Y517151D02*
X435643D01*
X394801Y506351D02*
X435488D01*
X429952Y512651D02*
X435043D01*
X429869Y523451D02*
X434936D01*
X429866Y550451D02*
X434933D01*
X429780Y534251D02*
X434837D01*
X429777Y539651D02*
X434834D01*
X429684Y545051D02*
X434745D01*
X429681Y528851D02*
X434742D01*
X394801Y555851D02*
X434658D01*
X429578Y518051D02*
X434655D01*
X394801Y507251D02*
X434575D01*
X429003Y511751D02*
X434332D01*
X428840Y522551D02*
X434273D01*
X428834Y551351D02*
X434271D01*
X428658Y533351D02*
X434217D01*
X428652Y540551D02*
X434216D01*
X428452Y544151D02*
X434166D01*
X428444Y529751D02*
X434164D01*
X394801Y554951D02*
X434118D01*
X428200Y518951D02*
X434116D01*
X394801Y508151D02*
X434072D01*
X394801Y510851D02*
X433943D01*
X394801Y521651D02*
X433913D01*
X394801Y552251D02*
X433912D01*
X394801Y532451D02*
X433887D01*
X394801Y541451D02*
X433886D01*
X394801Y543251D02*
X433863D01*
X394801Y530651D02*
X433862D01*
X394801Y554051D02*
X433842D01*
X394801Y519851D02*
X433841D01*
X394801Y509051D02*
X433823D01*
X394801Y509951D02*
X433783D01*
X394801Y520751D02*
X433777D01*
X394801Y553151D02*
X433777D01*
X394801Y531551D02*
X433774D01*
X394801Y542351D02*
X433774D01*
X394801Y570251D02*
X430876D01*
X394801Y591851D02*
X430231D01*
X394801Y471251D02*
X429724D01*
X394801Y491951D02*
X427980D01*
X394801Y571151D02*
X427733D01*
X394801Y590951D02*
X427514D01*
X394801Y472151D02*
X427295D01*
X394801Y491051D02*
X426299D01*
X394801Y572051D02*
X426135D01*
X394801Y590051D02*
X425985D01*
X394801Y473051D02*
X425833D01*
X394801Y518951D02*
X425186D01*
X394801Y490151D02*
X425107D01*
X394801Y572951D02*
X424984D01*
X394801Y529751D02*
X424942D01*
X394801Y544151D02*
X424934D01*
X394801Y589151D02*
X424870D01*
X394801Y473951D02*
X424753D01*
X394801Y540551D02*
X424734D01*
X394801Y533351D02*
X424727D01*
X394801Y551351D02*
X424551D01*
X394801Y522551D02*
X424545D01*
X394801Y511751D02*
X424383D01*
X394801Y489251D02*
X424187D01*
X394801Y573851D02*
X424089D01*
X394801Y588251D02*
X423998D01*
X394801Y474851D02*
X423906D01*
X394801Y518051D02*
X423808D01*
X394801Y528851D02*
X423705D01*
X394801Y545051D02*
X423701D01*
X394801Y539651D02*
X423609D01*
X394801Y534251D02*
X423606D01*
X394801Y550451D02*
X423520D01*
X394801Y523451D02*
X423517D01*
X394801Y488351D02*
X423452D01*
X394801Y512651D02*
X423433D01*
X394801Y574751D02*
X423373D01*
X394801Y587351D02*
X423300D01*
X394801Y475751D02*
X423225D01*
X394801Y517151D02*
X423121D01*
X394801Y527951D02*
X423064D01*
X394801Y545951D02*
X423062D01*
X394801Y538751D02*
X423010D01*
X394801Y535151D02*
X423008D01*
X394801Y549551D02*
X422960D01*
X394801Y524351D02*
X422959D01*
X394801Y513551D02*
X422913D01*
X394801Y487451D02*
X422859D01*
X394801Y575651D02*
X422796D01*
X394801Y516251D02*
X422747D01*
X394801Y586451D02*
X422737D01*
X394801Y527051D02*
X422719D01*
X394801Y546851D02*
X422718D01*
X394801Y537851D02*
X422693D01*
X394801Y536051D02*
X422692D01*
X394801Y476651D02*
X422677D01*
X394801Y548651D02*
X422671D01*
X394801Y525251D02*
X422670D01*
X394801Y514451D02*
X422651D01*
X394801Y515351D02*
X422598D01*
X394801Y526151D02*
X422594D01*
X394801Y547751D02*
X422594D01*
X394801Y536951D02*
X422593D01*
X394801Y486551D02*
X422383D01*
X394801Y576551D02*
X422333D01*
X394801Y585551D02*
X422286D01*
X394801Y477551D02*
X422238D01*
X394801Y485651D02*
X422008D01*
X394801Y577451D02*
X421968D01*
X394801Y584651D02*
X421932D01*
X394801Y478451D02*
X421895D01*
X394801Y484751D02*
X421722D01*
X394801Y578351D02*
X421693D01*
X394801Y583751D02*
X421666D01*
X394801Y479351D02*
X421640D01*
X394801Y483851D02*
X421518D01*
X394801Y579251D02*
X421499D01*
X394801Y582851D02*
X421481D01*
X394801Y480251D02*
X421464D01*
X394801Y482951D02*
X421392D01*
X394801Y580151D02*
X421382D01*
X394801Y581951D02*
X421374D01*
X394801Y481151D02*
X421366D01*
X394801Y482051D02*
X421342D01*
X394801Y581051D02*
X421341D01*
X393701Y393701D02*
X1102362D01*
Y669291*
X393701*
Y393701*
G54D19*
X409449Y661417D03*
X415016Y659110D03*
X417323Y653543D03*
X415016Y647976D03*
X409449Y645669D03*
X403882Y647976D03*
X401575Y653543D03*
X403882Y659110D03*
X1086614Y417323D03*
X1092181Y415016D03*
X1094488Y409449D03*
X1092181Y403882D03*
X1086614Y401575D03*
X1081047Y403882D03*
X1078740Y409449D03*
X1081047Y415016D03*
X1086614Y661417D03*
X1092181Y659110D03*
X1094488Y653543D03*
X1092181Y647976D03*
X1086614Y645669D03*
X1081047Y647976D03*
X1078740Y653543D03*
X1081047Y659110D03*
X409449Y417323D03*
X415016Y415016D03*
X417323Y409449D03*
X415016Y403882D03*
X409449Y401575D03*
X403882Y403882D03*
X401575Y409449D03*
X403882Y415016D03*
G54D20*
X441142Y419173D02*
X454173D01*
X524940Y440168D02*
X531117D01*
X531146Y440197*
X537323*
X524940Y440168D02*
X493732D01*
X467711Y466189*
X467717Y416299D02*
X480748Y429331D01*
X507717*
X467717D02*
X475021D01*
X479430Y433740*
X550048*
X747070Y425218D02*
X740907Y419055D01*
X564734*
X550048Y433740*
X437874Y542402D02*
X455129D01*
X467711Y554984*
X497711Y534984D02*
X508513D01*
X508687Y535157*
X519488*
X497711Y486189D02*
X525191D01*
X528569Y489567*
X575906*
X467711Y506189D02*
X460633Y513268D01*
X454134*
X588504Y481063D02*
X580000Y489567D01*
X575906*
X552008Y480157D02*
X543429D01*
X543390Y480197*
X537323*
X524167Y594837D02*
X530234D01*
X530239Y594843*
X534094*
X454134Y553268D02*
X446024D01*
X445984Y553307*
X437874*
X497711Y574984D02*
X517565Y594837D01*
X524167*
X497711Y554984D02*
X506405D01*
X510809Y559388*
X519503*
X497711Y544984D02*
X507562D01*
X509652Y547075*
X519503*
X467711Y574984D02*
X457305D01*
X457249Y575039*
X449055*
X467711Y584984D02*
X493279Y610551D01*
X507795*
X574724Y547008D02*
X567147D01*
X567080Y547075*
X559503*
X541417Y573268D02*
X529276D01*
X529236Y573307*
X519606*
X564409Y609432D02*
X549709D01*
X549692Y609449*
X537205*
X687087Y595866D02*
X702520D01*
X672513Y603719D02*
X665066D01*
X664730Y604055*
X657283*
X707087Y590591D02*
X722441D01*
X697087Y592992D02*
X732520D01*
X507795Y635476D02*
X482585Y660686D01*
X467795*
X507795Y648092D02*
X523597D01*
X523615Y648110*
X537205*
X507795Y660686D02*
X522023D01*
X534094Y660709*
G54D21*
X515230Y400708D03*
X543069Y428547D03*
G54D22*
X445551Y401417D03*
X445633Y442466D03*
X431714Y456386D03*
X417794Y442466D03*
X403875Y456386D03*
X529150Y414627D03*
X487392Y456386D03*
Y400708D03*
X612666Y442466D03*
Y414627D03*
X598747Y428547D03*
Y400708D03*
X584828Y442466D03*
Y414627D03*
X570908Y428547D03*
Y400708D03*
X556989Y442466D03*
Y414627D03*
X543069Y400708D03*
X682264D03*
X668344Y442466D03*
Y414627D03*
X654425Y400708D03*
X640505Y442466D03*
Y414627D03*
X626586Y400708D03*
X765780D03*
X737941D03*
X724022Y442466D03*
Y414627D03*
X710102Y400708D03*
X696183Y414627D03*
X849297Y428547D03*
X835377Y442466D03*
Y414627D03*
X821458Y428547D03*
Y400708D03*
X807538Y442466D03*
Y414627D03*
X793619Y428547D03*
Y400708D03*
X779700Y442466D03*
Y414627D03*
X932813Y428547D03*
Y400708D03*
X918894Y442466D03*
Y414627D03*
X904974Y428547D03*
Y400708D03*
X891055Y442466D03*
Y414627D03*
X877136Y428547D03*
X863216Y442466D03*
Y414627D03*
X1002410Y442466D03*
Y414627D03*
X988491Y428547D03*
Y400708D03*
X974572Y442466D03*
Y414627D03*
X960652Y456386D03*
Y428547D03*
Y400708D03*
X946733Y442466D03*
Y414627D03*
X1072007Y428547D03*
X1058088Y414627D03*
X1044169Y400708D03*
X1030249Y414627D03*
X1016330Y428547D03*
Y400708D03*
X448268Y528740D03*
X417794Y525983D03*
Y498144D03*
Y470305D03*
X403875Y539902D03*
Y512063D03*
Y484225D03*
X529150Y498144D03*
X539882Y540630D03*
X612666Y498144D03*
X598747Y484225D03*
X584828Y498144D03*
X570908Y539902D03*
X556989Y498144D03*
X682264Y539902D03*
Y484225D03*
X668344Y498144D03*
X654425Y539902D03*
Y484225D03*
X640505Y498144D03*
X626586Y539902D03*
Y484225D03*
X765780Y539902D03*
X737941D03*
Y484225D03*
X724022Y498144D03*
X710102Y539902D03*
Y484225D03*
X849297Y539902D03*
Y484225D03*
X835377Y498144D03*
X821458Y539902D03*
Y484225D03*
X807538Y498144D03*
X793619Y539902D03*
Y484225D03*
X779700Y498144D03*
X932813Y539902D03*
X918894Y498144D03*
X904974Y539902D03*
Y484225D03*
X891055Y498144D03*
X877136Y539902D03*
Y484225D03*
X863216Y498144D03*
X988491Y539902D03*
X960652Y484225D03*
X1085927Y525983D03*
Y498144D03*
Y470305D03*
X1072007Y512063D03*
X1058088Y525983D03*
Y470305D03*
X1030249D03*
X1016330Y539902D03*
X445633Y609499D03*
X431714Y623419D03*
Y595580D03*
X417794Y609499D03*
Y581661D03*
Y553822D03*
X403875Y623419D03*
Y595580D03*
Y567741D03*
X449055Y575039D03*
X483268Y587992D03*
X529150Y581661D03*
X487392Y623419D03*
X539882Y555866D03*
X612666Y609499D03*
Y553822D03*
X598747Y623419D03*
X584828Y609499D03*
X570908Y623419D03*
Y567741D03*
X556989Y581661D03*
X543069Y623419D03*
Y595580D03*
X537205Y609449D03*
X534094Y594843D03*
X682264Y623419D03*
X668344Y553822D03*
X654425Y623419D03*
X640505Y609499D03*
Y553822D03*
X626586Y623419D03*
X687087Y595866D03*
X747441Y595512D03*
X765780Y595580D03*
Y567741D03*
X751861Y553822D03*
X724022D03*
X696183D03*
X722441Y590591D03*
X707087D03*
X697087Y592992D03*
X732520D03*
X702520Y595866D03*
X849297Y623419D03*
Y595580D03*
Y567741D03*
X835377Y609499D03*
Y581661D03*
Y553822D03*
X821458Y595580D03*
Y567741D03*
X807538Y609499D03*
Y581661D03*
Y553822D03*
X793619Y595580D03*
Y567741D03*
X779700Y609499D03*
Y581661D03*
Y553822D03*
X932813Y623419D03*
Y595580D03*
Y567741D03*
X918894Y609499D03*
Y581661D03*
Y553822D03*
X904974Y623419D03*
Y595580D03*
Y567741D03*
X891055Y609499D03*
Y581661D03*
Y553822D03*
X877136Y623419D03*
Y595580D03*
Y567741D03*
X863216Y609499D03*
Y581661D03*
Y553822D03*
X1002410D03*
X988491Y623419D03*
Y567741D03*
X974572Y553822D03*
X960652Y623419D03*
Y567741D03*
X946733Y609499D03*
Y581661D03*
X1085927Y609499D03*
Y581661D03*
Y553822D03*
X1072007Y623419D03*
Y595580D03*
Y567741D03*
X1058088Y609499D03*
Y581661D03*
Y553822D03*
X1016330Y623419D03*
Y567741D03*
X445633Y637338D03*
X445866Y659764D03*
X529150Y637338D03*
X612666D03*
X598747Y651258D03*
X584828Y637338D03*
X570908Y651258D03*
X556989Y637338D03*
X543069Y651258D03*
X537205Y648110D03*
X534094Y660709D03*
X640505Y637338D03*
X626586Y651258D03*
X765780D03*
X737941D03*
X710102D03*
X793619D03*
X779700Y637338D03*
X932813Y651258D03*
X918894Y637338D03*
X891055D03*
X863216D03*
X1002410D03*
X988491Y651258D03*
X974572Y637338D03*
X960652Y651258D03*
X946733Y637338D03*
X1058088D03*
X1016330Y651258D03*
G54D23*
X1040054Y556156D02*
X1040831Y556934D01*
X1045852Y556156D02*
X1045074Y556934D01*
X1045852Y561954D02*
X1045074Y561176D01*
X1040054Y561954D02*
X1040831Y561176D01*
X1037970Y578459D02*
X1038820Y579308D01*
X1037970Y584400D02*
X1038820Y583550D01*
X1047754Y584400D02*
X1046905Y583550D01*
X1047754Y578459D02*
X1046905Y579308D01*
X974425Y499883D02*
X973648Y500661D01*
X974425Y505681D02*
X973648Y504904D01*
X968627Y505681D02*
X969405Y504904D01*
X968627Y499883D02*
X969405Y500661D01*
X1038399Y476473D02*
X1039249Y477322D01*
X1038399Y482414D02*
X1039249Y481565D01*
X1048183Y482414D02*
X1047334Y481565D01*
X1048183Y476473D02*
X1047334Y477322D01*
X1080886Y476349D02*
X1080108Y477127D01*
X1080886Y482147D02*
X1080108Y481369D01*
X1075088Y482147D02*
X1075866Y481369D01*
X1075088Y476349D02*
X1075866Y477127D01*
X1039942Y497101D02*
X1040720Y497879D01*
X1045740Y497101D02*
X1044963Y497879D01*
X1045740Y502899D02*
X1044963Y502121D01*
X1039942Y502899D02*
X1040720Y502121D01*
X759969Y432319D02*
X759191Y433097D01*
X759969Y438117D02*
X759191Y437339D01*
X754170Y438117D02*
X754948Y437339D01*
X754170Y432319D02*
X754948Y433097D01*
X699969Y432319D02*
X699191Y433097D01*
X699969Y438117D02*
X699191Y437339D01*
X694170Y438117D02*
X694948Y437339D01*
X694170Y432319D02*
X694948Y433097D01*
X659969Y580350D02*
X659191Y581128D01*
X659969Y586148D02*
X659191Y585371D01*
X654170Y586148D02*
X654948Y585371D01*
X654170Y580350D02*
X654948Y581128D01*
X585605Y523962D02*
X586383Y523184D01*
X585605Y518164D02*
X586383Y518942D01*
X591403Y518164D02*
X590625Y518942D01*
X591403Y523962D02*
X590625Y523184D01*
X470610Y567883D02*
X469833Y567105D01*
X464812Y567883D02*
X465590Y567105D01*
X464812Y562085D02*
X465590Y562863D01*
X470610Y562085D02*
X469833Y562863D01*
X470610Y479088D02*
X469833Y478310D01*
X464812Y479088D02*
X465590Y478310D01*
X464812Y473290D02*
X465590Y474068D01*
X470610Y473290D02*
X469833Y474068D01*
X877727Y651825D02*
X878505Y652603D01*
X883525Y651825D02*
X882747Y652603D01*
X883525Y657624D02*
X882747Y656846D01*
X877727Y657624D02*
X878505Y656846D01*
X759614Y606618D02*
X760392Y605840D01*
X759614Y600820D02*
X760392Y601598D01*
X765412Y600820D02*
X764634Y601598D01*
X765412Y606618D02*
X764634Y605840D01*
X659969Y569956D02*
X659191Y570734D01*
X659969Y575755D02*
X659191Y574977D01*
X654170Y575755D02*
X654948Y574977D01*
X654170Y569956D02*
X654948Y570734D01*
X561268Y591938D02*
X562045Y592716D01*
X567066Y591938D02*
X566288Y592716D01*
X567066Y597736D02*
X566288Y596959D01*
X561268Y597736D02*
X562045Y596959D01*
X1086367Y432333D02*
X1085589Y433110D01*
X1086367Y441683D02*
X1085589Y440905D01*
X1077016Y441683D02*
X1077794Y440905D01*
X1077016Y432333D02*
X1077794Y433110D01*
X470610Y489088D02*
X469833Y488310D01*
X464812Y489088D02*
X465590Y488310D01*
X464812Y483290D02*
X465590Y484068D01*
X470610Y483290D02*
X469833Y484068D01*
X1049942Y497101D02*
X1050720Y497879D01*
X1055740Y497101D02*
X1054963Y497879D01*
X1055740Y502899D02*
X1054963Y502121D01*
X1049942Y502899D02*
X1050720Y502121D01*
X556604Y556489D02*
X557381Y557267D01*
X562402Y556489D02*
X561624Y557267D01*
X562402Y562288D02*
X561624Y561510D01*
X556604Y562288D02*
X557381Y561510D01*
X1037970Y588459D02*
X1038820Y589308D01*
X1037970Y594400D02*
X1038820Y593550D01*
X1047754Y594400D02*
X1046905Y593550D01*
X1047754Y588459D02*
X1046905Y589308D01*
X679484Y649798D02*
X680262Y650576D01*
X685282Y649798D02*
X684505Y650576D01*
X685282Y655596D02*
X684505Y654818D01*
X679484Y655596D02*
X680262Y654818D01*
X1040559Y437731D02*
X1041337Y436953D01*
X1040559Y431933D02*
X1041337Y432711D01*
X1046357Y431933D02*
X1045579Y432711D01*
X1046357Y437731D02*
X1045579Y436953D01*
X571825Y589907D02*
X572603Y589129D01*
X571825Y584109D02*
X572603Y584887D01*
X577624Y584109D02*
X576846Y584887D01*
X577624Y589907D02*
X576846Y589129D01*
X1050054Y556156D02*
X1050831Y556934D01*
X1055852Y556156D02*
X1055074Y556934D01*
X1055852Y561954D02*
X1055074Y561176D01*
X1050054Y561954D02*
X1050831Y561176D01*
X434975Y506786D02*
X435753Y507564D01*
X440773Y506786D02*
X439995Y507564D01*
X440773Y512584D02*
X439995Y511806D01*
X434975Y512584D02*
X435753Y511806D01*
X578075Y497248D02*
X577297Y496471D01*
X573736Y497248D02*
X574514Y496471D01*
X573736Y492909D02*
X574514Y493687D01*
X578075Y492909D02*
X577297Y493687D01*
X1038399Y466473D02*
X1039249Y467322D01*
X1038399Y472414D02*
X1039249Y471565D01*
X1048183Y472414D02*
X1047334Y471565D01*
X1048183Y466473D02*
X1047334Y467322D01*
X759969Y422319D02*
X759191Y423097D01*
X759969Y428117D02*
X759191Y427339D01*
X754170Y428117D02*
X754948Y427339D01*
X754170Y422319D02*
X754948Y423097D01*
X1080886Y541471D02*
X1080108Y542249D01*
X1080886Y547269D02*
X1080108Y546491D01*
X1075088Y547269D02*
X1075866Y546491D01*
X1075088Y541471D02*
X1075866Y542249D01*
X954425Y529883D02*
X953648Y530661D01*
X954425Y535681D02*
X953648Y534904D01*
X948627Y535681D02*
X949405Y534904D01*
X948627Y529883D02*
X949405Y530661D01*
X1053282Y623951D02*
X1054060Y624729D01*
X1059080Y623951D02*
X1058302Y624729D01*
X1059080Y629750D02*
X1058302Y628972D01*
X1053282Y629750D02*
X1054060Y628972D01*
X510616Y419198D02*
X509838Y418421D01*
X504817Y419198D02*
X505595Y418421D01*
X504817Y413400D02*
X505595Y414178D01*
X510616Y413400D02*
X509838Y414178D01*
X954391Y479277D02*
X953613Y478499D01*
X948593Y479277D02*
X949371Y478499D01*
X948593Y473479D02*
X949371Y474257D01*
X954391Y473479D02*
X953613Y474257D01*
X709969Y422319D02*
X709191Y423097D01*
X709969Y428117D02*
X709191Y427339D01*
X704170Y428117D02*
X704948Y427339D01*
X704170Y422319D02*
X704948Y423097D01*
X679614Y636618D02*
X680392Y635840D01*
X679614Y630820D02*
X680392Y631598D01*
X685412Y630820D02*
X684634Y631598D01*
X685412Y636618D02*
X684634Y635840D01*
G74*
X0Y0D02*
M02*
