%
T1C.00787F0S0
X044555Y040142
X048739Y040071
X052915Y041463
X054307Y040071
X055699Y041463
X057091Y040071
X058483Y041463
X059875Y040071
X061267Y041463
X062659Y040071
X064051Y041463
X065442Y040071
X066834Y041463
X068226Y040071
X069618Y041463
X07101Y040071
X072402Y041463
X073794Y040071
X076578Y040071
X07797Y041463
X079362Y040071
X080754Y041463
X082146Y040071
X083538Y041463
X086322Y041463
X089105Y041463
X090497Y040071
X091889Y041463
X093281Y040071
X094673Y041463
X096065Y040071
X097457Y041463
X098849Y040071
X100241Y041463
X101633Y040071
X103025Y041463
X104417Y040071
X105809Y041463
X107201Y042855
X101633Y042855
X100241Y044247
X098849Y042855
X097457Y044247
X096065Y042855
X094673Y044247
X093281Y042855
X091889Y044247
X090497Y042855
X089105Y044247
X087714Y042855
X086322Y044247
X08493Y042855
X083538Y044247
X082146Y042855
X080754Y044247
X079362Y042855
X07797Y044247
X072402Y044247
X066834Y044247
X064051Y044247
X061267Y044247
X059875Y042855
X058483Y044247
X057091Y042855
X055699Y044247
X044563Y044247
X041779Y044247
X040388Y045639
X040388Y048422
X041779Y047031
X041779Y049814
X043171Y045639
X048739Y045639
X052915Y049814
X055699Y049814
X058483Y049814
X059875Y048422
X061267Y049814
X062659Y048422
X064051Y049814
X065442Y048422
X066834Y049814
X068226Y048422
X07101Y048422
X072402Y049814
X073794Y048422
X07797Y049814
X079362Y048422
X080754Y049814
X082146Y048422
X083538Y049814
X08493Y048422
X086322Y049814
X087714Y048422
X089105Y049814
X090497Y048422
X091889Y049814
X096065Y045639
X096065Y048422
X103025Y047031
X105809Y047031
X108593Y049814
X108593Y047031
X108593Y052598
X107201Y051206
X105809Y052598
X101633Y05399
X098849Y05399
X093281Y05399
X090497Y05399
X087714Y05399
X08493Y05399
X082146Y05399
X079362Y05399
X076578Y05399
X073794Y05399
X07101Y05399
X068226Y05399
X065442Y05399
X062659Y05399
X057091Y05399
X053988Y054063
X044827Y052874
X041779Y052598
X040388Y05399
X040388Y051206
X040388Y056774
X041779Y055382
X044906Y057504
X053988Y055587
X057091Y056774
X061267Y055382
X064051Y055382
X066834Y055382
X069618Y055382
X072402Y055382
X075186Y055382
X076578Y056774
X07797Y055382
X079362Y056774
X080754Y055382
X082146Y056774
X083538Y055382
X08493Y056774
X086322Y055382
X087714Y056774
X089105Y055382
X090497Y056774
X091889Y055382
X093281Y056774
X096065Y056774
X097457Y055382
X098849Y056774
X100241Y055382
X101633Y056774
X105809Y055382
X107201Y056774
X108593Y055382
X108593Y058166
X107201Y059558
X105809Y058166
X094673Y058166
X093281Y059558
X091889Y058166
X090497Y059558
X089105Y058166
X087714Y059558
X086322Y058166
X08493Y059558
X083538Y058166
X082146Y059558
X080754Y058166
X079362Y059558
X07797Y058166
X076578Y059558
X074744Y059551
X073252Y059299
X072244Y059059
X070709Y059059
X070252Y059587
X069709Y059299
X068709Y059587
X055699Y058166
X054307Y059558
X053409Y059484
X052915Y058166
X048327Y058799
X043171Y059558
X041779Y058166
X040388Y059558
X040388Y062342
X041779Y06095
X043171Y062342
X044563Y06095
X048739Y062342
X05372Y060945
X054307Y062342
X057091Y062342
X058483Y06095
X059875Y062342
X061267Y06095
X062659Y062342
X064051Y06095
X065442Y062342
X068226Y062342
X07797Y06095
X080754Y06095
X083538Y06095
X08493Y062342
X086322Y06095
X087714Y062342
X089105Y06095
X090497Y062342
X091889Y06095
X093281Y062342
X094673Y06095
X096065Y062342
X098849Y062342
X101633Y062342
X105809Y06095
X107201Y062342
X108593Y06095
X105809Y063734
X101633Y065126
X100241Y063734
X098849Y065126
X097457Y063734
X096065Y065126
X094673Y063734
X093281Y065126
X091889Y063734
X089105Y063734
X086322Y063734
X079362Y065126
X07797Y063734
X076578Y065126
X073794Y065126
X07101Y065126
X064051Y063734
X062659Y065126
X061267Y063734
X059875Y065126
X058483Y063734
X057091Y065126
X055699Y063734
X054307Y065126
X05372Y064811
X053409Y066071
X052915Y063734
X044587Y065976
X044563Y063734
T2C.01181F095S3
X040157Y040945
X040388Y040388
X040388Y041502
X040945Y041732
X040945Y040157
X041502Y041502
X041502Y040388
X041732Y040945
X107874Y040945
X108105Y040388
X108105Y041502
X108661Y040157
X108661Y041732
X109218Y041502
X109218Y040388
X109449Y040945
X109218Y064798
X108661Y064567
X108105Y064798
X041502Y064798
X040945Y064567
X040388Y064798
X040157Y065354
X040388Y065911
X040945Y066142
X041502Y065911
X041732Y065354
X107874Y065354
X108105Y065911
X108661Y066142
X109218Y065911
X109449Y065354
T3C.02362F197S55
X057591Y049508
X057591Y048957
X057591Y048406
T4C.035F197S55
X044114Y041917
X045417Y041917
X046771Y044619
X046772Y04163
X046772Y040248
X046772Y042933
X049771Y044619
X050772Y040248
X050772Y04163
X050772Y042933
X052494Y044017
X053732Y04402
X060707Y042522
X060707Y043522
X061707Y042522
X061707Y043522
X062707Y042522
X062707Y043522
X063707Y042522
X063707Y043522
X064707Y042522
X064707Y043522
X065707Y042522
X065707Y043522
X066707Y042522
X066707Y043522
X067707Y042522
X067707Y043522
X068707Y042522
X068707Y043522
X069707Y042522
X069707Y043522
X070707Y042522
X070707Y043522
X071707Y042522
X071707Y043522
X072707Y042522
X072707Y043522
X073707Y042522
X073707Y043522
X074707Y042522
X074707Y043522
X075707Y042522
X075707Y043522
X083063Y040465
X084063Y040465
X085063Y040465
X086063Y040465
X087063Y040465
X104346Y044483
X104346Y043483
X107799Y047925
X105284Y05
X104329Y045944
X104329Y046944
X104329Y047944
X104284Y05
X095149Y047638
X094149Y047638
X05885Y048106
X053732Y04802
X052494Y048017
X049771Y047619
X049771Y048619
X049771Y049619
X049771Y046619
X049771Y045619
X046771Y047619
X046771Y049619
X046771Y048619
X046771Y046619
X046771Y045619
X045417Y045917
X044114Y045917
X045413Y051327
X046771Y050619
X046771Y054498
X046771Y053498
X049771Y053498
X049771Y054498
X049771Y050619
X051949Y053516
X05195Y054707
X053719Y050221
X054719Y050221
X055949Y053516
X05595Y054707
X057472Y054701
X05885Y052106
X094153Y050278
X094153Y053278
X095153Y053278
X095153Y050278
X096153Y053278
X096153Y050278
X097153Y050278
X097153Y053278
X107799Y054437
X107799Y051925
X107799Y053437
X105295Y055906
X104295Y055906
X095646Y055232
X094646Y055232
X075707Y057286
X074707Y057286
X073707Y057286
X072707Y057286
X071707Y057286
X070707Y057286
X069707Y057286
X068707Y057286
X067707Y057286
X066707Y057286
X065707Y057286
X064707Y057286
X063707Y057286
X062707Y057286
X061707Y057286
X060707Y057286
X05595Y055939
X051961Y057331
X05195Y055939
X049771Y056498
X049771Y057498
X049771Y055498
X046771Y056498
X046771Y057498
X046771Y055498
X045413Y055327
X046771Y058498
X046771Y059498
X04678Y061055
X04678Y062306
X049771Y058498
X049771Y059498
X05078Y061055
X05078Y062306
X051961Y058331
X052417Y059484
X052441Y060943
X056417Y059484
X056441Y060943
X057472Y058701
X060707Y058325
X061707Y058325
X062707Y058325
X063707Y058325
X064707Y058325
X065707Y058325
X065728Y060406
X066707Y058325
X067251Y060372
X067707Y058325
X068251Y060372
X068707Y058325
X069251Y060372
X069707Y058325
X070251Y060372
X070707Y058325
X071251Y060372
X071707Y058325
X072251Y060372
X072707Y058325
X073251Y060372
X073707Y058325
X074251Y060372
X074707Y058325
X075251Y060372
X075707Y058325
X076251Y060372
X104286Y059143
X104286Y058143
X104286Y060143
X105618Y062685
X104618Y062685
X089063Y065472
X088063Y065472
X087063Y065472
X086063Y065472
X085063Y065472
X084063Y065472
X083063Y065472
X082063Y065472
X081063Y065472
X076251Y063372
X075251Y063372
X074251Y063372
X073251Y063372
X072251Y063372
X071251Y063372
X070251Y063372
X069251Y063372
X068251Y063372
X068238Y06527
X067251Y063372
X067238Y06527
X065728Y064406
X05078Y064809
X05078Y063548
X05078Y066069
X04678Y066069
X04678Y063548
X04678Y064809
T5C.037F197S55
X051523Y040071
X054307Y042855
T6C.03937F197S55
X042669Y051514
X042669Y052604
X042669Y053695
X042669Y054785
X043787Y05315
X043787Y052059
X043787Y050969
X043787Y05424
X043787Y055331
T7C.05512F107S55
X054142Y057327
X055201Y048016
X074705Y040819
X108169Y043701
X108169Y045669
X052429Y062529
T8C.11811F069S658
X040945Y040945
X040945Y065354
X108661Y065354
X108661Y040945
T9C.12992F035S794
X043228Y048189
X043228Y05811
T10C.14961F035S9
X096985Y059143
X098069Y046944
M30
